<?xml version="1.0" encoding="UTF-8"?>
<svg id="Capa_1" data-name="Capa 1" xmlns="http://www.w3.org/2000/svg" width="431.97" height="126.7" viewBox="0 0 431.97 126.7">
  <defs>
    <style>
      .cls-1 {
        stroke-width: 0px;
      }
    </style>
  </defs>
  <g>
    <path class="cls-1" d="m141.75,45.43h-10.77c-.8,2.51-1.66,4.69-2.58,6.54-.92,1.85-1.95,3.38-3.07,4.6-1.12,1.22-2.36,2.12-3.7,2.71-1.34.59-2.84.89-4.5.89-.91,0-1.79-.08-2.64-.24-.85-.16-1.59-.39-2.24-.67-.65-.29-1.17-.62-1.56-1.01-.39-.39-.59-.81-.59-1.27,0-.34.05-.69.16-1.04.11-.35.25-.68.44-.97.19-.3.42-.53.7-.71.28-.18.59-.27.93-.27.3,0,.57.21.8.63s.52.88.87,1.38c.35.5.8.97,1.36,1.38s1.31.63,2.28.63,1.93-.24,2.83-.71,1.76-1.22,2.58-2.24c.83-1.02,1.62-2.32,2.38-3.9.76-1.58,1.5-3.48,2.23-5.71h-6.74v-2.51h7.48c.63-2.13,1.24-4.28,1.84-6.45.6-2.17,1.17-4.25,1.7-6.25.53-2,1.01-3.87,1.43-5.61.42-1.74.77-3.26,1.06-4.56-.38-1.07-.9-1.78-1.56-2.14s-1.54-.54-2.64-.54c-1.03,0-2.09.16-3.18.47-1.09.31-2.09.76-2.98,1.34-.89.58-1.63,1.3-2.21,2.14-.58.85-.87,1.79-.87,2.84,0,.61.08,1.09.24,1.46s.35.63.57.81.43.29.64.34.37.07.49.07c.46,0,.84-.08,1.16-.24.31-.16.59-.33.83-.51.24-.18.47-.35.7-.51.23-.16.49-.24.77-.24.21,0,.44.05.7.16.26.11.49.27.71.5.22.23.4.53.56.9s.23.82.23,1.36c0,.76-.15,1.42-.44,1.97-.3.55-.68,1.01-1.14,1.38-.47.37-1,.65-1.6.83-.6.18-1.19.27-1.78.27-.91,0-1.74-.17-2.47-.5-.73-.33-1.36-.78-1.87-1.36-.51-.57-.9-1.24-1.17-2-.27-.76-.4-1.56-.4-2.4,0-1.26.21-2.41.63-3.47s1-2.02,1.74-2.88c.74-.87,1.62-1.63,2.63-2.28,1.01-.66,2.1-1.21,3.27-1.66s2.39-.79,3.67-1.01c1.28-.23,2.56-.34,3.85-.34,1.83,0,3.37.15,4.64.44,1.27.3,2.33.73,3.18,1.31.86.58,1.55,1.31,2.07,2.2.52.89.96,1.91,1.3,3.07l6.14,21.1h6.2v2.51h-5.51l2.23,7.48c.08.29.15.55.23.8s.17.46.27.64c.1.18.24.33.4.44.16.11.37.17.61.17.53,0,1.03-.09,1.49-.27.46-.18.86-.37,1.2-.56l.49,1.06c-.34.25-.78.53-1.3.84-.52.31-1.12.61-1.8.9-.68.29-1.42.52-2.24.71-.82.19-1.69.29-2.63.29-1.29,0-2.34-.16-3.13-.49-.79-.32-1.41-.72-1.86-1.2s-.77-.98-.97-1.51c-.2-.53-.36-1-.47-1.4l-2.28-7.91Zm-5.54-19.3c-.78,3.18-1.54,6.17-2.27,8.97s-1.46,5.41-2.18,7.82h9.31l-4.85-16.79Z"/>
    <path class="cls-1" d="m192.18,54.97c0,.25-.04.54-.11.89-.08.34-.26.67-.56.97s-.74.57-1.33.78c-.59.22-1.39.33-2.4.33s-1.8-.12-2.38-.36c-.58-.24-1.02-.52-1.31-.84-.3-.32-.48-.66-.56-1-.08-.34-.11-.62-.11-.83v-20.19c0-.27-.04-.54-.11-.81s-.19-.53-.34-.76c-.15-.23-.34-.41-.57-.56-.23-.14-.5-.21-.8-.21-.51,0-1.02.15-1.51.44-.5.29-.96.63-1.39,1.01-.43.38-.8.76-1.11,1.14-.31.38-.54.67-.67.86v19.13c0,.25-.04.54-.11.89-.08.34-.26.67-.56.97-.3.3-.73.57-1.31.78s-1.38.33-2.38.33-1.8-.12-2.38-.36c-.58-.24-1.02-.52-1.33-.84-.3-.32-.5-.66-.57-1-.08-.34-.11-.62-.11-.83v-22.04c0-.55-.13-1.03-.39-1.44-.26-.41-.69-.61-1.3-.61-.32,0-.6.06-.83.17-.23.11-.48.28-.74.49l-.6-.71c.44-.36.93-.72,1.47-1.07.54-.35,1.13-.66,1.76-.93.63-.27,1.3-.49,2.03-.66s1.49-.26,2.28-.26c1.24,0,2.2.2,2.88.61s1.19.9,1.51,1.47.52,1.17.59,1.78c.07.62.1,1.14.1,1.56.89-1.01,1.86-1.91,2.88-2.71.42-.34.88-.68,1.38-1,.5-.32,1.02-.61,1.56-.87.53-.26,1.09-.46,1.66-.61.57-.15,1.14-.23,1.71-.23,1.1,0,2.05.2,2.83.6.78.4,1.41.88,1.89,1.44.48.56.82,1.15,1.04,1.77.22.62.33,1.16.33,1.61.91-1.01,1.87-1.91,2.88-2.71.42-.34.88-.68,1.37-1,.49-.32,1.01-.61,1.56-.87.54-.26,1.09-.46,1.66-.61.56-.15,1.13-.23,1.7-.23,1.1,0,2.05.2,2.83.61.78.41,1.41.95,1.89,1.61.48.67.82,1.42,1.04,2.26.22.84.33,1.68.33,2.51v17.68c0,.17,0,.36.03.56s.07.39.14.57c.08.18.19.33.36.44.16.11.38.17.64.17.36,0,.69-.13.97-.39.29-.26.55-.52.8-.79l.69.6c-.27.4-.62.84-1.06,1.33s-.96.95-1.56,1.38c-.6.44-1.3.8-2.08,1.1-.79.29-1.68.44-2.67.44-.84,0-1.57-.11-2.18-.33s-1.14-.51-1.57-.89c-.43-.37-.75-.81-.96-1.31-.21-.5-.31-1.04-.31-1.61v-19.08c0-.27-.04-.54-.11-.81s-.19-.53-.33-.76c-.14-.23-.33-.41-.56-.56-.23-.14-.49-.21-.8-.21-.51,0-1.02.15-1.53.44-.5.29-.97.63-1.4,1.01-.43.38-.8.76-1.1,1.14-.3.38-.52.67-.66.86v19.13Z"/>
    <path class="cls-1" d="m229.83,54.91c0,.25-.04.55-.13.9s-.29.69-.6,1c-.31.31-.77.58-1.36.8-.59.22-1.39.33-2.4.33s-1.8-.12-2.37-.36c-.57-.24-1-.52-1.29-.84s-.46-.66-.53-1c-.07-.34-.1-.62-.1-.83v-22.04c0-.55-.13-1.03-.39-1.44-.26-.41-.69-.61-1.3-.61-.32,0-.6.06-.83.17-.23.11-.48.28-.74.49l-.6-.71c.44-.36.93-.72,1.47-1.07.54-.35,1.13-.66,1.76-.93.63-.27,1.3-.49,2.03-.66.72-.17,1.49-.26,2.28-.26,1.24,0,2.2.17,2.88.5s1.19.74,1.51,1.23.52,1,.59,1.56c.07.55.1,1.04.1,1.46v22.33Zm-9.65-33.58c0-.53.12-1.04.36-1.53.24-.49.57-.91,1-1.27.43-.36.92-.65,1.49-.86.56-.21,1.18-.31,1.84-.31s1.25.1,1.81.31c.56.21,1.05.5,1.47.86.42.36.75.78.98,1.27s.36,1,.36,1.53-.12,1.07-.36,1.54-.57.89-.98,1.24c-.42.35-.91.63-1.47.84-.56.21-1.17.31-1.81.31s-1.28-.1-1.84-.31c-.56-.21-1.06-.49-1.49-.84-.43-.35-.76-.77-1-1.24-.24-.48-.36-.99-.36-1.54Z"/>
    <path class="cls-1" d="m252.05,30.12c-.44,0-.85.06-1.24.17-.39.11-.74.3-1.04.56s-.54.58-.71.97c-.17.39-.26.85-.26,1.38,0,.74.27,1.48.81,2.21.54.73,1.22,1.49,2.03,2.28.81.79,1.69,1.61,2.63,2.46.94.85,1.82,1.74,2.63,2.68.81.94,1.49,1.95,2.03,3.01.54,1.07.81,2.21.81,3.43,0,1.37-.23,2.59-.7,3.66-.47,1.07-1.13,1.97-2,2.71-.87.74-1.91,1.31-3.14,1.7-1.23.39-2.59.59-4.1.59-1.31,0-2.5-.19-3.57-.56-1.07-.37-2.01-.83-2.84-1.37-.83-.54-1.54-1.12-2.13-1.73-.59-.61-1.05-1.16-1.37-1.66l1-.71c.25.29.56.6.94.93.38.33.8.64,1.27.93.47.29.97.52,1.5.7.53.18,1.08.27,1.63.27,1.37,0,2.49-.33,3.37-.98.88-.66,1.31-1.63,1.31-2.93,0-.72-.24-1.47-.71-2.24-.48-.77-1.08-1.57-1.8-2.38-.72-.82-1.5-1.67-2.34-2.54-.84-.88-1.62-1.78-2.34-2.71-.72-.93-1.32-1.89-1.8-2.88-.48-.99-.71-2.02-.71-3.08,0-1.2.24-2.25.73-3.14.49-.89,1.13-1.64,1.94-2.23.81-.59,1.73-1.03,2.77-1.33,1.04-.3,2.11-.44,3.21-.44,1.28,0,2.44.11,3.48.34s1.95.58,2.7,1.04c.75.47,1.33,1.05,1.74,1.76.41.7.61,1.52.61,2.46,0,.72-.24,1.35-.71,1.88-.48.53-1.14.8-2,.8s-1.44-.18-1.87-.53c-.43-.35-.64-.83-.64-1.44,0-.4.1-.71.3-.94.2-.23.42-.41.67-.56.25-.14.47-.27.67-.37.2-.1.3-.24.3-.41,0-.53-.29-.96-.86-1.27-.57-.31-1.3-.47-2.2-.47Z"/>
    <path class="cls-1" d="m279.55,30.29v21.1c0,1.01.19,1.71.57,2.1.38.39.9.59,1.57.59.51,0,.97-.14,1.37-.43.4-.29.74-.61,1.03-.97.34-.4.64-.87.89-1.4l.89.4c-.29.61-.62,1.28-1.01,2-.39.72-.91,1.39-1.56,2.01s-1.46,1.14-2.44,1.56c-.98.42-2.21.63-3.7.63-.84,0-1.64-.12-2.41-.37-.77-.25-1.46-.64-2.06-1.17s-1.08-1.2-1.44-2c-.36-.8-.54-1.76-.54-2.88v-21.16h-3.2v-2.06c.53,0,1.28-.14,2.23-.41.95-.28,1.93-.74,2.93-1.38,1-.65,1.93-1.51,2.78-2.6s1.47-2.43,1.83-4.03h2.28v8.42h4.65c1.52,0,2.28-.26,2.28-.77,0-.19-.09-.32-.29-.39s-.4-.15-.64-.26c-.24-.11-.45-.25-.64-.44-.19-.19-.29-.5-.29-.94,0-.53.17-.95.5-1.26.33-.3.77-.46,1.3-.46.34,0,.64.07.9.21.26.14.47.33.64.57.17.24.3.51.39.81.09.3.13.61.13.91,0,1.24-.36,2.22-1.07,2.96-.71.73-1.86,1.1-3.44,1.1h-4.43Z"/>
    <path class="cls-1" d="m304.17,30.18c-.65,0-1.25.08-1.8.23-.55.15-1.03.34-1.43.57-.4.23-.71.48-.94.76-.23.28-.34.54-.34.78,0,.29.15.49.44.61.29.12.62.27.98.43s.69.39.99.69c.29.3.44.75.44,1.36,0,.4-.08.77-.24,1.1-.16.33-.38.63-.66.89-.28.26-.6.46-.97.6-.37.14-.76.21-1.16.21-1.07,0-1.93-.36-2.58-1.09s-.98-1.69-.98-2.88.3-2.16.91-2.98c.61-.83,1.4-1.51,2.38-2.04.98-.53,2.09-.93,3.33-1.18,1.24-.26,2.47-.39,3.71-.39,1.49,0,2.9.16,4.25.49,1.35.32,2.55.84,3.58,1.54,1.04.7,1.87,1.6,2.48,2.68s.93,2.4.93,3.94v16.13c0,.17,0,.36.03.57.02.21.07.4.14.57.08.17.19.31.34.43.15.11.37.17.66.17.34,0,.66-.13.96-.39.29-.26.56-.52.78-.79l.71.6c-.29.4-.63.84-1.03,1.31-.4.48-.89.92-1.46,1.34s-1.24.77-2,1.06c-.76.29-1.63.43-2.6.43-1.2,0-2.27-.36-3.2-1.07-.93-.71-1.54-1.81-1.83-3.3-.61.82-1.24,1.5-1.9,2.06-.66.55-1.33,1-2.01,1.34-.69.34-1.38.59-2.07.74-.7.15-1.39.23-2.1.23-.91,0-1.8-.14-2.66-.43s-1.62-.74-2.3-1.36c-.68-.62-1.22-1.42-1.63-2.41-.41-.99-.61-2.2-.61-3.63,0-1.73.34-3.15,1.03-4.25.69-1.1,1.59-2.03,2.7-2.78,1.11-.75,2.38-1.39,3.8-1.93,1.42-.53,2.87-1.09,4.36-1.68,1.1-.44,1.91-1.09,2.41-1.96.5-.87.76-1.76.76-2.67,0-1.41-.41-2.54-1.24-3.38-.83-.85-1.96-1.27-3.38-1.27Zm4.54,12.51c0-.48-.15-.84-.46-1.09-.3-.25-.69-.37-1.17-.37-.67,0-1.3.15-1.9.46-.6.3-1.13.75-1.59,1.34-.46.59-.82,1.32-1.08,2.18-.27.87-.4,1.87-.4,3.01s.08,2.02.24,2.74c.16.72.38,1.3.66,1.73.28.43.59.73.96.9.36.17.74.26,1.14.26.49,0,.96-.13,1.4-.39s.82-.59,1.14-.98c.32-.4.58-.85.77-1.34.19-.49.29-.99.29-1.48v-6.97Z"/>
    <path class="cls-1" d="m346.28,29.41c-.36-1.9-.87-3.68-1.51-5.33-.65-1.65-1.42-3.07-2.33-4.27-.9-1.2-1.93-2.14-3.08-2.83-1.15-.68-2.39-1.03-3.73-1.03-.76,0-1.45.1-2.07.29-.62.19-1.16.41-1.61.67-.46.26-.83.5-1.13.74s-.51.41-.64.53l-.74-1c.46-.59,1.01-1.14,1.67-1.66.66-.51,1.38-.95,2.16-1.31.78-.36,1.6-.65,2.47-.86.87-.21,1.73-.31,2.58-.31,2.82,0,5.29.61,7.43,1.84,2.13,1.23,3.91,2.96,5.34,5.21,1.43,2.25,2.5,4.96,3.23,8.14.72,3.18,1.08,6.71,1.08,10.59,0,3.14-.32,5.9-.96,8.28s-1.55,4.37-2.73,5.98c-1.18,1.61-2.61,2.82-4.3,3.63-1.68.81-3.58,1.21-5.7,1.21-1.47,0-2.96-.26-4.47-.78-1.51-.52-2.88-1.38-4.11-2.56-1.23-1.18-2.23-2.73-3.01-4.64-.78-1.91-1.17-4.26-1.17-7.04,0-2.4.34-4.53,1.01-6.4.68-1.87,1.58-3.44,2.73-4.73,1.14-1.28,2.47-2.26,3.97-2.94,1.5-.68,3.09-1.01,4.77-1.01.65,0,1.23.05,1.74.16.51.11.96.23,1.34.39.38.15.71.32,1,.5.29.18.54.36.77.53Zm.34,12.57v-1.27c0-.64-.02-1.37-.06-2.2-.04-.83-.1-1.71-.2-2.64-.09-.93-.25-1.8-.46-2.6-.46-.59-.97-1.12-1.53-1.59-.56-.47-1.28-.7-2.16-.7-1.49,0-2.58.97-3.27,2.91s-1.04,4.95-1.04,9.02c0,1.79.08,3.43.24,4.91.16,1.48.41,2.76.74,3.83.33,1.07.76,1.89,1.29,2.48.52.59,1.15.89,1.87.89,3.05,0,4.57-4.35,4.57-13.05Z"/>
  </g>
  <g>
    <path class="cls-1" d="m40.16,68.48c0-1.89-.02-3.62-.05-5.2-.03-1.58-.06-2.95-.09-4.13-.03-1.17-.06-2.1-.09-2.79s-.05-1.09-.05-1.22c-.42-.29-.89-.45-1.42-.47-.53-.02-1.05-.03-1.57-.03-.73,0-1.6.17-2.62.51-1.02.34-2,.83-2.96,1.46-.96.63-1.77,1.41-2.43,2.34-.67.92-1,1.96-1,3.1,0,.67.09,1.19.27,1.59.18.39.38.69.62.89.24.2.48.32.72.37.24.05.41.08.51.08.52,0,.95-.09,1.28-.26.33-.18.63-.36.9-.56.27-.2.52-.38.76-.56s.51-.27.83-.27c.25,0,.51.06.79.17.28.11.54.3.78.55.24.25.44.58.61.98.17.4.25.9.25,1.48,0,.83-.16,1.55-.48,2.15-.32.6-.74,1.11-1.25,1.51-.51.4-1.09.71-1.74.9s-1.3.3-1.95.3c-1,0-1.9-.17-2.69-.51-.8-.34-1.48-.81-2.04-1.42s-.99-1.31-1.28-2.12c-.29-.81-.44-1.67-.44-2.59,0-2.16.45-4.04,1.36-5.65.9-1.61,2.11-2.95,3.61-4.03,1.51-1.08,3.24-1.89,5.2-2.41,1.96-.53,3.99-.79,6.09-.79,1.89,0,3.45.12,4.67.37,1.23.25,2.22.58,2.99,1,.77.42,1.37.91,1.81,1.48.44.57.81,1.17,1.12,1.79,1.27,2.58,2.5,5.11,3.69,7.6,1.19,2.49,2.35,4.92,3.46,7.29,1.11,2.37,2.19,4.65,3.24,6.84,1.05,2.19,2.07,4.26,3.07,6.22v-14.08c0-1.72.05-3.41.14-5.06.09-1.65.29-3.21.59-4.67s.75-2.81,1.36-4.03,1.41-2.28,2.41-3.18c1.01-.89,2.26-1.59,3.75-2.09,1.5-.5,3.29-.75,5.39-.75,1.06,0,2.04.08,2.93.23.89.16,1.67.38,2.32.67s1.17.65,1.54,1.07c.37.43.56.9.56,1.42,0,.33-.05.68-.14,1.04s-.23.69-.42.98c-.19.29-.42.54-.7.73-.28.2-.61.3-.98.3-.31,0-.6-.22-.86-.65-.26-.44-.58-.92-.97-1.45-.39-.53-.89-1.01-1.53-1.45-.63-.44-1.49-.65-2.57-.65-1.68,0-3.08.3-4.19.89s-2.01,1.43-2.69,2.51c-.69,1.08-1.19,2.39-1.51,3.94s-.52,3.27-.61,5.16c-.04,1.31-.08,2.58-.11,3.82-.03,1.24-.05,2.49-.06,3.75-.01,1.27-.02,2.58-.02,3.94v4.38c0,2.2.01,4.17.03,5.92.02,1.74.05,3.18.09,4.3.93,1.6,1.86,3.04,2.77,4.31.91,1.28,1.81,2.36,2.69,3.24s1.77,1.56,2.66,2.04c.89.48,1.8.72,2.71.72.29,0,.57-.04.84-.13s.51-.18.72-.28c.23-.1.46-.24.69-.41l1,1.22c-.29.21-.7.46-1.23.75s-1.17.57-1.93.84c-.76.27-1.63.5-2.6.69-.98.19-2.05.28-3.21.28-1.68,0-3.3-.41-4.84-1.23-1.55-.82-3.04-1.95-4.47-3.38s-2.8-3.11-4.11-5.03c-1.31-1.92-2.57-3.98-3.78-6.18-1.22-2.2-2.38-4.5-3.5-6.88-1.12-2.39-2.21-4.75-3.26-7.09s-2.06-4.6-3.02-6.79c-.97-2.19-1.91-4.2-2.82-6.03,0,1.21.01,2.45.03,3.74.02,1.29.03,2.59.03,3.89v9.66c0,1.72-.04,3.41-.12,5.05-.08,1.64-.28,3.19-.59,4.66s-.76,2.81-1.36,4.05-1.4,2.3-2.41,3.19c-1.02.89-2.27,1.59-3.77,2.09s-3.29.75-5.39.75c-1.06,0-2.04-.08-2.93-.23-.89-.16-1.67-.38-2.32-.67-.65-.29-1.16-.64-1.53-1.06-.36-.41-.55-.89-.55-1.43,0-.33.05-.68.14-1.04.09-.36.23-.69.42-.98s.42-.53.69-.73.59-.3.97-.3c.21,0,.4.1.58.31s.36.47.56.78c.2.31.43.65.69,1.01.26.36.57.7.93,1.01.36.31.8.57,1.32.78.52.21,1.14.31,1.87.31,1.68,0,3.08-.3,4.19-.89s2.01-1.43,2.69-2.52c.69-1.09,1.18-2.4,1.5-3.94.31-1.54.51-3.26.59-5.17.06-1.31.1-2.58.12-3.8.02-1.23.04-2.47.06-3.74.02-1.27.03-2.59.03-3.96v-4.39Z"/>
    <path class="cls-1" d="m96.92,95.62c0,.27-.05.6-.14.98s-.31.75-.65,1.09c-.34.34-.84.63-1.48.87-.64.24-1.52.36-2.62.36s-1.96-.13-2.59-.39c-.62-.26-1.09-.57-1.4-.92-.31-.35-.5-.72-.58-1.09-.07-.37-.11-.67-.11-.9v-24.05c0-.6-.14-1.13-.42-1.57-.28-.45-.75-.67-1.42-.67-.35,0-.65.06-.9.19-.25.12-.52.3-.81.53l-.65-.78c.48-.39,1.01-.78,1.6-1.17s1.23-.72,1.92-1.01c.69-.29,1.42-.53,2.21-.72.79-.19,1.62-.28,2.49-.28,1.35,0,2.4.18,3.15.55s1.3.81,1.65,1.34c.35.53.57,1.1.64,1.7.07.6.11,1.13.11,1.59v24.36Zm-10.53-36.64c0-.58.13-1.14.39-1.67s.62-.99,1.09-1.39c.47-.39,1.01-.71,1.62-.93.61-.23,1.28-.34,2.01-.34s1.37.11,1.98.34c.61.23,1.15.54,1.6.93.46.4.82.86,1.08,1.39.26.53.39,1.09.39,1.67s-.13,1.16-.39,1.68c-.26.52-.62.97-1.08,1.35-.46.39-.99.69-1.6.92-.61.23-1.27.34-1.98.34s-1.4-.11-2.01-.34c-.61-.23-1.15-.53-1.62-.92-.47-.38-.83-.84-1.09-1.35s-.39-1.08-.39-1.68Z"/>
    <path class="cls-1" d="m109.8,78.82c0-2.12.37-3.97,1.11-5.56.74-1.59,1.73-2.92,2.97-3.99,1.25-1.07,2.69-1.87,4.33-2.4,1.64-.53,3.36-.79,5.17-.79s3.52.24,5.14.72,3.05,1.22,4.3,2.21c.39-.6.72-1.24.97-1.9.25-.66.37-1.33.37-1.99,0-.87-.23-1.57-.7-2.09-.47-.52-1.07-.78-1.79-.78v-.9c.46-.14.86-.27,1.22-.39.35-.11.67-.2.97-.26.29-.06.58-.11.87-.14s.61-.05.97-.05c.98,0,1.72.3,2.24.9.52.6.78,1.43.78,2.49,0,.62-.15,1.24-.44,1.85-.29.61-.65,1.2-1.09,1.76-.44.56-.92,1.09-1.45,1.59s-1.03.93-1.51,1.31c.87,1,1.55,2.16,2.03,3.49.48,1.33.72,2.85.72,4.55,0,2.14-.37,4.03-1.11,5.67-.74,1.64-1.73,3.02-2.97,4.14-1.25,1.12-2.69,1.97-4.33,2.54s-3.36.86-5.17.86c-1.06,0-2.1-.09-3.12-.28-1.02-.19-1.97-.46-2.87-.81-.33.25-.62.56-.86.94-.24.37-.36.79-.36,1.25,0,.77.33,1.34,1,1.71.66.37,1.55.64,2.65.81s2.35.27,3.74.31c1.39.04,2.82.11,4.28.2,1.46.09,2.89.27,4.28.53,1.39.26,2.64.69,3.74,1.28,1.1.59,1.98,1.4,2.65,2.41.66,1.02,1,2.34,1,3.96,0,1.18-.25,2.25-.75,3.19-.5.94-1.17,1.78-2.01,2.49s-1.82,1.33-2.93,1.84c-1.11.51-2.28.92-3.52,1.25-1.24.32-2.49.55-3.77.7-1.28.15-2.5.22-3.66.22-2.12,0-4.02-.11-5.72-.33-1.69-.22-3.13-.56-4.31-1.01-1.18-.46-2.1-1.05-2.74-1.78-.64-.73-.97-1.6-.97-2.62,0-.73.17-1.4.5-2.01s.77-1.17,1.32-1.68c.55-.51,1.17-.97,1.85-1.37s1.38-.78,2.09-1.14c-1.04-.44-1.91-1.1-2.6-1.98-.7-.88-1.04-2.05-1.04-3.5,0-.77.14-1.48.41-2.13s.62-1.26,1.04-1.81.89-1.05,1.4-1.5,1-.83,1.48-1.14c-.85-.5-1.64-1.11-2.35-1.82s-1.33-1.53-1.84-2.43c-.51-.9-.9-1.91-1.18-3.01-.28-1.1-.42-2.29-.42-3.58Zm22.52,27.63c0-.67-.26-1.21-.78-1.64-.52-.43-1.2-.77-2.04-1.03s-1.8-.46-2.87-.59c-1.07-.14-2.15-.24-3.26-.31-1.1-.07-2.17-.14-3.21-.2-1.04-.06-1.94-.15-2.71-.25-.44.31-.86.65-1.26,1.01-.4.36-.76.75-1.06,1.15-.3.41-.55.83-.73,1.28-.19.45-.28.9-.28,1.36,0,.79.23,1.45.69,1.98.46.53,1.08.95,1.85,1.26.78.31,1.68.53,2.71.65,1.03.12,2.11.19,3.26.19,1.52,0,2.88-.13,4.08-.39,1.2-.26,2.22-.61,3.05-1.06.83-.45,1.46-.96,1.9-1.54.44-.58.65-1.21.65-1.87Zm-4.73-27.88c0-1.2-.06-2.38-.19-3.52-.12-1.14-.34-2.16-.65-3.05-.31-.89-.74-1.61-1.28-2.17-.54-.55-1.24-.83-2.09-.83s-1.55.29-2.09.86c-.54.57-.97,1.32-1.28,2.24-.31.92-.53,1.97-.65,3.15-.13,1.17-.19,2.36-.19,3.57s.06,2.43.19,3.61c.12,1.18.34,2.24.65,3.18.31.93.74,1.69,1.28,2.26.54.57,1.24.86,2.09.86s1.55-.3,2.09-.9c.54-.6.97-1.39,1.28-2.35.31-.97.53-2.05.65-3.26.13-1.2.19-2.42.19-3.64Z"/>
    <path class="cls-1" d="m159.99,72.66c.79-1.2,1.63-2.29,2.52-3.27.37-.41.78-.82,1.22-1.21s.89-.75,1.36-1.06c.47-.31.95-.56,1.45-.75.5-.19,1-.28,1.5-.28,1.06,0,1.89.32,2.49.95.6.63.9,1.52.9,2.66,0,.71-.06,1.39-.17,2.04s-.34,1.45-.67,2.38h-.87c-.12-.64-.42-1.18-.87-1.6-.46-.43-1.12-.64-1.99-.64-.64,0-1.28.12-1.9.36-.62.24-1.23.54-1.82.89-.59.35-1.15.74-1.68,1.15s-1.01.81-1.45,1.18v20.22c0,.27-.04.59-.12.97-.08.37-.29.73-.61,1.06-.32.33-.8.62-1.43.86-.63.24-1.5.36-2.6.36s-1.97-.13-2.6-.39c-.63-.26-1.12-.57-1.45-.92s-.54-.72-.62-1.09c-.08-.37-.12-.67-.12-.9v-24.05c0-.6-.14-1.13-.42-1.57-.28-.45-.75-.67-1.42-.67-.35,0-.65.06-.9.19-.25.12-.52.3-.81.53l-.65-.78c.48-.39,1.01-.78,1.6-1.17s1.23-.72,1.92-1.01c.69-.29,1.42-.53,2.21-.72.79-.19,1.62-.28,2.49-.28s1.66.12,2.29.36c.63.24,1.15.55,1.56.94.4.38.72.82.95,1.29.23.48.4.96.51,1.45.11.49.18.96.2,1.4.02.45.03.83.03,1.14Z"/>
    <path class="cls-1" d="m179.12,82.47c0-2.72.39-5.1,1.18-7.15.79-2.05,1.84-3.75,3.16-5.12,1.32-1.37,2.85-2.4,4.59-3.08,1.74-.69,3.57-1.03,5.48-1.03s3.74.32,5.48.95c1.74.63,3.28,1.6,4.59,2.91,1.32,1.31,2.37,2.96,3.16,4.97.79,2,1.18,4.38,1.18,7.12s-.4,5.13-1.18,7.23c-.79,2.1-1.84,3.86-3.16,5.3-1.32,1.43-2.85,2.52-4.59,3.26-1.75.74-3.57,1.11-5.48,1.11s-3.74-.35-5.48-1.04c-1.75-.7-3.28-1.73-4.59-3.1-1.32-1.37-2.37-3.08-3.16-5.14-.79-2.06-1.18-4.44-1.18-7.17Zm19.16-.31c0-1.66-.06-3.27-.17-4.81-.11-1.55-.34-2.92-.67-4.13-.33-1.2-.81-2.17-1.43-2.88-.62-.72-1.44-1.08-2.46-1.08s-1.84.38-2.46,1.14c-.62.76-1.1,1.76-1.43,2.99s-.55,2.64-.65,4.22c-.1,1.58-.16,3.2-.16,4.86s.05,3.29.16,4.88c.1,1.59.32,3.01.65,4.25.33,1.25.81,2.25,1.43,3.01.62.76,1.44,1.14,2.46,1.14s1.84-.39,2.46-1.18c.62-.79,1.1-1.83,1.43-3.12.33-1.29.55-2.74.67-4.36.11-1.62.17-3.26.17-4.92Z"/>
    <path class="cls-1" d="m246.72,95.68c0,.27-.04.59-.13.97-.08.37-.29.73-.61,1.06-.32.33-.81.62-1.45.86-.64.24-1.52.36-2.62.36s-1.97-.13-2.6-.39c-.63-.26-1.11-.57-1.43-.92-.32-.35-.53-.72-.61-1.09-.08-.37-.12-.67-.12-.9v-22.02c0-.29-.04-.59-.13-.89s-.21-.58-.37-.83c-.17-.25-.37-.45-.62-.61s-.54-.23-.87-.23c-.56,0-1.11.16-1.65.48-.54.32-1.04.69-1.51,1.11-.47.42-.87.83-1.22,1.25-.34.42-.59.73-.73.93v20.87c0,.27-.04.59-.12.97-.08.37-.29.73-.61,1.06-.32.33-.8.62-1.43.86-.63.24-1.5.36-2.6.36s-1.97-.13-2.6-.39c-.63-.26-1.12-.57-1.45-.92s-.54-.72-.62-1.09c-.08-.37-.12-.67-.12-.9v-24.05c0-.6-.14-1.13-.42-1.57-.28-.45-.75-.67-1.42-.67-.35,0-.65.06-.9.19-.25.12-.52.3-.81.53l-.65-.78c.48-.39,1.01-.78,1.6-1.17s1.23-.72,1.92-1.01c.69-.29,1.42-.53,2.21-.72.79-.19,1.62-.28,2.49-.28,1.35,0,2.4.22,3.15.67s1.3.98,1.65,1.6c.35.62.57,1.27.64,1.95.07.67.11,1.24.11,1.7.98-1.1,2.03-2.09,3.15-2.96.46-.37.96-.74,1.51-1.09.55-.35,1.12-.67,1.7-.95.58-.28,1.18-.5,1.81-.67.62-.17,1.25-.25,1.87-.25,1.2,0,2.23.22,3.08.65.85.44,1.54.96,2.06,1.57.52.61.9,1.26,1.14,1.93.24.67.36,1.26.36,1.76,1-1.1,2.05-2.09,3.15-2.96.46-.37.95-.74,1.5-1.09.54-.35,1.11-.67,1.7-.95.59-.28,1.19-.5,1.81-.67.61-.17,1.23-.25,1.85-.25,1.2,0,2.23.22,3.08.67s1.54,1.03,2.06,1.76c.52.73.9,1.55,1.14,2.46.24.91.36,1.83.36,2.74v19.28c0,.19.01.39.03.61.02.22.07.43.16.62.08.2.21.36.39.48s.41.19.7.19c.39,0,.75-.14,1.06-.42.31-.28.6-.57.87-.86l.75.65c-.29.44-.68.92-1.15,1.45-.48.53-1.04,1.03-1.7,1.51-.65.48-1.41.88-2.27,1.2-.86.32-1.83.48-2.91.48-.91,0-1.71-.12-2.38-.36-.67-.24-1.25-.56-1.71-.97-.47-.41-.82-.88-1.04-1.43-.23-.55-.34-1.14-.34-1.76v-20.81c0-.29-.04-.59-.12-.89-.08-.3-.2-.58-.36-.83-.16-.25-.36-.45-.61-.61-.25-.16-.54-.23-.87-.23-.56,0-1.12.16-1.67.48-.55.32-1.06.69-1.53,1.11-.47.42-.87.83-1.2,1.25-.33.42-.57.73-.72.93v20.87Z"/>
    <path class="cls-1" d="m286.93,68.64c-.71,0-1.36.08-1.96.25-.6.17-1.12.37-1.56.62-.44.25-.78.52-1.03.83-.25.3-.37.59-.37.86,0,.31.16.53.48.67.32.14.68.29,1.07.47.39.18.75.43,1.08.75.32.32.48.82.48,1.48,0,.44-.09.84-.26,1.2-.18.36-.42.69-.72.97-.3.28-.65.5-1.06.65-.4.16-.83.23-1.26.23-1.16,0-2.1-.39-2.82-1.18-.72-.79-1.08-1.84-1.08-3.15s.33-2.35,1-3.26c.66-.9,1.53-1.65,2.6-2.23,1.07-.58,2.28-1.01,3.63-1.29,1.35-.28,2.7-.42,4.05-.42,1.62,0,3.17.18,4.64.53,1.47.35,2.78.91,3.91,1.68,1.13.77,2.04,1.74,2.71,2.93.67,1.18,1.01,2.62,1.01,4.3v17.6c0,.19.01.39.03.62.02.23.07.44.16.62.08.19.21.34.37.47s.41.19.72.19c.37,0,.72-.14,1.04-.42.32-.28.61-.57.86-.86l.78.65c-.31.44-.69.91-1.12,1.43-.44.52-.97,1.01-1.59,1.46-.62.46-1.35.84-2.18,1.15s-1.78.47-2.83.47c-1.31,0-2.47-.39-3.49-1.17-1.02-.78-1.68-1.98-1.99-3.6-.67.89-1.36,1.64-2.07,2.24-.72.6-1.45,1.09-2.2,1.46-.75.37-1.5.64-2.26.81-.76.17-1.52.25-2.29.25-1,0-1.96-.16-2.9-.47-.93-.31-1.77-.8-2.51-1.48-.74-.67-1.33-1.55-1.78-2.63-.45-1.08-.67-2.4-.67-3.96,0-1.89.37-3.44,1.12-4.64.75-1.2,1.73-2.22,2.94-3.04,1.21-.82,2.6-1.52,4.14-2.1,1.55-.58,3.13-1.19,4.75-1.84,1.2-.48,2.08-1.19,2.63-2.13.55-.94.83-1.92.83-2.91,0-1.54-.45-2.77-1.36-3.69-.9-.92-2.13-1.39-3.69-1.39Zm4.95,13.64c0-.52-.17-.91-.5-1.18-.33-.27-.76-.4-1.28-.4-.73,0-1.42.17-2.07.5s-1.23.82-1.73,1.46c-.5.64-.89,1.44-1.18,2.38s-.44,2.04-.44,3.29.09,2.2.26,2.99c.18.79.42,1.42.72,1.89s.65.79,1.04.98.81.28,1.25.28c.54,0,1.05-.14,1.53-.42s.89-.64,1.25-1.07c.35-.44.63-.92.84-1.46s.31-1.08.31-1.62v-7.6Z"/>
    <path class="cls-1" d="m334.27,82.91c0-2.62-.12-4.71-.36-6.28-.24-1.57-.56-2.76-.95-3.58-.39-.82-.83-1.36-1.31-1.62-.48-.26-.97-.39-1.46-.39-.6,0-1.14.16-1.6.48-.47.32-.87.69-1.22,1.11-.34.42-.63.83-.87,1.25-.24.42-.44.73-.61.93v20.81c0,.27-.04.6-.12.98-.08.38-.29.75-.61,1.09-.32.34-.8.63-1.43.87-.63.24-1.5.36-2.6.36s-1.97-.13-2.6-.39c-.63-.26-1.12-.57-1.45-.92s-.54-.72-.62-1.09c-.08-.37-.12-.67-.12-.9v-24.05c0-.6-.14-1.13-.42-1.57-.28-.45-.75-.67-1.42-.67-.35,0-.65.06-.9.19-.25.12-.52.3-.81.53l-.65-.78c.48-.39,1.01-.78,1.6-1.17s1.23-.72,1.92-1.01c.69-.29,1.42-.53,2.21-.72.79-.19,1.62-.28,2.49-.28,1.35,0,2.4.22,3.15.67s1.3.98,1.65,1.6c.35.62.57,1.27.64,1.95.07.67.11,1.24.11,1.7.77-1.1,1.64-2.09,2.62-2.96.39-.37.84-.74,1.32-1.09.49-.35,1.01-.67,1.56-.95.55-.28,1.13-.5,1.75-.67.61-.17,1.24-.25,1.88-.25,1.41,0,2.66.27,3.75.81,1.09.54,2.01,1.44,2.76,2.71s1.32,2.94,1.71,5.03c.39,2.09.59,4.68.59,7.77s-.27,5.63-.81,7.85c-.54,2.22-1.25,4.11-2.12,5.67-.87,1.56-1.86,2.83-2.96,3.82-1.1.99-2.21,1.76-3.33,2.32-1.12.56-2.2.95-3.22,1.17-1.03.22-1.92.34-2.66.36l-.34-1.28c.62-.15,1.2-.37,1.73-.69.53-.31,1.01-.77,1.45-1.37.44-.6.82-1.37,1.15-2.29.33-.92.62-2.08.86-3.47.24-1.39.42-3.04.53-4.94.11-1.9.17-4.12.17-6.65Z"/>
    <path class="cls-1" d="m366.69,68.76v23.02c0,1.1.21,1.86.62,2.29.42.43.99.64,1.71.64.56,0,1.06-.16,1.5-.47.44-.31.81-.66,1.12-1.06.37-.44.7-.95.97-1.53l.96.44c-.31.67-.68,1.39-1.11,2.18-.42.79-.99,1.52-1.7,2.2-.71.68-1.59,1.24-2.66,1.7-1.07.46-2.41.69-4.03.69-.91,0-1.79-.14-2.63-.41s-1.59-.7-2.24-1.28c-.65-.58-1.18-1.31-1.57-2.18-.39-.87-.59-1.92-.59-3.15v-23.08h-3.49v-2.24c.58,0,1.39-.15,2.43-.45,1.04-.3,2.1-.8,3.19-1.51,1.09-.71,2.1-1.65,3.04-2.83.94-1.18,1.6-2.65,1.99-4.39h2.49v9.19h5.08c1.66,0,2.49-.28,2.49-.84,0-.21-.1-.35-.31-.42-.21-.07-.44-.17-.7-.28-.26-.11-.49-.27-.7-.48-.21-.21-.31-.55-.31-1.03,0-.58.18-1.04.55-1.37.36-.33.84-.5,1.42-.5.37,0,.7.08.98.23.28.16.52.36.7.62.19.26.33.56.42.89.09.33.14.67.14,1,0,1.35-.39,2.42-1.17,3.22-.78.8-2.03,1.2-3.75,1.2h-4.83Z"/>
    <path class="cls-1" d="m391.87,84.12c0,.66.1,1.39.3,2.16.2.78.48,1.56.86,2.35.37.79.84,1.54,1.39,2.26.55.72,1.18,1.36,1.9,1.92.72.56,1.51,1.01,2.38,1.34.87.33,1.83.5,2.87.5.73,0,1.4-.08,2.02-.25.62-.17,1.2-.39,1.74-.69s1.06-.63,1.56-1.01c.5-.38,1-.79,1.5-1.23l.78.75c-.48.64-1.09,1.35-1.84,2.12-.75.77-1.65,1.49-2.71,2.17-1.06.68-2.3,1.24-3.71,1.68-1.41.45-3.02.67-4.83.67s-3.57-.33-5.28-.98c-1.71-.65-3.23-1.64-4.56-2.94s-2.39-2.94-3.19-4.89c-.8-1.95-1.2-4.24-1.2-6.85,0-1.89.24-3.62.72-5.2.48-1.58,1.13-3,1.95-4.27.82-1.27,1.78-2.38,2.87-3.33s2.24-1.75,3.44-2.38,2.44-1.11,3.69-1.43c1.26-.32,2.47-.48,3.63-.48,1.54,0,2.88.17,4.02.5,1.14.33,2.09.78,2.85,1.34.76.56,1.32,1.21,1.7,1.95.37.74.56,1.51.56,2.32,0,.98-.28,1.85-.84,2.63s-1.31,1.46-2.24,2.04l-12.31,7.26Zm6.26-6.32c.27-.17.49-.33.67-.48.18-.16.32-.34.42-.56.1-.22.18-.49.23-.81.05-.32.08-.72.08-1.2,0-.52-.06-1.1-.17-1.73-.11-.63-.31-1.23-.58-1.79-.27-.56-.61-1.03-1.03-1.4-.42-.37-.91-.56-1.5-.56-.75,0-1.39.22-1.92.67-.53.45-.97,1.02-1.31,1.73-.34.71-.61,1.51-.81,2.41s-.35,1.81-.45,2.73c-.1.91-.17,1.79-.19,2.63-.02.84-.03,1.55-.03,2.13l6.57-3.77Z"/>
  </g>
  <path class="cls-1" d="m113.42,36.46l-5.7-.09c-1.03-2.46-5.43-12.85-5.43-12.85,0,0-3.98,9.54-5.08,12.61-1.69.07-6.18.4-6.18.4v1.3s7.61.4,7.61.4l.18-.4c.18-.4,2.69-6.58,3.58-8.98.1.22,4.25,9.16,4.25,9.16l6.79-.15v-1.41Z"/>
  <path class="cls-1" d="m110.1,18c-1.43-.55-2.65,1.59-3.4,2.64-.36-.25-.76-.46-1.17-.64.39-.54.75-1.11,1.11-1.76.55-.63.79-1.79.27-2.89-2.27,0-2.21,2.48-2.59,4.26-.41-.09-.84-.15-1.28-.18.18-.77.33-1.51.44-2.36.27-.81.06-2-.82-2.84-1.07.49-1.56,1.35-1.22,2.84.11.86.26,1.61.44,2.38-.53.04-1.05.14-1.55.28-.13-.78-.29-1.52-.53-2.35-.07-.87-.71-1.85-1.88-2.29-1.61,1.66.29,3.48,1.29,5.04-.42.19-.81.41-1.19.66-.35-.58-.72-1.13-1.18-1.73-.37-.76-1.3-1.41-2.53-1.36-.89,1.96,1.26,2.94,2.69,3.91-1.05.99-1.76,2.33-2.11,3.76l1.23.48c2.22-6,9.54-5.49,12.25-.1l1.13-.46c-.26-1.4-.85-2.77-1.76-3.73,1.25-.85,2.87-1.38,2.84-3.41l-.51-.16Z"/>
  <path class="cls-1" d="m109.25,46.77c-.55-.42-1.09-.79-1.61-1.11,1.05-.99,1.76-2.33,2.11-3.76l-1.23-.48c-2.22,6-9.54,5.49-12.25.1l-1.13.46c.26,1.4.85,2.77,1.76,3.73-1.25.85-2.87,1.38-2.84,3.41,1.89.94,2.94-1.13,3.92-2.48.36.25.76.47,1.17.64-.39.54-.75,1.11-1.11,1.76-.55.63-.79,1.79-.27,2.89,2.26,0,2.21-2.49,2.59-4.26.41.09.84.15,1.28.18-.18.77-.33,1.51-.44,2.36-.27.81-.06,2,.82,2.84,1.07-.49,1.56-1.35,1.22-2.84-.11-.86-.26-1.6-.44-2.38.53-.04,1.05-.14,1.55-.28.13.78.29,1.52.53,2.35.07.87.72,1.85,1.88,2.29,1.61-1.66-.29-3.48-1.29-5.04.42-.19.81-.41,1.18-.66.35.58.72,1.13,1.18,1.73.37.76,1.3,1.41,2.53,1.36.43-1.07.17-2.04-1.08-2.8"/>
  <path class="cls-1" d="m379.15,38.96c1.46-3.26,1.63-6.37.42-8.52-1.37-2.43-4.11-3.03-6.18-3.1-4.87-.3-6.96,1.43-7.84,2.93-1.3,2.19-.96,5.36.9,8.84l-5.86.1v1.46l8.85.16-.63-1.06s-.03-.05-.04-.08l-.34-.61c-1.82-3.35-2.23-6.17-1.13-7.82,1.03-1.54,3.41-2.09,6.9-1.6,1.64.23,2.72.87,3.3,1.97.98,1.86.37,4.79-.66,7.25l-.24.55c-.09.19-.79,1.61-.79,1.61l8.25-.41v-1.38s-3.28-.22-4.9-.29"/>
  <path class="cls-1" d="m380.58,14.91h-2.36c-.44.02-1.76.09-1.76.09-5.64.45-8.08,2.83-8.91,3.9-1.39,1.81-1.74,4.1-1.03,6.8l.18.7,1.4-.43-.14-.63c-.47-2.07-.14-3.82,1-5.21.96-1.18,2.52-2.05,4.38-2.51-.91,1.2-1.34,2.52-1.19,3.82.23,2.09,1.88,3.75,4.66,4.68l.57.19.59-1.2-.55-.33c-1.97-1.17-2.98-2.37-3-3.58-.02-1.19.87-2.51,2.67-3.92,0,0,1.16-.84,1.53-1.08l1.98-1.29Z"/>
  <path class="cls-1" d="m378.91,52.9c-.37-.24-1.53-1.08-1.53-1.08-1.8-1.41-2.69-2.73-2.67-3.92.02-1.21,1.04-2.42,3-3.58l.55-.33-.59-1.2-.57.19c-2.77.93-4.43,2.59-4.66,4.68-.14,1.29.29,2.61,1.19,3.81-1.85-.46-3.42-1.33-4.38-2.51-1.13-1.38-1.47-3.14-1-5.21l.14-.63-1.4-.43-.18.7c-.71,2.7-.36,4.99,1.03,6.8.83,1.08,3.27,3.46,8.91,3.9,0,0,1.32.07,1.76.07h2.36s-1.98-1.27-1.98-1.27Z"/>
</svg>