<?xml version="1.0" encoding="UTF-8"?>
<svg id="Capa_1" data-name="Capa 1" xmlns="http://www.w3.org/2000/svg" width="118.72" height="78.81" viewBox="0 0 118.72 78.81">
  <defs>
    <style>
      .cls-1, .cls-2 {
        stroke-width: 0px;
      }

      .cls-2 {
        fill: #fff;
      }
    </style>
  </defs>
  <rect class="cls-1" x="9.11" y="9.4" width="100.49" height="60.01"/>
  <rect class="cls-2" x="11.39" y="11" width="95.83" height="39.02"/>
  <path class="cls-1" d="m71.04,24.69c-3.88.11-9.35,8.44-9.35,8.44l6.96-14.49c-.8-.91-3.42-1.25-3.42-1.25-2.17,2.51-8.71,18.25-8.71,18.25-.95,1.94-6.24,7.41-11.49,8.67-5.25,1.25-1.14-7.53-1.14-7.53,1.03,1.14,14.37-1.71,12.43-7.98-1.94-6.27-7.41-4.33-7.41-4.33-12.21,7.41-10.38,19.16-10.38,19.16-3.76-.46-18.94.68-18.94.68,1.14-8.44,13.35-28.63,13.35-28.63-.57-1.94-4.11-2.4-4.11-2.4,0,0-12.89,23.95-14.37,29.09-1.48,5.13,3.65,5.82,3.65,5.82,6.16-2.05,22.02-3.08,22.02-3.08,0,0,.46.57,4.11,1.37,3.65.8,9.92-5.93,9.92-5.93l-.68,2.28c-.68,2.28,3.99,3.65,3.99,3.65,2.17-9.58,9.7-16.93,9.7-16.93,0,0,6.16-7.71,2.28,4.04-3.88,11.75-10.63,10.86-10.63,10.86.59.56,1.55.99,2.98,1.24,10.49,1.83,13.12-15.17,13.12-15.17.34-2.28,0-5.93-3.88-5.82Zm-22.39,4.3c4.01-4.51,4.79-1.6,4.79-1.6,0,0,.81,2.11-3.42,5.86s-4.79,2.13-4.79,2.13c0,0-.59-1.88,3.42-6.39Z"/>
  <path class="cls-1" d="m80.08,25.39s3.75.51,3.85,1.93c0,0-3.24,5.07-3.3,6.54s5.58-7.91,7.81-8.97,4.31-1.17,5.68,2.18c0,0-4.87,7.76-5.53,7.25,0,0-.53-4.18.51-7.1,0,0-.66-1.27-4.01,4.01-3.35,5.27-7.55,10.39-7.76,15.51,0,0-4.56-2.28-4.56-4.92s7.3-16.43,7.3-16.43Z"/>
  <path class="cls-1" d="m96.71,24.93s4.01.61,4.21,1.93c0,0-7.15,13.94-7.71,20.43,0,0-4.97-1.67-4.36-4.46.61-2.79,7.86-17.9,7.86-17.9Z"/>
  <path class="cls-1" d="m94.12,21.08l.51,1.88s6.84.56,9.79-3.19l-.61-4.41s-2.18,4.36-9.68,5.73Z"/>
  <g>
    <path class="cls-2" d="m15.97,63.2v-6.51h8.72v1.1h-6.34v1.44h3.01v1.1h-3.01v1.77h6.57v1.1h-8.94Z"/>
    <path class="cls-2" d="m26.92,56.69h4.34c.98,0,1.72.04,2.24.12.69.11,1.28.31,1.77.6.49.29.87.64,1.12,1.06.26.42.38.93.38,1.54,0,.54-.12,1-.36,1.39-.29.47-.71.86-1.26,1.15-.41.22-.97.4-1.67.52-.52.09-1.22.14-2.1.14h-4.47v-6.51Zm2.37,1.1v4.31h1.77c.66,0,1.14-.02,1.44-.06.38-.05.7-.14.96-.27.25-.13.46-.34.62-.63.16-.29.24-.69.24-1.19s-.08-.89-.24-1.16c-.16-.27-.38-.48-.67-.63-.29-.15-.65-.25-1.1-.31-.33-.04-.98-.06-1.95-.06h-1.07Z"/>
    <path class="cls-2" d="m38.71,63.2v-6.51h2.37v6.51h-2.37Z"/>
    <path class="cls-2" d="m45.99,63.2v-5.41h-3.49v-1.1h9.34v1.1h-3.48v5.41h-2.37Z"/>
    <path class="cls-2" d="m52.6,59.98c0-.66.18-1.22.54-1.67.27-.33.63-.63,1.09-.89.46-.26.97-.46,1.52-.59.73-.17,1.58-.26,2.53-.26,1.73,0,3.12.3,4.16.89,1.04.6,1.56,1.42,1.56,2.48s-.52,1.87-1.55,2.47c-1.03.59-2.41.89-4.14.89s-3.14-.3-4.17-.89c-1.03-.59-1.55-1.4-1.55-2.44Zm2.6-.04c0,.74.31,1.3.92,1.68.61.38,1.24.57,2.19.57s1.57-.19,2.18-.57c.61-.38,1.21-.94,1.21-1.7s-.37-1.3-.96-1.67c-.59-.37-1.45-.55-2.43-.55s-1.61.19-2.21.56c-.6.37-.9.93-.9,1.68Z"/>
    <path class="cls-2" d="m65.86,63.2v-6.51h5c1.26,0,2.17.06,2.74.18.57.12,1.02.33,1.37.62.34.3.51.64.51,1.03,0,.49-.26.89-.78,1.21-.52.32-1.29.52-2.33.6.51.17.94.35,1.27.55.33.2.78.55,1.35,1.06l1.44,1.27h-2.84l-1.72-1.42c-.61-.51-1.03-.83-1.25-.96-.22-.13-.46-.22-.71-.27-.25-.05-.65-.07-1.19-.07h-.48v2.72h-2.37Zm2.37-3.76h1.76c1.14,0,1.85-.03,2.13-.08.28-.05.51-.15.67-.28.16-.13.24-.29.24-.49,0-.22-.11-.4-.32-.53-.21-.13-.51-.22-.89-.26-.19-.01-.77-.02-1.73-.02h-1.85v1.65Z"/>
    <path class="cls-2" d="m77.64,63.2v-6.51h2.37v6.51h-2.37Z"/>
    <path class="cls-2" d="m92.88,63.2h-2.58l-1.03-1.48h-4.7l-.97,1.48h-2.52l4.58-6.51h2.51l4.71,6.51Zm-4.37-2.58l-1.62-2.42-1.59,2.42h3.21Z"/>
    <path class="cls-2" d="m94.2,63.2v-6.46h2.37v5.36h5.9v1.1h-8.27Z"/>
  </g>
</svg>