<?xml version="1.0" encoding="UTF-8"?>
<svg id="Capa_1" data-name="Capa 1" xmlns="http://www.w3.org/2000/svg" width="512" height="512" viewBox="0 0 512 512">
  <defs>
    <style>
      .cls-1 {
        stroke-width: 0px;
      }
    </style>
  </defs>
  <path class="cls-1" d="m453.88,147.75l-137.83-73.4v44.23s-155.39,157.01-114.06,297.43h98.88v-108.12h58.04v108.12h30.15s-30.98-149.68,61.02-238.31l3.81-29.95Z"/>
  <path class="cls-1" d="m306.94,115.9v-20.1s-168.95,85.84-171.61,273.1c-.04,2.83,1.15,5.57,3.23,7.51l37.11,34.63c1.65,1.54,4.35.16,4-2.06-4.99-31.72-15.78-165.61,127.27-293.08"/>
  <path class="cls-1" d="m241.2,102.08c-.13-1.62-.54-3.2-1.39-4.64-3.74-6.41-13.41-7.8-21.61-3.12-8.2,4.69-11.81,13.68-8.08,20.08,1.15,1.97,2.91,3.41,4.96,4.4-10.46,7.5-21.28,16.28-32.17,26.55-.31-.49-.6-.99-1-1.44-4.97-5.52-14.73-4.94-21.79,1.29-7.06,6.24-8.76,15.77-3.79,21.29,1.05,1.17,2.35,2,3.76,2.63-7.12,8.18-14.18,17.07-21.09,26.72-.26-.24-.46-.52-.74-.73-5.93-4.5-15.41-2.11-21.16,5.33-5.75,7.44-5.61,17.12.33,21.61,1.03.78,2.2,1.28,3.4,1.66-7.4,12.45-14.5,25.94-21.21,40.54-.89-.78-1.85-1.47-2.97-1.94-6.89-2.88-15.45,1.8-19.12,10.43-3.68,8.63-1.07,17.96,5.81,20.84,1.18.49,2.42.69,3.67.76-.74,1.93-10.92,21.85-13.84,42.37-7.42-.47-13.96,6.65-14.63,15.96-.68,9.35,4.82,17.35,12.27,17.88,1.05.07,2.07-.04,3.07-.25,5.8,27,26.78,53.24,83.32,60.69,1.31.17,1.96-1.53.83-2.2-13.27-7.94-44.3-33.33-35.88-93.76,6.38-32.46,44.31-191.09,184.77-248.71v-10.04s-28.02,4.41-65.74,25.81"/>
  <path class="cls-1" d="m452.3,496H59.7c-24.1,0-43.7-19.41-43.7-43.27V59.27c0-23.86,19.61-43.27,43.7-43.27h392.59c24.1,0,43.7,19.41,43.7,43.27v393.46c0,23.86-19.61,43.27-43.7,43.27M59.7,38.91c-11.34,0-20.56,9.13-20.56,20.36v393.46c0,11.23,9.22,20.36,20.56,20.36h392.59c11.34,0,20.56-9.13,20.56-20.36V59.27c0-11.23-9.22-20.36-20.56-20.36H59.7Z"/>
</svg>