<?xml version="1.0" encoding="UTF-8"?>
<svg id="Capa_1" data-name="Capa 1" xmlns="http://www.w3.org/2000/svg" width="110" height="110" viewBox="0 0 110 110">
  <defs>
    <style>
      .cls-1 {
        fill: #facdad;
      }

      .cls-1, .cls-2, .cls-3, .cls-4, .cls-5, .cls-6, .cls-7, .cls-8, .cls-9, .cls-10 {
        stroke-width: 0px;
      }

      .cls-2 {
        fill: #501510;
      }

      .cls-3 {
        fill: #4d4847;
      }

      .cls-4 {
        fill: #ccbebd;
      }

      .cls-5 {
        fill: #8e6950;
      }

      .cls-6 {
        fill: #8e0c25;
      }

      .cls-7 {
        fill: #665f5f;
      }

      .cls-8 {
        fill: #f0c1a0;
      }

      .cls-9 {
        fill: #ffbf00;
      }

      .cls-10 {
        fill: #ecdcdb;
      }
    </style>
  </defs>
  <path id="path77856" class="cls-8" d="m35.43,47.61s1.9-29.88-.68-37.67c14.13,4.41,40.5,3.76,46.99,1.21-2.74,12.63-3.77,37.41-3.77,37.41l-42.54-.95Z"/>
  <path id="path77585" class="cls-9" d="m32.79,51.01l-.31,5.63,49.66-.51-.49-6.71-48.86,1.58Z"/>
  <path id="path75721" class="cls-7" d="m27.73,46.6s-.29-5.26,1.59-6.85c1.88-1.59,18.4-7.44,19.8-5.96,1.4,1.48,1.35,4.76,1.35,4.76l-18.63,3.54-.41,4.12-3.7.39Z"/>
  <path id="path75719" class="cls-7" d="m86.22,46.68l4.12-.03s2.01,2.43.05,5.14c-1.67.13-5.03-.18-5.03-.18l.86-4.94Z"/>
  <path id="path75717" class="cls-7" d="m25.47,46.68l-4.12-.03s-2.01,2.43-.05,5.14c1.67.13,5.03-.18,5.03-.18l-.86-4.94Z"/>
  <path id="path75551" class="cls-2" d="m29.56,45.03l54.88-.33.38,4.83-58.35-.35,3.09-4.15Z"/>
  <path id="path68762" class="cls-6" d="m81.86,54.55s-24.12-2.81-49.55.8c-6.88,4.19-8.77,6.51-8.77,6.51,0,0-1,5.75-.95,9.28-6.52,5.35-15.25,15.99-15.25,15.99l-.07,9.64c31.72,3.06,63.85,2.99,96.38,0v-10.61l-12.81-15.32-1.03-9.23-7.96-7.07Z"/>
  <path id="path74407" class="cls-9" d="m43.23,55.47c-1.93.32-6.47.26-7.67,2.38-1.2,2.12,14.12,1.94,14.12,1.94l-.41,2.34,16.22-.3-.14-2.07s11.12.76,11.44-2.13c.1-.88-2.74-2.1-6.77-2.59-4.23-.51-24.21.02-26.79.44h0Z"/>
  <path id="path75489" class="cls-9" d="m28.36,63.47l-1.79,6.89,61.83.25-1.29-7.94-58.75.79Z"/>
  <path id="path75495" class="cls-3" d="m26.87,47.94l57.86-.6-.9,6.21-55.96-.22-1-5.4Z"/>
  <path id="path75491" class="cls-6" d="m31.22,43.06l-4.62.2-2.72,3.21.92,9.9,6.19-.17-1.21-10.42,1.45-2.71Z"/>
  <path id="path75493" class="cls-6" d="m80.53,43.04l2.02,2.64-1.19,9.83,5.52-.48.98-9.77-2.5-2.69-4.83.48Z"/>
  <path id="path75661" class="cls-7" d="m31.44,49.02l48.77-.49-.47,1.91-47.71.29-.6-1.71Z"/>
  <path id="path75723" class="cls-9" d="m9.3,89.1l-.07,6.45c-2.59.99,68.19,4.91,91.92-.33-.13-4.03.25-7.84.25-7.84,0,0-37.22,6.6-92.1,1.72h0Z"/>
  <g id="g75939">
    <g id="g75865">
      <path id="path75861" class="cls-4" d="m33.58,73.98c0,.57-1.28,1.03-2.87,1.03-1.58,0-2.87-.46-2.87-1.03v-.89c0-.57,1.28-1.03,2.87-1.03,1.58,0,2.87.46,2.87,1.03v.89Z"/>
      <path id="ellipse75863" class="cls-10" d="m30.72,72.06c1.58,0,2.87.46,2.87,1.03s-1.28,1.03-2.87,1.03-2.87-.46-2.87-1.03,1.28-1.03,2.87-1.03Z"/>
    </g>
    <g id="g75871">
      <path id="path75867" class="cls-4" d="m40.97,74.03c0,.57-1.28,1.03-2.87,1.03s-2.87-.46-2.87-1.03v-.89c0-.57,1.28-1.03,2.87-1.03s2.87.46,2.87,1.03v.89Z"/>
      <path id="ellipse75869" class="cls-10" d="m38.1,72.11c1.58,0,2.87.46,2.87,1.03s-1.28,1.03-2.87,1.03-2.87-.46-2.87-1.03,1.28-1.03,2.87-1.03Z"/>
    </g>
    <g id="g75877">
      <path id="path75873" class="cls-4" d="m48.35,74.2c0,.57-1.28,1.03-2.87,1.03s-2.87-.46-2.87-1.03v-.89c0-.57,1.28-1.03,2.87-1.03s2.87.46,2.87,1.03v.89Z"/>
      <path id="ellipse75875" class="cls-10" d="m45.48,72.27c1.58,0,2.87.46,2.87,1.03s-1.28,1.03-2.87,1.03-2.87-.46-2.87-1.03,1.28-1.03,2.87-1.03Z"/>
    </g>
    <g id="g75883">
      <path id="path75879" class="cls-4" d="m55.73,74.14c0,.57-1.28,1.03-2.87,1.03s-2.87-.46-2.87-1.03v-.89c0-.57,1.28-1.03,2.87-1.03s2.87.46,2.87,1.03v.89Z"/>
      <path id="ellipse75881" class="cls-10" d="m52.86,72.21c1.58,0,2.87.46,2.87,1.03s-1.28,1.03-2.87,1.03-2.87-.46-2.87-1.03,1.28-1.03,2.87-1.03Z"/>
    </g>
    <g id="g75889">
      <path id="path75885" class="cls-4" d="m63.11,73.99c0,.57-1.28,1.03-2.87,1.03s-2.87-.46-2.87-1.03v-.89c0-.57,1.28-1.03,2.87-1.03s2.87.46,2.87,1.03v.89Z"/>
      <ellipse id="ellipse75887" class="cls-10" cx="60.24" cy="73.1" rx="2.87" ry="1.03"/>
    </g>
    <g id="g75895">
      <path id="path75891" class="cls-4" d="m70.49,73.82c0,.57-1.28,1.03-2.87,1.03-1.58,0-2.87-.46-2.87-1.03v-.89c0-.57,1.28-1.03,2.87-1.03s2.87.46,2.87,1.03v.89Z"/>
      <path id="ellipse75893" class="cls-10" d="m67.62,71.89c1.58,0,2.87.46,2.87,1.03s-1.28,1.03-2.87,1.03-2.87-.46-2.87-1.03,1.28-1.03,2.87-1.03Z"/>
    </g>
    <g id="g75901">
      <path id="path75897" class="cls-4" d="m77.87,73.71c0,.57-1.28,1.03-2.87,1.03s-2.87-.46-2.87-1.03v-.89c0-.57,1.28-1.03,2.87-1.03s2.87.46,2.87,1.03v.89Z"/>
      <ellipse id="ellipse75899" class="cls-10" cx="75" cy="72.82" rx="2.87" ry="1.03"/>
    </g>
    <g id="g75907">
      <path id="path75903" class="cls-4" d="m85.25,73.61c0,.57-1.28,1.03-2.87,1.03s-2.87-.46-2.87-1.03v-.89c0-.57,1.28-1.03,2.87-1.03s2.87.46,2.87,1.03v.89Z"/>
      <path id="ellipse75905" class="cls-10" d="m82.38,71.68c1.58,0,2.87.46,2.87,1.03s-1.28,1.03-2.87,1.03-2.87-.46-2.87-1.03,1.28-1.03,2.87-1.03Z"/>
    </g>
  </g>
  <g id="g76063">
    <g id="g76007">
      <path id="path76003" class="cls-4" d="m30.07,77.44c0,.59-1.28,1.06-2.85,1.06s-2.85-.48-2.85-1.06v-.92c0-.59,1.28-1.06,2.85-1.06s2.85.48,2.85,1.06v.92Z"/>
      <path id="ellipse76005" class="cls-10" d="m27.22,75.46c1.58,0,2.85.48,2.85,1.06s-1.28,1.06-2.85,1.06-2.85-.48-2.85-1.06,1.28-1.06,2.85-1.06Z"/>
    </g>
    <g id="g76013">
      <path id="path76009" class="cls-4" d="m37.41,77.61c0,.59-1.28,1.06-2.85,1.06s-2.85-.48-2.85-1.06v-.92c0-.59,1.28-1.06,2.85-1.06s2.85.48,2.85,1.06v.92Z"/>
      <path id="ellipse76011" class="cls-10" d="m34.56,75.62c1.58,0,2.85.48,2.85,1.06s-1.28,1.06-2.85,1.06-2.85-.48-2.85-1.06,1.28-1.06,2.85-1.06Z"/>
    </g>
    <g id="g76019">
      <path id="path76015" class="cls-4" d="m44.76,77.65c0,.59-1.28,1.06-2.85,1.06s-2.85-.48-2.85-1.06v-.92c0-.59,1.28-1.06,2.85-1.06s2.85.48,2.85,1.06v.92Z"/>
      <path id="ellipse76017" class="cls-10" d="m41.9,75.67c1.58,0,2.85.48,2.85,1.06s-1.28,1.06-2.85,1.06-2.85-.48-2.85-1.06,1.28-1.06,2.85-1.06Z"/>
    </g>
    <g id="g76025">
      <path id="path76021" class="cls-4" d="m52.1,77.83c0,.59-1.28,1.06-2.85,1.06s-2.85-.48-2.85-1.06v-.92c0-.59,1.28-1.06,2.85-1.06s2.85.48,2.85,1.06v.92Z"/>
      <path id="ellipse76023" class="cls-10" d="m49.25,75.84c1.58,0,2.85.48,2.85,1.06s-1.28,1.06-2.85,1.06-2.85-.48-2.85-1.06,1.28-1.06,2.85-1.06Z"/>
    </g>
    <g id="g76031">
      <path id="path76027" class="cls-4" d="m59.44,77.76c0,.59-1.28,1.06-2.85,1.06s-2.85-.48-2.85-1.06v-.92c0-.59,1.28-1.06,2.85-1.06s2.85.48,2.85,1.06v.92Z"/>
      <path id="ellipse76029" class="cls-10" d="m56.59,75.78c1.58,0,2.85.48,2.85,1.06s-1.28,1.06-2.85,1.06-2.85-.48-2.85-1.06,1.28-1.06,2.85-1.06Z"/>
    </g>
    <g id="g76037">
      <path id="path76033" class="cls-4" d="m66.79,77.61c0,.59-1.28,1.06-2.85,1.06s-2.85-.48-2.85-1.06v-.92c0-.59,1.28-1.06,2.85-1.06s2.85.48,2.85,1.06v.92Z"/>
      <path id="ellipse76035" class="cls-10" d="m63.94,75.63c1.58,0,2.85.48,2.85,1.06s-1.28,1.06-2.85,1.06-2.85-.48-2.85-1.06,1.28-1.06,2.85-1.06Z"/>
    </g>
    <g id="g76043">
      <path id="path76039" class="cls-4" d="m74.13,77.43c0,.59-1.28,1.06-2.85,1.06s-2.85-.48-2.85-1.06v-.92c0-.59,1.28-1.06,2.85-1.06s2.85.48,2.85,1.06v.92Z"/>
      <path id="ellipse76041" class="cls-10" d="m71.28,75.45c1.58,0,2.85.48,2.85,1.06s-1.28,1.06-2.85,1.06-2.85-.48-2.85-1.06,1.28-1.06,2.85-1.06Z"/>
    </g>
    <g id="g76049">
      <path id="path76045" class="cls-4" d="m81.48,77.33c0,.59-1.28,1.06-2.85,1.06s-2.85-.48-2.85-1.06v-.92c0-.59,1.28-1.06,2.85-1.06s2.85.48,2.85,1.06v.92Z"/>
      <path id="ellipse76047" class="cls-10" d="m78.62,75.34c1.58,0,2.85.48,2.85,1.06s-1.28,1.06-2.85,1.06-2.85-.48-2.85-1.06,1.28-1.06,2.85-1.06Z"/>
    </g>
    <g id="g76055">
      <path id="path76051" class="cls-4" d="m88.82,77.22c0,.59-1.28,1.06-2.85,1.06s-2.85-.48-2.85-1.06v-.92c0-.59,1.28-1.06,2.85-1.06s2.85.48,2.85,1.06v.92Z"/>
      <path id="ellipse76053" class="cls-10" d="m85.97,75.24c1.58,0,2.85.48,2.85,1.06s-1.28,1.06-2.85,1.06-2.85-.48-2.85-1.06,1.28-1.06,2.85-1.06Z"/>
    </g>
  </g>
  <g id="g76001">
    <g id="g75945">
      <path id="path75941" class="cls-4" d="m26.31,81.17c0,.6-1.43,1.09-3.2,1.09-1.77,0-3.2-.49-3.2-1.09v-.94c0-.6,1.43-1.09,3.2-1.09s3.2.49,3.2,1.09v.94Z"/>
      <path id="ellipse75943" class="cls-10" d="m23.11,79.14c1.77,0,3.2.49,3.2,1.09s-1.43,1.09-3.2,1.09-3.2-.49-3.2-1.09,1.43-1.09,3.2-1.09Z"/>
    </g>
    <g id="g75951">
      <path id="path75947" class="cls-4" d="m34.54,81.34c0,.6-1.43,1.09-3.2,1.09s-3.2-.49-3.2-1.09v-.94c0-.6,1.43-1.09,3.2-1.09s3.2.49,3.2,1.09v.94Z"/>
      <path id="ellipse75949" class="cls-10" d="m31.34,79.31c1.77,0,3.2.49,3.2,1.09s-1.43,1.09-3.2,1.09-3.2-.49-3.2-1.09,1.43-1.09,3.2-1.09Z"/>
    </g>
    <g id="g75957">
      <path id="path75953" class="cls-4" d="m42.78,81.39c0,.6-1.43,1.09-3.2,1.09s-3.2-.49-3.2-1.09v-.94c0-.6,1.43-1.09,3.2-1.09,1.77,0,3.2.49,3.2,1.09v.94Z"/>
      <path id="ellipse75955" class="cls-10" d="m39.58,79.36c1.77,0,3.2.49,3.2,1.09s-1.43,1.09-3.2,1.09-3.2-.49-3.2-1.09,1.43-1.09,3.2-1.09Z"/>
    </g>
    <g id="g75963">
      <path id="path75959" class="cls-4" d="m51.02,81.57c0,.6-1.43,1.09-3.2,1.09s-3.2-.49-3.2-1.09v-.94c0-.6,1.43-1.09,3.2-1.09s3.2.49,3.2,1.09v.94Z"/>
      <path id="ellipse75961" class="cls-10" d="m47.82,79.54c1.77,0,3.2.49,3.2,1.09s-1.43,1.09-3.2,1.09-3.2-.49-3.2-1.09,1.43-1.09,3.2-1.09Z"/>
    </g>
    <g id="g75969">
      <path id="path75965" class="cls-4" d="m59.26,81.5c0,.6-1.43,1.09-3.2,1.09s-3.2-.49-3.2-1.09v-.94c0-.6,1.43-1.09,3.2-1.09s3.2.49,3.2,1.09v.94Z"/>
      <path id="ellipse75967" class="cls-10" d="m56.06,79.47c1.77,0,3.2.49,3.2,1.09s-1.43,1.09-3.2,1.09-3.2-.49-3.2-1.09,1.43-1.09,3.2-1.09Z"/>
    </g>
    <g id="g75975">
      <path id="path75971" class="cls-4" d="m67.5,81.35c0,.6-1.43,1.09-3.2,1.09s-3.2-.49-3.2-1.09v-.94c0-.6,1.43-1.09,3.2-1.09,1.77,0,3.2.49,3.2,1.09v.94Z"/>
      <path id="ellipse75973" class="cls-10" d="m64.3,79.32c1.77,0,3.2.49,3.2,1.09s-1.43,1.09-3.2,1.09-3.2-.49-3.2-1.09,1.43-1.09,3.2-1.09Z"/>
    </g>
    <g id="g75981">
      <path id="path75977" class="cls-4" d="m75.74,81.17c0,.6-1.43,1.09-3.2,1.09s-3.2-.49-3.2-1.09v-.94c0-.6,1.43-1.09,3.2-1.09s3.2.49,3.2,1.09v.94Z"/>
      <path id="ellipse75979" class="cls-10" d="m72.54,79.13c1.77,0,3.2.49,3.2,1.09s-1.43,1.09-3.2,1.09-3.2-.49-3.2-1.09,1.43-1.09,3.2-1.09Z"/>
    </g>
    <g id="g75987">
      <path id="path75983" class="cls-4" d="m83.98,81.06c0,.6-1.43,1.09-3.2,1.09s-3.2-.49-3.2-1.09v-.94c0-.6,1.43-1.09,3.2-1.09s3.2.49,3.2,1.09v.94Z"/>
      <ellipse id="ellipse75985" class="cls-10" cx="80.78" cy="80.11" rx="3.2" ry="1.09"/>
    </g>
    <g id="g75993">
      <path id="path75989" class="cls-4" d="m92.22,80.95c0,.6-1.43,1.09-3.2,1.09s-3.2-.49-3.2-1.09v-.94c0-.6,1.43-1.09,3.2-1.09s3.2.49,3.2,1.09v.94Z"/>
      <path id="ellipse75991" class="cls-10" d="m89.02,78.92c1.77,0,3.2.49,3.2,1.09s-1.43,1.09-3.2,1.09-3.2-.49-3.2-1.09,1.43-1.09,3.2-1.09Z"/>
    </g>
  </g>
  <g id="g76125">
    <g id="g76069">
      <path id="path76065" class="cls-4" d="m21.73,84.95c0,.63-1.46,1.15-3.25,1.15s-3.25-.51-3.25-1.15v-1c0-.63,1.46-1.15,3.25-1.15s3.25.51,3.25,1.15v1Z"/>
      <path id="ellipse76067" class="cls-10" d="m18.47,82.81c1.8,0,3.25.51,3.25,1.15s-1.46,1.15-3.25,1.15-3.25-.51-3.25-1.15,1.46-1.15,3.25-1.15Z"/>
    </g>
    <g id="g76075">
      <path id="path76071" class="cls-4" d="m30.11,85.13c0,.63-1.46,1.15-3.25,1.15s-3.25-.51-3.25-1.15v-1c0-.63,1.46-1.15,3.25-1.15s3.25.51,3.25,1.15v1Z"/>
      <path id="ellipse76073" class="cls-10" d="m26.85,82.99c1.8,0,3.25.51,3.25,1.15s-1.46,1.15-3.25,1.15-3.25-.51-3.25-1.15,1.46-1.15,3.25-1.15Z"/>
    </g>
    <g id="g76081">
      <path id="path76077" class="cls-4" d="m38.48,85.18c0,.63-1.46,1.15-3.25,1.15s-3.25-.51-3.25-1.15v-1c0-.63,1.46-1.15,3.25-1.15s3.25.51,3.25,1.15v1Z"/>
      <path id="ellipse76079" class="cls-10" d="m35.23,83.04c1.8,0,3.25.51,3.25,1.15s-1.46,1.15-3.25,1.15-3.25-.51-3.25-1.15,1.46-1.15,3.25-1.15Z"/>
    </g>
    <g id="g76087">
      <path id="path76083" class="cls-4" d="m46.86,85.37c0,.63-1.46,1.15-3.25,1.15s-3.25-.51-3.25-1.15v-1c0-.63,1.46-1.15,3.25-1.15s3.25.51,3.25,1.15v1Z"/>
      <path id="ellipse76085" class="cls-10" d="m43.61,83.22c1.8,0,3.25.51,3.25,1.15s-1.46,1.15-3.25,1.15-3.25-.51-3.25-1.15,1.46-1.15,3.25-1.15Z"/>
    </g>
    <g id="g76093">
      <path id="path76089" class="cls-4" d="m55.24,85.3c0,.63-1.46,1.15-3.25,1.15s-3.25-.51-3.25-1.15v-1c0-.63,1.46-1.15,3.25-1.15s3.25.51,3.25,1.15v1Z"/>
      <ellipse id="ellipse76091" class="cls-10" cx="51.99" cy="84.3" rx="3.25" ry="1.15"/>
    </g>
    <g id="g76099">
      <path id="path76095" class="cls-4" d="m63.62,85.14c0,.63-1.46,1.15-3.25,1.15s-3.25-.51-3.25-1.15v-1c0-.63,1.46-1.15,3.25-1.15s3.25.51,3.25,1.15v1Z"/>
      <ellipse id="ellipse76097" class="cls-10" cx="60.37" cy="84.14" rx="3.25" ry="1.15"/>
    </g>
    <g id="g76105">
      <path id="path76101" class="cls-4" d="m72,84.94c0,.63-1.46,1.15-3.25,1.15s-3.25-.51-3.25-1.15v-1c0-.63,1.46-1.15,3.25-1.15s3.25.51,3.25,1.15v1Z"/>
      <path id="ellipse76103" class="cls-10" d="m68.74,82.8c1.8,0,3.25.51,3.25,1.15s-1.46,1.15-3.25,1.15-3.25-.51-3.25-1.15,1.46-1.15,3.25-1.15Z"/>
    </g>
    <g id="g76111">
      <path id="path76107" class="cls-4" d="m80.38,84.83c0,.63-1.46,1.15-3.25,1.15s-3.25-.51-3.25-1.15v-1c0-.63,1.46-1.15,3.25-1.15s3.25.51,3.25,1.15v1Z"/>
      <path id="ellipse76109" class="cls-10" d="m77.12,82.69c1.8,0,3.25.51,3.25,1.15s-1.46,1.15-3.25,1.15-3.25-.51-3.25-1.15,1.46-1.15,3.25-1.15Z"/>
    </g>
    <g id="g76117">
      <path id="path76113" class="cls-4" d="m88.75,84.71c0,.63-1.46,1.15-3.25,1.15s-3.25-.51-3.25-1.15v-1c0-.63,1.46-1.15,3.25-1.15s3.25.51,3.25,1.15v1Z"/>
      <ellipse id="ellipse76115" class="cls-10" cx="85.5" cy="83.72" rx="3.25" ry="1.15"/>
    </g>
    <g id="g76123">
      <path id="path76119" class="cls-4" d="m97.13,84.43c0,.63-1.46,1.15-3.25,1.15s-3.25-.51-3.25-1.15v-1c0-.63,1.46-1.15,3.25-1.15s3.25.51,3.25,1.15v1Z"/>
      <path id="ellipse76121" class="cls-10" d="m93.88,82.28c1.8,0,3.25.51,3.25,1.15s-1.46,1.15-3.25,1.15-3.25-.51-3.25-1.15,1.46-1.15,3.25-1.15Z"/>
    </g>
  </g>
  <path id="path77981" class="cls-1" d="m34.97,53.94l43.16-.54s-1.26-14.38.73-19.25c-11,3.05-47.03,3.56-47.03,3.56,0,0,4.33,10.1,3.14,16.22Z"/>
  <path id="path78322" class="cls-5" d="m38.29,51.34c.74-.15,1.48-.53,2.25-.54.2,0,.55.56,1.28.43.63-.11.29-.12.72-.19.71-.12,1.46,0,2.17-.07.58-.06,1.15-.19,1.74-.14.33.03.54.17.86.2.64.07,1.28-.17,1.92-.18.25,0,.47.12.72.13,1.01.03,1.92-.7,2.93-.74,1.11-.04,2.12.5,3.25.49.4,0,.71-.18,1.07-.31.59-.21,1.25-.31,1.88-.32.4,0,.69.26,1.1.26.62,0,1.25-.11,1.87-.05.2.02.39.09.59.1.72.04,1.45-.19,2.16-.22.37-.02.82-.02,1.18.05.2.04.27.11.47.12.63.01,1.27-.24,1.9-.28,2.1-.13,4.41.32,6.41-.18.06-.01.7-.02.75-.09.05-.06-.14.05-.21.07-.3.11-.58.25-.87.36-.86.33-1.86.37-2.77.48-.72.09-1.39-.11-2.1-.12-.74,0-1.48.07-2.22.07-1.23,0-2.45,0-3.68.16-2.08.28-4.18.06-6.27.23-.9.08-1.77.51-2.68.43-.28-.02-.8.01-1.03-.14-.27-.17-.44-.49-.8-.47-.43.03-.86.42-1.24.6-.67.32-1.39.48-2.14.53-.86.05-2.02-.29-3-.32-.39-.01-.68.13-1.04.19-.56.09-1.26.06-1.83.05-.74-.01-1.67,0-2.4-.16-.2-.04-.39-.14-.6-.16-.78-.11-1.57-.17-2.36-.29h0Z"/>
  <path id="path78393" class="cls-5" d="m37.84,45.46c.74-.15,1.48-.53,2.25-.54.2,0,.55.56,1.28.43.63-.11.29-.12.72-.19.71-.12,1.46,0,2.17-.07.58-.06,1.15-.19,1.74-.14.33.03.54.17.86.2.64.07,1.28-.17,1.92-.18.25,0,.47.12.72.13,1.01.03,1.92-.7,2.93-.74,1.11-.04,2.12.5,3.25.49.4,0,.71-.18,1.07-.31.59-.21,1.25-.31,1.88-.32.4,0,.69.26,1.1.26.62,0,1.25-.11,1.87-.05.2.02.39.09.59.1.72.04,1.45-.19,2.16-.22.37-.02.82-.02,1.18.05.2.04.27.11.47.12.63.01,1.27-.24,1.9-.28,2.1-.13,4.41.32,6.41-.18.06-.02.7-.02.75-.09.05-.06-.14.05-.21.07-.3.11-.58.25-.87.36-.86.33-1.86.37-2.77.48-.72.09-1.39-.11-2.1-.12-.74,0-1.48.07-2.22.07-1.23,0-2.45,0-3.68.16-2.08.28-4.18.06-6.27.23-.9.08-1.77.51-2.68.43-.28-.02-.8.01-1.03-.14-.27-.17-.44-.49-.8-.47-.43.03-.86.42-1.24.6-.67.32-1.39.48-2.14.53-.86.05-2.02-.29-3-.32-.39-.01-.68.13-1.04.19-.56.09-1.26.06-1.83.05-.74-.01-1.67,0-2.4-.16-.2-.04-.39-.14-.6-.16-.78-.11-1.57-.17-2.36-.29h0Z"/>
</svg>