<?xml version="1.0" encoding="UTF-8"?>
<svg id="Capa_1" data-name="Capa 1" xmlns="http://www.w3.org/2000/svg" width="80" height="80" viewBox="0 0 80 80">
  <defs>
    <style>
      .cls-1 {
        fill: #6f0318;
      }

      .cls-1, .cls-2, .cls-3, .cls-4 {
        stroke-width: 0px;
      }

      .cls-2 {
        fill: #42250d;
      }

      .cls-3 {
        fill: #c43f3f;
      }

      .cls-4 {
        fill: #eeceb5;
      }
    </style>
  </defs>
  <path class="cls-4" d="m46.15,20.24l-14.67,4.33,4.42,1.15,15.43-4.54c-1.89-.34-3.81-.72-5.19-.94Z"/>
  <path class="cls-3" d="m46.15,19.19l-16.24,4.64,1.58.74c5.45-1.7,10.49-3.12,14.67-4.33v-1.05Z"/>
  <path class="cls-1" d="m27.61,57.87c3.02,3.32,8.34,3.46,8.34,3.46,3.7-1.74,18.03-8.22,18.03-8.22v-31.66s-3.53,1.05-7.45,2.22c-3.62,1.08-8.28,2.39-8.28,2.39l-3.45,1.01c-5.21-1.46-7.99-3.48-7.99-3.48-.04,2.11-.02,4.77.03,7.66l.57,20.78c0,2.93.19,5.84.19,5.84Z"/>
  <g>
    <path class="cls-2" d="m35.95,60.92s-.05,0-.08,0c-.04.02-.09.04-.13.06l.21-.06Z"/>
    <path class="cls-2" d="m53.57,53.11c.07-.12.14-.24.21-.36-.07.03-.14.06-.21.09v.26Z"/>
    <path class="cls-2" d="m28.02,57.87c0-.06,0-.12-.01-.18-.04-.04-.07-.08-.11-.12.04.1.08.2.12.29Z"/>
    <path class="cls-2" d="m27.39,58.25c.29.31.61.6.95.86.66.52,1.38.95,2.14,1.3,1.27.58,2.62.97,4,1.18.41.06.82.11,1.23.14.07,0,.15.01.23.01.17,0,.35-.11.5-.19,2.03-.95,4.07-1.87,6.11-2.8,2.47-1.13,4.95-2.25,7.42-3.37,1.39-.63,2.79-1.22,4.16-1.89.02-.01.04-.02.06-.03.13-.06.21-.22.21-.36v-31.66c0-.53-.83-.53-.83,0v31.39c.07-.03.14-.06.21-.09-.07.12-.14.24-.21.36v-.26c-.42.19-.83.38-1.25.56-1.2.55-2.41,1.09-3.61,1.64-1.55.71-3.11,1.41-4.66,2.12-1.53.7-3.06,1.4-4.6,2.1-1.14.52-2.28,1.04-3.42,1.58-.05.03-.11.05-.16.08.03,0,.05,0,.08,0l-.21.06s.09-.04.13-.06c-.16,0-.31-.02-.47-.03-.09,0-.18-.02-.27-.03-.05,0-.09-.01-.14-.02-.03,0-.06,0-.09-.01,0,0,0,0-.01,0,.06,0-.03,0,0,0,0,0-.02,0-.03,0-.26-.04-.52-.08-.78-.13-1.4-.27-2.77-.71-4-1.4-.76-.43-1.46-.96-2.07-1.59,0,.06,0,.12.01.18-.04-.1-.08-.2-.12-.29.04.04.07.08.11.12-.12-1.88-.18-3.77-.18-5.66,0-.53-.83-.53-.83,0,0,1.87.07,3.75.18,5.62,0,.06,0,.12.01.18.01.17.08.29.2.41Z"/>
    <path class="cls-2" d="m34.9,60.82s.06,0,0,0h0Z"/>
  </g>
  <path class="cls-1" d="m44.01,18.66s-13.19,3.45-17.19,4.92c0,0,3.05,2.58,7.99,3.48l3.45-1.01,8.28-2.39c3.92-1.17,7.45-2.22,7.45-2.22l-1.9-.49-16,4.52c-1.95-.03-4.71-.81-6.32-1.61l16.4-4.69-2.15-.52Z"/>
  <g>
    <path class="cls-2" d="m44.12,19.06h-.22s.08.02.12.03c.03,0,.05-.02.08-.02,0,0,.01,0,.02,0Z"/>
    <path class="cls-2" d="m34.92,26.67s-.09-.02-.13-.03c-.03,0-.06.02-.09.03h.22Z"/>
    <path class="cls-2" d="m53.87,21.05c-.48.14-.96.29-1.45.43.48.12.96.25,1.45.37v-.8Z"/>
    <path class="cls-2" d="m30.91,25.48s-.01,0-.02,0c0,0,0,0,.02,0Z"/>
    <path class="cls-2" d="m27.25,23.4s-.02-.01-.03-.02c0,0-.01-.01-.02-.02-.04-.03.1.08.05.04Z"/>
    <path class="cls-2" d="m27.28,23.43s-.04-.03-.05-.04c0,0,.02.01.03.02.06.04-.08-.06-.05-.04,0,0,.01.01.02.02,0,0,0,0,0,0-.04-.03-.07-.06-.11-.09-.06.23-.12.46-.18.69.25-.09.5-.18.76-.27-.07-.05-.15-.1-.22-.15-.06-.05-.13-.09-.19-.14Z"/>
    <path class="cls-2" d="m46.04,18.79c-.5.14-1.01.29-1.51.43.5.12,1.01.25,1.51.37v-.8Z"/>
    <path class="cls-2" d="m30.65,23.83s-.06-.03-.08-.03c.01,0,.03.01,0,0,0,0,0,0,0,0,0,0-.02,0-.02,0-.02,0-.05-.02-.07-.03-.03-.01-.07-.03-.1-.05-.14-.06-.28-.13-.42-.2-.03.25-.07.5-.1.76.37-.11.74-.21,1.11-.32-.07-.03-.14-.06-.22-.08-.04-.01-.07-.03-.11-.04Z"/>
    <path class="cls-2" d="m35.42,22.69c1.58-.45,3.16-.9,4.74-1.36,1.36-.39,2.73-.78,4.09-1.17.66-.19,1.33-.36,1.98-.57,0,0,.02,0,.03,0,.38-.11.41-.7,0-.8-.57-.14-1.13-.28-1.7-.41-.21-.05-.46-.15-.67-.11-.05.01-.1.03-.15.04-.88.23-1.76.47-2.64.7-1.57.42-3.14.85-4.71,1.28-1.74.48-3.47.97-5.2,1.48-1.38.41-2.77.82-4.12,1.29-.12.04-.24.08-.36.13-.14.05-.25.14-.29.29-.04.13,0,.31.11.4.42.35.89.66,1.35.95,1.15.72,2.37,1.3,3.64,1.77.82.3,1.66.55,2.52.74.11.02.22.05.33.07.14.03.3.08.44.08.06,0,.1-.01.16-.03.12-.03.25-.07.37-.11.9-.27,1.81-.53,2.71-.8.32-.09.64-.19.96-.28.84-.24,1.67-.48,2.51-.72,1-.29,2-.58,3-.87.66-.19,1.31-.38,1.97-.57,1.33-.38,2.65-.79,3.98-1.18,1.16-.34,2.31-.69,3.47-1.03.06-.02.11-.03.17-.05.38-.11.41-.7,0-.8-.63-.16-1.27-.32-1.9-.49-.02,0-.03,0-.05,0,.16.03.29.14.34.3.06.22-.07.45-.29.51-.01,0-.03,0-.04.01-.02,0-.04.01-.07.02.11.03.23.06.34.09.48-.14.96-.29,1.45-.43v.8c-.48-.12-.96-.25-1.45-.37-1.16.35-2.33.69-3.49,1.04-1.31.39-2.63.78-3.94,1.16-1.45.42-2.89.83-4.34,1.25-.84.24-1.67.48-2.51.73-1.11.32-2.22.65-3.33.98,0,0-.02,0-.03,0,.04,0,.09.02.13.03h-.22s.06-.02.09-.03c-.86-.16-1.7-.38-2.53-.66-.38-.13-.76-.27-1.14-.42-.04-.02-.08-.03-.13-.05-.01,0-.08-.04-.1-.04,0,0,.01,0,.02,0-.02,0-.02,0-.02,0-.08-.03-.16-.07-.24-.11-.17-.07-.33-.15-.5-.23-.86-.41-1.69-.88-2.47-1.42-.25.09-.51.18-.76.27.06-.23.12-.46.18-.69.04.03.07.06.11.09,0,0,0,0,0,0,.02.01.04.03.05.04.06.05.13.09.19.14.07.05.15.1.22.15.82-.28,1.64-.53,2.47-.78,1.44-.44,2.88-.85,4.33-1.26,1.48-.42,2.95-.82,4.43-1.23,1.18-.32,2.36-.64,3.54-.95.52-.14,1.05-.25,1.56-.41-.04,0-.08-.02-.12-.03h.22s-.02,0-.02,0c-.03,0-.05.02-.08.02.17.04.34.08.52.13.5-.14,1.01-.29,1.51-.43v.8c-.5-.12-1.01-.25-1.51-.37-.04.01-.08.02-.12.04-1.31.37-2.61.75-3.92,1.12-1.58.45-3.16.9-4.74,1.36-1.36.39-2.73.78-4.09,1.17-.66.19-1.33.36-1.98.57,0,0-.02,0-.03,0-.32.09-.43.59-.1.76,1.32.66,2.77,1.1,4.21,1.39.73.15,1.48.26,2.23.28.13,0,.22-.02.33-.05.36-.1.72-.2,1.07-.3.64-.18,1.27-.36,1.91-.54.82-.23,1.64-.46,2.46-.7.91-.26,1.81-.51,2.72-.77.9-.25,1.79-.51,2.69-.76.79-.22,1.58-.45,2.37-.67.58-.17,1.17-.33,1.75-.5.26-.07.52-.14.79-.22-.04,0-.08-.02-.12-.03-.22-.06-.34-.29-.29-.51.05-.21.26-.32.46-.3-.06,0-.12,0-.17,0-.19.05-.39.11-.58.16-.52.15-1.03.29-1.55.44l-2.23.63c-.87.25-1.75.49-2.62.74-.9.26-1.81.51-2.71.77-.85.24-1.7.48-2.55.72-.7.2-1.39.39-2.09.59-.45.13-.89.25-1.34.38-.09.03-.19.05-.28.08.04.01-.03,0-.05.01,0,0,0,0,0,0,0,0,0,0,0,0,.01,0,.02,0,.04,0,0,0,0,0,.01,0,0,0,0,0,0,0-.02,0-.05,0-.07,0-.04,0-.08,0-.11,0-.09,0-.18,0-.27-.02-.17-.01-.35-.03-.52-.05-.04,0-.08-.01-.12-.02,0,0,0,0-.01,0,0,0,.01,0,.02,0,0,0-.05,0-.02,0-.01,0-.03,0-.04,0-.1-.01-.2-.03-.29-.04-.18-.03-.37-.06-.55-.1-.38-.08-.76-.16-1.14-.26-.64-.17-1.28-.37-1.91-.61-.37.11-.74.21-1.11.32.03-.25.07-.5.1-.76.14.07.28.13.42.2.03.02.07.03.1.05.02.01.05.02.07.03,0,0,.01,0,.02,0,.01,0,.07.03.08.03.04.01.07.03.11.04.07.03.14.06.22.08.17-.05.35-.1.52-.15,1.31-.37,2.61-.75,3.92-1.12Z"/>
    <path class="cls-2" d="m30.58,23.8s.01,0,0,0c0,0,0,0,0,0Z"/>
    <path class="cls-2" d="m35.98,25.09s.09,0,.05-.01c0,0,0,0-.01,0-.01,0-.02,0-.04,0Z"/>
    <path class="cls-2" d="m51.68,20.85c-.05.22.06.45.29.51.04,0,.08.02.12.03.02,0,.04-.01.07-.02.01,0,.03,0,.04-.01.22-.06.35-.29.29-.51-.04-.16-.18-.27-.34-.3-.2-.03-.42.09-.46.3Z"/>
    <path class="cls-2" d="m34.93,24.99s-.01,0-.02,0c-.03,0,0,0,.02,0Z"/>
  </g>
  <path class="cls-2" d="m27.23,23.59c0-.22-.19-.42-.41-.41-.23.01-.41.18-.41.41-.02.9-.02,1.8-.02,2.7,0,1.03,0,2.06.02,3.09,0,.62.02,1.24.03,1.86,0,.22.19.42.41.41.22,0,.42-.18.41-.41-.02-1.09-.03-2.18-.04-3.26,0-.98-.01-1.96,0-2.94,0-.49,0-.97.02-1.46Z"/>
  <path class="cls-2" d="m26.67,40.33c0,.22.19.42.41.41.22,0,.42-.18.41-.41-.06-1.73-.11-3.46-.15-5.19-.01-.48-.02-.96-.03-1.45,0-.22-.19-.42-.41-.41-.22,0-.42.18-.41.41.04,1.72.09,3.45.14,5.17.01.49.03.98.05,1.47Z"/>
  <path class="cls-2" d="m27.42,49.83c.22,0,.42-.18.41-.41-.07-1.69-.13-3.38-.19-5.08-.02-.51-.04-1.02-.05-1.53,0-.22-.19-.42-.41-.41-.22,0-.42.18-.41.41.06,1.75.13,3.5.19,5.26.02.45.04.9.05,1.35,0,.22.18.42.41.41Z"/>
  <path class="cls-2" d="m35.54,61.33c0,.22.18.42.41.41.22,0,.42-.18.41-.41-.02-.47-.04-.94-.07-1.41-.05-1.04-.1-2.08-.15-3.12-.04-.8-.07-1.59-.1-2.39,0-.22-.18-.42-.41-.41-.22,0-.42.18-.41.41.06,1.32.11,2.64.18,3.97.04.8.08,1.6.12,2.4,0,.18.02.37.03.55Z"/>
  <path class="cls-2" d="m35.13,52.16c0,.22.18.42.41.41.22,0,.42-.18.41-.41-.03-.85-.06-1.69-.1-2.54-.03-.91-.06-1.83-.09-2.74-.02-.54-.03-1.08-.05-1.63,0-.22-.19-.42-.41-.41-.22,0-.42.18-.41.41.03.95.06,1.89.09,2.84.03.89.06,1.77.09,2.66.02.47.04.94.05,1.41Z"/>
  <path class="cls-2" d="m34.83,43.11c0,.22.19.42.41.41.22,0,.42-.18.41-.41-.02-.88-.04-1.76-.06-2.64-.02-.91-.04-1.81-.05-2.72,0-.52-.02-1.03-.02-1.55,0-.22-.19-.42-.41-.41-.22,0-.42.18-.41.41.01.91.03,1.82.05,2.73.02.9.04,1.79.06,2.69.01.49.02.99.04,1.48Z"/>
  <path class="cls-2" d="m35.48,27.12c0-.22-.19-.42-.41-.41-.23.01-.41.18-.41.41-.01,1.8-.01,3.61,0,5.41,0,.51,0,1.02.01,1.53,0,.22.19.42.41.41.22,0,.42-.18.41-.41-.02-1.81-.03-3.62-.02-5.42,0-.51,0-1.02,0-1.52Z"/>
  <g>
    <path class="cls-2" d="m46.08,19.98c-.07.02-.14.04-.2.06v.21c.07-.09.14-.18.2-.27Z"/>
    <path class="cls-2" d="m31.56,24.84c1.05-.33,2.09-.65,3.14-.97,1.01-.31,2.02-.61,3.03-.9.96-.28,1.93-.57,2.89-.85.91-.26,1.83-.53,2.74-.79.85-.25,1.71-.49,2.56-.74.1-.03.2-.06.3-.09.12-.03.2-.14.2-.27v-1.05c0-.14-.13-.28-.28-.28-.15,0-.28.12-.28.28v.85c.07-.02.14-.04.2-.06-.07.09-.14.18-.2.27v-.21c-.78.22-1.56.45-2.34.67-.91.26-1.81.52-2.72.78-.96.28-1.92.56-2.88.84-1.01.3-2.01.59-3.01.9-1.04.31-2.09.63-3.13.96-.13.04-.26.08-.39.12-.14.04-.24.19-.19.34.04.14.19.24.34.19Z"/>
  </g>
  <path class="cls-2" d="m50.02,21.22c.42.08.83.15,1.25.23.14.03.3-.04.34-.19.03-.14-.04-.31-.19-.34-1.4-.26-2.8-.53-4.2-.77-.33-.06-.66-.11-.99-.17-.14-.02-.3.04-.34.19-.03.13.04.32.19.34,1.32.21,2.63.47,3.94.71Z"/>
  <path class="cls-2" d="m35.1,24.38c.8-.23,1.59-.46,2.39-.7.59-.17,1.18-.35,1.77-.53.51-.15,1.02-.31,1.53-.47.55-.17,1.11-.34,1.66-.52.72-.23,1.44-.45,2.16-.68.11-.03.22-.07.33-.1.17-.05.1-.32-.07-.27-.75.23-1.5.47-2.25.7-.57.18-1.13.36-1.7.53-.51.16-1.02.31-1.52.47-.57.17-1.15.35-1.72.52-.76.23-1.53.45-2.29.67-.12.03-.23.07-.35.1-.17.05-.1.32.07.27Z"/>
  <path class="cls-2" d="m37.52,24.34c.21-.07.41-.13.62-.19.54-.17,1.09-.34,1.63-.5.77-.24,1.55-.47,2.32-.69.89-.26,1.78-.52,2.68-.76.9-.25,1.81-.49,2.72-.72.11-.03.21-.05.32-.08.17-.04.1-.31-.07-.27-.9.22-1.81.46-2.7.7-.9.25-1.8.5-2.7.76-.8.23-1.59.47-2.39.71-.58.18-1.15.35-1.73.53-.25.08-.51.15-.76.24,0,0,0,0,0,0-.17.05-.1.32.07.27Z"/>
  <path class="cls-1" d="m34.85,36.2c.98-.11,1.33-.78,1.13-1.3-.26-.67-.99-.89-1.67-.92-2.71-.15-5.54-.95-7.59-2.58-.68,0-.87,1.16-.55,1.75,1.14,2.13,7.74,3.16,8.69,3.05Z"/>
  <path class="cls-1" d="m35.06,45.25c.98-.11,1.33-.78,1.13-1.3-.26-.67-.99-.89-1.67-.92-2.71-.15-5.54-.95-7.59-2.58-.68,0-.87,1.16-.55,1.75,1.14,2.13,7.74,3.16,8.69,3.05Z"/>
  <path class="cls-1" d="m35.39,54.3c.98-.11,1.33-.78,1.13-1.3-.26-.67-.99-.89-1.67-.92-2.71-.15-5.54-.95-7.59-2.58-.68,0-.87,1.16-.55,1.75,1.14,2.13,7.74,3.16,8.69,3.05Z"/>
  <g>
    <polygon class="cls-2" points="26.61 31.84 26.62 31.84 26.62 31.84 26.61 31.84"/>
    <path class="cls-2" d="m26.64,31.84s.01,0,.01,0c0,0,.01,0,.02,0,0,0-.01,0-.02,0,0,0,0,0-.01.01Z"/>
    <polygon class="cls-2" points="26.71 31.8 26.7 31.8 26.7 31.8 26.71 31.8"/>
    <polygon class="cls-2" points="26.68 31.81 26.69 31.81 26.68 31.81 26.68 31.81 26.68 31.81"/>
    <path class="cls-2" d="m26.61,31.86s0,0,0,0c0,0,0,0,0,0Z"/>
    <path class="cls-2" d="m35.03,34.53s.02.01.04.02c.02,0,.04.02.06.03-.03-.01-.07-.03-.1-.04Z"/>
    <path class="cls-2" d="m34.49,34.4s.04,0,.06,0c.02,0,.03,0,.05,0-.04,0-.07,0-.11-.01Z"/>
    <path class="cls-2" d="m26.49,32.07s.02-.04.03-.06c0-.01,0-.03.01-.04-.01.03-.03.07-.04.1Z"/>
    <path class="cls-2" d="m35.33,34.7s0,0,0,0c0,0,0,0,0,0,.06.04-.09-.07-.01,0Z"/>
    <polygon class="cls-2" points="26.63 31.84 26.64 31.84 26.63 31.84 26.63 31.84"/>
    <path class="cls-2" d="m26.72,31.81s0,0,0,0c0,0,0,0-.01,0,0,0,.01,0,.02,0Z"/>
    <path class="cls-2" d="m26.66,31.82s.01,0,.02,0c0,0,0,0-.01,0,0,0,0,0,0,0Z"/>
    <path class="cls-2" d="m26.75,31.8s-.03,0-.04,0c0,0,0,0,0,0,.01,0,.02,0,.03,0Z"/>
    <path class="cls-2" d="m26.43,32.34s0-.04,0-.06c0-.02,0-.04,0-.05,0,.04,0,.07-.01.11Z"/>
    <path class="cls-2" d="m35.55,35.43s-.02.02-.03.03c0,0,0,.01-.01.02-.02.03-.01.02.04-.05Z"/>
    <path class="cls-2" d="m35.26,35.67s-.03.01-.05.02c-.02,0-.03.02-.05.02.03-.01.07-.03.1-.04Z"/>
    <path class="cls-2" d="m35.61,35.3s-.01.03-.02.04c0,.02-.01.04-.02.05.01-.03.03-.07.04-.1Z"/>
    <path class="cls-2" d="m34.9,35.78s-.03,0-.05,0c-.02,0-.04,0-.06,0,.04,0,.07,0,.11-.01Z"/>
    <path class="cls-2" d="m36.36,34.74s.01.03.02.05c0-.02-.01-.03-.02-.05Z"/>
    <path class="cls-2" d="m35.44,35.55s0,0,0,0c0,0,0,0,0,0Z"/>
    <path class="cls-2" d="m26.53,32.95s-.01-.03-.02-.04c0-.02-.02-.04-.03-.05.01.03.03.07.04.1Z"/>
    <path class="cls-2" d="m26.45,32.71s0-.04,0-.05c0-.02,0-.04,0-.06,0,.04,0,.07.01.11Z"/>
    <path class="cls-2" d="m26.68,33.18s-.01-.02-.02-.02c0,0,0,0,0,0,0,0-.01-.01-.02-.02-.04-.04.07.1.04.05Z"/>
    <path class="cls-2" d="m27.16,33.63s-.02-.02-.04-.03c0,0,0,0,0,0,.01,0,.02.02.04.03Z"/>
    <path class="cls-2" d="m28.65,34.43s-.04-.02-.06-.03c-.01,0-.02,0-.04-.01.03.01.07.03.1.04Z"/>
    <path class="cls-2" d="m33.66,35.71s-.04,0-.05,0c-.02,0-.04,0-.06,0h.11Z"/>
    <path class="cls-2" d="m26.71,31.81s0,0,0,0c0,0,0,0-.01,0,0,0,.01,0,.02,0Z"/>
    <path class="cls-2" d="m35.57,34.97s.01.02.01.04c0,0,0,0,0,0,0-.01,0-.02-.01-.03Z"/>
    <path class="cls-2" d="m35.59,35.02s.02.03.02.05c0,0,0,0,0,0,0-.02-.02-.04-.02-.05,0,0,0,0,0,.01Z"/>
    <path class="cls-2" d="m35.62,35.25s0-.04,0-.05c0-.02,0-.03,0-.05,0,.03,0,.07,0,.1Z"/>
    <path class="cls-2" d="m35.48,34.84s0,0,0,0c0,0,.01.01.02.02.05.06-.06-.09-.02-.03Z"/>
    <path class="cls-2" d="m26.63,31.84s0,0,0,0c0,0-.01.01-.02.01,0,0,0,0-.01.01,0,0,0,.01,0,.01,0,0,0,0,0,0,.01-.01.02-.03.04-.04,0,0,0,0,0,0Z"/>
    <path class="cls-2" d="m35.63,35.19s0,.04,0,.05c0,.02,0,.04,0,.05,0-.04,0-.07.01-.11,0,0,0,0,0,0,0,0,0,0,0,0,0,0,0,0,0,0Z"/>
    <polygon class="cls-2" points="35.63 35.19 35.63 35.19 35.63 35.19 35.63 35.19"/>
    <path class="cls-2" d="m35.63,35.19s0-.07-.01-.11c0,.02,0,.04,0,.06,0,.02,0,.03,0,.05,0,0,0,0,0,0Z"/>
    <path class="cls-2" d="m27.06,31.14s0,0,0,0c-.05-.04.07.06,0,0Z"/>
    <path class="cls-2" d="m29.43,32.49s-.03-.01-.04-.02c-.02,0-.04-.02-.06-.02.03.01.07.03.1.04Z"/>
    <path class="cls-2" d="m35.58,35.01s.02.04.02.05c0-.02-.02-.04-.03-.06,0,0,0,0,0,0Z"/>
    <path class="cls-2" d="m27.49,34.8c.53.28,1.09.5,1.65.7.57.2,1.15.37,1.73.51.55.14,1.11.26,1.67.36.48.09.97.16,1.46.21.27.03.55.06.82.04.42-.04.82-.17,1.15-.44.28-.23.45-.58.47-.94,0-.15-.02-.31-.07-.45.04.1,0,.23-.04.32-.05.1-.15.16-.25.19-.1.03-.23.01-.32-.04-.08-.05-.13-.11-.17-.19,0,0,0,0,0,0,0-.02-.01-.03-.02-.05.01.04.03.08.03.13,0-.02,0-.04,0-.06,0,.04,0,.07.01.11,0,0,0,0,0,0,0,.04,0,.07-.01.11,0-.02,0-.04,0-.05,0,.03-.02.07-.03.1,0-.01.02-.03.02-.04-.01.03-.03.07-.04.1,0-.02.01-.04.02-.05-.02.04-.04.08-.06.11,0,0,0,0,0,0,0-.01.02-.02.03-.03-.05.07-.06.08-.04.05,0,0,0-.01.01-.02,0,0,0,0,0,0-.02.02-.04.05-.07.07,0,0-.01.01-.02.02,0,0,0,0,0,0-.02.01-.03.03-.05.04.02-.02.04-.03.05-.04,0,0,0,0,0,0,0,0-.05.04-.07.05-.05.03-.1.06-.16.08.02,0,.03-.01.05-.02-.03.01-.07.03-.1.04.02,0,.03-.02.05-.02-.12.04-.24.08-.36.1.02,0,.03,0,.05,0-.04,0-.07,0-.11.01.02,0,.04,0,.06,0-.3.03-.61-.01-.9-.04-.11-.01-.23-.03-.34-.04.02,0,.04,0,.05,0h-.11s.04-.01.06,0c-.61-.08-1.21-.19-1.81-.32-.71-.16-1.42-.34-2.11-.56-.37-.12-.74-.25-1.1-.41.02,0,.04.02.06.03-.03-.01-.07-.03-.1-.04.01,0,.02,0,.04.01-.37-.16-.74-.34-1.09-.55-.08-.05-.16-.1-.24-.16-.04-.03-.07-.05-.11-.08,0,0-.01,0-.02-.02.01,0,.02.02.04.03-.02-.01-.03-.02-.04-.03-.03-.02-.05-.04,0,0,0,0,0,0,0,0,0,0-.01,0-.02-.02-.13-.11-.26-.22-.37-.35-.02-.03-.05-.06-.07-.09,0,0,0,0,0,0,0,0,.01.02.02.02.03.05-.08-.1-.04-.05,0,0,.01.01.02.02-.01-.02-.02-.03-.03-.05-.04-.06-.08-.13-.11-.19,0,.02.01.03.02.04-.01-.03-.03-.07-.04-.1,0,.02.02.04.03.05-.03-.08-.05-.16-.07-.25,0,.02,0,.04,0,.05,0-.04,0-.07-.01-.11,0,.02,0,.04,0,.06-.01-.12-.01-.25,0-.37,0,.02,0,.04,0,.06,0-.04,0-.07.01-.11,0,.02,0,.04,0,.05.02-.09.04-.19.07-.28,0,.02-.02.04-.03.06.01-.03.03-.07.04-.1,0,.01,0,.03-.01.04.01-.02.02-.05.04-.07.01-.02.02-.04.03-.05,0,0,0,0,0,0-.03.03,0,0,.02-.03,0,0,0,0,0-.01,0,0,0,0,0,0,0,0,0,0,0,0,0,0,0,0,0,0,0,0,0,0,.02-.01,0,0,0,0,0,0,0,0,0,0,0,0,0,0,0,0,0,0-.06-.05-.13-.1-.19-.15l.27.11s0,0,.01,0c0,0,0,0,0,0,0,0,0,0,0,0,.01,0,.03,0,.04,0-.01,0-.02,0-.03,0,0,0,0,0,0,0,0,0-.01,0-.02,0-.01,0-.02,0-.03,0,0,0-.01,0-.02,0,0,0,0,0-.01,0,0,0,0,0,0,0,.86.64,1.8,1.15,2.8,1.54,1.05.41,2.14.68,3.25.84.34.05.69.09,1.03.12.28.02.55.03.83.06-.02,0-.04,0-.06,0,.04,0,.07,0,.11.01-.02,0-.03,0-.05,0,.18.03.35.07.52.13-.01,0-.02-.01-.04-.02.03.01.07.03.1.04-.02,0-.04-.02-.06-.03.07.03.13.06.19.1.03.02.05.04.08.05,0,0,0,0,0,0-.08-.06.07.05.01,0,0,0,0,0,0,0,.01.01.03.02.04.03.03.03.06.05.08.08,0,.01.02.02.03.03,0,0,0,0,0,0-.04-.06.07.08.02.03,0,0-.01-.01-.02-.02.04.06.07.12.1.18,0,0,0,0,0-.01,0-.01,0-.02-.01-.04,0,.01,0,.02.01.03-.08-.22.1-.44.29-.5.1-.03.23-.01.32.04.08.05.13.12.17.2-.1-.23-.23-.44-.42-.61-.2-.18-.43-.3-.68-.39-.45-.17-.93-.17-1.41-.2-.28-.02-.55-.05-.82-.09.02,0,.04,0,.06,0h-.11s.03-.01.05,0c-.99-.14-1.96-.36-2.9-.68-.25-.09-.49-.18-.74-.28.01,0,.03.01.04.02-.03-.01-.07-.03-.1-.04.02,0,.04.02.06.02-.78-.33-1.53-.74-2.21-1.25-.04-.03-.08-.06-.12-.09.07.05-.06-.05,0,0,0,0,0,0,0,0,0,0,0,0,0,0-.06-.04-.11-.09-.18-.12-.13-.06-.29-.04-.43,0-.18.05-.34.16-.46.3-.25.29-.36.67-.38,1.05-.02.35.05.71.22,1.01.11.2.26.38.42.54.36.36.8.64,1.24.88Z"/>
    <path class="cls-2" d="m36.19,34.54c-.09-.05-.22-.07-.32-.04-.2.06-.37.29-.29.5,0,.02.02.04.03.06.04.08.09.15.17.19.09.05.22.07.32.04.1-.03.2-.09.25-.19.05-.09.08-.22.04-.32,0-.02-.01-.03-.02-.05-.04-.08-.09-.15-.17-.2Z"/>
    <path class="cls-2" d="m33.09,33.45s-.04,0-.06,0c-.02,0-.03,0-.05,0h.11Z"/>
    <path class="cls-2" d="m26.66,31.81s0,0,0,0c0,0,0,0,0,0Z"/>
    <path class="cls-2" d="m26.67,31.82s.02,0,.03,0c0,0-.01,0-.02,0,0,0,0,0-.01,0Z"/>
    <path class="cls-2" d="m26.69,31.81s0,0,.01,0c0,0,0,0,0,0,0,0-.01,0-.02,0,0,0,0,0,0,0Z"/>
    <path class="cls-2" d="m26.68,31.81s-.01,0-.02,0c0,0,0,0,0,0,0,0,.01,0,.02,0,0,0,0,0,.01,0,0,0,0,0,0,0Z"/>
    <path class="cls-2" d="m26.68,31.81s.01,0,.02,0c0,0,0,0,.01,0,0,0,0,0,0,0,0,0-.01,0-.02,0,0,0,0,0,0,0Z"/>
    <polygon class="cls-2" points="26.65 31.82 26.65 31.83 26.65 31.83 26.66 31.82 26.65 31.82"/>
    <path class="cls-2" d="m26.6,31.87s-.05.06-.02.03c0,0,0,0,0,0,0,0,0,0,0,0,0,0,0,0,0-.01Z"/>
    <path class="cls-2" d="m26.67,31.81s0,0,0,0c0,0,0,0-.01,0,0,0,0,0,0,0,0,0,0,0,0,0Z"/>
    <path class="cls-2" d="m26.67,31.81s0,0,.01,0c0,0,0,0,0,0-.01,0-.03,0-.04,0,0,0,.02,0,.03,0,0,0,0,0,0,0Z"/>
    <path class="cls-2" d="m26.66,31.81s-.02,0-.03,0c.01,0,.03,0,.04,0,0,0,.01,0,.02,0l-.27-.11c.06.05.13.1.19.15.01,0,.02,0,.03-.01,0,0,.01,0,.01,0Z"/>
    <path class="cls-2" d="m26.64,31.84s0,0,.01-.01c0,0,0,0,0,0,0,0,0,0-.01,0,0,0,0,0,0,0,0,0,0,0,0,0,0,0,0,0,0,0Z"/>
    <polygon class="cls-2" points="26.61 31.85 26.61 31.86 26.61 31.86 26.61 31.86 26.61 31.85"/>
    <path class="cls-2" d="m26.63,31.84s0,0,0,0c0,0-.01,0-.02.01,0,0,0,0,0,0,0,0,.01,0,.02-.01Z"/>
    <path class="cls-2" d="m26.65,31.82s-.02,0-.03.01c0,0,0,0,0,0,0,0,.02,0,.03,0,0,0,0,0,0,0Z"/>
    <path class="cls-2" d="m26.65,31.83s-.02,0-.03,0c0,0,0,0,0,0,0,0,0,0,0,0,0,0,0,0,.01,0Z"/>
  </g>
  <g>
    <polygon class="cls-2" points="26.92 40.85 26.91 40.85 26.91 40.85 26.92 40.85"/>
    <path class="cls-2" d="m26.82,40.91s0,0,0,0c0,0,0,0,0,0Z"/>
    <polygon class="cls-2" points="26.82 40.89 26.83 40.89 26.83 40.89 26.82 40.89"/>
    <path class="cls-2" d="m35.24,43.58s.02.01.04.02c.02,0,.04.02.06.03-.03-.01-.07-.03-.1-.04Z"/>
    <path class="cls-2" d="m26.85,40.89s.01,0,.01,0c0,0,.01,0,.02,0,0,0-.01,0-.02,0,0,0,0,0-.01.01Z"/>
    <path class="cls-2" d="m35.54,43.75s0,0,0,0c0,0,0,0,0,0,.06.04-.09-.07-.01,0Z"/>
    <path class="cls-2" d="m26.96,40.85s-.03,0-.04,0c0,0,0,0,0,0,.01,0,.02,0,.03,0Z"/>
    <polygon class="cls-2" points="26.89 40.86 26.9 40.86 26.89 40.86 26.89 40.86 26.89 40.86"/>
    <polygon class="cls-2" points="26.84 40.9 26.85 40.89 26.84 40.9 26.84 40.9"/>
    <path class="cls-2" d="m26.93,40.86s0,0,0,0c0,0,0,0-.01,0,0,0,.01,0,.02,0Z"/>
    <path class="cls-2" d="m26.7,41.12s.02-.04.03-.06c0-.01,0-.03.01-.04-.01.03-.03.07-.04.1Z"/>
    <path class="cls-2" d="m34.7,43.45s.04,0,.06,0c.02,0,.03,0,.05,0-.04,0-.07,0-.11-.01Z"/>
    <path class="cls-2" d="m36.57,43.79s.01.03.02.05c0-.02-.01-.03-.02-.05Z"/>
    <path class="cls-2" d="m35.65,44.6s0,0,0,0c0,0,0,0,0,0Z"/>
    <path class="cls-2" d="m35.47,44.72s-.03.01-.05.02c-.02,0-.03.02-.05.02.03-.01.07-.03.1-.04Z"/>
    <path class="cls-2" d="m35.76,44.48s-.02.02-.03.03c0,0,0,.01-.01.02-.02.03-.01.02.04-.05Z"/>
    <path class="cls-2" d="m35.11,44.83s-.03,0-.05,0c-.02,0-.04,0-.06,0,.04,0,.07,0,.11-.01Z"/>
    <path class="cls-2" d="m26.87,40.87s.01,0,.02,0c0,0,0,0-.01,0,0,0,0,0,0,0Z"/>
    <path class="cls-2" d="m35.82,44.36s-.01.03-.02.04c0,.02-.01.04-.02.05.01-.03.03-.07.04-.1Z"/>
    <path class="cls-2" d="m26.74,42s-.01-.03-.02-.05c0-.02-.02-.04-.03-.05.01.03.03.07.04.1Z"/>
    <path class="cls-2" d="m26.64,41.39s0-.04,0-.06c0-.02,0-.04,0-.05,0,.04,0,.07-.01.11Z"/>
    <path class="cls-2" d="m33.87,44.76s-.04,0-.05,0c-.02,0-.04,0-.06,0,.04,0,.07,0,.11.01Z"/>
    <path class="cls-2" d="m26.89,42.23s-.01-.02-.02-.02c0,0,0,0,0,0,0,0-.01-.01-.02-.02-.04-.04.07.1.04.05Z"/>
    <path class="cls-2" d="m26.66,41.76s0-.04,0-.05c0-.02,0-.04,0-.06,0,.04,0,.07.01.11Z"/>
    <path class="cls-2" d="m27.37,42.68s-.02-.02-.04-.03c0,0,0,0,0,0,.01,0,.02.02.04.03Z"/>
    <path class="cls-2" d="m28.86,43.49s-.04-.02-.06-.03c-.01,0-.02,0-.04-.01.03.01.07.03.1.04Z"/>
    <path class="cls-2" d="m35.84,44.24s0,.04,0,.05c0,.02,0,.04,0,.05,0-.04,0-.07.01-.11,0,0,0,0,0,0,0,0,0,0,0,0,0,0,0,0,0,0Z"/>
    <path class="cls-2" d="m35.69,43.89s0,0,0,0c0,0,.01.01.02.02.05.06-.06-.09-.02-.03Z"/>
    <path class="cls-2" d="m35.8,44.07s.02.03.02.05c0,0,0,0,0,0,0-.02-.02-.04-.02-.05,0,0,0,0,0,.01Z"/>
    <path class="cls-2" d="m35.83,44.3s0-.04,0-.05c0-.02,0-.03,0-.05,0,.03,0,.07,0,.1Z"/>
    <path class="cls-2" d="m35.78,44.02s.01.02.01.04c0,0,0,0,0,0,0-.01,0-.02-.01-.03Z"/>
    <path class="cls-2" d="m26.84,40.9s0,0,0,0c0,0-.01.01-.02.01,0,0,0,0-.01.01,0,0,0,.01,0,.01,0,0,0,0,0,0,.01-.01.02-.03.04-.04,0,0,0,0,0,0Z"/>
    <polygon class="cls-2" points="35.84 44.25 35.84 44.24 35.84 44.24 35.84 44.25"/>
    <path class="cls-2" d="m35.84,44.24v-.11s-.01.04,0,.06c0,.02,0,.03,0,.05,0,0,0,0,0,0Z"/>
    <path class="cls-2" d="m35.79,44.06s.02.04.02.05c0-.02-.02-.04-.03-.06,0,0,0,0,0,0Z"/>
    <path class="cls-2" d="m27.27,40.19s0,0,0,0c-.05-.04.07.06,0,0Z"/>
    <path class="cls-2" d="m29.64,41.55s-.03-.01-.04-.02c-.02,0-.04-.02-.06-.02.03.01.07.03.1.04Z"/>
    <path class="cls-2" d="m26.81,40.92s-.05.06-.02.03c0,0,0,0,0,0,0,0,0,0,0,0,0,0,0,0,0-.01Z"/>
    <path class="cls-2" d="m27.7,43.85c.53.28,1.09.5,1.65.7.57.2,1.15.37,1.73.51.55.14,1.11.26,1.67.36.48.09.97.16,1.46.21.27.03.55.06.82.04.42-.04.82-.17,1.15-.44.28-.23.45-.58.47-.94,0-.15-.02-.31-.07-.45.04.1,0,.23-.04.32-.05.1-.15.16-.25.19-.1.03-.23.01-.32-.04-.08-.05-.13-.11-.17-.19,0,0,0,0,0,0,0-.02-.01-.03-.02-.05.01.04.03.08.03.13,0-.02,0-.04,0-.06v.11s.02,0,.02,0c0,.04,0,.07-.01.11,0-.02,0-.04,0-.05,0,.03-.02.07-.03.1,0-.01.02-.03.02-.04-.01.03-.03.07-.04.1,0-.02.01-.04.02-.05-.02.04-.04.08-.06.11,0,0,0,0,0,0,0-.01.02-.02.03-.03-.05.07-.06.08-.04.05,0,0,0-.01.01-.02,0,0,0,0,0,0-.02.02-.04.05-.07.07,0,0-.01.01-.02.02,0,0,0,0,0,0-.02.01-.03.03-.05.04.02-.02.04-.03.05-.04,0,0,0,0,0,0,0,0-.05.04-.07.05-.05.03-.1.06-.16.08.02,0,.03-.01.05-.02-.03.01-.07.03-.1.04.02,0,.03-.02.05-.02-.12.04-.24.08-.36.1.02,0,.03,0,.05,0-.04,0-.07,0-.11.01.02,0,.04,0,.06,0-.3.03-.61-.01-.9-.04-.11-.01-.23-.03-.34-.04.02,0,.04,0,.05,0-.04,0-.07,0-.11-.01.02,0,.04,0,.06,0-.61-.08-1.21-.19-1.81-.32-.71-.16-1.42-.34-2.11-.56-.37-.12-.74-.25-1.1-.41.02,0,.04.02.06.03-.03-.01-.07-.03-.1-.04.01,0,.02,0,.04.01-.37-.16-.74-.34-1.09-.55-.08-.05-.16-.1-.24-.16-.04-.03-.07-.05-.11-.08,0,0-.01,0-.02-.02.01,0,.02.02.04.03-.02-.01-.03-.02-.04-.03-.03-.02-.05-.04,0,0,0,0,0,0,0,0,0,0-.01,0-.02-.02-.13-.11-.26-.22-.37-.35-.02-.03-.05-.06-.07-.09,0,0,0,0,0,0,0,0,.01.02.02.02.03.05-.08-.1-.04-.05,0,0,.01.01.02.02-.01-.02-.02-.03-.03-.05-.04-.06-.08-.13-.11-.19,0,.02.01.03.02.05-.01-.03-.03-.07-.04-.1,0,.02.02.04.03.05-.03-.08-.05-.16-.07-.25,0,.02,0,.04,0,.05,0-.04,0-.07-.01-.11,0,.02,0,.04,0,.06-.01-.12-.01-.25,0-.37,0,.02,0,.04,0,.06,0-.04,0-.07.01-.11,0,.02,0,.04,0,.05.02-.09.04-.19.07-.28,0,.02-.02.04-.03.06.01-.03.03-.07.04-.1,0,.01,0,.03-.01.04.01-.02.02-.05.04-.07.01-.02.02-.04.03-.05,0,0,0,0,0,0-.03.03,0,0,.02-.03,0,0,0,0,0-.01,0,0,0,0,0,0,0,0,0,0,0,0,0,0,0,0,0,0,0,0,0,0,.02-.01,0,0,0,0,0,0,0,0,0,0,0,0,0,0,0,0,0,0-.06-.05-.13-.1-.19-.15.09.04.18.08.27.11,0,0,0,0,.01,0,0,0,0,0,0,0,0,0,0,0,0,0,.01,0,.03,0,.04,0-.01,0-.02,0-.03,0,0,0,0,0,0,0,0,0-.01,0-.02,0-.01,0-.02,0-.03,0,0,0-.01,0-.02,0,0,0,0,0-.01,0,0,0,0,0,0,0,.86.64,1.8,1.15,2.8,1.54,1.05.41,2.14.68,3.25.84.34.05.69.09,1.03.12.28.02.55.03.83.06-.02,0-.04,0-.06,0,.04,0,.07,0,.11.01-.02,0-.03,0-.05,0,.18.03.35.07.52.13-.01,0-.02-.01-.04-.02.03.01.07.03.1.04-.02,0-.04-.02-.06-.03.07.03.13.06.19.1.03.02.05.04.08.05,0,0,0,0,0,0-.08-.06.07.05.01,0,0,0,0,0,0,0,.01.01.03.02.04.03.03.03.06.05.08.08,0,.01.02.02.03.03,0,0,0,0,0,0-.04-.06.07.08.02.03,0,0-.01-.01-.02-.02.04.06.07.12.1.18,0,0,0,0,0-.01,0-.01,0-.02-.01-.04,0,.01,0,.02.01.03-.08-.22.1-.44.29-.5.1-.03.23-.01.32.04.08.05.13.12.17.2-.1-.23-.23-.44-.42-.61-.2-.18-.43-.3-.68-.39-.45-.17-.93-.17-1.41-.2-.28-.02-.55-.05-.82-.09.02,0,.04,0,.06,0-.04,0-.07,0-.11-.01.02,0,.03,0,.05,0-.99-.14-1.96-.36-2.9-.68-.25-.09-.49-.18-.74-.28.01,0,.03.01.04.02-.03-.01-.07-.03-.1-.04.02,0,.04.02.06.02-.78-.33-1.53-.74-2.21-1.25-.04-.03-.08-.06-.12-.09.07.05-.06-.05,0,0,0,0,0,0,0,0,0,0,0,0,0,0-.06-.04-.11-.09-.18-.12-.13-.06-.29-.04-.43,0-.18.05-.34.16-.46.3-.25.29-.36.67-.38,1.05-.02.35.05.71.22,1.01.11.2.26.38.42.54.36.36.8.64,1.24.88Z"/>
    <path class="cls-2" d="m36.4,43.59c-.09-.05-.22-.07-.32-.04-.2.06-.37.29-.29.5,0,.02.02.04.03.06.04.08.09.15.17.19.09.05.22.07.32.04.1-.03.2-.09.25-.19.05-.09.08-.22.04-.32,0-.02-.01-.03-.02-.05-.04-.08-.09-.15-.17-.2Z"/>
    <path class="cls-2" d="m33.3,42.5s-.04,0-.06,0c-.02,0-.03,0-.05,0,.04,0,.07,0,.11.01Z"/>
    <polygon class="cls-2" points="26.86 40.87 26.86 40.88 26.86 40.88 26.87 40.87 26.86 40.87"/>
    <path class="cls-2" d="m26.89,40.86s-.01,0-.02,0c0,0,0,0,0,0,0,0,.01,0,.02,0,0,0,0,0,.01,0,0,0,0,0,0,0Z"/>
    <path class="cls-2" d="m26.88,40.87s.02,0,.03,0c0,0-.01,0-.02,0,0,0,0,0-.01,0Z"/>
    <path class="cls-2" d="m26.89,40.86s.01,0,.02,0c0,0,0,0,.01,0,0,0,0,0,0,0,0,0-.01,0-.02,0,0,0,0,0,0,0Z"/>
    <path class="cls-2" d="m26.92,40.86s0,0,0,0c0,0,0,0-.01,0,0,0,.01,0,.02,0Z"/>
    <path class="cls-2" d="m26.87,40.87s0,0,0,0c0,0,0,0,0,0Z"/>
    <polygon class="cls-2" points="26.82 40.91 26.82 40.91 26.82 40.91 26.82 40.91 26.82 40.91"/>
    <path class="cls-2" d="m26.88,40.87s0,0,0,0c0,0,0,0-.01,0,0,0,0,0,0,0,0,0,0,0,0,0Z"/>
    <path class="cls-2" d="m26.88,40.87s0,0,.01,0c0,0,0,0,0,0-.01,0-.03,0-.04,0,0,0,.02,0,.03,0,0,0,0,0,0,0Z"/>
    <path class="cls-2" d="m26.85,40.89s0,0,.01-.01c0,0,0,0,0,0,0,0,0,0-.01,0,0,0,0,0,0,0,0,0,0,0,0,0,0,0,0,0,0,0Z"/>
    <path class="cls-2" d="m26.86,40.88s-.02,0-.03,0c0,0,0,0,0,0,0,0,0,0,0,0,0,0,0,0,.01,0Z"/>
    <path class="cls-2" d="m26.9,40.86s0,0,.01,0c0,0,0,0,0,0,0,0-.01,0-.02,0,0,0,0,0,0,0Z"/>
    <path class="cls-2" d="m26.84,40.9s0,0,0,0c0,0-.01,0-.02.01,0,0,0,0,0,0,0,0,.01,0,.02-.01Z"/>
    <path class="cls-2" d="m26.87,40.87s-.02,0-.03,0c.01,0,.03,0,.04,0,0,0,.01,0,.02,0-.09-.04-.18-.08-.27-.11.06.05.13.1.19.15.01,0,.02,0,.03-.01,0,0,.01,0,.01,0Z"/>
    <path class="cls-2" d="m26.86,40.87s-.02,0-.03.01c0,0,0,0,0,0,0,0,.02,0,.03,0,0,0,0,0,0,0Z"/>
  </g>
  <g>
    <polygon class="cls-2" points="27.22 49.92 27.23 49.91 27.22 49.91 27.21 49.92 27.22 49.92"/>
    <polygon class="cls-2" points="27.17 49.95 27.17 49.94 27.16 49.95 27.17 49.95"/>
    <path class="cls-2" d="m27.17,49.94s.01,0,.01,0c0,0,.01,0,.02,0,0,0-.01,0-.02,0,0,0,0,0-.01.01Z"/>
    <polygon class="cls-2" points="27.15 49.94 27.16 49.94 27.16 49.94 27.15 49.94"/>
    <path class="cls-2" d="m27.14,49.96s0,0,0,0c0,0,0,0,0,0Z"/>
    <path class="cls-2" d="m27.19,49.92s.01,0,.02,0c0,0,0,0-.01,0,0,0,0,0,0,0Z"/>
    <path class="cls-2" d="m27.26,49.91s0,0,0,0c0,0,0,0-.01,0,0,0,.01,0,.02,0Z"/>
    <path class="cls-2" d="m35.56,52.63s.02.01.04.02c.02,0,.04.02.06.03-.03-.01-.07-.03-.1-.04Z"/>
    <path class="cls-2" d="m35.02,52.5s.04,0,.06,0c.02,0,.03,0,.05,0-.04,0-.07,0-.11-.01Z"/>
    <path class="cls-2" d="m27.28,49.9s-.03,0-.04,0c0,0,0,0,0,0,.01,0,.02,0,.03,0Z"/>
    <path class="cls-2" d="m27.03,50.17s.02-.04.03-.06c0-.01,0-.03.01-.04-.01.03-.03.07-.04.1Z"/>
    <path class="cls-2" d="m35.87,52.8s0,0,0,0c0,0,0,0,0,0,.06.04-.09-.07-.01,0Z"/>
    <path class="cls-2" d="m27.7,51.73s-.02-.02-.04-.03c0,0,0,0,0,0,.01,0,.02.02.04.03Z"/>
    <path class="cls-2" d="m36.09,53.54s-.02.02-.03.03c0,0,0,.01-.01.02-.02.03-.01.02.04-.05Z"/>
    <path class="cls-2" d="m35.44,53.88s-.03,0-.05,0c-.02,0-.04,0-.06,0,.04,0,.07,0,.11-.01Z"/>
    <path class="cls-2" d="m35.79,53.78s-.03.01-.05.02c-.02,0-.03.02-.05.02.03-.01.07-.03.1-.04Z"/>
    <path class="cls-2" d="m35.97,53.66s0,0,0,0c0,0,0,0,0,0Z"/>
    <path class="cls-2" d="m36.15,53.41s-.01.03-.02.04c0,.02-.01.04-.02.05.01-.03.03-.07.04-.1Z"/>
    <path class="cls-2" d="m36.89,52.84s.01.03.02.05c0-.02-.01-.03-.02-.05Z"/>
    <path class="cls-2" d="m34.2,53.81s-.04,0-.05,0c-.02,0-.04,0-.06,0,.04,0,.07,0,.11.01Z"/>
    <path class="cls-2" d="m27.06,51.05s-.01-.03-.02-.04c0-.02-.02-.04-.03-.05.01.03.03.07.04.1Z"/>
    <path class="cls-2" d="m26.97,50.44s0-.04,0-.06c0-.02,0-.04,0-.05,0,.04,0,.07-.01.11Z"/>
    <path class="cls-2" d="m27.22,51.28s-.01-.02-.02-.02c0,0,0,0,0,0,0,0-.01-.01-.02-.02-.04-.04.07.1.04.05Z"/>
    <path class="cls-2" d="m26.98,50.81s0-.04,0-.05c0-.02,0-.04,0-.06,0,.04,0,.07.01.11Z"/>
    <path class="cls-2" d="m27.2,49.92s0,0,.01,0c0,0,0,0,0,0-.01,0-.03,0-.04,0,0,0,.02,0,.03,0,0,0,0,0,0,0Z"/>
    <path class="cls-2" d="m29.18,52.54s-.04-.02-.06-.03c-.01,0-.02,0-.04-.01.03.01.07.03.1.04Z"/>
    <polygon class="cls-2" points="27.25 49.9 27.24 49.9 27.24 49.91 27.25 49.9"/>
    <path class="cls-2" d="m36.01,52.94s0,0,0,0c0,0,.01.01.02.02.05.06-.06-.09-.02-.03Z"/>
    <path class="cls-2" d="m36.16,53.35s0-.04,0-.05c0-.02,0-.03,0-.05,0,.03,0,.07,0,.1Z"/>
    <path class="cls-2" d="m36.12,53.13s.02.03.02.05c0,0,0,0,0,0,0-.02-.02-.04-.02-.05,0,0,0,0,0,.01Z"/>
    <polygon class="cls-2" points="36.16 53.3 36.16 53.3 36.16 53.3 36.16 53.3"/>
    <path class="cls-2" d="m36.16,53.3s0-.07-.01-.11c0,.02,0,.04,0,.06,0,.02,0,.03,0,.05,0,0,0,0,0,0Z"/>
    <path class="cls-2" d="m36.16,53.3s0,.04,0,.05c0,.02,0,.04,0,.05,0-.04,0-.07.01-.11,0,0,0,0,0,0,0,0,0,0,0,0,0,0,0,0,0,0Z"/>
    <path class="cls-2" d="m36.1,53.07s.01.02.01.04c0,0,0,0,0,0,0-.01,0-.02-.01-.03Z"/>
    <path class="cls-2" d="m27.2,49.92s0,0,0,0c0,0,0,0,0,0Z"/>
    <path class="cls-2" d="m27.59,49.24s0,0,0,0c-.05-.04.07.06,0,0Z"/>
    <path class="cls-2" d="m28.02,52.9c.53.28,1.09.5,1.65.7.57.2,1.15.37,1.73.51.55.14,1.11.26,1.67.36.48.09.97.16,1.46.21.27.03.55.06.82.04.42-.04.82-.17,1.15-.44.28-.23.45-.58.47-.94,0-.15-.02-.31-.07-.45.04.1,0,.23-.04.32-.05.1-.15.16-.25.19-.1.03-.23.01-.32-.04-.08-.05-.13-.11-.17-.19,0,0,0,0,0,0,0-.02-.01-.03-.02-.05.01.04.03.08.03.13,0-.02,0-.04,0-.06,0,.04,0,.07.01.11,0,0,0,0,0,0,0,.04,0,.07-.01.11,0-.02,0-.04,0-.05,0,.03-.02.07-.03.1,0-.01.02-.03.02-.04-.01.03-.03.07-.04.1,0-.02.01-.04.02-.05-.02.04-.04.08-.06.11,0,0,0,0,0,0,0-.01.02-.02.03-.03-.05.07-.06.08-.04.05,0,0,0-.01.01-.02,0,0,0,0,0,0-.02.02-.04.05-.07.07,0,0-.01.01-.02.02,0,0,0,0,0,0-.02.01-.03.03-.05.04.02-.02.04-.03.05-.04,0,0,0,0,0,0,0,0-.05.04-.07.05-.05.03-.1.06-.16.08.02,0,.03-.01.05-.02-.03.01-.07.03-.1.04.02,0,.03-.02.05-.02-.12.04-.24.08-.36.1.02,0,.03,0,.05,0-.04,0-.07,0-.11.01.02,0,.04,0,.06,0-.3.03-.61-.01-.9-.04-.11-.01-.23-.03-.34-.04.02,0,.04,0,.05,0-.04,0-.07,0-.11-.01.02,0,.04,0,.06,0-.61-.08-1.21-.19-1.81-.32-.71-.16-1.42-.34-2.11-.56-.37-.12-.74-.25-1.1-.41.02,0,.04.02.06.03-.03-.01-.07-.03-.1-.04.01,0,.02,0,.04.01-.37-.16-.74-.34-1.09-.55-.08-.05-.16-.1-.24-.16-.04-.03-.07-.05-.11-.08,0,0-.01,0-.02-.02.01,0,.02.02.04.03-.02-.01-.03-.02-.04-.03-.03-.02-.05-.04,0,0,0,0,0,0,0,0,0,0-.01-.01-.02-.02-.13-.11-.26-.22-.37-.35-.02-.03-.05-.06-.07-.09,0,0,0,0,0,0,0,0,.01.02.02.02.03.05-.08-.1-.04-.05,0,0,.01.01.02.02-.01-.02-.02-.03-.03-.05-.04-.06-.08-.13-.11-.19,0,.02.01.03.02.04-.01-.03-.03-.07-.04-.1,0,.02.02.04.03.05-.03-.08-.05-.16-.07-.25,0,.02,0,.04,0,.05,0-.04,0-.07-.01-.11,0,.02,0,.04,0,.06-.01-.12-.01-.25,0-.37,0,.02,0,.04,0,.06,0-.04,0-.07.01-.11,0,.02,0,.04,0,.05.02-.09.04-.19.07-.28,0,.02-.02.04-.03.06.01-.03.03-.07.04-.1,0,.01,0,.03-.01.04.01-.02.02-.05.04-.07.01-.02.02-.04.03-.05,0,0,0,0,0,0-.03.03,0,0,.02-.03,0,0,0,0,0-.01,0,0,0,0,0,0,0,0,0,0,0,0,0,0,0,0,0,0,0,0,0,0,.02-.01,0,0,0,0,0,0,0,0,0,0,0,0,0,0,0,0,0,0-.06-.05-.13-.1-.19-.15.09.04.18.08.27.11,0,0,0,0,.01,0,0,0,0,0,0,0,0,0,0,0,0,0,.01,0,.03,0,.04,0-.01,0-.02,0-.03,0,0,0,0,0,0,0,0,0-.01,0-.02,0-.01,0-.02,0-.03,0,0,0-.01,0-.02,0,0,0,0,0-.01,0,0,0,0,0,0,0,.86.64,1.8,1.15,2.8,1.54,1.05.41,2.14.68,3.25.84.34.05.69.09,1.03.12.28.02.55.03.83.06-.02,0-.04,0-.06,0,.04,0,.07,0,.11.01-.02,0-.03,0-.05,0,.18.03.35.07.52.13-.01,0-.02-.01-.04-.02.03.01.07.03.1.04-.02,0-.04-.02-.06-.03.07.03.13.06.19.1.03.02.05.04.08.05,0,0,0,0,0,0-.08-.06.07.05.01,0,0,0,0,0,0,0,.01.01.03.02.04.03.03.03.06.05.08.08,0,.01.02.02.03.03,0,0,0,0,0,0-.04-.06.07.08.02.03,0,0-.01-.01-.02-.02.04.06.07.12.1.18,0,0,0,0,0-.01,0-.01,0-.02-.01-.04,0,.01,0,.02.01.03-.08-.22.1-.44.29-.5.1-.03.23-.01.32.04.08.05.13.12.17.2-.1-.23-.23-.44-.42-.61-.2-.18-.43-.3-.68-.39-.45-.17-.93-.17-1.41-.2-.28-.02-.55-.05-.82-.09.02,0,.04,0,.06,0-.04,0-.07,0-.11-.01.02,0,.03,0,.05,0-.99-.14-1.96-.36-2.9-.68-.25-.09-.49-.18-.74-.28.01,0,.03.01.04.02-.03-.01-.07-.03-.1-.04.02,0,.04.02.06.02-.78-.33-1.53-.74-2.21-1.25-.04-.03-.08-.06-.12-.09.07.05-.06-.05,0,0,0,0,0,0,0,0,0,0,0,0,0,0-.06-.04-.11-.09-.18-.12-.13-.06-.29-.04-.43,0-.18.05-.34.16-.46.3-.25.29-.36.67-.38,1.05-.02.35.05.71.22,1.01.11.2.26.38.42.54.36.36.8.64,1.24.88Z"/>
    <path class="cls-2" d="m29.97,50.6s-.03-.01-.04-.02c-.02,0-.04-.02-.06-.02.03.01.07.03.1.04Z"/>
    <path class="cls-2" d="m33.62,51.55s-.04,0-.06,0c-.02,0-.03,0-.05,0,.04,0,.07,0,.11.01Z"/>
    <path class="cls-2" d="m36.72,52.64c-.09-.05-.22-.07-.32-.04-.2.06-.37.29-.29.5,0,.02.02.04.03.06.04.08.09.15.17.19.09.05.22.07.32.04.1-.03.2-.09.25-.19.05-.09.08-.22.04-.32,0-.02-.01-.03-.02-.05-.04-.08-.09-.15-.17-.2Z"/>
    <path class="cls-2" d="m36.12,53.11s.02.04.02.05c0-.02-.02-.04-.03-.06,0,0,0,0,0,0Z"/>
    <path class="cls-2" d="m27.17,49.95s0,0,0,0c0,0-.01.01-.02.01,0,0,0,0-.01.01,0,0,0,.01,0,.01,0,0,0,0,0,0,.01-.01.02-.03.04-.04,0,0,0,0,0,0Z"/>
    <path class="cls-2" d="m27.22,49.92s.01,0,.02,0c0,0,0,0,.01,0,0,0,0,0,0,0,0,0-.01,0-.02,0,0,0,0,0,0,0Z"/>
    <path class="cls-2" d="m27.23,49.91s0,0,.01,0c0,0,0,0,0,0,0,0-.01,0-.02,0,0,0,0,0,0,0Z"/>
    <path class="cls-2" d="m27.21,49.92s.02,0,.03,0c0,0-.01,0-.02,0,0,0,0,0-.01,0Z"/>
    <path class="cls-2" d="m27.25,49.91s0,0,0,0c0,0,0,0-.01,0,0,0,.01,0,.02,0Z"/>
    <path class="cls-2" d="m27.2,49.92s0,0,0,0c0,0,0,0-.01,0,0,0,0,0,0,0,0,0,0,0,0,0Z"/>
    <path class="cls-2" d="m27.21,49.92s-.01,0-.02,0c0,0,0,0,0,0,0,0,.01,0,.02,0,0,0,0,0,.01,0,0,0,0,0,0,0Z"/>
    <path class="cls-2" d="m27.13,49.97s-.05.06-.02.03c0,0,0,0,0,0,0,0,0,0,0,0,0,0,0,0,0-.01Z"/>
    <polygon class="cls-2" points="27.19 49.93 27.18 49.93 27.19 49.93 27.19 49.92 27.19 49.93"/>
    <path class="cls-2" d="m27.17,49.94s0,0,.01-.01c0,0,0,0,0,0,0,0,0,0-.01,0,0,0,0,0,0,0,0,0,0,0,0,0,0,0,0,0,0,0Z"/>
    <path class="cls-2" d="m27.16,49.95s0,0,0,0c0,0-.01,0-.02.01,0,0,0,0,0,0,0,0,.01,0,.02-.01Z"/>
    <polygon class="cls-2" points="27.15 49.96 27.14 49.96 27.14 49.96 27.15 49.96 27.15 49.96"/>
    <path class="cls-2" d="m27.18,49.93s-.02,0-.03,0c0,0,0,0,0,0,0,0,0,0,0,0,0,0,0,0,.01,0Z"/>
    <path class="cls-2" d="m27.19,49.93s-.02,0-.03.01c0,0,0,0,0,0,0,0,.02,0,.03,0,0,0,0,0,0,0Z"/>
    <path class="cls-2" d="m27.2,49.92s-.02,0-.03,0c.01,0,.03,0,.04,0,0,0,.01,0,.02,0-.09-.04-.18-.08-.27-.11.06.05.13.1.19.15.01,0,.02,0,.03-.01,0,0,.01,0,.01,0Z"/>
  </g>
  <g>
    <path class="cls-2" d="m51.64,51.73s-.09.05-.14.08c0,.05,0,.11,0,.16,0,.32.44.35.53.1.07-.21-.15-.48-.4-.34Z"/>
    <path class="cls-2" d="m37.87,58.73c0-.14,0-.28,0-.42-.14.06-.28.12-.42.18.14.08.28.16.42.24Z"/>
    <path class="cls-2" d="m36.81,28.39c.07-.02.14-.03.22-.05,0-.07,0-.15-.01-.22-.07.09-.14.18-.2.27Z"/>
    <path class="cls-2" d="m51.75,23.67c0,.13,0,.26,0,.38.12-.04.24-.08.35-.12-.12-.09-.23-.18-.35-.27Z"/>
    <path class="cls-2" d="m37.74,58.96c2.14-.93,4.27-1.87,6.39-2.84,1.81-.83,3.62-1.69,5.39-2.6.81-.42,1.62-.85,2.4-1.31.06-.04.1-.08.12-.14-.1.25-.54.22-.53-.1,0-.05,0-.11,0-.16-1.45.84-2.95,1.6-4.46,2.33-1.95.94-3.92,1.84-5.89,2.72-1.09.49-2.18.97-3.28,1.44,0,.14,0,.28,0,.42-.14-.08-.28-.16-.42-.24.14-.06.28-.12.42-.18.04-3.84.02-7.69-.05-11.53-.08-3.98-.22-7.97-.42-11.95-.11-2.16-.24-4.32-.38-6.48-.07.02-.14.03-.22.05.07-.09.14-.18.2-.27,0,.07,0,.15.01.22,4.02-.88,7.96-2.07,11.87-3.35.95-.31,1.9-.63,2.85-.94,0-.13,0-.26,0-.38.12.09.23.18.35.27-.12.04-.24.08-.35.12-.05,3.66-.08,7.32-.12,10.98-.03,3.63-.06,7.26-.09,10.89-.01,1.96-.03,3.92-.04,5.88.05-.03.09-.05.14-.08.25-.14.47.13.4.34.01-.03.02-.06.02-.1.02-3.59.05-7.18.07-10.76.03-3.69.06-7.37.1-11.06.02-2.16.05-4.32.07-6.47,0-.17-.18-.32-.35-.27-3.9,1.3-7.81,2.59-11.8,3.62-1.16.3-2.33.58-3.5.83-.11.02-.21.15-.2.27.27,3.98.48,7.96.62,11.94.15,3.98.23,7.97.26,11.95.01,2.24,0,4.47-.02,6.71,0,.23.23.32.42.24Z"/>
  </g>
  <g>
    <path class="cls-2" d="m48.91,25.9c0,.12.02.24.03.37.11-.03.22-.07.32-.1-.12-.09-.23-.18-.35-.27Z"/>
    <path class="cls-2" d="m48.97,51.91c-.06.03-.12.06-.18.09.01.08.03.15.05.23.04-.1.08-.21.13-.31Z"/>
    <path class="cls-2" d="m50.5,28.75c0,.06,0,.13,0,.19.07.03.14.05.2.07-.07-.09-.14-.18-.2-.27Z"/>
    <path class="cls-2" d="m40.74,28.75c.09-.03.18-.05.27-.08-.02-.11-.06-.22-.1-.33-.06.14-.11.27-.17.41Z"/>
    <path class="cls-2" d="m38.38,33.24s.1-.05.15-.08c0-.05,0-.11,0-.16-.05.08-.09.16-.14.24Z"/>
    <path class="cls-2" d="m39,53.62s-.05,0,0,0h0Z"/>
    <path class="cls-2" d="m39.12,53.37c0-.1,0-.21,0-.31-.12.01-.23.02-.35.05.12.09.23.18.35.27Z"/>
    <path class="cls-2" d="m50.68,49.36c-.11-.02-.23-.02-.35-.02,0,.09,0,.19,0,.28.12-.09.23-.18.35-.27Z"/>
    <path class="cls-2" d="m50.54,49.89s.02,0,.03,0c.06,0-.05,0-.03,0Z"/>
    <path class="cls-2" d="m40.68,56.12s0,.02.01.03c.06.1.17.14.27.13-.11,0-.24-.05-.29-.16Z"/>
    <path class="cls-2" d="m40.49,28.93s0,0,0,0h0Z"/>
    <path class="cls-2" d="m39.73,31.55c-.29.32-.62.59-.98.83-.21.14-.42.27-.65.38-.08.04-.14.15-.14.24.14,2.61.24,5.22.33,7.84.09,2.76.17,5.52.22,8.29.03,1.42.04,2.83.05,4.25,0,.19.17.3.35.27.01,0,.02,0,.04,0,.01,0,.03,0,.04,0,0,0,0,0,0,0-.05,0,.05,0,0,0,0,0,0,0,0,0,.12-.01.24-.02.36-.03.3,0,.61.01.87.15.56.3.57,1.13.51,1.69-.01.11-.02.2-.05.34-.01.05-.02.1-.04.16-.02.07-.01.13.01.18-.05-.12-.01-.29.11-.35.17-.08.34-.16.51-.23.05-.38.04-.77-.03-1.13-.08-.4-.27-.8-.6-1.04-.31-.23-.73-.3-1.11-.31-.14,0-.29,0-.43.01,0,.1,0,.21,0,.31-.12-.09-.23-.18-.35-.27.11-.02.23-.04.35-.05-.02-2.51-.07-5.02-.13-7.53-.07-2.76-.16-5.52-.27-8.28-.06-1.36-.12-2.72-.19-4.08-.05.03-.1.05-.15.08.05-.08.09-.16.14-.24,0,.05,0,.11,0,.16.56-.3,1.11-.7,1.54-1.16.4-.43.64-.95.81-1.51.14-.46.22-.96.18-1.45,0-.12-.02-.25-.05-.37-.09.03-.18.05-.27.08.06-.14.11-.27.17-.41.05.1.08.21.1.33.93-.28,1.86-.56,2.79-.84,1.37-.42,2.74-.83,4.11-1.25.34-.11.69-.21,1.03-.32-.01-.12-.02-.24-.03-.37.12.09.23.18.35.27-.11.03-.22.07-.32.1.02.18.04.36.07.55.07.44.13.94.4,1.31.27.37.67.65,1.1.82,0-.06,0-.13,0-.19.07.09.14.18.2.27-.07-.02-.14-.05-.2-.07-.03,2.57-.05,5.14-.07,7.71-.02,2.92-.05,5.83-.07,8.75,0,1.31-.02,2.62-.03,3.94.12,0,.23,0,.35.02-.12.09-.23.18-.35.27,0-.09,0-.19,0-.28-.1,0-.2.02-.3.05-.43.12-.73.43-.93.82-.27.53-.42,1.19-.32,1.79.06-.03.12-.06.18-.09-.04.1-.08.21-.13.31-.02-.07-.04-.15-.05-.23-.91.45-1.83.88-2.75,1.31-1.27.6-2.54,1.2-3.81,1.79-.31.14-.62.29-.93.43-.02.19-.06.37-.1.55-.02.07-.06.13-.11.16,1.01-.46,2.01-.93,3.02-1.41,1.26-.59,2.52-1.19,3.78-1.79.46-.22.91-.43,1.36-.66.11-.05.16-.2.13-.31-.01-.04-.02-.08-.03-.12,0-.01,0-.02,0-.04,0,0,0,0,0-.02,0,0,0,.02,0,.02,0,0,0-.05,0-.06,0-.07-.01-.13-.01-.2,0-.36.06-.73.21-1.06.14-.31.32-.58.64-.67.03,0,.06-.01.09-.02,0,0,.04,0,.05,0,0,0-.01,0-.02,0,.02,0,.02,0,.02,0,.05,0,.1,0,.14,0,.03,0,.06,0,.1,0,0,0,0,0,0,0,0,0-.02,0-.03,0-.02,0,.09,0,.03,0,.17.02.32-.09.32-.27.02-2.66.04-5.32.06-7.98.02-2.91.05-5.82.07-8.73.01-1.39.03-2.78.04-4.17,0-.12-.09-.23-.2-.27-.04-.01-.08-.03-.12-.04,0,0-.01,0-.02,0,0,0,.01,0,.02,0-.04-.02-.03-.01-.02,0-.02,0-.04-.02-.07-.03-.05-.02-.09-.05-.14-.07-.25-.13-.48-.29-.64-.52-.1-.14-.15-.3-.19-.47-.06-.23-.1-.47-.14-.71-.04-.24-.06-.49-.07-.74,0-.17-.17-.32-.35-.27-1.01.31-2.03.62-3.04.93-1.37.42-2.74.84-4.12,1.25-.45.14-.91.28-1.36.41-.19.06-.24.24-.17.41-.06-.13,0,.02.01.06.01.04.02.09.03.13,0,.03.01.06.02.09,0,.02,0,.03,0,.03,0,0,0,0,0,0,0,0,0,.01,0,.03.04.41,0,.81-.11,1.21-.13.5-.32.99-.66,1.37Z"/>
    <path class="cls-2" d="m50.73,28.44s-.01,0-.02,0c-.02,0-.03-.01.02,0Z"/>
    <path class="cls-2" d="m40.97,56.28s.08-.01.12-.04c0,0-.01,0-.02,0-.03.02-.07.03-.1.03Z"/>
    <path class="cls-2" d="m41.2,56.08c.05-.18.08-.36.1-.55-.17.08-.34.16-.51.23-.13.06-.16.23-.11.35.05.11.17.17.29.16.04,0,.07-.01.1-.03,0,0,.01,0,.02,0,.05-.03.09-.08.11-.16Z"/>
    <path class="cls-2" d="m50.3,49.9s.01,0,.02,0c0,0,0,0-.02,0Z"/>
    <path class="cls-2" d="m49.34,51.91s0-.02,0-.02c0,.02,0,.03,0,.02Z"/>
  </g>
</svg>