<?xml version="1.0" encoding="UTF-8"?>
<svg id="Capa_1" data-name="Capa 1" xmlns="http://www.w3.org/2000/svg" width="80" height="80" viewBox="0 0 80 80">
  <defs>
    <style>
      .cls-1 {
        fill: #6f0318;
      }

      .cls-1, .cls-2, .cls-3, .cls-4, .cls-5 {
        stroke-width: 0px;
      }

      .cls-2 {
        fill: #42250d;
      }

      .cls-3 {
        fill: #eeceb5;
      }

      .cls-4 {
        fill: #ffc466;
      }

      .cls-5 {
        fill: #e89a54;
      }
    </style>
  </defs>
  <path class="cls-3" d="m23.99,43.13c-.18,2.39.89,3.67.89,3.67,1.89.99,20.76,8.03,22.29,8.34l9.92-20.65s-.88-2.6-.41-4.54l-32.7,13.18Z"/>
  <g>
    <path class="cls-2" d="m25.36,43.78s0-.02,0-.03c0,0,0,0,0,0,0,0,0,.01,0,.02Z"/>
    <path class="cls-2" d="m25.76,46.23s0,0,0-.01c.02.05.01.03,0,.01Z"/>
    <path class="cls-2" d="m25.36,43.79s0,0,0-.01c0,0,0,0,0-.02,0,0,0,0,0,0,0,0,0,0,0,0,0,0,0,0,0,0,0-.03.01-.07.02-.1.03-.16-.04-.34-.21-.38-.15-.03-.35.05-.38.21-.19,1.07.04,2.18.49,3.16.12.26.25.5.41.73.09.13.27.2.42.11.13-.09.21-.28.11-.42-.13-.2-.25-.4-.35-.62-.03-.05-.05-.11-.08-.16,0-.02-.02-.04-.03-.06,0,.02.01.04,0-.01,0,0,0,0,0,.01,0,0,0,0,0,0,0-.02-.02-.04-.02-.06-.05-.12-.09-.24-.13-.36-.08-.24-.14-.49-.19-.74-.01-.06-.02-.12-.03-.18,0-.02,0-.05-.01-.07,0,.05,0,0,0-.01,0,0,0,0,0,.01,0,0,0,0,0,0,0-.02,0-.04,0-.06-.01-.12-.02-.25-.03-.37,0-.13,0-.26,0-.4,0-.07,0-.14.02-.2Z"/>
    <path class="cls-2" d="m25.37,44.82s0,0,0-.01c0,0,0,.06,0,.01Z"/>
  </g>
  <path class="cls-2" d="m25.3,46.34c.08.02.17-.02.19-.11.02-.08-.02-.17-.11-.19-.29-.07-.58-.14-.87-.21-.08-.02-.17.02-.19.11-.02.08.02.17.11.19.29.07.58.14.87.21Z"/>
  <path class="cls-2" d="m25.17,45.48c.08,0,.16-.07.15-.15,0-.09-.07-.15-.15-.15-.28-.01-.55-.03-.83-.04-.08,0-.16.07-.15.15,0,.09.07.15.15.15.28.01.55.03.83.04Z"/>
  <path class="cls-2" d="m25.01,44.56c.08.02.17-.02.19-.11.02-.08-.02-.17-.11-.19-.26-.05-.53-.11-.79-.16-.08-.02-.17.02-.19.11-.02.08.02.17.11.19.26.05.53.11.79.16Z"/>
  <polygon class="cls-1" points="57.1 26.58 46.25 48.24 46.46 50.29 57.41 28.47 57.1 26.58"/>
  <path class="cls-5" d="m22.76,42.66c-1.1,2.87,1.52,5.5,1.52,5.5l23.57,8.38,10.6-22.5-1.71-.72.26,1.37-9.83,20.45-22.05-8.23c-1.48-1.37-1.14-3.79-1.14-3.79l-1.23-.47Z"/>
  <polygon class="cls-1" points="47.86 56.53 24.28 47.88 24.15 49.3 47.86 57.9 47.86 56.53"/>
  <path class="cls-2" d="m28.66,50.11c1.5.59,3.01,1.17,4.52,1.75,1.51.57,3.02,1.14,4.54,1.69,1.54.56,3.08,1.11,4.63,1.64,1.58.55,3.18,1.07,4.77,1.59.21.07.41.13.62.2.23.07.51-.09.56-.32.06-.25-.08-.49-.32-.56-1.6-.51-3.2-1.04-4.79-1.58-1.56-.53-3.12-1.08-4.67-1.64-1.52-.55-3.04-1.11-4.55-1.68-1.5-.57-3-1.15-4.5-1.73-1.5-.59-3-1.18-4.5-1.78-.19-.08-.38-.15-.57-.23-.22-.09-.51.1-.56.32-.06.27.08.47.32.56,1.5.6,3,1.2,4.5,1.79Z"/>
  <path class="cls-1" d="m24.15,49.3l.13-1.42c-1.13-1.18-2.04-3.01-1.41-5.04.21-.17,23.59,7.45,23.59,7.45l-.2-1.94-12.03-3.73c-4.08-1.22-8.05-2.43-12.49-3.88,0,0-2.19,5.59,2.41,8.56Z"/>
  <path class="cls-4" d="m34.23,44.62l-12.49-3.88c4.45,1.45,8.41,2.66,12.49,3.88Z"/>
  <path class="cls-1" d="m57.1,26.13s-11.72-3.13-18.75-4.1c-.5-.07-1.01.11-1.36.48-1.43,1.52-5.43,5.83-9.66,10.7-5.28,6.08-5.59,7.52-5.59,7.52l12.49,3.88c3.75,1.12,7.61,2.26,12.02,3.62,0,0,6.9-13.87,10.85-22.11Z"/>
  <g>
    <path class="cls-2" d="m22.88,47.55s0,0-.01-.01c0,0,.01.01.01.01Z"/>
    <path class="cls-2" d="m46.58,49.84c-.22-.07-.43-.14-.65-.21.02.22.04.44.07.65.19-.15.39-.3.58-.44Z"/>
    <path class="cls-2" d="m24.39,48.91c-.24-.15-.42-.29-.61-.45-.03.28-.05.56-.08.84.23-.13.46-.26.69-.4Z"/>
    <path class="cls-2" d="m49.22,43.28c.85-1.72,1.7-3.43,2.54-5.15.94-1.92,1.88-3.84,2.82-5.76.88-1.8,1.75-3.6,2.62-5.4.1-.2.2-.41.29-.61.13-.26.03-.59-.27-.67-.8-.21-1.6-.42-2.41-.62-1.91-.48-3.83-.95-5.75-1.4-2.31-.53-4.63-1.04-6.95-1.48-1.07-.2-2.15-.39-3.23-.55-.31-.04-.62-.11-.93-.08-.38.04-.73.17-1.04.4-.31.24-.57.56-.84.84-1.58,1.69-3.15,3.4-4.7,5.13-2.11,2.34-4.21,4.69-6.22,7.12-1.13,1.38-2.27,2.78-3.22,4.29-.24.39-.48.78-.64,1.21.09-.2.33-.34.54-.27.17.05.34.11.5.16.04-.07.08-.14.12-.21.25-.44.53-.86.82-1.28.23-.32.46-.64.69-.96.32-.43.52-.69.85-1.11,1.85-2.34,3.84-4.58,5.83-6.8,1.72-1.93,3.46-3.84,5.21-5.74.29-.32.59-.63.88-.95.23-.25.48-.58.74-.75.14-.09.24-.13.4-.16.06-.01.08-.02.15-.02.04,0,.07,0,.11,0,0,0,.12,0,.11,0,0,0-.01,0-.02,0,.01,0,.02,0,.02,0,.25.03.49.07.73.11.52.08,1.03.16,1.55.25,2.29.4,4.57.88,6.84,1.39,2.04.46,4.07.94,6.1,1.45.98.24,1.96.49,2.94.75.09-.18.17-.36.26-.53.09.22.18.45.27.67-.05-.01-.1-.03-.15-.04-.13-.03-.25-.07-.38-.1-.77,1.6-1.54,3.2-2.32,4.79-.93,1.92-1.87,3.83-2.81,5.74-.86,1.76-1.73,3.51-2.6,5.27-.66,1.33-1.31,2.66-1.97,3.98-.2.4-.4.81-.6,1.21-.04.09-.09.17-.13.26.12.04.24.07.36.11-.17.07-.35.14-.52.21,0,0,0-.02.01-.02.04-.1.09-.2.14-.3-3.18-.98-6.37-1.93-9.56-2.88-3.07-.92-6.13-1.83-9.18-2.78-1.64-.51-3.27-1.03-4.91-1.56-.03.05-.06.11-.08.16-.02.04-.04.09-.06.13-.02.06-.04.11-.06.17-.05.13-.09.26-.13.39,3,.97,6,1.91,9.02,2.82,3.1.94,6.21,1.86,9.32,2.79,1.82.55,3.64,1.1,5.45,1.66,0-.08-.02-.16-.02-.24-.03-.25.23-.46.46-.46.26,0,.43.2.46.44.22-.43.43-.87.65-1.31.62-1.25,1.24-2.5,1.85-3.74Z"/>
    <path class="cls-2" d="m23.82,47.88c0,.05,0,.11-.01.16.05.05.1.11.15.16-.04-.11-.09-.22-.13-.32Z"/>
    <path class="cls-2" d="m38.29,22.48s0,0-.02,0c0,0,.01,0,.02,0Z"/>
    <path class="cls-2" d="m21.3,40.6s.01-.03.02-.04c0,.01-.01.03-.02.04Z"/>
    <path class="cls-2" d="m45.86,48.01c.17-.07.35-.14.52-.21-.12-.04-.24-.07-.36-.11-.05.1-.1.2-.14.3,0,0,0,.02-.01.02Z"/>
    <path class="cls-2" d="m56.98,26.57c-.09-.22-.18-.45-.27-.67-.09.18-.17.36-.26.53.13.03.25.07.38.1.05.01.1.03.15.04Z"/>
    <path class="cls-2" d="m22.16,46.32s0-.02-.01-.03c.01.03.01.03.01.03Z"/>
    <path class="cls-2" d="m21.62,41.18c.14.05.28.09.42.14.04-.13.08-.26.13-.39.02-.06.04-.11.06-.17,0,0,0,0,0,0-.06.13.04-.12,0,0,0,0,0,0,0,0,.02-.04.04-.09.06-.13.03-.05.06-.11.08-.16-.17-.05-.34-.11-.5-.16-.22-.07-.46.06-.54.27,0,.01-.01.03-.02.04,0,0,0,0,0,.01-.07.25.08.49.32.56Z"/>
    <path class="cls-2" d="m46.13,48.68c-.1-.03-.2-.06-.31-.09.04.35.07.7.11,1.05.22.07.43.14.65.21-.19.15-.39.3-.58.44-.02-.22-.04-.44-.07-.65-.04-.01-.07-.02-.11-.04-.68-.22-1.36-.44-2.04-.66-.99-.32-1.98-.64-2.97-.96-1.18-.38-2.37-.76-3.55-1.15-1.26-.41-2.52-.81-3.78-1.21-1.22-.39-2.44-.78-3.66-1.16-1.06-.33-2.12-.67-3.18-1-.79-.25-1.58-.49-2.37-.72-.39-.12-.8-.25-1.2-.33-.11-.02-.21-.04-.32,0-.28.08-.35.38-.41.63-.07.3-.12.62-.13.93-.06,1.08.28,2.16.84,3.08.22.36.48.7.76,1.01,0-.05,0-.11.01-.16.04.11.09.22.13.32-.05-.05-.1-.11-.15-.16-.01.14-.03.28-.04.42.19.16.38.29.61.45-.23.13-.46.26-.69.4.03-.28.05-.56.08-.84-.02-.02-.05-.04-.07-.06-.21-.18-.42-.38-.6-.59-.08-.09-.15-.17-.22-.26,0,0,0,0-.01-.01,0,0,0,0,.01.01,0,0-.07-.1-.08-.11-.04-.06-.08-.12-.12-.18-.14-.2-.26-.41-.37-.63-.05-.1-.1-.2-.14-.3,0,0,0,0-.01-.03,0,0,0,.02.01.03,0-.01-.04-.09-.04-.1-.02-.06-.05-.12-.07-.19-.08-.22-.14-.44-.2-.67-.02-.1-.04-.2-.06-.3-.01-.05-.02-.11-.03-.17,0-.02,0-.05-.01-.07,0,0,0-.04,0-.07,0,.01,0,.02,0,0,0-.03,0-.02,0,0,0-.03-.01-.11-.01-.12,0-.05-.01-.1-.01-.14,0-.11-.02-.21-.02-.32-.02-.4,0-.8.03-1.2,0-.08.02-.16.03-.24,0,0,0-.05,0-.07,0,.01,0,.02,0-.01,0-.04,0-.02,0,.01,0-.03.01-.09.02-.11.02-.16.05-.31.08-.47.05-.26.11-.52.19-.77-.14-.05-.28-.09-.42-.14-.24-.08-.39-.32-.32-.56,0,0,0,0,0-.01,0,0,0,0,0,0-.29.84-.46,1.71-.52,2.59-.13,1.95.41,3.91,1.76,5.35.41.44.88.81,1.38,1.14.32.21.66-.07.69-.4.02-.24.04-.49.07-.73.01-.16.03-.33.04-.49,0-.11.03-.22,0-.32-.04-.16-.2-.28-.3-.41-.08-.09-.18-.21-.24-.29-.14-.19-.3-.43-.43-.65-.28-.48-.46-.96-.57-1.52-.09-.48-.08-1,.03-1.51-.08-.02-.16-.04-.25-.06-.05-.01-.1-.02-.14-.03-.07-.02.1,0,.09,0,.07,0,.14-.02.19-.06.07-.09.14-.18.21-.27-.04.14-.08.28-.1.42.08.02.17.05.25.07.59.17,1.18.35,1.76.52.85.26,1.71.53,2.56.79,1.03.32,2.06.65,3.09.98,1.12.36,2.25.72,3.37,1.08,1.13.36,2.26.73,3.39,1.09,1.05.34,2.11.68,3.16,1.02.89.29,1.78.58,2.67.86.64.21,1.28.41,1.92.62.3.1.6.21.91.3.01,0,.03,0,.04.01.26.09.61-.15.58-.44-.07-.65-.13-1.29-.2-1.94,0,0,0-.01,0-.02-.02.05-.05.09-.07.14-.09.18-.34.27-.52.21Z"/>
    <path class="cls-2" d="m22.9,43.3s.01,0,.01,0c0,0-.02,0-.03,0,0,0,0,0,.01,0Z"/>
    <path class="cls-2" d="m23.1,43.24c-.05.04-.13.05-.19.06,0,0,0,0-.01,0,0,0,0,0-.01,0,0,0,.02,0,.03,0,0,0-.16-.03-.09,0,.05.01.1.02.14.03.08.02.17.04.25.06.03-.14.06-.28.1-.42-.07.09-.14.18-.21.27Z"/>
    <path class="cls-2" d="m22.22,40.75s0,0,0,0c0,0,0,0,0,0,.04-.11-.06.14,0,0Z"/>
    <path class="cls-2" d="m21.74,44.77s0,.01,0,0c0-.02,0-.03,0,0Z"/>
    <path class="cls-2" d="m21.75,42.65s0,.03,0,.01c0-.03,0-.05,0-.01Z"/>
    <path class="cls-2" d="m46.26,47.89c-.23,0-.48.21-.46.46,0,.08.02.16.02.24.1.03.2.06.31.09.18.06.43-.03.52-.21.02-.05.05-.09.07-.14-.03-.24-.2-.44-.46-.44Z"/>
  </g>
  <g>
    <path class="cls-2" d="m57.1,28.07c-.03.05-.05.11-.08.16.01.06.02.13.03.19l.05-.35Z"/>
    <path class="cls-2" d="m52.62,37.25c-.77,1.57-1.54,3.14-2.32,4.7-.71,1.43-1.43,2.86-2.17,4.27-.61,1.17-1.22,2.33-1.87,3.47-.07.12-.14.24-.2.36-.12.21-.06.51.16.63.22.12.5.06.63-.16.78-1.36,1.52-2.75,2.24-4.15.9-1.74,1.77-3.49,2.64-5.24.94-1.91,1.88-3.82,2.81-5.74.9-1.84,1.79-3.68,2.69-5.52.21-.43.42-.85.63-1.28.07-.15.1-.26.07-.42,0-.02,0-.05-.01-.07-.02-.1-.03-.19-.05-.29-.1-.56-.21-1.12-.31-1.68,0-.04-.02-.08-.02-.12-.04-.24-.34-.39-.56-.32-.25.08-.37.31-.32.56.12.63.23,1.27.35,1.9,0,.03.01.06.02.08.03-.05.05-.11.08-.16l-.05.35c-.01-.06-.02-.13-.03-.19-.7,1.42-1.39,2.84-2.08,4.26-.77,1.58-1.54,3.17-2.32,4.75Z"/>
  </g>
  <path class="cls-1" d="m58.46,34.22l-10.6,22.31.28,1.45c2.26-3.97,9.09-18.13,10.66-22.28l-.33-1.48Z"/>
  <g>
    <path class="cls-2" d="m58.35,35.58s-.02.06-.03.09c.01.05.02.1.03.15v-.24Z"/>
    <path class="cls-2" d="m48.25,56.77c.03-.06.05-.11.08-.17-.01-.06-.02-.12-.04-.18l-.05.35Z"/>
    <path class="cls-2" d="m47.91,57.44s0,0,0,0c-.06.1-.11.2-.17.31-.07.12-.08.25-.04.35.19-.19.37-.37.56-.56-.12-.03-.23-.07-.34-.1Z"/>
    <path class="cls-2" d="m58.84,34.49s.01-.02.02-.04c-.28-.04-.56-.07-.84-.11.1.42.19.85.29,1.27l.12-.25c.14-.29.29-.58.41-.87Z"/>
    <path class="cls-2" d="m47.69,58.1s0,0,0,0c-.03-.11-.03-.23.04-.35.06-.1.12-.2.17-.31,0,0,0,0,0,0-.12-.04-.25-.07-.37-.11.01.07.03.14.04.22.04.18.07.37.11.55Z"/>
    <path class="cls-2" d="m37.71,53.93c-2.07-.76-4.13-1.53-6.19-2.3-1.65-.62-3.29-1.25-4.93-1.87-.52-.2-1.04-.4-1.55-.6-.24-.09-.48-.2-.73-.28-.01,0-.02,0-.03-.01-.23-.09-.5.1-.56.32-.07.26.09.47.32.56.62.24,1.25.48,1.87.72,1.56.6,3.13,1.19,4.69,1.79,2.03.77,4.07,1.53,6.11,2.28,2.04.75,4.08,1.49,6.13,2.21,1.57.55,3.15,1.09,4.75,1.56.14.04.28.08.42.12.08.02.15.02.22,0-.22.03-.46-.11-.53-.33,0,0,0,0,0,0-.04-.18-.07-.37-.11-.55-.01-.07-.03-.14-.04-.22-1.27-.38-2.53-.81-3.79-1.24-2.02-.7-4.03-1.42-6.04-2.16Z"/>
    <path class="cls-2" d="m48.34,56.65s0-.04-.01-.05c-.03.06-.05.11-.08.17l.05-.35c.01.06.02.12.04.18.07-.14.13-.28.2-.43.26-.54.51-1.08.77-1.62.38-.8.76-1.6,1.14-2.4.46-.98.93-1.95,1.39-2.93.51-1.07,1.01-2.13,1.52-3.2.51-1.08,1.03-2.16,1.54-3.24.48-1.01.96-2.02,1.44-3.02.4-.85.81-1.7,1.21-2.55l.75-1.58c-.1-.42-.19-.85-.29-1.27.28.04.56.07.84.11,0,.01-.01.02-.02.04-.12.3-.28.58-.41.87l-.12.25s0,.04.01.06c.01-.03.02-.06.03-.09v.24c-.01-.05-.02-.1-.03-.15-.08.2-.15.4-.23.59-.05.13-.11.26-.16.38-.03.07-.05.13-.08.2-.01.03-.06.14,0,.02-.02.04-.03.08-.05.12-.28.65-.56,1.3-.85,1.95-.72,1.61-1.46,3.21-2.21,4.8-.83,1.77-1.67,3.53-2.53,5.28-.8,1.63-1.6,3.26-2.42,4.88-.47.92-.94,1.85-1.43,2.76.08.4.16.81.23,1.21.05.26-.11.52-.35.57.12-.02.23-.08.3-.22.7-1.24,1.35-2.51,1.99-3.78.91-1.79,1.8-3.59,2.68-5.4.94-1.92,1.86-3.86,2.76-5.8.78-1.67,1.55-3.34,2.28-5.03.28-.64.55-1.29.81-1.94.05-.12.1-.24.14-.36.06-.15.05-.29.01-.45-.08-.37-.17-.73-.25-1.1-.02-.09-.04-.18-.06-.27-.08-.37-.67-.47-.84-.11l-.32.67c-.29.6-.57,1.21-.86,1.81-.42.89-.84,1.77-1.26,2.66-.51,1.07-1.01,2.13-1.52,3.2-.55,1.15-1.09,2.3-1.64,3.44-.54,1.13-1.07,2.26-1.61,3.39-.48,1.01-.96,2.03-1.44,3.04-.38.8-.76,1.59-1.13,2.39-.23.48-.45.96-.68,1.44-.04.09-.09.18-.13.27-.07.15-.07.29-.04.45.04.2.08.4.12.6.12.04.25.07.37.11.15-.26.29-.53.43-.79Z"/>
    <path class="cls-2" d="m48.58,57.86c-.08-.4-.16-.81-.23-1.21-.14.26-.29.53-.43.79.11.03.23.07.34.1-.19.19-.37.37-.56.56.07.22.31.36.53.33.24-.05.4-.31.35-.57Z"/>
  </g>
  <g>
    <path class="cls-2" d="m25.93,46.93s0,0,0,0c0,0,0,0,0,0-.05-.02.06.03.01,0Z"/>
    <path class="cls-2" d="m46.91,54.98c.12-.05.23-.09.35-.14-.09-.02-.17-.04-.26-.06-.03.06-.05.11-.07.17,0,.01-.01.02-.02.04Z"/>
    <path class="cls-2" d="m56.84,34.33s-.04.09-.06.13c.01.03.02.07.03.1.01-.08.02-.16.03-.24Z"/>
    <path class="cls-2" d="m23.99,42.82c-.18,0-.29.14-.31.31-.09,1.25.12,2.66.85,3.71.06.09.12.17.21.23.07.04.14.07.21.1.21.1.42.19.63.28.68.29,1.36.56,2.04.83.91.36,1.83.72,2.75,1.07,1.07.41,2.14.82,3.21,1.22,1.14.43,2.28.86,3.42,1.28,1.1.41,2.21.82,3.31,1.22.98.36,1.97.72,2.96,1.07.76.27,1.53.54,2.3.8.45.15.91.31,1.37.44.05.01.11.03.16.04.12.03.29-.01.35-.14.11-.23.22-.46.33-.69.3-.62.59-1.24.89-1.85.43-.89.86-1.79,1.29-2.68.51-1.06,1.02-2.13,1.53-3.19.54-1.12,1.08-2.25,1.62-3.37.52-1.08,1.04-2.16,1.56-3.25.44-.92.89-1.84,1.33-2.77.32-.66.63-1.32.95-1.98.14-.29.28-.57.42-.86.05-.1.05-.19.02-.3-.06-.2-.12-.4-.17-.6-.2-.78-.34-1.59-.35-2.4,0-.45.02-.9.13-1.33.09-.38-.5-.55-.59-.16-.24,1.02-.16,2.09.02,3.12.09.5.2,1,.36,1.48.02-.04.04-.09.06-.13-.01.08-.02.16-.03.24-.01-.03-.02-.07-.03-.1-.07.14-.13.28-.2.42-.24.5-.48,1-.72,1.5-.36.74-.71,1.48-1.07,2.22-.44.91-.87,1.81-1.31,2.72-.47.99-.95,1.97-1.42,2.96-.48,1-.96,2-1.44,3-.45.93-.89,1.86-1.34,2.79-.38.79-.76,1.58-1.14,2.37-.27.57-.55,1.13-.82,1.7-.1.21-.22.42-.31.64.09.02.17.04.26.06-.12.05-.23.09-.35.14,0-.01.01-.02.02-.04.02-.06.05-.11.07-.17-.28-.08-.55-.18-.83-.27-.69-.23-1.38-.47-2.07-.72-.92-.33-1.85-.66-2.77-1-1.07-.39-2.15-.79-3.22-1.18-1.12-.42-2.25-.84-3.37-1.26-1.09-.41-2.19-.83-3.28-1.24-.96-.37-1.92-.74-2.88-1.12-.75-.29-1.5-.59-2.24-.9-.14-.06-.28-.12-.42-.18,0,0,0,0,0,0,.05.02-.06-.03-.01,0,0,0,0,0,0,0-.01,0-.02-.01-.04-.02-.03-.01-.06-.03-.1-.04-.06-.02-.11-.05-.17-.07-.17-.08-.35-.15-.52-.23,0,0-.02,0-.02-.01,0,0,0,0,0,0,.01.02.03.03.04.05,0,0-.06-.07-.03-.04-.05-.05-.05-.04-.02-.02-.09-.13-.17-.26-.24-.39-.13-.24-.2-.42-.29-.68-.11-.33-.19-.67-.23-1.01-.06-.44-.06-.89-.03-1.33.01-.17-.15-.31-.31-.31Z"/>
    <path class="cls-2" d="m25.1,46.57s.03.04.03.04c0-.02-.03-.04-.04-.05,0,0,0,0,0,0-.04-.02-.03-.02.02.02Z"/>
  </g>
  <g>
    <path class="cls-2" d="m46.88,51.79s0,0,0,0c0,.05,0,.02,0,0Z"/>
    <path class="cls-2" d="m47.26,55.43c.17-.06.24-.21.21-.38-.09-.57-.21-1.13-.32-1.7-.06-.3-.11-.6-.16-.89-.03-.15-.05-.31-.07-.46-.01-.07-.02-.14-.03-.21,0,.02,0,.04,0,0,0,0,0,0,0,0,0,0,0,0,0,0,0-.02,0-.05,0-.07,0-.04-.01-.08-.02-.13-.04-.37-.08-.75-.09-1.13,0-.16-.14-.31-.31-.31-.16,0-.31.13-.31.31.06,1.29.31,2.56.56,3.82.06.31.12.63.17.94.03.16.23.26.38.21Z"/>
  </g>
  <path class="cls-2" d="m30.5,47.5c.49.18.98.35,1.47.53.08.03.17-.03.19-.11.02-.08-.03-.16-.11-.19-1.71-.61-3.43-1.23-5.14-1.84-.49-.18-.98-.35-1.47-.53-.08-.03-.17.03-.19.11-.02.08.03.16.11.19,1.71.61,3.43,1.23,5.14,1.84Z"/>
  <path class="cls-2" d="m32.86,47.44c1.58.56,3.16,1.09,4.76,1.59.9.28,1.79.55,2.7.8.19.05.27-.24.08-.3-1.61-.46-3.21-.95-4.8-1.48-1.59-.53-3.17-1.09-4.73-1.68-.88-.33-1.75-.68-2.62-1.03-.08-.03-.17.03-.19.11-.02.09.03.16.11.19,1.55.63,3.11,1.23,4.69,1.79Z"/>
  <path class="cls-2" d="m37.6,49.95c1.05.39,2.09.77,3.14,1.16.59.22,1.19.44,1.78.66.08.03.17-.03.19-.11.02-.09-.03-.16-.11-.19-1.05-.39-2.09-.77-3.14-1.16-1.05-.39-2.09-.77-3.14-1.16-.59-.22-1.19-.44-1.78-.66-.08-.03-.17.03-.19.11-.02.09.03.16.11.19,1.05.39,2.09.77,3.14,1.16Z"/>
  <path class="cls-2" d="m39.17,51.44c1.05.39,2.09.77,3.14,1.16.59.22,1.19.44,1.78.66.08.03.17-.03.19-.11.02-.09-.03-.16-.11-.19-1.05-.39-2.09-.77-3.14-1.16-1.05-.39-2.09-.77-3.14-1.16-.59-.22-1.19-.44-1.78-.66-.08-.03-.17.03-.19.11-.02.09.03.16.11.19,1.05.39,2.09.77,3.14,1.16Z"/>
  <path class="cls-2" d="m44.21,51.31c.19.06.27-.23.08-.3-.86-.28-1.73-.56-2.59-.84-.19-.06-.27.23-.08.3.86.28,1.73.56,2.59.84Z"/>
  <path class="cls-2" d="m47.6,51.2c.43-.93.86-1.86,1.32-2.78.45-.93.92-1.84,1.4-2.76.27-.51.54-1.02.82-1.53.09-.17-.17-.33-.26-.15-.49.9-.97,1.81-1.44,2.72-.47.92-.92,1.84-1.37,2.77-.25.52-.49,1.05-.73,1.58-.03.08-.02.16.05.21.07.04.17.02.21-.05Z"/>
  <path class="cls-2" d="m53.41,39.78c.5-.93,1-1.87,1.5-2.8.14-.26.28-.53.42-.79.09-.17-.17-.33-.26-.15-.5.93-1,1.87-1.5,2.8-.14.26-.28.53-.42.79-.09.17.17.33.26.15Z"/>
  <g>
    <path class="cls-2" d="m22.86,41.8s0-.02-.01-.03c-.01-.03-.02-.05-.03-.08.02.04.03.07.05.11Z"/>
    <path class="cls-2" d="m22.48,43.07c.13.2.42.3.63.16.2-.13.3-.41.16-.63-.17-.27-.3-.55-.42-.84,0,.01,0,.02.01.03-.02-.04-.03-.07-.05-.11.01.03.02.05.03.08-.16-.39-.3-.78-.43-1.18-.07-.23-.32-.4-.56-.32-.23.07-.4.32-.32.56.14.45.31.89.49,1.33.13.31.27.62.45.91Z"/>
  </g>
  <path class="cls-2" d="m24.28,48.04c.14.07.34.04.42-.11.16-.32.3-.66.45-.99.03-.08.05-.15.03-.24-.02-.07-.07-.15-.14-.18-.07-.04-.16-.06-.24-.03-.07.02-.15.07-.18.14-.14.33-.29.66-.45.99-.04.07-.05.15-.03.24.02.07.07.15.14.18Z"/>
  <g>
    <path class="cls-2" d="m57.05,34.1s.04.02.06.03c.02,0,.03.01.05.02-.04-.02-.07-.03-.11-.05Z"/>
    <path class="cls-2" d="m56.88,34.03c.08.03.16.06.23.1-.02,0-.04-.02-.06-.03.04.02.07.03.11.05-.02,0-.03-.01-.05-.02.37.16.74.32,1.11.49.12.05.23.08.35.05.11-.03.22-.11.27-.21.06-.11.08-.24.05-.35-.03-.11-.1-.23-.21-.27-.52-.23-1.04-.47-1.56-.67-.1-.04-.26,0-.35.05-.1.06-.19.16-.21.27-.03.12-.02.25.05.35.07.11.16.16.27.21Z"/>
  </g>
  <path class="cls-2" d="m51.87,43.52l1.3-2.49c.09-.17-.17-.33-.26-.15-.43.83-.87,1.66-1.3,2.49-.09.17.17.33.26.15Z"/>
  <path class="cls-2" d="m54.58,36.36c.45-.75.9-1.5,1.35-2.25.1-.17-.16-.32-.26-.15-.45.75-.9,1.5-1.35,2.25-.1.17.16.32.26.15Z"/>
  <path class="cls-2" d="m48.74,50.48c.5-.88.94-1.79,1.34-2.72.11-.27.22-.54.33-.81.03-.08-.03-.17-.11-.19-.09-.02-.16.03-.19.11-.36.93-.77,1.83-1.23,2.71-.13.25-.27.5-.41.75-.1.17.17.33.26.15Z"/>
  <g>
    <path class="cls-2" d="m42.23,44.86s0,0,0,0c.02-.05-.01.03,0,0Z"/>
    <path class="cls-2" d="m26.46,40.76c.16-.11.31-.24.45-.38-.17-.06-.35-.12-.52-.18l.07.56Z"/>
    <path class="cls-2" d="m45.66,43.68s0,0,0,0c0,0-.05-.03,0,0Z"/>
    <path class="cls-2" d="m41.89,44.83c-.1-.02-.19-.05-.29-.07-.04.09-.07.19-.09.28.13-.07.25-.14.38-.21Z"/>
    <path class="cls-2" d="m46.03,43.18c-.09-.05-.19-.09-.28-.12-.05.08-.09.16-.14.23.14-.04.28-.07.42-.11Z"/>
    <path class="cls-2" d="m26.26,37.99s-.02,0,0,0c.02,0,.04.01,0,0Z"/>
    <path class="cls-2" d="m26.94,38.59s0,0,0,0c.02.04,0-.02,0,0Z"/>
    <path class="cls-2" d="m26.63,38.2h0s0,0,.01,0c0,0-.04-.03-.01,0Z"/>
    <path class="cls-2" d="m53.63,29.44s0,.02-.01.03c0,0,0-.02.01-.03Z"/>
    <path class="cls-2" d="m26.81,38.38s0,0,0,.01c0,0,0,0,0-.01Z"/>
    <path class="cls-2" d="m53.63,29.44s0,0,0,0c0,0,0,0,0,0Z"/>
    <path class="cls-2" d="m52.03,27.84s0,.01,0,0c0,0,0-.02,0,0Z"/>
    <path class="cls-2" d="m52.91,28.87s-.01,0-.02,0c0,0,0,0,.02,0Z"/>
    <path class="cls-2" d="m52.03,27.95s0,0,0-.01c0,0,0,0,0,.01Z"/>
    <path class="cls-2" d="m36.38,25.16c-1.43,1.53-2.85,3.06-4.24,4.62-1.3,1.46-2.55,2.95-3.77,4.47-.85,1.06-1.69,2.14-2.51,3.22-.12.16,0,.41.18.45.03,0,.06.02.1.03.03.01.06.02.1.03,0,0,.01,0,.02,0-.01,0-.02,0,0,0,.03.01.01,0,0,0,.02,0,.04.02.05.02.1.05.2.1.29.17.01,0,.02.01.03.02h0s0,0,.01,0c0,0,0,0-.01,0,.02.02.05.04.07.06.03.02.05.05.08.08,0,0,.04.05.05.06,0,0,0,0,0-.01,0,.01.01.01,0,.01.04.05.07.1.1.15,0,.01.01.03.02.04,0-.02.02.04,0,0,0,0,0,0,0,0,0,0,0,0,0,0,.01.04.03.08.04.12.03.11.03.28,0,.39-.07.29-.25.55-.44.77-.09.1-.19.2-.3.29-.03.03-.14.1-.05.04-.01,0-.03.02-.04.03-.22.16-.18.47.07.56,2.01.71,4.03,1.39,6.07,2.03,1.93.6,3.88,1.16,5.84,1.68,1.2.32,2.4.62,3.61.92.16.04.34-.05.38-.21,0-.04.02-.08.03-.12.01-.04.03-.08.04-.12,0-.02.02-.05.03-.07,0-.01.01-.03.02-.04-.01.03.02-.05,0,0,0,0,0,0,0,0,0,0,0,0,0,0,.14-.3.3-.58.5-.79.59-.64,1.53-.77,2.35-.57.17.04.34.09.51.16.02,0,.05.02.07.03-.05-.02,0,0,0,0,0,0,0,0,0,0,0,0,0,0,0,0,.02,0,.04.02.05.03.15.07.33.04.42-.11.95-1.6,1.83-3.24,2.7-4.88.96-1.84,1.9-3.68,2.84-5.53.64-1.24,1.28-2.48,1.93-3.71,0,0,0,0,0,0-.07.12-.21.17-.35.15-.12-.02-.25-.06-.37-.1-1.03,1.96-2.04,3.93-3.05,5.91-.88,1.72-1.76,3.44-2.69,5.14-.46.83-.92,1.66-1.4,2.48.1.04.19.08.28.12-.14.04-.28.07-.42.11.05-.08.09-.16.14-.23-.59-.23-1.27-.31-1.89-.22-.95.14-1.69.74-2.11,1.59-.05.11-.1.22-.15.34.1.02.19.05.29.07-.13.07-.25.14-.38.21.02-.1.05-.19.09-.28-1.98-.49-3.94-1-5.9-1.56-1.95-.56-3.88-1.16-5.8-1.79-1-.33-2-.68-3-1.03-.14.14-.29.27-.45.38l-.07-.56c.17.06.35.12.52.18.29-.29.52-.63.64-1.01.12-.39.09-.82-.12-1.18-.16-.28-.42-.5-.7-.65-.04-.02-.07-.04-.11-.06-.08.1-.15.2-.23.3-.06-.15-.12-.3-.18-.45.14.03.28.09.41.15,1.28-1.66,2.57-3.31,3.92-4.91,1.21-1.45,2.47-2.85,3.75-4.24.8-.87,1.6-1.73,2.41-2.59-.08-.03-.16-.06-.24-.09.12-.02.25-.03.37-.05-.04.05-.09.09-.13.14.52.18,1.08.24,1.62.16.75-.12,1.46-.61,1.97-1.15.07-.07.14-.15.2-.23-.07-.02-.14-.03-.21-.05.12-.05.23-.09.35-.14-.04.06-.09.13-.14.19,3.02.66,6.04,1.33,9.06,1.99.73.16,1.46.32,2.19.48.09-.15.2-.29.3-.42.05.17.09.34.14.51l-.44-.1c-.24.38-.39.83-.26,1.26.2.64.76,1.04,1.36,1.27.02,0,.04.02.06.02.06-.12.12-.23.18-.35.18-.34.68-.06.54.28,0-.01.01-.03.02-.04.04-.15-.05-.35-.21-.38-.1-.02-.19-.04-.28-.07-.04-.01-.09-.03-.13-.04-.03,0-.05-.02-.07-.03-.01,0-.03-.01-.04-.02,0,0,.01,0,.02,0-.03-.01-.03-.01-.02,0-.11-.05-.21-.1-.31-.16-.2-.13-.36-.29-.48-.51-.02-.04-.03-.08-.06-.15,0-.03-.02-.06-.02-.08,0,0,0,0,0-.01,0,0,0,0,0,.01,0,0,0-.07,0-.08,0,0,0-.01,0-.02,0,0,0,.01,0,0,0-.01,0,0,0,0,0-.01,0-.04,0-.04,0-.03.01-.06.02-.1.03-.09.04-.13.07-.19.07-.14.15-.27.23-.39.02-.03.04-.05.05-.08,0,0,0,0,0-.01,0,0,0,0,0,0-.02.02.03-.04,0,0,.01-.01.02-.03.03-.04.14-.16.11-.46-.14-.51-3.09-.68-6.18-1.36-9.27-2.03-.88-.19-1.76-.39-2.63-.58-.14-.03-.27.02-.35.14-.02.03-.04.05-.05.07.06-.08,0,0-.02.03-.03.04-.06.07-.09.11-.18.2-.39.39-.58.53-.29.21-.62.4-.98.5-.34.09-.71.08-1.04.01-.15-.03-.29-.07-.43-.11-.05-.02-.09-.03-.14-.05-.03-.01-.13-.05.01,0-.12-.05-.27-.06-.37.05Z"/>
    <path class="cls-2" d="m52.43,27.04s0,0,0,0c.03-.04-.02.02,0,0Z"/>
    <path class="cls-2" d="m36.44,25.64c.08.03.16.06.24.09.04-.05.09-.09.13-.14-.12.02-.25.03-.37.05Z"/>
    <path class="cls-2" d="m40.27,24.46c.07.02.14.03.21.05.05-.06.1-.12.14-.19-.12.05-.23.09-.35.14Z"/>
    <path class="cls-2" d="m53.08,29.17c-.06.12-.12.23-.18.35.12.04.24.08.37.1.14.02.28-.03.35-.15,0,0,0-.02.01-.03,0,0,0,0,0,0,.14-.33-.37-.61-.54-.28Z"/>
    <path class="cls-2" d="m26.39,37.78c.08-.1.15-.2.23-.3-.13-.06-.27-.12-.41-.15.06.15.12.3.18.45Z"/>
    <path class="cls-2" d="m52.03,26.56c-.11.13-.21.27-.3.42l.44.1c-.05-.17-.09-.34-.14-.51Z"/>
  </g>
  <g>
    <path class="cls-2" d="m44,44.68s0,0,0,0c0,0,0,0,0,0,.04-.02-.07.03,0,0Z"/>
    <path class="cls-2" d="m43.61,44.91s0,0,0,0c.01-.01-.05.04,0,0Z"/>
    <path class="cls-2" d="m42.5,45.6s0,0,0,0c0,0,0,0,0,0Z"/>
    <path class="cls-2" d="m44.56,44.53s0,0,.01,0c0,0,0,0,.01,0,.06,0-.05,0-.03,0Z"/>
    <path class="cls-2" d="m42.5,45.6c.02.07.06.13.13.17,0,0,0,0,0,0-.07-.04-.11-.1-.14-.17Z"/>
    <path class="cls-2" d="m43.3,45.22s0,0,0,0c.03-.04-.03.04,0,0Z"/>
    <path class="cls-2" d="m42.52,45.34s0,0,0-.01c-.02.03-.03.05-.04.09-.01.05,0,.1,0,.15-.01-.07,0-.15.03-.22Z"/>
    <path class="cls-2" d="m42.87,45.2c.09.02.18.05.27.07.04,0,.07.02.11.03.02-.03.04-.06.06-.09-.03.04.03-.04,0,0,0,0,0,0,0,0,0,0,0,0,0,0,.01-.01.02-.03.04-.04.03-.03.05-.06.08-.09.05-.05.1-.1.16-.15,0,0,.02-.02.03-.02-.05.03.02-.02,0,0,0,0,0,0,0,0,0,0,0,0,0,0,.03-.02.06-.04.09-.06.06-.04.11-.07.17-.1.03-.02.06-.03.09-.05.01,0,.02-.01.04-.02,0,0,0,0,0,0-.06.02.05-.02,0,0,0,0,0,0,0,0,.06-.02.12-.04.18-.06.12-.04.24-.06.36-.08.01,0,.02,0,.04,0,0,0,0,0-.01,0-.02,0,.08-.01.03,0,0,0,0,0-.01,0,.02,0,.05,0,.07,0,.05,0,.11,0,.16-.01.13,0,.27,0,.4,0,.04-.11.08-.22.12-.33.07.13.14.25.21.38-.02,0-.05-.01-.07-.01-.03,0-.05,0-.08-.01,0,0-.02,0-.03,0,0,0,0,0,0,0-.05,0-.1-.01-.15-.01-.14.4-.28.81-.42,1.21.09.03.18.05.28.08-.13.07-.25.14-.38.21l.08-.23s.01-.04.02-.06c-.52-.14-1.03-.28-1.55-.42-.07.11-.14.23-.19.35-.07.15-.28.18-.41.11.02.01.04.02.07.03l1.93.53c.09.02.18.05.27.07.17.05.32-.06.38-.21.19-.53.37-1.07.56-1.6.03-.08.05-.15.08-.23.05-.15-.06-.34-.21-.38-.27-.07-.56-.08-.84-.08-.56.01-1.14.16-1.59.5-.33.25-.58.56-.75.93.07-.11.21-.16.34-.13Z"/>
    <path class="cls-2" d="m42.5,45.6c.02.07.07.13.14.17.13.07.34.04.41-.11.06-.12.12-.24.19-.35-.04,0-.07-.02-.11-.03-.09-.02-.18-.05-.27-.07-.12-.03-.27.02-.34.13,0,0,0,0,0,.01-.03.07-.04.15-.03.22,0,0,0,.02,0,.03,0,0,0,0,0,0Z"/>
    <path class="cls-2" d="m42.49,45.56s0,.02,0,.03c0,0,0-.02,0-.03Z"/>
    <path class="cls-2" d="m45.35,44.53s.02,0,.02,0c0,0,.02,0,.02,0,.05,0-.08-.01-.05,0Z"/>
    <path class="cls-2" d="m44.69,46.02c.13-.07.25-.14.38-.21-.09-.03-.18-.05-.28-.08,0,.02-.01.04-.02.06l-.08.23Z"/>
    <path class="cls-2" d="m45.37,44.53s-.02,0-.02,0c-.04,0,.1.01.05,0,0,0-.02,0-.02,0,0,0,.02,0,.03,0,.03,0,.05,0,.08.01.02,0,.05,0,.07.01-.07-.13-.14-.25-.21-.38-.04.11-.08.22-.12.33.05,0,.1,0,.15.01,0,0,0,0,0,0Z"/>
  </g>
  <g>
    <path class="cls-2" d="m25.72,38.66s0,0,0,0c.03.03-.04-.06,0,0Z"/>
    <path class="cls-2" d="m25.8,38.99s0,.02,0,.02c0,0,0,.01,0,.02,0,.05,0-.04,0-.04Z"/>
    <path class="cls-2" d="m25.7,39.37s0,0,0,0c-.01.04.03-.07,0,0Z"/>
    <path class="cls-2" d="m25.76,38.71s0,0,0,.01c0,0,0,.01,0,.02,0,0,0-.02,0-.03Z"/>
    <path class="cls-2" d="m25.73,37.92s.01,0,.02,0c0,0-.01,0-.02,0Z"/>
    <path class="cls-2" d="m25.45,37.95s0,0,0,0c0,0,0,0,0,0Z"/>
    <path class="cls-2" d="m25.46,37.95s.02-.01.03-.02c-.01,0-.02.01-.03.02Z"/>
    <path class="cls-2" d="m25.71,37.92s0,0,.01,0c0,0,0,0-.01,0Z"/>
    <path class="cls-2" d="m25.45,37.95s-.05.03-.06.06l.02-.02s.03-.03.05-.04Z"/>
    <path class="cls-2" d="m25.47,38.47s.1.05.14.08c0,0,.02.02.03.02,0,0,0,0-.01-.01-.04-.03.02.02.02.02,0,0,0,0,0,0,0,0,.02.02.03.03.06-.06.11-.12.17-.18.11-.11.12-.32,0-.43-.03-.03-.06-.05-.1-.06,0,0-.01,0-.02,0,0,0,0,0-.01,0-.07-.02-.15-.02-.22,0-.01,0-.02.01-.03.02,0,0,0,0,0,0-.02.01-.03.02-.05.04l-.02.02s-.02.03-.03.04c-.07.14-.04.34.11.42Z"/>
    <path class="cls-2" d="m25.71,37.92c-.07-.02-.15-.02-.22,0,.07-.03.15-.03.22,0Z"/>
    <path class="cls-2" d="m25.62,38.56s0,0,.01.01c0,0,0,0,0,0,0,0-.06-.05-.02-.02Z"/>
    <path class="cls-2" d="m25.36,39.94s0,0-.01.01c0,0,0,.01-.01.02-.03.05.03-.04.02-.03Z"/>
    <path class="cls-2" d="m25.28,40.43c.06.02.11.04.17.06.09.03.23,0,.3-.08.16-.19.3-.39.41-.61.19-.36.34-.82.2-1.23-.1-.29-.31-.5-.58-.63-.01,0-.02,0-.03-.01.03.01.07.03.1.06.12.11.11.32,0,.43-.06.06-.11.12-.17.18,0,0,.01.01.02.02.01.01.03.03.04.04-.03-.05.03.04,0,0,0,0,0,0,0,0,0,0,0,0,0,0,.01.02.02.03.03.05,0,0,0,0,0,.01,0,0,0,0,0-.01,0,0,0,.02,0,.03,0,0,0,0,0,0,.02.03,0,.02,0,0,0,0,0-.01,0-.02,0,.03.03.07.03.1,0,0,0,0,0,.01,0,0,0-.01,0-.02,0,.02,0,.05,0,.07,0,.04,0,.08,0,.11,0,0,0,0,0,.01,0,0,0-.02,0-.02,0,0,0,.09,0,.04,0,0,0-.01,0-.02,0,.02,0,.03,0,.05-.02.09-.04.17-.07.25,0,.02-.01.03-.02.05.03-.06-.02.05,0,0,0,0,0,0,0,0,0,0,0,0,0,0-.02.04-.04.08-.06.12-.06.12-.13.24-.21.35.06.02.13.05.19.07-.1.03-.2.05-.3.08,0-.01.02-.02.03-.03,0,0,0,0,.01-.01.02-.02.04-.05.05-.08,0,0,.01-.02.02-.03-.24-.09-.48-.17-.72-.26-.11.11-.22.23-.34.34-.05-.17-.09-.34-.14-.51.06.02.11.04.17.06l.3.11c.32-.32.63-.65.95-.97,0,0,0,0,0,0,0,0-.02-.02-.03-.03,0,0-.02-.02-.03-.02-.05-.03-.09-.06-.14-.08-.15-.07-.18-.28-.11-.42,0-.02.02-.03.03-.04-.42.43-.85.86-1.27,1.29l-.18.18c-.17.17-.08.43.14.51.4.15.81.29,1.21.44Z"/>
    <path class="cls-2" d="m25.36,39.94s0,0-.01.01c0,0,0,0,.01-.01.01-.01-.06.08-.02.03,0,0,0-.01.01-.02,0,.01-.02.02-.03.03.1-.03.2-.05.3-.08-.06-.02-.13-.05-.19-.07,0,0-.01.02-.02.03-.02.03-.04.05-.05.08Z"/>
    <path class="cls-2" d="m25.79,38.84c0,.06,0,.03,0,0h0Z"/>
    <path class="cls-2" d="m24.23,39.41c.05.17.09.34.14.51.11-.11.22-.23.34-.34l-.3-.11c-.06-.02-.11-.04-.17-.06Z"/>
  </g>
  <g>
    <path class="cls-2" d="m37.33,24.39s.02,0,0,0c-.02,0-.04,0,0,0Z"/>
    <path class="cls-2" d="m39.03,23.76s.06-.07.02-.03c0,0,0,0,0,0,0,0,0,0,0,0,0,0-.01.02-.02.02Z"/>
    <path class="cls-2" d="m36.77,24.63s0-.02,0-.04c0,.01,0,.02,0,.04Z"/>
    <path class="cls-2" d="m39.09,23.67s-.01.02-.02.03c0,.01-.01.02-.02.03,0,0,0,0,0,0,.03-.04-.05.07-.02.03,0,0,.01-.02.02-.02,0,0,0,0,0,0-.07.09-.15.17-.23.24-.02.02-.03.03-.05.04.17.03.34.07.51.1-.06-.15-.12-.3-.18-.45Z"/>
    <path class="cls-2" d="m36.77,24.59s0,0,0,0c0,0,0,0,0,0Z"/>
    <path class="cls-2" d="m36.78,24.57s0,.01,0,.02c.01-.06.04-.11.08-.15-.04.03-.06.08-.08.13Z"/>
    <path class="cls-2" d="m38.11,23.89l.18.04s.08-.08.12-.11c-.1.03-.2.05-.3.08Z"/>
    <path class="cls-2" d="m38.74,24.04s0,0,0,0c0,0,0,0,0,0-.06.05.06-.04,0,0Z"/>
    <path class="cls-2" d="m36.86,24.87c.12.11.31.12.43,0,.16-.16.33-.31.49-.47-.07,0-.13,0-.2,0-.07,0-.15,0-.22-.01,0,0-.01,0-.02,0,.01,0,.01,0,0,0-.03,0-.01,0,0,0-.01,0-.04,0-.05,0-.04,0-.09-.02-.13-.02-.11-.02-.22,0-.3.08-.04.04-.07.09-.08.15,0,0,0,0,0,0,0,.01,0,.02,0,.04,0,.07.02.15.06.21,0,.01.02.02.03.03Z"/>
    <path class="cls-2" d="m36.83,24.84c-.04-.06-.06-.13-.06-.21,0,.07.01.15.06.21Z"/>
    <path class="cls-2" d="m37.15,24.36s.09.02.13.02c0,0,.03,0,.05,0,.01,0,.02,0,.02,0,.07,0,.15.01.22.01.07,0,.13,0,.2,0l.48-.46s.01-.01.02-.02l-.18-.04c.1-.03.2-.05.3-.08-.04.04-.08.08-.12.11.16.03.32.06.48.1.02-.01.04-.03.05-.04.08-.08.16-.16.23-.24,0,0,.01-.02.02-.03,0,0,.01-.02.02-.03.06.15.12.3.18.45-.17-.03-.34-.07-.51-.1,0,0-.02.01-.02.02,0,0,0,0,0,0,.05-.04-.06.05,0,0,0,0,0,0,0,0-.02.01-.04.03-.06.04-.07.05-.15.09-.22.13-.04.02-.08.04-.12.06,0,0,.01,0,.02,0,.05-.02-.03.01-.03.01,0,0,0,0,.01,0,0,0,0,0-.01,0-.03.01-.05.02-.08.03-.1.04-.21.06-.32.08-.01,0-.03,0-.04,0,.06,0-.07.01,0,0,0,0,0,0,0,0,0,0,0,0,0,0-.03,0-.07,0-.1,0,0,0,0,0,0,0-.16.16-.33.31-.49.47-.12.12-.31.11-.43,0-.01,0-.02-.02-.03-.03.04.05.09.1.16.11.57.12,1.15.09,1.68-.16.3-.14.58-.35.8-.6.05-.07.11-.13.15-.21.1-.16.01-.41-.18-.45-.38-.08-.76-.15-1.14-.23-.08-.02-.15-.02-.23,0-.05.02-.08.05-.12.08-.05.05-.11.1-.16.15-.18.17-.37.35-.55.52-.13.12-.26.25-.39.37,0,0,0,0,0,0,.08-.07.19-.1.3-.08Z"/>
    <path class="cls-2" d="m37.89,24.39s0,0,0,0c-.06,0,.07,0,0,0Z"/>
    <path class="cls-2" d="m38.36,24.26s-.01,0-.02,0c0,0,0,0-.01,0,0,0,.07-.03.03-.01Z"/>
  </g>
  <g>
    <path class="cls-2" d="m53.39,27.96s-.01-.01-.02-.02c0,0,0,0-.01,0-.04-.02.04.03.03.03Z"/>
    <path class="cls-2" d="m54.29,27.65c-.06-.15-.12-.3-.18-.45-.06.11-.13.23-.19.34.07.02.14.04.21.06.06.02.11.03.17.05Z"/>
    <path class="cls-2" d="m53.69,28.13s0,0,0,0c.02,0,.05.02.03,0-.01,0-.02,0-.03-.01,0,0,0,0,0,0Z"/>
    <path class="cls-2" d="m53.69,28.13s0,0,0,0c0,0-.01,0-.02,0,0,0,.02,0,.03.01Z"/>
    <path class="cls-2" d="m53.22,27.81s0,0,0,0c0,0,0,0,0,0-.03-.03.05.07.01.01Z"/>
    <path class="cls-2" d="m53.82,28.18s-.06-.02-.1-.03c.02,0-.01,0-.03,0,0,0,0,0,0,0,0,0-.02,0-.03-.01,0,0,.01,0,.02,0-.02,0-.04-.02-.06-.03,0,0-.01,0-.02,0-.04.08-.09.15-.13.23.12-.05.23-.09.35-.14Z"/>
    <path class="cls-2" d="m53.13,27.6s0,0,0-.01c-.01-.04,0,.09,0,.01Z"/>
    <polygon class="cls-2" points="53.18 27.33 53.18 27.33 53.18 27.33 53.18 27.33"/>
    <path class="cls-2" d="m52.96,27.26c.07.02.15.04.22.07,0,0,0,0,0,0,0,0,0,0,0,0,0,0,0,0,0,0,0-.01.01-.02.02-.03.03-.06.07-.12.1-.17.09-.13.03-.35-.11-.42-.16-.08-.32-.03-.42.11,0,0,0,.01-.01.02,0,.02-.02.04-.02.06-.04.16.05.33.21.38Z"/>
    <path class="cls-2" d="m53.41,28.67c.08.04.16.07.25.1.13.04.28-.02.35-.14.21-.37.42-.75.63-1.12.1-.17,0-.39-.18-.45-.39-.11-.77-.22-1.16-.34-.06-.02-.11-.03-.17-.05-.13-.04-.29.03-.36.16,0,0,0-.01.01-.02.1-.14.26-.19.42-.11.14.07.2.29.11.42-.04.06-.07.11-.1.17,0,.01-.01.02-.02.03.24.07.49.14.73.21.06-.11.13-.23.19-.34.06.15.12.3.18.45-.06-.02-.11-.03-.17-.05-.07-.02-.14-.04-.21-.06l-.31.55s.01,0,.02,0c.02.01.04.02.06.03.02,0,.03.01.04.02.03.01.06.02.1.03-.12.05-.23.09-.35.14.04-.08.09-.15.13-.23-.05-.02-.09-.05-.14-.08-.03-.02-.05-.03-.08-.05,0,0-.02-.01-.03-.02,0,0,.02.01.02.02,0,0-.07-.05-.03-.03,0,0,0,0,.01,0,0,0,0,0,0,0-.05-.04-.09-.09-.14-.14,0,0,0,0,0,0,.04.06-.04-.05-.01-.01,0,0,0,0,0,0,0-.01-.01-.02-.02-.03-.02-.02-.03-.05-.04-.07,0,0,0,.01,0,.02.02.05-.03-.07-.01-.03,0,0,0,.01,0,.02,0,0,0,0,0,0,0-.02-.01-.03-.01-.05,0-.01,0-.03,0-.04,0,.08-.01-.05,0-.01,0,0,0,0,0,.01,0,0,0,0,0,0,0-.04,0-.09,0-.13,0,.01,0,.02,0,.03,0-.01,0-.03,0-.04,0-.02.01-.05.02-.07,0,0,0-.02.01-.03,0,0,0,0,0-.02,0,0,0,0,0-.01,0,0,0,0,0,0-.07-.02-.15-.04-.22-.07-.16-.05-.25-.21-.21-.38,0-.02.01-.04.02-.06-.25.38-.35.86-.09,1.26.17.27.44.45.73.58Z"/>
    <polygon class="cls-2" points="53.18 27.32 53.18 27.33 53.18 27.33 53.18 27.32"/>
    <path class="cls-2" d="m53.16,27.71s0-.01,0-.02c0,0,0-.01,0-.02-.02-.03.03.08.01.03Z"/>
    <path class="cls-2" d="m53.14,27.5s0,.03,0,0h0Z"/>
    <path class="cls-2" d="m53.18,27.33s0,0,0,0c0,.01,0,.02-.01.03,0,0,0,0,.01-.04Z"/>
  </g>
</svg>