<?xml version="1.0" encoding="UTF-8"?>
<svg id="Capa_1" data-name="Capa 1" xmlns="http://www.w3.org/2000/svg" width="80" height="80" viewBox="0 0 80 80">
  <defs>
    <style>
      .cls-1 {
        fill: #6f0318;
      }

      .cls-1, .cls-2, .cls-3, .cls-4 {
        stroke-width: 0px;
      }

      .cls-2 {
        fill: #42250d;
      }

      .cls-3 {
        fill: #eeceb5;
      }

      .cls-4 {
        fill: #ffbf00;
      }
    </style>
  </defs>
  <path class="cls-3" d="m48.36,27.2l1.32,2.58,3.42-9.49c-2.55,2.06-4.04,4.48-4.74,6.92Z"/>
  <path class="cls-3" d="m30.94,18.23c-.56.8-1.12,1.59-1.68,2.39l19.8,8.1c-2.78-6.87-9.28-10.01-18.12-10.48Z"/>
  <path class="cls-3" d="m65.6,18.72c-5.94-1.11-8.81-1.08-8.81-1.08-7.4,3.56-7.4,11.47-7.4,11.47-7.6-9.34-21.27-8.38-21.27-8.38-1.1,1.02-1.75,1.96-2.81,3.57,0,0,17.15,6.24,24.07,6.4,6.92.16,16.2-11.97,16.2-11.97Z"/>
  <path class="cls-4" d="m40.2,62.34c3.47.08,4.55-2.15,4.55-2.15l13.25-9.91,8.99-32.61-12.96,9.77s-.3,1.21-3.93,1.67c-2.87.36-5.06-1.12-5.06-1.12l-22.72-4.25c-3.94,11.17-6.58,22.14-9.32,32.37l21.33,4.33s2.4,1.83,5.87,1.91Z"/>
  <g>
    <path class="cls-2" d="m53.21,27.56c-.07.07.07-.04,0,0h0Z"/>
    <path class="cls-2" d="m53.48,27.32s0,0,0,0c0,0-.01,0-.03.02-.04.08.03-.01.03-.02Z"/>
    <path class="cls-2" d="m52.55,27.94s-.02,0-.03.01c0,0,0,0,.03-.01Z"/>
    <path class="cls-2" d="m34.07,60.95s.02.02.03.02c.02,0,.03,0,.05,0,.13,0-.14-.1-.07-.03Z"/>
    <path class="cls-2" d="m53.48,27.32s0-.01,0-.03c0-.02.01-.03.02-.05,0,0,0,0,0,0-.02.03-.04.06-.05.09,0,0,0,0,0,0,.02-.02.03-.02.03-.02Z"/>
    <path class="cls-2" d="m53.48,27.32s0,0,0,0c.01-.01.08-.15.03-.07,0,.02-.01.03-.02.05,0,.01,0,.02,0,.03Z"/>
    <path class="cls-2" d="m45.04,60.68c.05-.04.1-.08.16-.12.02-.03.03-.06.05-.09-.07.07-.14.14-.2.2Z"/>
    <path class="cls-2" d="m53.48,27.32s0,0,0,0c0,0,0,0,0,0Z"/>
    <path class="cls-2" d="m13.16,55.56c.13.23.27.47.4.7.05-.2.1-.39.16-.59-.13-.03-.26-.05-.4-.08-.05-.01-.1-.02-.16-.03Z"/>
    <path class="cls-2" d="m22.47,23.18c-.17-.05-.33-.01-.45.07.13-.08.29-.1.45-.07Z"/>
    <path class="cls-2" d="m43.42,60.85s-.02.02-.03.02c.03-.03.04-.03.03-.02Z"/>
    <path class="cls-2" d="m22.02,23.26c-.12.07-.21.18-.25.32.05-.14.14-.25.25-.32Z"/>
    <path class="cls-2" d="m16.66,57.43c2.7.55,5.4,1.1,8.09,1.64,2.45.5,4.9,1,7.36,1.49.62.13,1.24.25,1.86.38.04,0,.08.02.12.03,0,0-.02-.02-.03-.02-.07-.07.2.04.07.03-.02,0-.03,0-.05,0,.1.09.25.17.37.24.26.16.53.31.81.45,1.95.98,4.29,1.52,6.46,1.13,1.34-.24,2.65-.97,3.4-2.13.02-.03.04-.06.06-.09-.05.04-.1.08-.16.12.07-.07.14-.14.2-.2-.01.03-.03.06-.05.09.89-.67,1.78-1.33,2.67-2,1.89-1.41,3.78-2.83,5.68-4.24,1.44-1.08,2.89-2.16,4.33-3.24.25-.19.59-.38.69-.68.08-.24.13-.48.2-.72.35-1.28.71-2.56,1.06-3.85.56-2.01,1.11-4.03,1.67-6.04.65-2.34,1.29-4.68,1.94-7.02.62-2.26,1.25-4.53,1.87-6.79.49-1.78.98-3.57,1.48-5.35.25-.9.5-1.8.74-2.69l.03-.12c.12-.44-.42-.96-.84-.64-.82.62-1.64,1.24-2.46,1.86-1.71,1.29-3.42,2.58-5.13,3.87-1.48,1.11-2.95,2.23-4.43,3.34-.31.23-.61.46-.92.69-.12.09-.2.18-.27.31.06-.08-.01.06-.03.07,0,0-.08.11-.03.02,0,0,0,0-.01,0-.04.04-.08.09-.13.13-.03.03-.06.05-.09.07,0,0,0,0-.01,0,.07-.04-.07.07,0,0,0,0,0,0-.01,0-.18.12-.36.23-.55.32-.01,0-.11.05-.12.06,0,0,.02,0,.03-.01-.03.01-.03.01-.03.01-.05.02-.1.04-.15.06-.17.06-.34.12-.51.17-.84.25-1.73.41-2.6.41-.83,0-1.65-.14-2.43-.4-.49-.16-.83-.31-1.31-.58-.23-.14-.41-.19-.67-.24-.47-.09-.94-.18-1.4-.26-1.72-.32-3.43-.64-5.15-.96-2.18-.41-4.35-.81-6.53-1.22-1.97-.37-3.95-.74-5.92-1.11-1.08-.2-2.15-.4-3.23-.6l-.15-.03c.28.08.5.41.4.7-.06.17-.12.33-.17.5,1.06.2,2.13.4,3.19.6,2.71.51,5.41,1.01,8.12,1.52,2.61.49,5.23.98,7.84,1.47.8.15,1.59.3,2.39.45.19.03.37.08.56.1,0,0,.02,0,.03,0,0,0-.02,0-.02-.02-.02-.01-.03-.02-.04-.03,0,0,0,0,0,0,.01.01.07.05.1.05,0,0,.01,0,.02,0,0,0,0,0-.02,0-.01,0-.03,0-.04-.01.06.04.14.08.21.12.7.39,1.47.68,2.26.87,1.24.29,2.48.26,3.73.04.87-.15,1.78-.39,2.54-.84.36-.21.72-.5.92-.87,0-.01.01-.02.02-.03l-.18.13.26-.34c-.02.07-.05.14-.09.21,1.41-1.06,2.82-2.13,4.23-3.19,2.32-1.75,4.64-3.5,6.96-5.25.1-.08.21-.16.31-.24.15-.54.3-1.07.44-1.61.28.21.56.43.84.64-.43.32-.85.64-1.28.97-.15.55-.3,1.1-.46,1.65-.71,2.59-1.43,5.18-2.14,7.77-.87,3.15-1.74,6.3-2.61,9.45-.75,2.71-1.49,5.41-2.24,8.12-.25.9-.49,1.79-.74,2.69-.1.38-.23.76-.32,1.15l.22-.16-.26.34s.01-.04.02-.06c0-.04.02-.08.03-.12-.73.55-1.47,1.1-2.2,1.65-1.7,1.27-3.41,2.55-5.11,3.82-1.53,1.14-3.05,2.28-4.58,3.43-.35.26-.71.53-1.06.79-.12.09-.22.18-.3.3-.05.07-.09.15-.14.22-.02.02-.03.05-.05.07,0,0,0,0,0,0,.06-.07-.08.12,0,0,0,0,0,0,0,0-.06.06-.11.14-.17.2-.14.15-.29.29-.45.42,0,0,0,0-.03.02.01,0,.02-.02.03-.02-.01,0-.07.05-.09.06-.05.04-.11.08-.17.11-.12.08-.25.15-.37.22-.53.28-1.23.46-1.91.51-1.63.11-3.35-.29-4.78-.95-.43-.2-.84-.42-1.24-.68-.13-.09-.25-.2-.41-.24-.27-.07-.55-.11-.82-.17-1.51-.31-3.02-.61-4.52-.92-2.14-.43-4.28-.87-6.42-1.3l-6.03-1.22c-.99-.2-1.98-.4-2.97-.6-.05.2-.1.39-.16.59-.13-.23-.27-.47-.4-.7.05.01.1.02.16.03.13.03.26.05.4.08,1.04-3.9,2.05-7.82,3.09-11.72,1.14-4.27,2.33-8.52,3.64-12.74.71-2.29,1.46-4.57,2.25-6.83-.18-.03-.35-.07-.53-.1-.3-.06-.47-.42-.4-.7-1.51,4.28-2.86,8.61-4.11,12.98-1.2,4.17-2.3,8.36-3.4,12.55-.6,2.28-1.2,4.57-1.81,6.85-.08.28.09.64.4.7,1.27.26,2.54.52,3.81.77Z"/>
    <path class="cls-2" d="m44.87,28.53s-.09-.04-.1-.05c0,0,.02.01.04.03,0,0,.02.01.02.02.02,0,.03,0,.04.01Z"/>
    <path class="cls-2" d="m22.17,24.28c.18.03.35.07.53.1.06-.17.12-.33.17-.5.1-.29-.12-.62-.4-.7-.16-.03-.32,0-.45.07-.11.07-.2.19-.25.32-.08.28.09.64.4.7Z"/>
    <path class="cls-2" d="m54.32,27.93l.18-.13c.04-.07.07-.14.09-.21l-.26.34Z"/>
    <path class="cls-2" d="m66.45,17.52c-.15.54-.3,1.07-.44,1.61.43-.32.85-.64,1.28-.97-.28-.21-.56-.43-.84-.64Z"/>
    <path class="cls-2" d="m57.45,50.13l.26-.34-.22.16s-.02.08-.03.12c0,.02-.01.04-.02.06Z"/>
    <path class="cls-2" d="m44.05,60.23s0,0,0,0c0,0,0,0,0,0-.08.11.07-.07,0,0Z"/>
  </g>
  <path class="cls-2" d="m34.88,60.59c.27-.7.53-1.4.78-2.1.35-.97.69-1.94,1.02-2.91.4-1.17.8-2.34,1.2-3.51.44-1.3.87-2.59,1.31-3.89.45-1.35.9-2.71,1.35-4.06.44-1.34.89-2.68,1.33-4.02.41-1.25.82-2.5,1.23-3.74.36-1.1.72-2.19,1.08-3.29.28-.87.57-1.74.85-2.61.19-.57.37-1.14.56-1.71.03-.09.06-.17.08-.26.09-.28-.11-.64-.4-.7-.31-.07-.6.09-.7.4-.16.49-.32.97-.48,1.46-.26.8-.52,1.61-.79,2.41-.34,1.05-.68,2.1-1.03,3.14-.4,1.22-.8,2.44-1.2,3.67-.44,1.33-.87,2.65-1.31,3.97-.45,1.36-.9,2.71-1.35,4.07-.44,1.31-.88,2.62-1.32,3.93-.41,1.21-.82,2.42-1.23,3.62-.35,1.03-.71,2.05-1.07,3.08-.27.78-.55,1.55-.84,2.32-.05.14-.11.29-.16.43-.11.28.12.64.4.7.33.07.59-.1.7-.4Z"/>
  <path class="cls-2" d="m45.3,60.34c.47-1.46.9-2.92,1.34-4.38.64-2.14,1.27-4.28,1.89-6.42.72-2.49,1.44-4.99,2.14-7.49.7-2.47,1.39-4.94,2.06-7.42.58-2.13,1.15-4.25,1.69-6.39.05-.21.11-.43.16-.64.07-.29-.09-.63-.4-.7-.3-.07-.62.09-.7.4-.52,2.07-1.07,4.13-1.62,6.19-.66,2.45-1.34,4.9-2.03,7.35-.71,2.52-1.42,5.03-2.15,7.54-.64,2.2-1.28,4.4-1.93,6.6-.47,1.57-.93,3.13-1.42,4.69-.04.13-.08.25-.12.38-.09.28.11.63.4.7.31.07.6-.09.7-.4Z"/>
  <g>
    <path class="cls-2" d="m49.86,28s0,.05,0,0h0Z"/>
    <path class="cls-2" d="m28.13,21.11c.05,0,.11,0,.16,0,.04-.03.07-.07.11-.1l-.27.11Z"/>
    <path class="cls-2" d="m49.01,29.07s0,.02,0,.03c.22-.09.43-.18.65-.27-.19-.23-.38-.45-.58-.67,0,.05-.01.1-.02.16-.03.24-.07.51-.05.75Z"/>
    <path class="cls-2" d="m25.65,24.49c.79-1.21,1.6-2.38,2.64-3.39-.05,0-.11,0-.16,0l.27-.11s-.07.07-.11.1c.41-.02.83-.02,1.24-.02,1.22.01,2.43.1,3.64.25.69.09,1.54.22,2.3.38.88.18,1.75.39,2.61.65,1.89.56,3.73,1.31,5.44,2.3,1.88,1.08,3.59,2.44,5.03,4.06.19.22.38.44.56.66.22.26.65.04.65-.27,0-.27.03-.53.05-.8,0-.06.01-.13.02-.19,0-.03,0-.06.01-.1,0-.01,0-.02,0-.02,0,.05,0-.04,0,0,0,0,0-.02,0-.04.02-.16.05-.32.08-.47.07-.38.15-.77.25-1.14.54-2.06,1.51-3.99,2.98-5.58,1.05-1.14,2.32-2.06,3.71-2.74-.03,0-.06,0-.09,0l.19-.05s-.07.04-.11.05c.41,0,.82.03,1.23.06,1.32.09,2.64.25,3.95.44,1.15.17,2.3.36,3.44.57.2.04.41-.06.47-.27.05-.18-.06-.43-.27-.47-2.36-.44-4.73-.81-7.12-1-.5-.04-1.01-.08-1.51-.09-.09,0-.17,0-.26,0-.17,0-.33.11-.48.19-.27.14-.54.28-.8.44-1.82,1.09-3.36,2.6-4.46,4.42-.82,1.36-1.41,2.86-1.75,4.41-.1.48-.18.96-.24,1.45.2.22.39.44.58.67-.22.09-.43.18-.65.27,0-.01,0-.02,0-.03-.01-.25.03-.51.05-.75,0-.05.01-.1.02-.16-1.48-1.65-3.23-3.05-5.15-4.15-1.95-1.13-4.07-1.97-6.25-2.56-1.81-.49-3.66-.81-5.52-.99-1.15-.11-2.3-.16-3.45-.14-.19,0-.39,0-.58.02-.23.02-.38.21-.54.36-.23.23-.46.47-.67.71-.45.52-.86,1.08-1.25,1.65-.23.34-.46.68-.68,1.02-.27.41.39.79.66.38Z"/>
    <path class="cls-2" d="m56.79,18.02s.06,0,.09,0c.04-.02.07-.04.11-.05l-.19.05Z"/>
  </g>
  <g>
    <path class="cls-2" d="m48.61,28.62s.02.04.03.06c.02.04.04.09.05.13.07.18.26.33.47.27.18-.06.35-.27.27-.47-.59-1.46-1.37-2.82-2.36-4.05-.94-1.16-2.05-2.17-3.28-3.01-1.28-.87-2.68-1.55-4.13-2.08-1.57-.57-3.21-.97-4.86-1.23-.92-.15-1.84-.25-2.77-.33-.24-.02-.47-.04-.71-.05-.11,0-.22-.01-.33-.02-.16,0-.28.06-.38.19-.05.06-.09.13-.14.19-.35.49-.7.99-1.05,1.48-.17.24-.33.47-.5.71-.12.16-.03.43.14.52.2.1.4.04.52-.14.51-.73,1.03-1.46,1.54-2.19-.06,0-.12,0-.19-.01.11-.06.22-.13.33-.19-.05.07-.09.13-.14.2.78.05,1.55.11,2.33.2.1.01.2.02.3.04.04,0,.09.01.13.02,0,0,0,0,0,0-.08-.01.08,0,0,0,0,0,0,0,0,0,.03,0,.06,0,.09.01.2.03.41.06.61.09.39.06.77.13,1.16.21,1.45.29,2.89.69,4.26,1.23.08.03.16.06.24.1.03.01.07.03.1.04-.02-.01-.06-.03.02,0,0,0-.01,0-.02,0,0,0,0,0,.01,0,.03.01.06.02.08.04.16.07.32.14.48.21.31.14.62.3.92.46.6.32,1.18.67,1.73,1.06.13.09.26.19.39.29.03.02.06.05.1.07.01,0,.04.04.06.04,0,0,0,0,0,0-.01,0-.07-.05-.02-.01,0,0,.01,0,.02.01,0,0,0,0,0,0,0,0,0,0,0,0,.06.05.13.1.19.15.26.21.51.42.75.65.48.45.94.93,1.36,1.43.05.06.1.12.15.19.03.03.05.06.08.1.01.01.02.03.03.04,0,0-.01-.01-.02-.02.03.04.04.05.02.03,0,0,0,0,0,0,0,0,0,.01.01.02.1.13.2.26.29.39.2.28.39.56.56.85.36.59.69,1.21.97,1.85.03.07.06.13.09.2,0,.01.01.03.01.03,0-.01,0-.02-.01-.03,0-.01,0-.02,0,.02Z"/>
    <path class="cls-2" d="m30.94,18.61c.06,0,.12,0,.19.01.05-.07.09-.13.14-.2-.11.06-.22.13-.33.19Z"/>
    <path class="cls-2" d="m33.89,18.88c.08,0-.08-.01,0,0h0Z"/>
    <path class="cls-2" d="m40.36,20.56s.01,0,.02,0c-.08-.04-.04-.02-.02,0Z"/>
    <polygon class="cls-2" points="44.13 22.74 44.13 22.74 44.13 22.74 44.13 22.74"/>
    <path class="cls-2" d="m48.61,28.6s.01.02.01.03c0,0,0-.02-.01-.03Z"/>
    <path class="cls-2" d="m46.67,25.27s.01.01.02.02c0,0,0,0,0,0,.02.02,0,.01-.02-.03Z"/>
  </g>
  <g>
    <path class="cls-2" d="m50.88,23.07s0,0,0-.01c0,0,0,0,0,0,.03-.03,0,.01-.01.02Z"/>
    <path class="cls-2" d="m49.21,25.92s.01-.03.02-.05c.01-.03.02-.05.03-.08.03-.06.05-.12.08-.18.05-.12.11-.23.17-.35.12-.23.24-.47.37-.69.27-.47.57-.92.89-1.36.04-.05.08-.1.12-.16,0,0,0,0,0,.01,0,0,.04-.05.01-.02,0,0,0,0,0,0,0-.01.02-.02.03-.04.02-.03.05-.06.07-.09.09-.11.18-.22.27-.33.19-.22.38-.44.58-.65.48-.5.99-.97,1.52-1.4.16-.13.14-.41,0-.54-.16-.15-.37-.13-.54,0-.96.77-1.82,1.65-2.57,2.62-.66.86-1.22,1.79-1.65,2.78-.24.55-.45,1.11-.61,1.68-.06.19.07.42.27.47.2.05.41-.06.47-.27.07-.24.14-.47.23-.71.04-.12.08-.24.13-.35.01-.03.13-.35.14-.35,0,0-.03.07-.01.03Z"/>
  </g>
  <path class="cls-2" d="m56.32,23.64c.94-1.09,1.98-2.09,3.11-2.99.32-.25.64-.49.97-.73.08-.06.12-.17.07-.26-.05-.08-.18-.13-.26-.07-1.19.85-2.3,1.81-3.31,2.86-.29.3-.56.6-.83.92-.07.08-.08.19,0,.27.07.07.2.08.27,0Z"/>
  <path class="cls-2" d="m52.3,25.88c.46-.93,1-1.81,1.64-2.62.64-.83,1.36-1.59,2.15-2.27.44-.38.9-.73,1.38-1.06.08-.06.12-.17.07-.26-.05-.08-.17-.13-.26-.07-.88.6-1.7,1.29-2.44,2.05-.74.76-1.4,1.59-1.98,2.48-.32.5-.62,1.02-.88,1.56-.05.09-.02.21.07.26.08.05.21.02.26-.07Z"/>
  <path class="cls-2" d="m35.81,24.18c.56.17,1.12.37,1.67.58.1.04.21-.04.23-.13.03-.11-.04-.2-.13-.23-1.97-.76-4.03-1.27-6.13-1.53-.59-.07-1.18-.13-1.78-.16-.24-.01-.24.37,0,.38,2.08.11,4.14.48,6.13,1.09Z"/>
  <path class="cls-2" d="m37.47,23.17c1.23.36,2.42.83,3.55,1.41.64.33,1.26.7,1.87,1.1.2.14.39-.19.19-.33-1.09-.72-2.25-1.33-3.45-1.83-1.2-.5-2.45-.87-3.72-1.13-.72-.14-1.46-.25-2.19-.31-.1,0-.19.09-.19.19,0,.11.09.18.19.19,1.27.11,2.53.35,3.76.71Z"/>
  <path class="cls-1" d="m46.89,38.14c2.51.26,4.05-.03,4.78-.6,1.21-.96.96-2.68.96-2.68-3.12,1.42-7.02.95-9.7-1.19,0,0-1.02.72-.85,1.94.16,1.17,2.2,2.26,4.81,2.53Z"/>
  <g>
    <path class="cls-2" d="m44.36,36.96s-.05-.02-.08-.03c-.02,0-.04-.01-.06-.02.05.02.09.04.14.06Z"/>
    <path class="cls-2" d="m43.25,36.35s0,0,0,0c0,0-.02-.01-.03-.02-.04-.03.13.1.04.03Z"/>
    <path class="cls-2" d="m42.83,35.95s0,0,0,0c0,0,0,0,0,0,.01.02.03.03.04.05,0,0-.02-.03-.05-.06,0,0,0,0,0,.01Z"/>
    <path class="cls-2" d="m42.71,35.77s-.02-.05-.03-.07c-.01-.02-.02-.04-.03-.06.02.05.04.09.06.14Z"/>
    <path class="cls-2" d="m46.7,37.55s-.03,0-.05,0c-.03,0-.07,0-.1-.01.05,0,.1.01.15.02Z"/>
    <path class="cls-2" d="m51.9,36.28s-.02.06-.04.08c0,.02-.01.04-.02.05.02-.05.04-.09.06-.14Z"/>
    <path class="cls-2" d="m49.91,37.59s-.05,0-.08,0c-.03,0-.05,0-.08.01.05,0,.1-.01.15-.02Z"/>
    <path class="cls-2" d="m53.18,34.71s.01.09.02.14c0-.05,0-.09-.02-.14Z"/>
    <path class="cls-2" d="m52.05,35.74s0-.02,0-.04c0,0,0,0,0,0,0,.01,0,.02,0,.04Z"/>
    <path class="cls-2" d="m52.99,34.42s.01.01.02.02c0,0-.01-.01-.02-.02Z"/>
    <path class="cls-2" d="m53.01,34.44s0,0,0,0c0,0,0,0,0,0Z"/>
    <path class="cls-2" d="m50.97,37.3s-.05.02-.07.03c-.02,0-.04.02-.06.03.05-.02.09-.04.14-.06Z"/>
    <path class="cls-2" d="m51.35,37.07s-.03.02-.04.03c0,0,0,0-.01.01-.08.06.02-.02.05-.04Z"/>
    <path class="cls-2" d="m42.63,35.25s0-.05.01-.08c0-.02,0-.05,0-.07l-.02.15Z"/>
    <path class="cls-2" d="m51.64,36.76s-.01.02-.02.03c0,0,0,.01-.01.02-.05.07.08-.1.04-.05Z"/>
    <path class="cls-2" d="m42.65,35.61s0-.06,0-.08c0-.02,0-.05-.01-.07,0,.05.01.1.02.15Z"/>
    <path class="cls-2" d="m52.26,34.41s-.04.02-.06.03c-.02.01-.05.02-.07.03.05-.02.09-.04.14-.06Z"/>
    <path class="cls-2" d="m50.08,35.02s-.05,0-.07,0c-.03,0-.05,0-.08.01.05,0,.1-.01.15-.02Z"/>
    <path class="cls-2" d="m52.14,34.57c-.08.14-.08.28-.06.44,0,0,0,0,0,0,0,0,0,0,0,0,0,0,0,0,0,0,0-.05-.01-.1-.02-.15.03.25.03.52,0,.77,0-.02,0-.03,0-.05,0,.04-.01.08-.02.12.29-.1.58-.22.87-.35.12-.06.23-.22.26-.34.01-.05.02-.11.02-.16,0-.05-.01-.09-.02-.14-.01-.05-.03-.1-.06-.14-.03-.04-.06-.09-.1-.12,0,0,0,0,0,0,0,0-.01-.01-.02-.02-.03-.02-.05-.04-.08-.05-.05-.03-.1-.05-.16-.06-.14-.03-.27,0-.4.05-.09.05-.18.12-.23.21Z"/>
    <path class="cls-2" d="m52.76,34.31c-.09-.02-.2-.02-.28,0-.04.01-.08.03-.11.05.13-.06.26-.08.4-.05Z"/>
    <path class="cls-2" d="m52.99,34.42c-.06-.05-.13-.09-.21-.11,0,0-.01,0-.02,0,.06.01.11.03.16.06.02.01.05.03.08.05Z"/>
    <path class="cls-2" d="m43.01,33.11c-.12-.02-.26,0-.36.07-.31.22-.57.51-.77.83-.17.27-.29.58-.34.89-.05.35-.07.72.04,1.07.19.57.61.99,1.08,1.35.53.4,1.16.67,1.79.89.78.27,1.59.42,2.41.51.77.08,1.55.12,2.32.09,1.07-.05,2.28-.23,3.08-1.01.46-.45.76-1.07.88-1.7.07-.38.11-.78.07-1.17,0-.02,0-.04,0-.06,0,.06,0,.11-.02.16-.03.12-.14.29-.26.34-.28.13-.57.25-.87.35,0,.01,0,.02,0,.04,0-.01,0-.02,0-.04,0,0,0,0,0,0-.04.23-.1.45-.18.66.01-.03.03-.06.04-.08-.02.05-.04.09-.06.14,0-.02.01-.04.02-.05-.06.13-.13.26-.21.38,0,.01-.02.03-.03.04,0,0,.01-.02.02-.03.04-.05-.09.12-.04.05,0,0,0-.01.01-.02-.02.03-.05.06-.07.08-.06.07-.13.14-.21.2-.01.01-.03.02-.04.03.01,0,.03-.02.04-.03,0,0,0,0,0,0,0,0,0,0,0,0-.03.02-.13.1-.05.04,0,0,0,0,.01-.01,0,0-.01,0-.02.01-.04.03-.09.06-.14.09-.08.05-.17.09-.25.13.02,0,.05-.02.07-.03-.05.02-.09.04-.14.06.02,0,.04-.02.06-.03-.34.13-.7.21-1.07.27.03,0,.05,0,.08,0-.05,0-.1.01-.15.02.03,0,.05,0,.08-.01-1.05.13-2.14.08-3.19-.05.02,0,.03,0,.05,0-.05,0-.1-.01-.15-.02.03,0,.07,0,.1.01-.81-.11-1.61-.31-2.36-.62.03.01.05.02.08.03-.05-.02-.09-.04-.14-.06.02,0,.04.02.06.02-.2-.09-.4-.18-.59-.29-.1-.06-.19-.12-.29-.18-.04-.03-.09-.06-.13-.09-.01,0-.02-.02-.04-.03,0,0,0,0,0,0,.1.08-.08-.06-.04-.03,0,0,.02.01.03.02-.13-.1-.25-.22-.36-.34.01.02-.02-.02-.04-.05-.01-.01-.02-.03-.04-.04,0,.01.02.02.03.03-.02-.03-.04-.06-.06-.09-.03-.05-.06-.1-.08-.15,0,.02.02.05.03.07-.02-.05-.04-.09-.06-.14,0,.02.02.04.03.06-.02-.05-.03-.11-.05-.17,0,.03,0,.06,0,.08,0-.05-.01-.1-.02-.15,0,.02,0,.05.01.07-.01-.12-.01-.24,0-.36,0,.03,0,.05-.01.08l.02-.15s0,.05,0,.07c.02-.12.06-.24.1-.36-.01.02-.02.04-.03.06.02-.05.04-.09.06-.14-.01.02-.02.05-.03.07.05-.11.11-.22.19-.32,0,0,0-.01.01-.02,0,0,0,0,0,0-.03.04-.01.01.01-.02.01-.02.03-.04.04-.05-.15-.11-.3-.22-.45-.34.23.03.46.06.69.09.04-.03.12-.09.07-.05-.01,0-.02.02-.03.03-.06.05-.12.11-.18.17-.03.03-.06.07-.09.1,1.02.72,2.16,1.24,3.38,1.53,1.4.34,2.86.38,4.28.13.48-.09.95-.21,1.41-.37,0-.02,0-.04.01-.07.03-.26.03-.52,0-.77,0,.05.01.1.02.15-.02-.16-.02-.29.06-.44.05-.09.13-.16.23-.21,0,0-.01,0-.02,0-.05.02-.09.04-.14.06.02,0,.04-.02.06-.03-.05.02-.09.04-.14.06.02-.01.05-.02.07-.03-.7.29-1.44.49-2.19.6.02,0,.05,0,.07,0-.05,0-.1.01-.15.02.03,0,.05,0,.08-.01-.8.1-1.62.1-2.42,0,.03,0,.05,0,.08.01l-.15-.02s.05,0,.07,0c-.8-.11-1.58-.33-2.33-.63.02.01.05.02.07.03l-.14-.06s.04.02.06.03c-.35-.15-.68-.32-1.01-.51-.17-.1-.34-.21-.51-.32-.08-.05-.16-.11-.24-.17-.04-.03-.07-.06-.11-.08,0,0,.01,0,.02.01,0,0-.02-.02-.03-.02,0,0,0,0,0,0,0,0-.02-.01-.02-.02,0,0,0,0-.01,0-.1-.08-.19-.14-.33-.16Z"/>
    <path class="cls-2" d="m47.67,35.04s-.05,0-.08-.01c-.02,0-.05,0-.07,0l.15.02Z"/>
    <path class="cls-2" d="m43.39,33.31c-.08-.07-.07-.05-.04-.03,0,0,.02.01.03.02,0,0,0,0,.01,0Z"/>
    <path class="cls-2" d="m45.33,34.43s-.05-.02-.07-.03c-.02,0-.04-.02-.06-.03l.14.06Z"/>
    <path class="cls-2" d="m42.98,34.41s0,0,0,0c.03-.03.06-.07.09-.1.06-.06.12-.12.18-.17.01,0,.02-.02.03-.03.05-.04-.03.02-.07.05,0,0,0,0,0,0,0,0-.01.01-.02.02,0,0,0,0,.02-.02-.23-.03-.46-.06-.69-.09.15.12.3.23.45.34,0,0,0,0,0,0,0,0,0,0,0,0Z"/>
    <path class="cls-2" d="m43.22,34.17s0,0,0,0c-.01,0-.02.02-.02.02,0,0,.01-.01.02-.02Z"/>
    <path class="cls-2" d="m42.71,34.87s.02-.04.03-.06c0-.02.02-.05.03-.07-.02.05-.04.09-.06.14Z"/>
    <path class="cls-2" d="m42.93,34.48s0,0,0,0c0,0,0,0,0,0-.02.03-.04.05-.01.02Z"/>
    <path class="cls-2" d="m53.18,34.71s0,0,0,0c-.01-.09-.08-.19-.16-.26.04.04.07.08.1.12.03.04.05.09.06.14Z"/>
    <polygon class="cls-2" points="42.98 34.41 42.98 34.41 42.98 34.41 42.98 34.41"/>
    <polygon class="cls-2" points="52.08 35.01 52.08 35.01 52.08 35.01 52.08 35.01"/>
    <path class="cls-2" d="m52.06,35.64s0,.04,0,.06c0,0,0,0,0,0,0-.04.01-.08.02-.12,0,.02,0,.03,0,.05Z"/>
    <path class="cls-2" d="m52.05,35.7s0,0,0,0c0-.02,0-.04,0-.06,0,.02,0,.04-.01.07Z"/>
    <path class="cls-2" d="m42.98,34.42s0,0,0,0c0,0-.02.03-.04.05,0,0,0,0,0,0,0,0,.01-.02.02-.03,0,0,.02-.02.02-.03Z"/>
  </g>
  <path class="cls-1" d="m43.96,47.69c2.64.27,4.26-.03,5.02-.63,1.27-1,1.01-2.82,1.01-2.82-3.28,1.5-7.38.99-10.2-1.25,0,0-1.07.75-.9,2.04.17,1.23,2.32,2.38,5.06,2.66Z"/>
  <g>
    <path class="cls-2" d="m49.41,45.17s0-.06.01-.1c0,0,0,0,0,0,0,.03,0,.06-.01.1Z"/>
    <path class="cls-2" d="m39.45,44.63s0-.05.01-.08c0-.02,0-.05,0-.07,0,.05-.01.1-.02.15Z"/>
    <path class="cls-2" d="m39.67,45.39s0,0,0,0c0,0,0,0,0,.01,0,0,.01.02.02.02,0,0-.02-.02-.04-.05,0,0,0,0,0,0Z"/>
    <path class="cls-2" d="m50.36,43.8s.01.01.02.02c0,0-.01-.01-.02-.02Z"/>
    <path class="cls-2" d="m39.54,45.2s-.02-.05-.03-.07c-.01-.02-.02-.04-.03-.06.02.05.04.09.06.14Z"/>
    <path class="cls-2" d="m50.55,44.09s.01.09.02.14c0-.05,0-.09-.02-.14Z"/>
    <path class="cls-2" d="m49.26,45.73s-.03.06-.04.09c0,.02-.01.03-.02.05.02-.05.04-.09.06-.14Z"/>
    <path class="cls-2" d="m39.47,45.02s0-.05,0-.08c0-.02,0-.05-.01-.07,0,.05.01.1.02.15Z"/>
    <path class="cls-2" d="m48.58,46.65s.06-.05.09-.07c-.02.01-.03.02-.05.03,0,0,0,0,0,0-.01.01-.03.02-.04.03Z"/>
    <path class="cls-2" d="m48.27,46.83s-.05.02-.08.03c-.02,0-.04.02-.06.03.05-.02.09-.04.14-.06Z"/>
    <path class="cls-2" d="m48.99,46.25s-.04.05-.06.07c-.01.01,0,0,.06-.07Z"/>
    <path class="cls-2" d="m40.11,45.82s0,0,0,0c0,0-.01-.01-.02-.02-.07-.05.13.1.03.02Z"/>
    <path class="cls-2" d="m50.38,43.82s0,0,.01,0c0,0,0,0-.01,0Z"/>
    <path class="cls-2" d="m47.13,47.14s-.05,0-.07,0c-.03,0-.06,0-.08.01.05,0,.1-.01.15-.02Z"/>
    <path class="cls-2" d="m43.74,47.09s-.03,0-.04,0c-.04,0-.07,0-.11-.01.05,0,.1.01.15.02Z"/>
    <path class="cls-2" d="m41.28,46.47s-.05-.02-.08-.03c-.02,0-.04-.02-.06-.02.05.02.09.04.14.06Z"/>
    <path class="cls-2" d="m50.36,43.8c-.06-.05-.13-.09-.21-.11,0,0-.01,0-.02,0,.06.01.11.03.16.06.02.01.05.03.08.05Z"/>
    <path class="cls-2" d="m49.6,43.79s-.04.02-.06.02c-.03.01-.05.02-.08.03.05-.02.09-.04.14-.06Z"/>
    <path class="cls-2" d="m47.31,44.43s-.05,0-.07,0c-.03,0-.06,0-.08.01l.15-.02Z"/>
    <path class="cls-2" d="m50.13,43.68c-.09-.02-.2-.02-.28,0-.04.01-.08.03-.11.05.13-.06.26-.08.4-.05Z"/>
    <path class="cls-2" d="m49.51,43.95c-.08.14-.08.28-.06.44,0,0,0,0,0,0,0,0,0,0,0,0,0,0,0,0,0,0,0-.05-.01-.1-.02-.15.04.27.03.55,0,.82,0-.01,0-.03,0-.04,0,.02,0,.04,0,.06.29-.1.58-.22.86-.35.12-.06.23-.22.26-.34.01-.05.02-.11.02-.16,0-.05-.01-.09-.02-.14-.01-.05-.03-.1-.06-.14-.03-.04-.06-.09-.1-.12,0,0,0,0-.01,0,0,0-.01-.01-.02-.02-.03-.02-.05-.04-.08-.05-.05-.03-.1-.05-.16-.06-.14-.03-.27,0-.4.05-.09.05-.18.12-.23.21Z"/>
    <path class="cls-2" d="m40.26,42.63c-.1-.08-.06-.05-.03-.02,0,0,.01,0,.02.01,0,0,0,0,.01,0Z"/>
    <path class="cls-2" d="m39.88,42.43c-.12-.02-.26,0-.36.07-.33.23-.6.54-.81.88-.17.28-.3.6-.35.93-.06.36-.07.75.05,1.1.2.59.64,1.04,1.13,1.4.56.41,1.22.7,1.88.92.81.27,1.65.43,2.5.52.81.09,1.63.13,2.44.09,1.12-.06,2.39-.24,3.22-1.06.48-.47.79-1.11.91-1.77.08-.4.11-.82.07-1.22,0-.02,0-.04,0-.07,0,.06,0,.11-.02.16-.03.12-.14.29-.26.34-.28.13-.57.24-.86.35,0,.03,0,.06-.01.1,0-.03,0-.06.01-.1,0,0,0,0,0,0-.04.26-.1.51-.2.75.01-.03.03-.06.04-.09-.02.05-.04.09-.06.14,0-.02.01-.03.02-.05-.06.14-.14.27-.22.4-.02.02-.06.08-.07.09.02-.02.04-.05.06-.07-.06.07-.07.08-.06.07-.01.02-.03.03-.04.05-.07.08-.14.15-.22.21-.02.01-.03.03-.05.04.02-.01.03-.02.05-.03-.03.02-.06.05-.09.07.01-.01.03-.02.04-.03,0,0,0,0,0,0,0,0-.01.01-.02.01-.05.03-.09.06-.14.09-.09.05-.18.1-.27.14.03,0,.05-.02.08-.03-.05.02-.09.04-.14.06.02,0,.04-.02.06-.03-.36.14-.75.23-1.13.28.02,0,.05,0,.07,0-.05,0-.1.01-.15.02.03,0,.06,0,.08-.01-1.11.14-2.26.08-3.36-.06.01,0,.03,0,.04,0-.05,0-.1-.01-.15-.02.04,0,.07,0,.11.01-.85-.12-1.69-.32-2.49-.65.03.01.05.02.08.03-.05-.02-.09-.04-.14-.06.02,0,.04.02.06.02-.22-.09-.43-.2-.63-.32-.1-.06-.19-.12-.29-.18-.05-.03-.1-.07-.15-.11-.01,0-.02-.02-.03-.02,0,0,0,0,0,0,.1.08-.1-.08-.03-.02,0,0,.02.01.02.02-.14-.12-.28-.24-.4-.38.03.03,0,0-.03-.04-.01-.02-.03-.03-.04-.05.01.01.02.03.03.04-.02-.03-.05-.07-.07-.1-.03-.05-.06-.11-.09-.16,0,.02.02.05.03.07-.02-.05-.04-.09-.06-.14,0,.02.02.04.03.06-.02-.06-.04-.12-.05-.18,0,.03,0,.05,0,.08,0-.05-.01-.1-.02-.15,0,.02,0,.05.01.07-.01-.13-.01-.26,0-.39,0,.03,0,.05-.01.08,0-.05.01-.1.02-.15,0,.02,0,.05,0,.07.02-.13.06-.26.11-.38-.01.03-.03.06-.04.08.02-.05.04-.09.06-.14,0,.02-.01.04-.02.05.05-.11.12-.22.19-.33.02-.02.03-.04.05-.07,0,0,0,0,0,0,0,0-.02.03-.03.04,0,0,0,0,0,0,0,0,0,0,0,0,.02-.02.09-.12.05-.06,0,0,0,.01-.01.02.01-.02.03-.03.04-.05-.15-.11-.3-.22-.45-.34.23.03.46.06.69.09,0,0,.02-.01.03-.03.11-.09.02-.02,0,0-.07.06-.13.12-.2.19-.03.03-.05.06-.07.08,1.07.76,2.28,1.31,3.56,1.62,1.47.35,3,.4,4.48.13.52-.09,1.03-.23,1.53-.41,0,0,0-.01,0-.02.03-.27.04-.55,0-.82,0,.05.01.1.02.15-.02-.16-.02-.29.06-.44.05-.09.13-.16.23-.21,0,0-.01,0-.02,0-.05.02-.11.05-.16.07.02,0,.04-.02.06-.02-.05.02-.09.04-.14.06.03-.01.05-.02.08-.03-.74.3-1.51.51-2.3.62.02,0,.05,0,.07,0l-.15.02s.06,0,.08-.01c-.85.11-1.71.1-2.56,0,.02,0,.05,0,.07.01-.05,0-.1-.01-.15-.02.03,0,.05,0,.08,0-.84-.12-1.66-.34-2.45-.67.02.01.05.02.07.03-.05-.02-.09-.04-.14-.06.02,0,.04.02.07.03-.37-.16-.72-.34-1.07-.54-.18-.11-.36-.22-.53-.34-.09-.06-.18-.12-.26-.19-.04-.03-.07-.05-.11-.08,0,0,0,0,.01.01,0,0-.01-.01-.02-.02,0,0,0,0,0,0,0,0-.01,0-.02-.01-.01,0-.02-.02-.03-.02-.1-.08-.19-.14-.33-.16Z"/>
    <path class="cls-2" d="m42.3,43.8s-.05-.02-.07-.03c-.02,0-.04-.02-.07-.03.05.02.09.04.14.06Z"/>
    <path class="cls-2" d="m44.75,44.45s-.05,0-.07-.01c-.03,0-.05,0-.08,0,.05,0,.1.01.15.02Z"/>
    <path class="cls-2" d="m40.07,43.5s-.01.01,0,0h0Z"/>
    <path class="cls-2" d="m40.09,43.48s0,0,0,0c0,0-.01.01-.02.01,0,0,.01-.01.02-.01Z"/>
    <path class="cls-2" d="m40.12,43.46s.11-.09,0,0c-.01.01-.02.02-.03.03,0,0,0,0,0,0,0,0-.01.01-.02.01-.01.01-.01,0,0,0,0,0,.01,0,.02-.01-.23-.03-.46-.06-.69-.09.15.12.3.23.45.34.02-.03.05-.06.07-.08.06-.07.13-.13.2-.19Z"/>
    <path class="cls-2" d="m39.53,44.26s.02-.06.04-.08c0-.02.01-.04.02-.05-.02.05-.04.09-.06.14Z"/>
    <path class="cls-2" d="m39.77,43.82s.03-.04.03-.04c0,0,0,0,0,0,0,0,0-.01.01-.02.05-.06-.03.04-.05.06Z"/>
    <path class="cls-2" d="m49.42,45.08s0,0,0,0c0,0,0-.01,0-.02,0,0,0,.01,0,.02Z"/>
    <path class="cls-2" d="m49.43,45.06s0,.01,0,.02c0,0,0,0,0,0,0-.02,0-.04,0-.06,0,.01,0,.03,0,.04Z"/>
    <polygon class="cls-2" points="49.45 44.39 49.45 44.39 49.45 44.39 49.45 44.39"/>
    <path class="cls-2" d="m50.55,44.09s0,0,0,0c-.01-.09-.08-.19-.16-.26.04.04.07.08.1.12.03.04.05.09.06.14Z"/>
  </g>
  <path class="cls-1" d="m41.07,56.47c2.64.27,4.26-.03,5.02-.63,1.27-1,1.01-2.82,1.01-2.82-3.28,1.5-7.38.99-10.2-1.25,0,0-1.07.75-.9,2.04.17,1.23,2.32,2.38,5.06,2.66Z"/>
  <g>
    <path class="cls-2" d="m47.66,52.87s.01.09.02.14c0-.05,0-.09-.02-.14Z"/>
    <path class="cls-2" d="m47.47,52.58s.01.01.02.02c0,0-.01-.01-.02-.02Z"/>
    <path class="cls-2" d="m47.49,52.6s0,0,0,0c0,0,0,0,0,0Z"/>
    <path class="cls-2" d="m36.56,53.41s0-.05.01-.08c0-.02,0-.05,0-.07,0,.05-.01.1-.02.15Z"/>
    <path class="cls-2" d="m46.52,53.95s0-.06.01-.1c0,0,0,0,0,0,0,.03,0,.06-.01.1Z"/>
    <path class="cls-2" d="m36.65,53.98s-.02-.05-.03-.07c-.01-.02-.02-.04-.03-.06.02.05.04.09.06.14Z"/>
    <path class="cls-2" d="m36.58,53.8s0-.06,0-.08c0-.02,0-.05-.01-.07,0,.05.01.1.02.15Z"/>
    <path class="cls-2" d="m46.1,55.03s-.04.05-.06.07c-.01.01,0,0,.06-.07Z"/>
    <path class="cls-2" d="m37.22,54.6s0,0,0,0c0,0-.02-.01-.02-.02-.07-.05.13.1.03.02Z"/>
    <path class="cls-2" d="m46.38,54.52s-.03.06-.04.09c0,.02-.01.03-.02.05.02-.05.04-.09.06-.14Z"/>
    <path class="cls-2" d="m45.38,55.61s-.05.02-.08.03c-.02,0-.04.02-.06.03.05-.02.09-.04.14-.06Z"/>
    <path class="cls-2" d="m45.69,55.44s.06-.05.09-.07c-.02.01-.03.02-.05.03,0,0,0,0,0,0-.01.01-.03.02-.04.03Z"/>
    <path class="cls-2" d="m44.24,55.92s-.05,0-.07,0c-.03,0-.06,0-.08.01.05,0,.1-.01.15-.02Z"/>
    <path class="cls-2" d="m38.4,55.25s-.05-.02-.08-.03c-.02,0-.04-.02-.06-.02l.14.06Z"/>
    <path class="cls-2" d="m40.85,55.87s-.03,0-.04,0c-.04,0-.07,0-.11-.01.05,0,.1.01.15.02Z"/>
    <path class="cls-2" d="m36.78,54.17s0,0,0,0c0,0,0,0,0,.01,0,0,.01.02.02.02,0,0-.02-.02-.04-.05,0,0,0,0,0,0Z"/>
    <path class="cls-2" d="m46.62,52.73c-.08.14-.08.28-.06.44,0,0,0,0,0,0,0,0,0,0,0,0,0,0,0,0,0,0l-.02-.15c.04.27.03.55,0,.82,0-.01,0-.03,0-.04,0,.02,0,.04,0,.06.29-.1.58-.22.86-.35.12-.06.23-.22.26-.34.01-.05.02-.11.02-.16,0-.05-.01-.09-.02-.14-.01-.05-.03-.1-.06-.14-.03-.04-.06-.09-.1-.12,0,0,0,0,0,0,0,0-.01-.01-.02-.02-.03-.02-.05-.04-.08-.05-.05-.03-.1-.05-.16-.06-.14-.03-.27,0-.4.05-.09.05-.18.12-.23.21Z"/>
    <path class="cls-2" d="m44.42,53.21s-.05,0-.07,0c-.03,0-.06,0-.08.01.05,0,.1-.01.15-.02Z"/>
    <path class="cls-2" d="m46.72,52.57s-.04.02-.06.02c-.03.01-.05.02-.08.03.05-.02.09-.04.14-.06Z"/>
    <path class="cls-2" d="m47.24,52.46c-.09-.02-.2-.02-.28,0-.04.01-.08.03-.11.05.13-.06.26-.08.4-.05Z"/>
    <path class="cls-2" d="m47.47,52.58c-.06-.05-.13-.09-.21-.11,0,0-.01,0-.02,0,.06.01.11.03.16.06.02.01.05.03.08.05Z"/>
    <path class="cls-2" d="m36.99,51.21c-.12-.02-.26,0-.36.07-.33.23-.6.54-.81.88-.17.28-.3.6-.35.93-.06.36-.07.75.05,1.1.2.59.64,1.04,1.13,1.4.56.41,1.22.7,1.88.92.81.27,1.65.43,2.5.52.81.09,1.63.13,2.44.09,1.12-.06,2.39-.24,3.22-1.06.48-.47.79-1.11.91-1.77.08-.4.11-.82.07-1.22,0-.02,0-.04,0-.07,0,.06,0,.11-.02.16-.03.12-.14.29-.26.34-.28.13-.57.24-.86.35,0,.03,0,.06-.01.1,0-.03,0-.06.01-.1,0,0,0,0,0,0-.04.26-.1.51-.2.75.01-.03.03-.06.04-.09-.02.05-.04.09-.06.14,0-.02.01-.03.02-.05-.06.14-.14.27-.22.4-.02.02-.06.08-.07.09.02-.02.04-.05.06-.07-.06.07-.07.08-.06.07-.01.02-.03.03-.04.05-.07.08-.14.15-.22.21-.02.01-.03.03-.05.04.02-.01.03-.02.05-.03-.03.02-.06.05-.09.07.01-.01.03-.02.04-.03,0,0,0,0,0,0,0,0-.01.01-.02.01-.05.03-.09.06-.14.09-.09.05-.18.1-.27.14.03,0,.05-.02.08-.03-.05.02-.09.04-.14.06.02,0,.04-.02.06-.03-.36.14-.75.23-1.13.28.02,0,.05,0,.07,0-.05,0-.1.01-.15.02.03,0,.06,0,.08-.01-1.11.14-2.26.08-3.36-.06.01,0,.03,0,.04,0-.05,0-.1-.01-.15-.02.04,0,.07,0,.11.01-.85-.12-1.69-.32-2.48-.65.03.01.05.02.08.03l-.14-.06s.04.02.06.02c-.22-.09-.43-.2-.63-.32-.1-.06-.19-.12-.29-.18-.05-.03-.1-.07-.15-.11-.01,0-.02-.02-.03-.02,0,0,0,0,0,0,.1.08-.1-.08-.03-.02,0,0,.02.01.02.02-.14-.12-.28-.24-.4-.38.03.03,0,0-.03-.03-.01-.02-.03-.03-.04-.05.01.01.02.03.03.04-.02-.03-.05-.07-.07-.1-.03-.05-.06-.11-.09-.16,0,.02.02.05.03.07-.02-.05-.04-.09-.06-.14,0,.02.02.04.03.06-.02-.06-.04-.12-.05-.18,0,.03,0,.06,0,.08,0-.05-.01-.1-.02-.15,0,.02,0,.05.01.07-.01-.13-.01-.26,0-.39,0,.03,0,.05-.01.08,0-.05.01-.1.02-.15,0,.02,0,.05,0,.07.02-.13.06-.26.11-.38-.01.03-.03.06-.04.08.02-.05.04-.09.06-.14,0,.02-.01.04-.02.05.05-.11.12-.22.19-.33.02-.02.03-.04.05-.07,0,0,0,0,0,0,0,0-.02.03-.03.04,0,0,0,0,0,0,0,0,0,0,0,0,.02-.02.09-.12.05-.06,0,0,0,.01-.01.02.01-.02.03-.03.04-.05-.15-.11-.3-.22-.45-.34.23.03.46.06.69.09,0,0,.02-.01.03-.03.11-.09.02-.02,0,0-.07.06-.13.12-.2.19-.03.03-.05.06-.07.08,1.07.76,2.28,1.31,3.56,1.62,1.47.35,3,.4,4.48.13.52-.09,1.03-.23,1.53-.41,0,0,0-.01,0-.02.03-.27.04-.55,0-.82l.02.15c-.02-.16-.02-.29.06-.44.05-.09.13-.16.23-.21,0,0-.01,0-.02,0-.05.02-.11.05-.16.07.02,0,.04-.02.06-.02-.05.02-.09.04-.14.06.03-.01.05-.02.08-.03-.74.3-1.51.51-2.3.62.02,0,.05,0,.07,0-.05,0-.1.01-.15.02.03,0,.06,0,.08-.01-.85.11-1.71.1-2.56,0,.02,0,.05,0,.07.01-.05,0-.1-.01-.15-.02.03,0,.05,0,.08,0-.84-.12-1.66-.34-2.45-.67.02.01.05.02.07.03-.05-.02-.09-.04-.14-.06.02,0,.04.02.07.03-.37-.16-.72-.34-1.07-.54-.18-.11-.36-.22-.53-.34-.09-.06-.18-.12-.26-.19-.04-.03-.07-.05-.11-.08,0,0,0,0,.01.01,0,0-.01-.01-.02-.02,0,0,0,0,0,0,0,0-.01,0-.02-.01-.01,0-.02-.02-.03-.02-.1-.08-.19-.14-.33-.16Z"/>
    <path class="cls-2" d="m41.86,53.23s-.05,0-.07-.01c-.03,0-.05,0-.08,0,.05,0,.1.01.15.02Z"/>
    <path class="cls-2" d="m36.64,53.04s.02-.06.04-.08c0-.02.01-.04.02-.05-.02.05-.04.09-.06.14Z"/>
    <path class="cls-2" d="m39.41,52.58s-.05-.02-.07-.03c-.02,0-.04-.02-.07-.03.05.02.09.04.14.06Z"/>
    <path class="cls-2" d="m37.37,51.41c-.1-.08-.06-.05-.03-.02,0,0,.01,0,.02.01,0,0,0,0,.01,0Z"/>
    <path class="cls-2" d="m37.23,52.24s.11-.09,0,0c-.01.01-.02.02-.03.03,0,0,0,0,0,0,0,0-.01.01-.02.01-.01.01-.01,0,0,0,0,0,.01,0,.02-.01-.23-.03-.46-.06-.69-.09.15.12.3.23.45.34.02-.03.05-.06.07-.08.06-.07.13-.13.2-.19Z"/>
    <path class="cls-2" d="m37.18,52.28s-.01.01,0,0h0Z"/>
    <path class="cls-2" d="m37.2,52.26s0,0,0,0c0,0-.01.01-.02.01,0,0,.01-.01.02-.01Z"/>
    <path class="cls-2" d="m36.88,52.6s.03-.04.03-.04c0,0,0,0,0,0,0,0,0-.01.01-.02.05-.06-.03.04-.05.06Z"/>
    <polygon class="cls-2" points="46.56 53.17 46.56 53.17 46.56 53.17 46.56 53.17"/>
    <path class="cls-2" d="m46.54,53.86s0,0,0,0c0,0,0-.01,0-.02,0,0,0,.01,0,.02Z"/>
    <path class="cls-2" d="m46.54,53.84s0,.01,0,.02c0,0,0,0,0,0,0-.02,0-.04,0-.06,0,.01,0,.03,0,.04Z"/>
    <path class="cls-2" d="m47.66,52.87s0,0,0,0c-.01-.09-.08-.19-.16-.26.04.04.07.08.1.12.03.04.05.09.06.14Z"/>
  </g>
  <g>
    <path class="cls-2" d="m56.13,48.46l-.08.05s0,.04-.01.06c.03-.04.06-.08.09-.11Z"/>
    <path class="cls-2" d="m57.22,46.53s.06-.08.09-.11c-.02.02-.05.04-.07.05,0,0,0,.02,0,.03,0,.01,0,.02,0,.03Z"/>
    <path class="cls-2" d="m62.42,24.75c-.05.17-.1.35-.13.53.14-.1.27-.21.41-.31-.09-.07-.19-.14-.28-.21Z"/>
    <path class="cls-2" d="m50.48,52.72c.06-.16.11-.33.15-.51-.14.1-.28.19-.43.29.09.07.19.14.28.21Z"/>
    <path class="cls-2" d="m62.42,26.95s-.02.07-.03.1c.02.03.05.06.08.09-.02-.06-.03-.12-.05-.18Z"/>
    <path class="cls-2" d="m62.79,24.85c.04-.15-.14-.32-.28-.21-.63.48-1.27.97-1.9,1.45-1.01.77-2.02,1.55-3.03,2.32-.23.18-.46.36-.7.53,0,0,0,0,0,0,.05-.03.1-.03.15-.02.11.03.15.13.13.23,0,.02,0,.04,0,.05.61-.46,1.21-.93,1.82-1.39,1.01-.77,2.02-1.55,3.03-2.32.1-.07.19-.15.29-.22.04-.18.08-.36.13-.53.09.07.19.14.28.21-.14.1-.27.21-.41.31-.03.15-.06.31-.08.47-.05.41-.09.95.18,1.3,0-.03.02-.07.03-.1.02.06.03.12.05.18-.03-.03-.05-.06-.08-.09-.04.14-.08.28-.11.42-.13.47-.25.95-.38,1.42-.19.7-.37,1.4-.56,2.11-.23.86-.46,1.71-.68,2.57-.25.94-.5,1.88-.75,2.82-.25.95-.5,1.89-.76,2.84-.23.88-.47,1.77-.7,2.65-.2.75-.4,1.49-.6,2.24-.14.54-.29,1.07-.43,1.61-.06.24-.15.49-.2.74.02-.02.05-.04.07-.05-.03.04-.06.08-.09.11,0-.01,0-.02,0-.03,0,0,0-.02,0-.03-.63.48-1.03,1.28-1.18,2.05l.08-.05s-.06.08-.09.11c0-.02,0-.04.01-.06-.64.44-1.29.88-1.93,1.31-1.06.73-2.13,1.45-3.19,2.18-.1.07-.2.14-.31.21-.04.17-.09.34-.15.51-.09-.07-.19-.14-.28-.21.14-.1.28-.19.43-.29.04-.2.07-.4.09-.6.05-.57-.04-1.21-.48-1.61-.01.04-.02.08-.03.11-.02-.06-.03-.12-.05-.18.03.02.06.05.08.07l.11-.38.39-1.35c.2-.67.39-1.33.59-2,.24-.81.48-1.62.71-2.43.26-.89.52-1.78.78-2.66.26-.9.53-1.79.79-2.69.25-.84.49-1.68.74-2.52.21-.71.41-1.41.62-2.12.15-.51.3-1.02.45-1.52.06-.21.14-.43.19-.65-.03.01-.07.02-.1.02l.13-.13s0,.02,0,.03c0,.03-.01.05-.02.08.14-.04.27-.12.38-.19.39-.26.66-.66.84-1.08.16-.38.26-.79.32-1.2-.03.02-.05.04-.08.06-.08.06-.21.01-.26-.07-.05-.1-.01-.19.07-.26-.04.02-.08.06-.08.11-.08.6-.24,1.24-.61,1.73-.06.07-.12.14-.18.21-.03.03-.06.06-.1.09-.04.04-.04.03-.07.06-.06.04-.12.08-.18.11-.02.01-.05.02-.07.03,0,0-.01,0-.02,0,.01,0,0,0,0,0,0,0,0,0-.02,0-.05.02-.1.03-.15.04-.06,0-.12.08-.13.13-.05.16-.1.33-.14.49-.13.45-.26.9-.39,1.35-.2.67-.39,1.33-.59,2-.24.81-.48,1.62-.71,2.43-.26.89-.52,1.78-.78,2.66-.26.9-.53,1.79-.79,2.69-.25.84-.49,1.68-.74,2.52-.21.71-.41,1.41-.62,2.12-.15.51-.3,1.02-.45,1.52-.07.24-.15.48-.21.72,0,.01,0,.02,0,.03-.02.06,0,.15.05.18.45.35.5.94.45,1.47-.03.32-.11.64-.22.94-.06.15.15.31.28.21.69-.47,1.38-.94,2.07-1.41,1.07-.73,2.14-1.46,3.2-2.18.22-.15.45-.28.65-.45.09-.07.09-.15.11-.25.03-.14.07-.28.11-.42.07-.22.17-.43.3-.63.16-.26.36-.5.59-.7.02-.01.06-.05.06-.05,0,0-.01,0-.02.01.01-.01.02-.01.02-.01.03-.02.05-.04.07-.07.01-.02.02-.04.02-.06.01-.04.02-.09.04-.13.06-.22.12-.44.17-.65.23-.85.45-1.69.68-2.54.32-1.21.65-2.43.97-3.64.36-1.36.72-2.72,1.09-4.08.35-1.3.69-2.6,1.04-3.9.27-1.01.54-2.01.8-3.02.14-.51.27-1.02.41-1.52,0-.02.01-.04.02-.07.02-.06,0-.14-.05-.18-.27-.26-.19-.82-.14-1.15.04-.29.1-.58.19-.86Z"/>
    <path class="cls-2" d="m57.47,46.76s.01,0,.02-.01c0,0,0,0-.02.01Z"/>
    <path class="cls-2" d="m55.57,31.29s.01,0,0,0h0Z"/>
    <path class="cls-2" d="m56.82,29.2c.05.08.18.13.26.07.03-.02.05-.04.08-.06,0-.02,0-.04,0-.05.01-.1-.02-.2-.13-.23-.05-.01-.1,0-.15.02-.08.06-.12.16-.07.26Z"/>
    <path class="cls-2" d="m50.2,50.12s.02-.08.03-.11c-.03-.02-.05-.05-.08-.07.02.06.03.12.05.18Z"/>
    <path class="cls-2" d="m55.64,31.57l-.13.13s.07-.01.1-.02c0-.03.01-.05.02-.08,0-.01,0-.02,0-.03Z"/>
  </g>
</svg>