<?xml version="1.0" encoding="UTF-8"?>
<svg id="Capa_1" data-name="Capa 1" xmlns="http://www.w3.org/2000/svg" width="132.68" height="140.66" viewBox="0 0 132.68 140.66">
  <defs>
    <style>
      .cls-1 {
        fill: #42250d;
      }

      .cls-1, .cls-2, .cls-3 {
        stroke-width: 0px;
      }

      .cls-2 {
        fill: #8e0c25;
      }

      .cls-3 {
        fill: #eeceb5;
      }
    </style>
  </defs>
  <path class="cls-2" d="m104.22,111.21l-.16-91.6-57.14-8.87c-4.78.55-10.91,3.81-17.5,8.02l51.13,87.99c16.4,4.81,23.67,4.46,23.67,4.46Z"/>
  <path class="cls-3" d="m69.98,109.94c7.1,4.01,9.92,5.2,13.96,6.08,4.86-2.68,10.54-7.1,14.27-10.16.61-10.34-.12-82.71-.12-82.71,0,0-50.55-8.52-52.12-8.73-3.58-.48-10.73,4.53-10.73,4.53,0,0,16.21,12.11,33.03,20.63l1.7,70.36Z"/>
  <path class="cls-2" d="m108.9,16.89S63.72,8.73,47.35,7.38l-.54,3.02c18.84,2.63,38.02,5.43,56.67,9.21l5.42-2.72Z"/>
  <path class="cls-2" d="m63.72,42.32L25.15,16.57c-1.74,27.34-1.86,59.26-.86,86.76,0,0,22.41,19.01,41.51,29.95l-2.07-90.95Z"/>
  <path class="cls-2" d="m68.28,39.58l-36.09-22.53-7.05-.47c10.26,8.57,37.73,24.71,38.59,24.77.85.06,2.93-.74,4.55-1.77Z"/>
  <path class="cls-2" d="m104.22,111.21c1.41-.89,2.83-1.78,4.24-2.67,0,0,.9-75.81.43-91.65l-4.83,2.72c.43,30.32-.33,59.26.16,91.6Z"/>
  <path class="cls-2" d="m68.28,39.58l-4.55,2.74c1.09,30.31.88,58.62,2.07,90.95,1.39-.92,2.79-1.84,4.18-2.77,0,0-.89-75.1-1.7-90.93Z"/>
  <path class="cls-2" d="m47.35,7.38c-6.36-.09-16.74,3.77-22.2,9.19,3.35.4,4.79.46,7.05.47,4.34-2.75,8.85-4.99,14.62-6.64,0,0,1.18-3.01.54-3.02Z"/>
  <g>
    <path class="cls-1" d="m35.55,11.5s.09-.04.13-.06c.06-.03.12-.05.19-.08-.11.05-.21.09-.32.14Z"/>
    <path class="cls-1" d="m28.03,15.82s.05-.04.07-.06c0,0,.02-.01.02-.02.13-.1-.29.22-.1.08Z"/>
    <path class="cls-1" d="m32.19,15.7c-.13,0-.25,0-.38,0-.1.06-.2.12-.3.19.23-.06.45-.12.68-.18Z"/>
    <path class="cls-1" d="m44.41,8.92c.1-.01.2-.03.3-.04.02,0,.04,0,.05,0-.12.02-.24.03-.36.05Z"/>
    <path class="cls-1" d="m26.09,17.52c.52-.51,1.06-.99,1.62-1.45.13-.1.26-.21.39-.31-.02.02-.05.04-.07.06-.19.15.23-.18.1-.08,0,0-.02.01-.02.02,0,0,.02-.01.03-.02.08-.06.17-.13.25-.19,0,0,0,0,.01,0-1.08-.08-2.16-.19-3.25-.32.32.76.63,1.53.95,2.29Z"/>
    <path class="cls-1" d="m40.96,13.88c.06-.03.12-.05.18-.08.05-.02.09-.04.14-.06-.11.05-.21.09-.32.14Z"/>
    <path class="cls-1" d="m47.79,11.31s-.01.01-.02.02c0,0,.01-.01.02-.02Z"/>
    <path class="cls-1" d="m48.1,10.76c-.08.21-.18.39-.32.54.14-.16.25-.34.32-.54Z"/>
    <path class="cls-1" d="m47.77,11.33s-.03.03-.05.05c.02-.02.03-.03.05-.05Z"/>
    <path class="cls-1" d="m47.37,8.72c-.11-.01-.22-.03-.33-.04,0,0,.01,0,.02,0-.02,0-.03,0-.05-.01,0,0,.02,0,.03,0-.1-.04-.2-.08-.3-.13-.09-.05-.23-.19-.32-.3-.04-.06-.07-.09-.09-.12l.02.04s-.06-.1-.02-.04c-.03-.08-.07-.16-.1-.24,0,.02,0,.04,0,.06,0-.04-.01-.07-.03-.1,0,.01.01.03.02.04,0-.05-.01-.09-.02-.14-.01.08-.02.17-.03.25,0-.06.01-.12.02-.17-.05.3-.13.61-.22.91.47-.03.93-.05,1.39-.02Z"/>
    <path class="cls-1" d="m47.12,11.71c.13-.03.25-.08.36-.15.09-.06.17-.12.23-.19-.16.15-.35.26-.55.32-.01,0-.03,0-.04.01Z"/>
    <path class="cls-1" d="m46.19,7.6c0,.08,0,.16,0,.23,0-.03.01-.06.01-.09,0-.05-.01-.1-.02-.15Z"/>
    <path class="cls-1" d="m48.1,10.04c-.22-.69-.93-1.15-1.65-.94-.22.06-.44.13-.66.2-.09.25-.18.5-.28.74-.12.3-.02.76.14,1.03.16.28.48.54.8.62.22.05.45.06.67.01.01,0,.03,0,.04-.01.21-.06.4-.17.55-.32.02-.02.03-.03.05-.05,0,0,.01-.01.02-.02.14-.15.23-.33.32-.54.07-.23.08-.48,0-.72Z"/>
    <path class="cls-1" d="m24.33,17.63c.25.2.49.25.81.29,2.02.24,4.04.43,6.08.46.2,0,.41,0,.61,0,.12,0,.23,0,.35,0,.39-.01.67-.18.98-.38.49-.31.98-.61,1.47-.9.99-.59,2-1.15,3.03-1.68,1.14-.59,2.3-1.13,3.47-1.63-.06.03-.12.05-.18.08.11-.05.21-.09.32-.14-.05.02-.09.04-.14.06,1.95-.81,3.95-1.51,5.98-2.1-.22.05-.46.04-.67-.01-.32-.07-.64-.34-.8-.62-.16-.27-.25-.73-.14-1.03.1-.24.19-.49.28-.74-3.96,1.19-7.78,2.81-11.38,4.84-.88.5-1.74,1.01-2.6,1.55.13,0,.25,0,.38,0-.23.06-.45.12-.68.18.1-.06.2-.13.3-.19-1.15-.01-2.28-.07-3.42-.15,0,0,0,0-.01,0-.08.06-.17.13-.25.19,0,0-.02.01-.03.02-.13.1-.26.21-.39.31-.56.46-1.1.94-1.62,1.45-.32-.76-.63-1.53-.95-2.29,1.08.13,2.16.24,3.25.32.3-.23.61-.45.93-.66,1.3-.89,2.67-1.68,4.08-2.38.75-.38,1.52-.73,2.29-1.06-.04.02-.09.04-.13.06.11-.05.21-.09.32-.14-.06.03-.12.05-.19.08,2.31-.96,4.7-1.74,7.15-2.24.62-.13,1.25-.23,1.87-.32-.1.01-.2.03-.3.04.12-.02.24-.03.36-.05-.02,0-.04,0-.05,0,.42-.05.84-.1,1.26-.13.09-.3.17-.6.22-.91,0-.08,0-.16,0-.23,0,.05.01.1.02.15,0-.03.01-.06.02-.09,0,.03,0,.07-.01.1,0,.05.01.09.02.14.03.08.07.16.1.24.02.02.04.06.09.12.08.11.23.25.32.3.1.04.2.08.3.13.11.01.22.03.33.04-.46-.03-.93-.01-1.39.02-.06.19-.12.37-.18.56.22-.07.44-.13.66-.2.72-.21,1.43.25,1.65.94.08.24.07.49,0,.72,0,0,0,0,0,0,.17-.43.32-.88.46-1.32.24-.81.55-1.84.1-2.63-.2-.34-.52-.61-.9-.71-.27-.08-.57-.06-.85-.06-.43,0-.86.03-1.29.06-1.04.09-2.08.24-3.11.43-2.08.4-4.13,1.01-6.11,1.75-2.18.82-4.31,1.79-6.32,2.96-2.11,1.22-4.14,2.66-5.88,4.38-.38.38-.48.98-.28,1.47.09.22.22.39.41.54Z"/>
    <path class="cls-1" d="m46.21,7.76s0,0,0-.01c0,.03,0,.06-.01.09,0,.06,0,.12-.02.17.01-.08.02-.17.03-.25Z"/>
    <path class="cls-1" d="m46.22,7.65s-.01.06-.02.09c0,0,0,0,0,.01,0-.03,0-.07.01-.1Z"/>
    <path class="cls-1" d="m47.06,8.69s-.01,0-.02,0c0,0-.02,0-.03,0,.02,0,.03,0,.05.01Z"/>
    <path class="cls-1" d="m46.35,8.18l-.02-.04c-.04-.06,0,0,.02.04Z"/>
    <path class="cls-1" d="m46.24,7.96s0-.04,0-.06c0-.01-.01-.03-.02-.04.01.03.02.07.03.1Z"/>
  </g>
  <g>
    <path class="cls-1" d="m63.73,40s.08.01.12.02c.03,0,.06,0,.09-.01-.07,0-.14,0-.21,0Z"/>
    <path class="cls-1" d="m63.76,40.03s.07,0,.1-.01c0,0,0,0-.01,0-.03,0-.06.01-.09.01Z"/>
    <polygon class="cls-1" points="63.94 40 63.94 40 63.94 40 63.94 40"/>
    <polygon class="cls-1" points="63.95 40.01 63.95 40.01 63.94 40 63.94 40 63.95 40.01"/>
    <polygon class="cls-1" points="63.94 40 63.94 40 63.94 40 63.94 40 63.94 40"/>
    <path class="cls-1" d="m64.12,39.98c-.05,0-.1.01-.15.02,0,0,0,0,0,0,.05,0,.1-.01.15-.02Z"/>
    <path class="cls-1" d="m65.75,39.42c-.05.02-.11.04-.16.07,0,0,0,0,0,0,.05-.02.1-.04.16-.07Z"/>
    <path class="cls-1" d="m65.59,39.48s0,0,0,0c-.03.01-.06.03-.09.04-.02.01-.05.02-.07.03.05-.02.11-.05.16-.07Z"/>
    <path class="cls-1" d="m64.08,40.05s-.02,0-.04,0c0,0,.01,0,.02,0,0,0,.01,0,.02,0Z"/>
    <polygon class="cls-1" points="63.94 40 63.93 40 63.94 40 63.94 40"/>
    <path class="cls-1" d="m64.26,40.13c-.06-.03-.13-.06-.19-.09,0,0-.01,0-.02,0,.07.03.14.06.21.09Z"/>
    <path class="cls-1" d="m67.6,40.74s-.04-.03-.06-.04c-.47-.28-.94-.58-1.4-.88l-.54-.34c-.05.02-.11.05-.16.07.02-.01.05-.02.07-.03-.5.2-1.01.38-1.54.48,0,0,0,0,0,0,.05,0,.1-.01.15-.02-.05,0-.1.01-.15.02.03.01.05.02.08.04.01,0,.02,0,.04,0,0,0-.01,0-.02,0,.06.03.13.06.19.09-.07-.03-.14-.06-.21-.09-.06,0-.12-.02-.18-.02-.03,0-.07,0-.1.01.03,0,.06,0,.09-.01-.04,0-.08-.01-.12-.02.07,0,.14,0,.21,0,0,0,0,0,0,0,0,0,0,0,0,0,0,0,0,0,0,0,0,0,.01,0,.02,0-.35-.17-.7-.36-1.04-.55-.83-.45-1.65-.92-2.47-1.39-1.13-.65-2.26-1.31-3.38-1.97-1.35-.8-2.7-1.61-4.05-2.42-1.52-.92-3.03-1.84-4.54-2.78-1.6-.99-3.19-1.99-4.78-3-1.61-1.02-3.21-2.06-4.8-3.11-1.54-1.02-3.08-2.04-4.6-3.09-1.41-.97-2.8-1.95-4.18-2.95-.62-.46-1.25-.92-1.86-1.39-.07-.05-.14-.11-.21-.16-.02-.01-.06-.05-.1-.07.08.06.15.11,0,0-.16-.12-.08-.06,0,0-.04-.03-.07-.06-.09-.07-.07-.06-.14-.11-.22-.17-.27-.21-.55-.43-.82-.65-.25-.2-.49-.4-.73-.6-.28-.23-.57-.39-.95-.39-.33,0-.72.15-.95.39-.46.5-.58,1.42,0,1.9,1.3,1.08,2.64,2.11,4,3.11,1.51,1.12,3.05,2.2,4.6,3.27,1.69,1.16,3.39,2.3,5.11,3.43,1.78,1.17,3.56,2.31,5.36,3.45,1.75,1.11,3.51,2.21,5.28,3.29,1.62,1,3.24,1.98,4.87,2.96,1.4.84,2.79,1.67,4.2,2.48,1.06.62,2.13,1.23,3.2,1.83.62.35,1.24.7,1.89,1.01.22.11.44.22.68.28.57.14,1.22,0,1.78-.16.69-.19,1.35-.47,2-.77.62-.28,1.23-.61,1.81-.97.86-.55.87-1.78,0-2.32-.32-.2-.65-.4-.97-.6-.87-.55-1.75-1.09-2.62-1.64-1.3-.81-2.59-1.62-3.89-2.43-1.58-.98-3.15-1.97-4.73-2.95-1.73-1.08-3.45-2.16-5.18-3.24-1.74-1.09-3.49-2.18-5.23-3.27-1.63-1.02-3.26-2.04-4.9-3.06-1.38-.86-2.76-1.72-4.14-2.58-.99-.62-1.97-1.23-2.96-1.85-.47-.29-.93-.59-1.4-.88-.02-.01-.04-.03-.06-.04-.6-.37-1.51-.15-1.84.48-.35.66-.16,1.44.48,1.84.32.2.65.4.97.6.87.55,1.75,1.09,2.62,1.64,1.3.81,2.59,1.62,3.89,2.43,1.58.98,3.15,1.97,4.73,2.95,1.73,1.08,3.45,2.16,5.18,3.24,1.74,1.09,3.49,2.18,5.23,3.27,1.63,1.02,3.26,2.04,4.9,3.06,1.38.86,2.76,1.72,4.14,2.58.8.5,1.61,1.01,2.41,1.51.7-.31,1.37-.66,2.01-1.06v2.32Z"/>
    <path class="cls-1" d="m27.94,17.11c.16.12.09.07,0,0-.08-.07-.16-.13,0,0Z"/>
    <path class="cls-1" d="m65.75,39.42c-.05.02-.1.04-.16.07l.54.34c.47.29.93.59,1.4.88.02.01.04.03.06.04v-2.32c-.64.41-1.32.76-2.01,1.06,0,0,0,0,0,0,.05-.02.11-.04.16-.07Z"/>
    <path class="cls-1" d="m63.94,40s.01,0,.02,0c0,0,0,0,0,0,0,0-.01,0-.02,0,0,0,0,0,0,0Z"/>
    <path class="cls-1" d="m65.59,39.48s0,0,0,0c-.03.01-.06.03-.09.04.03-.01.06-.03.09-.04Z"/>
    <path class="cls-1" d="m63.95,40.01s.01,0,.02,0c0,0,0,0,0,0,0,0-.01,0-.02,0,0,0,0,0,0,0Z"/>
    <path class="cls-1" d="m63.95,40.01s.06.02.09.04c0,0,.01,0,.02,0,0,0-.01,0-.02,0-.03,0-.06-.02-.1-.03,0,0,0,0,0,0Z"/>
    <path class="cls-1" d="m63.86,40.02c.06,0,.12.02.18.02-.03-.01-.06-.02-.09-.04-.03,0-.06,0-.09.01Z"/>
    <path class="cls-1" d="m64.05,40.04s-.05-.02-.08-.04c0,0-.01,0-.02,0,.03.01.06.02.1.03Z"/>
    <path class="cls-1" d="m63.94,40s0,0-.01,0c-.03,0-.06,0-.09.01,0,0,0,0,.01,0,.03,0,.06,0,.09-.01,0,0,0,0,0,0Z"/>
  </g>
  <g>
    <path class="cls-1" d="m68.64,130.5c.22-.39.44-.77.67-1.16-.23.15-.46.3-.69.45,0,.19.01.39.02.58,0,.04,0,.08,0,.12Z"/>
    <path class="cls-1" d="m67.14,133.27c-.03-.81-.06-1.63-.09-2.44-.65.43-1.29.85-1.94,1.28.67.39,1.35.77,2.02,1.16Z"/>
    <path class="cls-1" d="m67.14,133.27c-.67-.39-1.35-.77-2.02-1.16.65-.43,1.29-.85,1.94-1.28-.19-5.35-.34-10.7-.47-16.06-.14-5.95-.26-11.9-.36-17.85-.1-5.82-.19-11.65-.28-17.47-.09-5.81-.19-11.63-.32-17.44-.13-5.84-.28-11.67-.48-17.51-.02-.73-.05-1.46-.08-2.19-.03-.73-.6-1.34-1.34-1.34s-1.37.61-1.34,1.34c.21,5.85.38,11.7.51,17.54.13,5.79.24,11.57.33,17.36.1,5.81.18,11.63.28,17.44.1,5.96.21,11.92.34,17.87.14,6.14.31,12.27.53,18.4.03.78.06,1.56.08,2.33.04.96,1.13,1.75,2.02,1.16.77-.51,1.55-1.02,2.32-1.54.39-.26.77-.51,1.16-.77.5-.33,1.14-.64,1.31-1.26.06-.2.04-.31.05-.49,0-.35,0-.71-.01-1.06-.02-1.65-.04-3.31-.06-4.96-.03-2.69-.07-5.38-.11-8.07-.05-3.46-.09-6.91-.14-10.37-.06-3.95-.11-7.9-.17-11.86-.06-4.18-.13-8.36-.2-12.53-.07-4.12-.14-8.23-.22-12.35-.07-3.82-.15-7.64-.23-11.46-.07-3.24-.15-6.48-.24-9.71-.07-2.39-.14-4.77-.25-7.16-.02-.42-.04-.85-.06-1.27-.04-.72-.59-1.34-1.34-1.34-.7,0-1.38.62-1.34,1.34.11,2.07.17,4.14.24,6.21.09,2.95.17,5.9.24,8.85.09,3.58.16,7.16.23,10.74.08,3.96.15,7.92.22,11.88.07,4.07.14,8.14.2,12.22.06,3.97.12,7.94.18,11.91.05,3.6.1,7.2.15,10.8.04,2.98.08,5.96.12,8.93.03,2.11.05,4.21.08,6.32,0,.79,0,1.58.02,2.37.23-.15.46-.3.69-.45-.22.39-.44.77-.67,1.16,0-.04,0-.08,0-.12-.01-.19-.02-.39-.02-.58-.52.34-1.04.69-1.56,1.03.03.81.06,1.63.09,2.44Z"/>
  </g>
  <g>
    <path class="cls-1" d="m107.12,108.54c.22-.39.44-.77.67-1.16-.22.14-.45.28-.67.42,0,.2,0,.41,0,.61,0,.04,0,.09,0,.13Z"/>
    <path class="cls-1" d="m105.57,111.21c-.01-.8-.02-1.61-.03-2.41-.66.42-1.33.84-1.99,1.25.67.39,1.35.77,2.02,1.16Z"/>
    <path class="cls-1" d="m102.74,72.4c-.03,5.99-.04,11.97-.03,17.96.01,6.17.05,12.33.13,18.5.01.78.02,1.57.03,2.35.01.99,1.14,1.72,2.02,1.16.79-.5,1.57-.99,2.36-1.49.39-.25.79-.5,1.18-.74.51-.32,1.15-.62,1.32-1.25.05-.19.04-.32.05-.49.01-.36,0-.72.01-1.08.02-1.67.04-3.33.06-5,.03-2.72.06-5.44.09-8.16.04-3.48.07-6.96.1-10.43.04-3.99.07-7.99.11-11.98.03-4.2.07-8.41.1-12.61.03-4.16.05-8.32.07-12.47.02-3.86.03-7.71.03-11.57,0-3.26,0-6.53-.02-9.79-.01-2.39-.03-4.78-.08-7.16,0-.42-.02-.85-.03-1.27-.02-.73-.6-1.34-1.34-1.34s-1.36.61-1.34,1.34c.06,2.08.08,4.16.1,6.25.02,2.96.03,5.92.03,8.88,0,3.6,0,7.19-.02,10.79-.01,4-.03,8-.06,11.99-.02,4.11-.05,8.23-.09,12.34-.03,4.01-.07,8.02-.1,12.03-.03,3.62-.07,7.24-.1,10.86-.03,3.01-.06,6.02-.09,9.03-.02,2.12-.05,4.24-.07,6.36,0,.79-.04,1.58-.04,2.37.22-.14.45-.28.67-.42-.22.39-.44.77-.67,1.16,0-.04,0-.09,0-.13,0-.2,0-.41,0-.61-.53.33-1.06.67-1.58,1,.01.8.02,1.61.03,2.41-.67-.39-1.35-.77-2.02-1.16.66-.42,1.33-.84,1.99-1.25-.07-5.39-.11-10.78-.13-16.17-.02-6.01,0-12.01.02-18.02.02-5.89.06-11.78.08-17.67.03-5.84.05-11.69.04-17.53,0-5.87-.04-11.74-.11-17.6,0-.74-.02-1.47-.03-2.21-.01-.73-.61-1.34-1.34-1.34s-1.35.61-1.34,1.34c.08,5.88.12,11.75.14,17.63.01,5.84,0,11.68-.03,17.53-.02,5.88-.06,11.76-.08,17.64Z"/>
  </g>
  <g>
    <path class="cls-1" d="m26.49,16.57c.05-.72-.65-1.34-1.34-1.34-.77,0-1.3.62-1.34,1.34-.68,10.79-1.09,21.6-1.3,32.4-.22,11.14-.24,22.28-.08,33.41.08,5.36.2,10.72.36,16.08.04,1.32.08,2.64.13,3.95.02.68-.03,1.4.49,1.91.33.32.72.6,1.07.9,4.8,3.99,9.7,7.85,14.67,11.61,7.44,5.63,15.07,11.06,23.07,15.88.96.58,1.93,1.15,2.9,1.71,1.5.86,2.86-1.46,1.36-2.32-7.74-4.44-15.1-9.53-22.28-14.83-5.47-4.04-10.71-8.12-16-12.44-.87-.71-1.74-1.43-2.6-2.15,0,.21.01.43.02.64-.13-.32-.26-.63-.39-.95.12.1.25.21.37.31-.39-11.01-.59-22.04-.61-33.06-.02-11.51.16-23.03.58-34.53.23-6.18.52-12.36.92-18.53Z"/>
    <path class="cls-1" d="m25.63,103.33c0-.21-.01-.43-.02-.64-.12-.1-.25-.21-.37-.31.13.32.26.63.39.95Z"/>
  </g>
  <g>
    <path class="cls-1" d="m57.61,9.9s0,0,0,0c0,0,.02,0,.03,0,.29.04-.33-.04-.03,0Z"/>
    <path class="cls-1" d="m103.83,18.31c-.18-.04-.37-.07-.55-.11-.16.08-.32.16-.49.24l1.03-.14Z"/>
    <path class="cls-1" d="m103.28,18.2c.18.04.37.07.55.11l-1.03.14c.16-.08.32-.16.49-.24-7.15-1.44-14.33-2.73-21.52-3.92-7.36-1.22-14.74-2.34-22.13-3.41-4.15-.6-8.31-1.19-12.47-1.77-.37-.05-.69-.06-1.03.14-.28.16-.54.48-.62.8-.14.63.19,1.55.94,1.65,4.86.68,9.72,1.36,14.57,2.07,4.88.71,9.75,1.45,14.62,2.22,4.89.78,9.76,1.59,14.63,2.47,2.41.43,4.81.87,7.21,1.33,1.21.23,2.41.47,3.62.71.59.12,1.18.24,1.78.36.31.06.64.15.95.05.08-.03.25-.1.33-.14.03-.01.05-.03.07-.04,1.74-.85,3.46-1.74,5.19-2.6.05-.03.11-.05.16-.08.48-.24.71-.84.64-1.34-.07-.49-.44-1.02-.96-1.12-.41-.07-.82-.15-1.23-.22-1.14-.2-2.27-.4-3.41-.6-1.71-.3-3.43-.6-5.14-.9-2.17-.38-4.34-.75-6.51-1.12-2.48-.42-4.96-.84-7.45-1.25-2.64-.44-5.28-.87-7.93-1.3-2.69-.43-5.38-.85-8.07-1.27-2.58-.4-5.17-.78-7.76-1.15-2.43-.34-4.86-.68-7.3-.98-1.97-.25-3.93-.47-5.9-.66-.41-.04-.81-.07-1.22-.11-.7-.06-1.37.66-1.34,1.34.03.78.59,1.28,1.34,1.34,1.85.15,3.69.35,5.53.57,1.09.13,2.17.27,3.25.41.3.04.59.08.89.12.14.02.28.04.42.06.05,0,.11.01.16.02,0,0,0,0,0,0-.3-.04.32.04.03,0,0,0-.02,0-.03,0,.59.08,1.19.16,1.78.24,2.53.35,5.06.72,7.59,1.1,2.67.4,5.33.82,7.99,1.24,2.68.43,5.35.86,8.02,1.3,2.52.42,5.05.84,7.57,1.27,2.25.38,4.49.77,6.74,1.15,1.83.32,3.67.64,5.5.96.63.11,1.25.22,1.88.33,1.18-.59,2.35-1.18,3.53-1.77.11.82.21,1.64.32,2.45-.03,0-.05,0-.08-.01-.6-.09-1.19-.21-1.78-.32-.66-.12-1.32-.23-1.99-.35-.41.2-.81.41-1.22.61-.06.03-.13.06-.19.1Z"/>
    <path class="cls-1" d="m108.46,18.17s.05,0,.08.01c-.11-.82-.21-1.64-.32-2.45-1.18.59-2.35,1.18-3.53,1.77.66.12,1.32.23,1.99.35.59.11,1.19.23,1.78.32Z"/>
  </g>
  <path class="cls-1" d="m81.09,49.21c.07,3.17.13,6.34.2,9.51.07,3.23.13,6.47.2,9.7.06,2.9.12,5.81.17,8.71.04,2.23.08,4.46.12,6.68.07,4.35.14,8.7.24,13.04.1,4.21.22,8.42.35,12.63.07,2.08.14,4.16.22,6.24,0,.09,0,.19.01.28.03.7.6,1.38,1.34,1.34.7-.03,1.37-.59,1.34-1.34-.06-1.44-.11-2.89-.16-4.33-.13-3.77-.24-7.55-.34-11.32-.13-5.11-.24-10.23-.31-15.35-.03-2-.07-4-.1-6-.05-2.78-.11-5.57-.16-8.35-.06-3.18-.13-6.35-.19-9.53-.07-3.22-.13-6.44-.2-9.66-.06-2.87-.12-5.75-.18-8.62-.05-2.15-.09-4.3-.14-6.45-.02-1.04-.03-2.09-.07-3.13,0-.05,0-.09,0-.14-.02-.7-.61-1.38-1.34-1.34-.71.03-1.36.59-1.34,1.34.02.72.03,1.45.05,2.17.04,1.92.08,3.83.12,5.75.06,2.72.12,5.44.17,8.16Z"/>
  <g>
    <path class="cls-1" d="m42.13,16.61s0,0,0,0c.01,0,.03-.01.04-.02-.12.05-.13.06-.04.02Z"/>
    <path class="cls-1" d="m78.73,112.97c-2.78-1.21-5.44-2.7-8.07-4.19-1.51-.85-2.86,1.47-1.36,2.32,2.77,1.56,5.56,3.13,8.49,4.37,1.07.45,2.15.86,3.26,1.2.5.15,1,.29,1.51.41.24.06.49.12.73.17.21.05.44.11.66.11.38,0,.7-.19,1.02-.37,3.13-1.77,6.07-3.86,8.94-6.03,1.41-1.06,2.8-2.15,4.17-3.26.3-.24.59-.48.88-.72.4-.33.57-.69.61-1.21.01-.17.02-.35.03-.52.1-2.25.12-4.5.15-6.76.04-3.5.05-7,.06-10.5,0-4.29,0-8.57,0-12.86-.01-4.62-.03-9.23-.06-13.85-.02-4.49-.05-8.98-.08-13.47-.03-3.9-.06-7.79-.09-11.69-.02-2.88-.05-5.75-.08-8.63-.01-1.38,0-2.77-.04-4.16,0-.06,0-.12,0-.18,0-.54-.41-1.2-.99-1.3-2.27-.38-4.54-.76-6.8-1.15-5.16-.87-10.32-1.74-15.48-2.6-5.7-.96-11.4-1.92-17.11-2.87-3.79-.64-7.58-1.27-11.38-1.89-.38-.06-.76-.13-1.14-.18-1.03-.16-2-.1-3.01.15-3.02.73-5.87,2.43-8.44,4.13-.18.12-.35.23-.52.35-.95.66-.83,2.08.32,2.45,6.18,1.99,12.35,4.02,18.54,5.98,5.69,1.81,11.4,3.55,17.15,5.17,3.71,1.05,7.43,2.05,11.16,3.02,1.67.44,2.39-2.15.71-2.59-6.3-1.64-12.58-3.38-18.81-5.26-5.71-1.72-11.4-3.54-17.07-5.38-2.73-.88-5.45-1.77-8.18-2.65-.14.08-.28.16-.42.25-.69.42-1.37.85-2.03,1.31-.11-.82-.21-1.64-.32-2.45.92.3,1.85.6,2.77.9.53-.32,1.07-.63,1.62-.92.35-.19.71-.37,1.07-.54.2-.1.4-.19.6-.28.09-.04.18-.08.28-.12.06-.03.12-.05.18-.08,0,0,0,0,0,0-.09.04-.07.03.04-.02-.01,0-.03.01-.04.02.75-.31,1.52-.58,2.32-.76.17-.04.34-.06.51-.09-.38.07.12,0,.22-.01.17,0,.33-.01.5,0,.05,0,.09,0,.11,0-.03,0-.06,0-.09-.02-.02,0-.03,0-.05,0,.02,0,.03,0,.05,0,.12.02.23.02.09.02.22.04.44.07.66.1,3.47.56,6.94,1.15,10.41,1.73,5.56.93,11.11,1.86,16.67,2.8,5.32.89,10.64,1.79,15.96,2.69,1.83.31,3.67.62,5.5.93.59.1,1.18.22,1.77.32,0-.38,0-.77-.01-1.15.33.43.66.86.99,1.3-.04,0-.08-.02-.11-.02-.29-.03-.57-.07-.86-.12,0,.27,0,.53,0,.8.02,1.77.03,3.54.05,5.31.02,2.66.05,5.32.07,7.98.03,3.29.05,6.58.07,9.87.03,3.67.05,7.34.07,11.01.02,3.78.04,7.56.05,11.34.01,3.68.02,7.36.03,11.03,0,3.31,0,6.61-.01,9.92-.01,2.67-.03,5.34-.06,8.01-.02,1.81-.05,3.63-.12,5.44,0,.06,0,.13,0,.19.12-.1.24-.2.36-.3-.13.32-.26.63-.39.95.01-.22.02-.44.03-.65-4.16,3.4-8.47,6.72-13.17,9.39.19.04.38.09.57.13-.34.05-.69.09-1.03.14.16-.09.31-.18.47-.26-.77-.18-1.54-.38-2.3-.62-.48-.15-.95-.31-1.42-.49-.25-.09-.49-.19-.74-.29-.09-.04-.17-.07-.26-.11-.02,0-.04-.02-.09-.04.03.01.06.02.09.04.09.04-.24-.1-.28-.12Z"/>
    <path class="cls-1" d="m45.7,15.72s.06.01.09.02c.13,0,.02,0-.09-.02Z"/>
    <path class="cls-1" d="m35.93,20.11c.66-.46,1.34-.89,2.03-1.31.14-.09.28-.17.42-.25-.92-.3-1.85-.6-2.77-.9.11.82.21,1.64.32,2.45Z"/>
    <path class="cls-1" d="m97.74,24.45c-.33-.43-.66-.86-.99-1.3,0,.38,0,.77.01,1.15.29.05.57.09.86.12.04,0,.08.01.11.02Z"/>
    <path class="cls-1" d="m84.3,114.72c-.19-.04-.38-.09-.57-.13-.16.09-.31.18-.47.26.34-.05.69-.09,1.03-.14Z"/>
    <path class="cls-1" d="m79.02,113.09s-.06-.02-.09-.04c.05.02.07.03.09.04Z"/>
    <path class="cls-1" d="m97.27,104.91c-.12.1-.24.2-.36.3,0,.22-.02.44-.03.65.13-.32.26-.63.39-.95Z"/>
  </g>
  <path class="cls-1" d="m82.77,34.29c4.12-2.51,8.21-5.08,12.32-7.62,1.16-.71,2.31-1.42,3.47-2.13.6-.37.88-1.22.48-1.84-.39-.6-1.2-.87-1.84-.48-4.12,2.51-8.21,5.08-12.32,7.62-1.16.71-2.31,1.42-3.47,2.13-.6.37-.88,1.22-.48,1.84.39.6,1.2.87,1.84.48Z"/>
  <g>
    <path class="cls-1" d="m101.71,112.41c.84.07,1.68.12,2.52.14.7.02,1.37-.63,1.34-1.34-.03-.75-.59-1.32-1.34-1.34-2.33-.08-4.66-.32-6.97-.62.05,0,.1.01.15.02-.12-.02-.24-.03-.36-.05.07,0,.14.02.2.03-1.29-.18-2.57-.38-3.86-.6-.36-.06-.71-.06-1.03.14-.28.16-.54.48-.62.8-.15.65.2,1.52.94,1.65,2.99.53,6,.94,9.03,1.18Z"/>
    <path class="cls-1" d="m97.4,109.27c-.05,0-.1-.01-.15-.02-.07,0-.14-.02-.2-.03.12.02.24.03.36.05Z"/>
  </g>
  <g>
    <path class="cls-1" d="m42.38,21.21s.02-.01.02-.02h0c.1-.08-.12.09-.02.02Z"/>
    <path class="cls-1" d="m42.22,21.33c.06-.05.12-.09.18-.14,0,0-.02.01-.02.02-.1.08.12-.1.02-.02h0s.04-.03.06-.04c.14-.1.27-.21.41-.31.28-.2.56-.4.84-.59.61-.41,1.23-.8,1.86-1.16,1.27-.74,2.59-1.42,3.94-2,.03-.01.07-.03.1-.04,0,0,0,0,0,0-.12.05.06-.03,0,0,0,0,0,0,0,0,.09-.04.18-.07.27-.11.17-.07.35-.14.52-.21.36-.14.72-.27,1.08-.38.44-.15.78-.63.63-1.1-.14-.44-.63-.78-1.1-.63-2.83.93-5.56,2.33-8.04,3.98-.7.46-1.38.96-2.03,1.48-.37.29-.33.96,0,1.27.39.36.87.31,1.27,0Z"/>
    <path class="cls-1" d="m49.63,17.04c.06-.03-.12.05,0,0h0Z"/>
  </g>
  <path class="cls-1" d="m43.58,19.19c.56.13.8-.73.24-.86-1.78-.43-3.57-.85-5.35-1.28-.56-.13-.8.73-.24.86,1.78.43,3.57.85,5.35,1.28Z"/>
  <path class="cls-1" d="m44.3,18.06c.22.11.49.06.61-.16.12-.2.06-.5-.16-.61-1.03-.52-2.05-1.05-3.08-1.57-.22-.11-.49-.06-.61.16-.12.2-.06.5.16.61,1.03.52,2.05,1.05,3.08,1.57Z"/>
  <path class="cls-1" d="m46.45,17.32c.21.12.49.05.61-.16.12-.21.05-.49-.16-.61-.99-.56-1.98-1.11-2.97-1.67-.21-.12-.49-.05-.61.16-.12.21-.05.49.16.61.99.56,1.98,1.11,2.97,1.67Z"/>
  <path class="cls-1" d="m60.75,24.37c3.89,1.15,7.78,2.35,11.64,3.6,2.18.7,4.35,1.42,6.52,2.15.55.18.78-.68.24-.86-3.85-1.3-7.71-2.55-11.59-3.75-3.88-1.2-7.77-2.36-11.68-3.48-2.2-.63-4.4-1.24-6.61-1.84-.56-.15-.79.71-.24.86,3.92,1.06,7.83,2.17,11.72,3.32Z"/>
  <path class="cls-1" d="m82.9,26.85c.56.14.8-.72.24-.86-3.04-.76-6.09-1.45-9.14-2.14-.56-.13-.8.73-.24.86,3.05.7,6.1,1.39,9.14,2.14Z"/>
  <path class="cls-1" d="m64.28,22.53c1.29.3,2.59.6,3.88.9.56.13.8-.73.24-.86-4.13-.95-8.26-1.89-12.36-2.94-.77-.2-1.54-.4-2.31-.62-.55-.16-.79.7-.24.86,3.56,1.02,7.18,1.82,10.79,2.66Z"/>
  <path class="cls-1" d="m61.75,20.36c3.19.57,6.38,1.13,9.57,1.7,3.19.57,6.38,1.13,9.57,1.7,1.79.32,3.59.64,5.38.95.24.04.48-.06.55-.31.06-.22-.07-.51-.31-.55-3.19-.57-6.38-1.13-9.57-1.7-3.19-.57-6.38-1.13-9.57-1.7-1.79-.32-3.59-.64-5.38-.95-.24-.04-.48.06-.55.31-.06.22.07.51.31.55Z"/>
  <path class="cls-1" d="m87.88,60.23c-.09-5.76-.19-11.51-.28-17.27-.03-1.61-.05-3.22-.08-4.83,0-.58-.9-.58-.9,0,.09,5.76.19,11.51.28,17.27.03,1.61.05,3.22.08,4.83,0,.58.9.58.9,0Z"/>
  <path class="cls-1" d="m87.09,94.81c.01.58.91.58.9,0-.07-3.71-.14-7.42-.21-11.13-.07-3.71-.14-7.42-.21-11.13-.04-2.09-.08-4.17-.12-6.26-.01-.58-.91-.58-.9,0,.07,3.71.14,7.42.21,11.13.07,3.71.14,7.42.21,11.13.04,2.09.08,4.17.12,6.26Z"/>
  <path class="cls-1" d="m91.46,82.33c.02.58.91.58.9,0-.15-5.76-.31-11.52-.46-17.27-.15-5.76-.31-11.52-.46-17.27-.09-3.22-.17-6.44-.26-9.67-.02-.58-.91-.58-.9,0,.15,5.76.31,11.52.46,17.27.15,5.76.31,11.52.46,17.27.09,3.22.17,6.44.26,9.67Z"/>
  <path class="cls-1" d="m95.14,98.19c0,.58.9.58.9,0-.1-6.11-.2-12.23-.3-18.34-.1-6.08-.2-12.16-.29-18.25-.06-3.43-.11-6.86-.17-10.29,0-.58-.9-.58-.9,0,.1,6.11.2,12.23.3,18.34l.29,18.25c.06,3.43.11,6.86.17,10.29Z"/>
  <path class="cls-1" d="m92.72,104.88c.23,0,.47-.21.45-.45-.35-4.22-.71-8.43-1.06-12.65-.1-1.19-.2-2.38-.3-3.56-.02-.24-.19-.45-.45-.45-.23,0-.47.21-.45.45.35,4.22.71,8.43,1.06,12.65.1,1.19.2,2.38.3,3.56.02.24.19.45.45.45Z"/>
  <path class="cls-1" d="m88.67,107.82v-8.38c0-.58-.9-.58-.9,0v8.38c0,.58.9.58.9,0Z"/>
  <path class="cls-1" d="m94.9,37.23c-.07-1.49-.13-2.97-.2-4.46-.03-.57-.92-.58-.9,0,.07,1.49.13,2.97.2,4.46.03.57.92.58.9,0Z"/>
  <g>
    <path class="cls-1" d="m31.88,99.17c0-.15,0-.29-.01-.44-.08-.07-.17-.13-.25-.2.09.21.17.42.26.63Z"/>
    <path class="cls-1" d="m59.05,109.71c-.24.07-.46.16-.67.27,0,.2,0,.4.01.59.22-.29.44-.58.66-.86Z"/>
    <path class="cls-1" d="m57.54,117.76c-.59-.47-1.18-.93-1.78-1.39.03.76.14,1.52.28,2.26l1.5-.87Z"/>
    <path class="cls-1" d="m54.96,47.72c-.01.14-.02.28-.04.41.16.12.32.24.48.36-.15-.26-.3-.52-.44-.77Z"/>
    <path class="cls-1" d="m57.67,55.97c0,.21,0,.42,0,.63.21.1.42.18.66.24-.22-.29-.44-.58-.66-.86Z"/>
    <path class="cls-1" d="m58.52,55.03c-.13-.04.1.06,0,0h0Z"/>
    <path class="cls-1" d="m30.32,91.6c0-.07,0-.13,0-.2-.04-.08-.08-.17-.12-.25l.12.45Z"/>
    <path class="cls-1" d="m58.22,54.84c-.11-.07.07.07,0,0h0Z"/>
    <path class="cls-1" d="m29.81,37.23s0,0,0,0c-.03,0-.11,0-.09,0,.01,0,.02,0,.04,0,.02,0,.04,0,.05,0Z"/>
    <path class="cls-1" d="m29.87,37.21s0,0-.01,0c-.14.08.1-.03.01,0Z"/>
    <path class="cls-1" d="m29.76,39.02c.33-.01.63-.09.89-.22v-.68c-.29.3-.59.6-.89.9Z"/>
    <path class="cls-1" d="m28.86,38.13c-.04,6.94-.09,13.88-.13,20.82-.04,6.7-.08,13.4-.13,20.1-.02,3.49-.04,6.99-.07,10.48,0,.46,0,.92,0,1.38,0,.2-.01.41,0,.61.01.31.12.52.25.79.31.63.54,1.29.72,1.96.41,1.5.54,3.04.58,4.58.01.48.08.81.46,1.11.21.17.43.34.64.5.47.37.95.73,1.42,1.1.99.75,1.98,1.5,2.98,2.23,2.2,1.63,4.42,3.24,6.64,4.85,4.32,3.13,8.67,6.23,12.89,9.48.35.27.78.6,1.16.91.7.55,1.68.05,1.5-.87-.29-1.43-.36-2.95,0-4.37.15-.59.34-1.11.71-1.61.26-.35.63-.61,1.04-.73.37-.11.66-.47.66-.86-.13-7.21-.29-14.43-.43-21.64-.13-6.95-.24-13.91-.28-20.86-.02-4.04-.03-8.07,0-12.11,0-.38-.28-.78-.66-.86-.08-.02-.16-.04-.24-.06-.02,0-.03,0-.04-.01.1.06-.13-.04,0,0-.01,0-.03-.02-.05-.03-.07-.04-.15-.08-.22-.13-.02-.01-.03-.02-.04-.03.07.07-.11-.07,0,0-.01-.01-.03-.03-.05-.05-.3-.28-.44-.48-.65-.88-.4-.77-.62-1.71-.74-2.6-.15-1.1-.15-2.23-.06-3.33.04-.45-.05-.75-.42-1.04-.26-.2-.52-.39-.78-.58-.57-.43-1.13-.85-1.7-1.27-4.47-3.32-9.01-6.55-13.61-9.69-2.54-1.74-5.1-3.44-7.68-5.12-.35-.23-.7-.17-.94.03.52-.3,1.37-.05,1.39.74,0,.54,0,1.09-.01,1.65,5.89,3.86,11.68,7.87,17.37,12.03,1.54,1.12,3.07,2.26,4.59,3.41.01-.14.02-.28.04-.41.15.26.3.52.44.77-.16-.12-.32-.24-.48-.36-.13,1.76-.02,3.6.49,5.3.38,1.23,1.07,2.57,2.25,3.17,0-.21,0-.42,0-.63.22.29.44.58.66.86-.24-.05-.45-.14-.66-.24-.04,6.89,0,13.77.09,20.66.09,6.99.24,13.97.38,20.96.08,3.92.16,7.85.23,11.77.21-.11.43-.2.67-.27-.22.29-.44.58-.66.86,0-.2,0-.4-.01-.59-1.18.61-1.91,1.82-2.27,3.1-.3,1.07-.4,2.18-.35,3.29.6.46,1.19.92,1.78,1.39l-1.5.87c-.15-.74-.25-1.5-.28-2.26-2.67-2.05-5.4-4.04-8.12-6.02-3.65-2.65-7.32-5.28-10.94-7.96-1.63-1.21-3.26-2.43-4.83-3.66,0,.15,0,.29.01.44-.09-.21-.17-.42-.26-.63.08.07.17.13.25.2-.07-2.53-.43-5.04-1.54-7.33,0,.07,0,.13,0,.2l-.12-.45c.04.08.08.17.12.25.04-6.95.09-13.91.13-20.86.04-6.78.08-13.57.13-20.35.02-3.8.05-7.59.07-11.39-.26.13-.56.21-.89.22l.9-.9v.68c.86-.42,1.38-1.37,1.69-2.29.41-1.21.57-2.51.62-3.81-.44-.29-.89-.58-1.33-.87-.61-.4-.47-1.17-.04-1.52-.24.13-.41.38-.4.74.02,1.52-.03,3.09-.44,4.56-.15.53-.26.86-.57,1.32,0,0,0,.01,0,.02.11-.12-.04.06,0,0,0,0,0,0-.02.02-.03.04-.07.07-.1.11-.02.03-.05.05-.08.07,0,0,.01,0,.02,0,.03-.02.04-.02,0,0-.01,0-.03.02-.04.03,0,0,.02-.01.02-.02,0,0,0,0,0,0-.03.02-.07.04-.1.06.09-.02-.15.09-.01,0,0,0,0,0,.01,0,0,0,0,0,0,0-.01,0-.03,0-.05.02.01,0,.01,0,0,0-.02,0-.05.02-.07.01-.01,0-.02,0-.02,0-.47.03-.86.41-.86.89Z"/>
    <path class="cls-1" d="m29.99,37.14s-.01,0-.02,0c0,0-.02.01-.02.02.01-.01.03-.02.04-.03Z"/>
    <path class="cls-1" d="m31.63,31.83c.45.29.89.58,1.33.87.02-.55.02-1.11.01-1.65-.01-.79-.86-1.04-1.39-.74-.43.35-.57,1.12.04,1.52Z"/>
    <path class="cls-1" d="m30.17,36.95c-.04.06.11-.12,0,0h0Z"/>
  </g>
  <g>
    <path class="cls-1" d="m50.87,85.05s-.09-.07-.13-.1c.04.04.09.07.13.1Z"/>
    <path class="cls-1" d="m52.15,84.64s0,0,0,0c0,0,0,0,0,0Z"/>
    <path class="cls-1" d="m40.79,77.13s0,0,0,0c0,0,.01,0,.02.01-.01,0-.02-.01-.03-.02Z"/>
    <path class="cls-1" d="m52.21,84.43s-.01.05-.02.08c0-.02.01-.05.02-.08Z"/>
    <path class="cls-1" d="m52.19,84.5s-.03.09-.04.13c.02-.04.03-.09.04-.13Z"/>
    <path class="cls-1" d="m52.22,84.37s0,.04,0,.06c0-.02,0-.04,0-.06Z"/>
    <path class="cls-1" d="m51.33,85.19c-.16,0-.32-.04-.46-.13,0,0,0,0,.01,0,.38.28,1.02.07,1.23-.32.02-.03.03-.07.04-.1-.14.32-.44.53-.82.55Z"/>
    <path class="cls-1" d="m51.78,83.52c-.26-.19-.51-.39-.77-.59-.07-.05-.13-.1-.2-.16-.03-.02-.07-.06-.09-.07.01.01.03.02.04.03-.06-.04-.06-.05-.04-.03-.07-.06-.15-.11-.22-.17-.02.59-.04,1.17-.06,1.76-.01.25.11.49.3.66.04.03.09.07.13.1.14.09.3.14.46.13.38-.02.68-.23.82-.55,0,0,0,0,0,0,.02-.04.03-.09.04-.13,0-.03.01-.05.02-.08,0-.02,0-.04,0-.06.03-.33-.14-.63-.43-.85Z"/>
    <path class="cls-1" d="m35.14,71.37c0-.17,0-.33-.01-.5-.14-.09-.29-.19-.43-.28.15.26.3.52.44.77Z"/>
    <path class="cls-1" d="m50.76,82.73s-.03-.02-.04-.03c-.02-.01-.01-.01.04.03Z"/>
    <path class="cls-1" d="m33.35,71.37c.03.43.28.67.63.89.15.1.31.2.46.3.31.2.62.41.93.61,1.26.85,2.49,1.74,3.71,2.65.32.24.63.48.95.72.15.11.3.23.44.34.07.06.15.11.22.17.04.03.07.06.11.08,0,0,0,0,0,0-.02-.02-.02-.02,0,0,0,0,.01.01.03.02,0,0-.01,0-.02-.01,0,0,.02.01.03.02.63.49,1.27.99,1.9,1.48,2.43,1.92,4.84,3.88,7.3,5.77.24.18.47.36.71.54-.19-.17-.31-.41-.3-.66.03-.59.05-1.17.06-1.76-.05-.04-.1-.08-.15-.11-.54-.42-1.07-.84-1.6-1.26-1.11-.88-2.21-1.76-3.32-2.64-2.28-1.82-4.58-3.63-6.94-5.34-1.1-.8-2.22-1.57-3.37-2.31,0,.17,0,.33.01.5-.15-.26-.3-.52-.44-.77.14.09.29.19.43.28-.05-1.98-.11-3.97-.14-5.95-.04-2.41-.05-4.81-.01-7.22.02-1.31.05-2.63.09-3.94-.43-.29-.87-.58-1.3-.86.45-.26.9-.52,1.35-.77-.02.55-.03,1.09-.04,1.64.13.09.26.18.4.26,1.36.9,2.72,1.8,4.08,2.71,1.64,1.09,3.29,2.18,4.93,3.27,1.42.94,2.83,1.88,4.25,2.82.56.37,1.11.76,1.67,1.12,0-.17,0-.33,0-.5.15.26.3.52.44.77,0,0-.02-.01-.03-.02-.14-.08-.27-.17-.41-.26.05,2.98.11,5.96.15,8.94.03,2.54.05,5.08.02,7.62,0,.67-.02,1.35-.04,2.02.07.06.15.11.22.17.02.02.07.05.09.07.07.05.13.1.2.16.26.2.51.39.77.59.29.22.46.52.43.85,0-.03,0-.05.01-.08.17-4,.14-8,.08-12-.04-2.56-.08-5.12-.13-7.68,0-.35,0-.71-.02-1.06-.02-.38-.13-.65-.45-.87-.03-.02-.07-.04-.1-.07-.18-.12-.36-.24-.53-.35-1.78-1.18-3.57-2.37-5.35-3.55-2.33-1.55-4.66-3.1-7-4.64-1.34-.89-2.66-1.8-4.01-2.66-.02-.01-.04-.03-.06-.04-.59-.39-1.33.13-1.35.77-.09,2.84-.15,5.68-.16,8.53,0,2.04.03,4.09.08,6.13.02.99.05,1.97.07,2.96.01.54,0,1.09.04,1.62Z"/>
    <path class="cls-1" d="m33.76,52.9c.43.29.87.58,1.3.86.01-.55.03-1.09.04-1.64-.45.26-.9.52-1.35.77Z"/>
    <path class="cls-1" d="m50.82,64.23c-.15-.26-.3-.52-.44-.77,0,.17,0,.33,0,.5.13.09.27.17.41.26,0,0,.02.01.03.02Z"/>
  </g>
  <g>
    <path class="cls-1" d="m40.21,61.84c.01.05.03,0,0,.01,0,0,0,0,.01-.01-.01-.02-.03-.05-.05-.07.02.02.03.04.03.07Z"/>
    <path class="cls-1" d="m40.18,64.13c-.28.19-.63.16-.91-.05-.34-.27-.56-.7-.72-1.09-.24-.6-.42-1.22-.63-1.83-.45-1.35-.9-2.71-1.35-4.07-.51-1.55-1.02-3.11-1.53-4.66-.18-.55-1.04-.31-.86.24,1.08,3.31,2.16,6.62,3.27,9.92.36,1.09.98,2.64,2.38,2.58,1.31-.06,1.93-1.56,1.82-2.7-.07-.7-.45-1.64-1.3-1.61-.77.03-1.36.92-.82,1.56.16.18.47.16.63,0,.16-.16.16-.39.05-.56,0,0,0,0-.01.01.02-.02,0,.04,0-.01,0-.03-.01-.05-.03-.07.02.02.04.05.05.07.04-.03.03-.06.12-.1,0,0,.08,0,.04-.01.1.04.16.11.21.19.22.34.21.85.13,1.22-.08.38-.26.79-.55.99Z"/>
  </g>
  <g>
    <path class="cls-1" d="m44.94,64.06s-.01-.01,0,0h0Z"/>
    <path class="cls-1" d="m44.84,64s0,0,0,0h0Z"/>
    <path class="cls-1" d="m45.06,64.2s0,0,0,0c0,.02.02.04,0,0Z"/>
    <path class="cls-1" d="m45.01,64.12s0,.01.01.01c0,0-.01-.01-.01-.01Z"/>
    <path class="cls-1" d="m45.52,64.71c.22,0,.47-.21.45-.45-.08-.79-.82-1.28-1.59-1.21-.9.09-1.45.88-1.33,1.76.13.93.87,1.64,1.79,1.79,1.08.18,2.09-.26,2.98-.85.92-.61,1.86-1.46,3.02-1.51.57-.03.58-.92,0-.9-.9.04-1.71.44-2.44.93-.69.46-1.35,1.03-2.14,1.3-.64.22-1.51.31-2.02-.25-.17-.19-.29-.46-.31-.69-.02-.23.06-.48.21-.6.14-.11.39-.13.58-.08.03,0,.06.02.09.03.02,0,.03,0,.03.01,0,0,0,0,0,0,0,0,0,0,0,0,.03.01.05.03.08.04,0,0,.01,0,.01,0-.01-.01,0,0,0,0,0,0,0,0,.02.02.02.01.03.03.05.05,0,0,0,0,.01.01,0,0,0,0-.01-.01-.01-.01.04.06.04.06,0,0,0,.01,0,.02,0,0,0,0,0,0,.02.04.01.03,0,0,0,.03.02.12.02.05.02.24.19.45.45.45Z"/>
  </g>
  <path class="cls-1" d="m39.12,68.9c-.25-.07-.47.08-.55.31-.32.87.52,1.69,1.34,1.76.92.08,1.54-.82,1.5-1.67-.05-.94-.73-1.66-1.64-1.85-1-.2-1.95.17-2.74.77-.92.71-1.61,1.7-2.61,2.3-.49.3-.04,1.07.45.77.71-.43,1.29-1.04,1.87-1.62.53-.53,1.13-1.09,1.87-1.3.56-.16,1.32-.12,1.7.38.27.36.29.98-.06,1.24-.1.07-.16.09-.29.08-.08,0-.22-.06-.32-.12-.1-.07-.17-.14-.22-.25-.04-.08-.03-.14.01-.26.08-.23-.09-.49-.31-.55Z"/>
  <path class="cls-1" d="m45.38,70.99c.64.2,1.11.74,1.42,1.3.35.63.55,1.33.78,2.01.2.6.4,1.21.6,1.81.44,1.35.89,2.71,1.33,4.06.46,1.41.93,2.83,1.4,4.24.18.54,1.05.31.86-.24-.98-2.97-1.96-5.95-2.94-8.93-.23-.71-.46-1.43-.71-2.14-.29-.82-.66-1.65-1.31-2.26-.63-.59-1.46-.92-2.32-.79-.75.11-1.46.64-1.62,1.41-.17.82.25,1.8,1.14,1.95.83.14,1.7-.39,1.76-1.26.02-.24-.22-.45-.45-.45-.26,0-.43.21-.45.45,0,.02-.04.12-.06.15-.07.09-.13.13-.25.19-.14.06-.37.08-.5.02-.43-.2-.44-.83-.18-1.16.34-.44,1-.5,1.49-.35Z"/>
  <path class="cls-1" d="m48.76,67.33c-.26,0-.43.21-.45.45-.11,1.4.1,2.8,0,4.2-.02.24.22.45.45.45.26,0,.43-.21.45-.45.11-1.4-.1-2.8,0-4.2.02-.24-.22-.45-.45-.45Z"/>
  <path class="cls-1" d="m36.35,66.23c.23,0,.46-.2.45-.45-.05-1.13-.1-2.26-.15-3.39-.01-.24-.2-.45-.45-.45-.23,0-.46.2-.45.45.05,1.13.1,2.26.15,3.39.01.24.2.45.45.45Z"/>
  <path class="cls-1" d="m41.76,74.34c.11,0,.24-.05.32-.13.08-.09.14-.2.13-.32,0-.11-.04-.24-.13-.32-.5-.4-1-.79-1.5-1.19-.1-.08-.19-.13-.32-.13-.11,0-.24.05-.32.13-.08.09-.14.2-.13.32,0,.11.04.24.13.32.5.4,1,.79,1.5,1.19.1.08.19.13.32.13Z"/>
  <path class="cls-1" d="m43.31,61.24c.21.11.5.06.61-.16.11-.2.06-.5-.16-.61-.61-.31-1.22-.63-1.83-.94-.21-.11-.5-.06-.61.16-.11.2-.06.5.16.61.61.31,1.22.63,1.83.94Z"/>
  <g>
    <path class="cls-1" d="m48.2,11.25c0-.05.01-.1.02-.16,0-.01,0-.02,0-.04,0-.05,0-.11.02-.16-.02.12-.03.24-.05.36Z"/>
    <path class="cls-1" d="m48.23,11.05s0,.02,0,.04c0,.05-.02.1-.02.16.02-.12.03-.24.05-.36,0,.05-.01.11-.02.16.05-.17.05-.33.01-.5,0-.18-.06-.35-.16-.5-.16-.28-.48-.54-.8-.62-.34-.08-.73-.06-1.03.14-.27.18-.57.47-.62.8-.09.58-.15,1.16-.14,1.75.02.58.09,1.17.21,1.74.07.32.34.64.62.8.29.17.71.24,1.03.14.33-.11.64-.31.8-.62.17-.33.21-.67.14-1.03-.03-.13-.05-.27-.07-.4,0,.06.01.13.02.19-.02-.12-.03-.24-.05-.36,0,.06.02.11.03.17-.06-.56-.06-1.13,0-1.7Z"/>
    <path class="cls-1" d="m48.25,12.94c0-.06-.01-.13-.02-.19,0-.06-.02-.11-.03-.17.02.12.03.24.05.36Z"/>
  </g>
</svg>