<?xml version="1.0" encoding="UTF-8"?>
<svg id="Capa_1" data-name="Capa 1" xmlns="http://www.w3.org/2000/svg" width="80" height="80" viewBox="0 0 80 80">
  <defs>
    <style>
      .cls-1 {
        stroke: #42250d;
        stroke-miterlimit: 10;
      }

      .cls-1, .cls-2 {
        fill: #eeceb5;
      }

      .cls-3 {
        fill: #6f0318;
      }

      .cls-3, .cls-4, .cls-2 {
        stroke-width: 0px;
      }

      .cls-4 {
        fill: #42250d;
      }
    </style>
  </defs>
  <path class="cls-1" d="m32.69,45.59c-.61,2.55-.66,5.24-.13,7.81l21.6-.64c-.87-2.7-.94-5.65-.2-8.39l-21.26,1.22Z"/>
  <g>
    <path class="cls-2" d="m31.15,45.43s-1.41,2.99-.28,8.3l1.69-.33c-.53-2.57-.48-5.26.13-7.81l-1.54-.16Z"/>
    <path class="cls-3" d="m55.13,44.15v-1.92c-2.67-6.69-5.44-12.36-8.64-17.65-5.64.2-12.42.76-17.61,1.53-1.06.16-1.82,1.01-2.38,2.07-.7,1.33-1.11,3.14-1.44,5.39,0,0,2.02,17.61,4.36,21.82,0,0,20.1,0,25.71-.72v-1.68s-22.38.64-24.26.72c0,0-1.39-5.35.28-8.3,0,0,15.87-.8,23.98-1.28Z"/>
    <g>
      <path class="cls-4" d="m55.13,43.69c-.15,0-.31.02-.46.03v.43l.46-.46Z"/>
      <path class="cls-4" d="m55.13,53.47l-.46-.46v.48c.14,0,.28,0,.42-.02.01,0,.03,0,.04,0Z"/>
      <path class="cls-4" d="m29.45,54.95s-.02,0-.03,0c.13.08.26.15.4.23-.04-.08-.08-.15-.12-.23-.08,0-.16,0-.24,0Z"/>
      <path class="cls-4" d="m31.15,45.89c.09,0,.19,0,.28-.01.04-.07.07-.14.11-.21-.13.08-.26.15-.4.23Z"/>
      <path class="cls-4" d="m46.79,24.25s0,0,0,0c0,0,0,0,0,0Z"/>
      <path class="cls-4" d="m46.79,24.26s0,0,.01.01c0,0,0,0-.01-.01Z"/>
      <path class="cls-4" d="m31.32,46.13s0-.02.01-.03c0,.02-.01.03-.01.03Z"/>
      <path class="cls-4" d="m30.88,47.82s0,.02,0,0c0-.02,0-.05,0,0Z"/>
      <path class="cls-4" d="m54.67,42.24s0,.03,0,.03c0,0,0,0,0,0,0-.01,0-.02,0-.04Z"/>
      <path class="cls-4" d="m55.13,54.23c-.15.02-.31.04-.46.05v.41l.46-.46Z"/>
      <path class="cls-4" d="m29.48,54.48s0,0,0,0c0,.01.01.03.02.04,0,0,0-.01-.02-.05Z"/>
      <path class="cls-4" d="m46.25,24.19c-.21.12-.29.42-.16.63.05.08.09.16.14.24.08,0,.17,0,.25,0,.25,0,.46-.2.46-.46,0-.12-.05-.23-.13-.32,0,0,0,0-.01-.01,0,0,0,0,0,0-.15-.13-.36-.16-.54-.06Z"/>
      <path class="cls-4" d="m30.87,53.27c.15.11.3.22.44.34-.03-.12-.06-.23-.08-.35-.06,0-.13,0-.19,0-.06,0-.11,0-.17,0Z"/>
      <path class="cls-4" d="m30.84,48.23c0-.08.02-.16.02-.24,0-.05.01-.09.02-.14,0,0,0,0,0-.01,0,.01,0,.02,0,0,0-.04,0-.01,0,0,0-.02,0-.04,0-.05.06-.39.14-.77.25-1.14.05-.17.11-.34.18-.51,0,0,0,0,.01-.03,0,.01,0,.02-.01.03,0,0,.02-.06.03-.08.02-.04.04-.08.06-.12,0-.02.02-.04.03-.05-.09,0-.19,0-.28.01.13-.08.26-.15.4-.23-.04.07-.08.14-.11.21.45-.02.9-.05,1.35-.07,1.4-.07,2.81-.14,4.21-.22,1.91-.1,3.82-.2,5.73-.3,2.06-.11,4.13-.22,6.19-.33,1.87-.1,3.74-.21,5.6-.31.2-.01.41-.02.61-.04.25-.01.46-.2.46-.46,0-.63.02-1.27,0-1.91,0-.15-.07-.28-.13-.41-.09-.22-.18-.44-.27-.66-.16-.4-.32-.8-.49-1.19-.34-.81-.68-1.62-1.04-2.43-1.29-2.95-2.69-5.86-4.21-8.69-.82-1.52-1.68-3.02-2.58-4.5-.02-.03-.04-.06-.07-.09.08.09.13.2.13.32,0,.25-.21.45-.46.46-.08,0-.17,0-.25,0,1.54,2.56,2.97,5.18,4.29,7.86,1.46,2.97,2.79,5.99,4.01,9.05.02.06.04.11.07.17.01.04.03.07.04.11.02.06.03.07.03.03,0,0,0,0,0,0,0,0,0-.03,0-.03,0,.02,0,.03,0,.04,0,.05,0,.11,0,.16v.66c0,.21,0,.41,0,.62.15,0,.31-.02.46-.03l-.46.46v-.43c-1.04.06-2.09.12-3.13.18-1.36.08-2.72.15-4.08.22-1.41.08-2.81.15-4.22.22-1.35.07-2.71.14-4.06.21-1.18.06-2.37.12-3.55.18-.9.05-1.81.09-2.71.14-.51.03-1.02.05-1.53.08-.07,0-.15,0-.22.01-.28.03-.4.22-.51.44-.09.17-.16.35-.23.53-.12.31-.21.63-.29.95-.31,1.36-.3,2.77-.16,4.15.09.9.23,1.8.44,2.69.01.04.02.09.03.13.05.19.24.34.44.34.37-.01.73-.03,1.1-.04.68-.02,1.35-.04,2.03-.06.9-.03,1.81-.05,2.71-.08,1.06-.03,2.12-.06,3.18-.09,1.13-.03,2.26-.07,3.39-.1,1.12-.03,2.25-.07,3.37-.1,1.04-.03,2.07-.06,3.11-.09.86-.03,1.73-.05,2.59-.08.62-.02,1.24-.04,1.86-.05.15,0,.3,0,.46,0v-.48l.46.46s-.03,0-.04,0c-.14,0-.28.01-.42.02v.79c.15-.02.31-.03.46-.05l-.46.46v-.41c-1.41.16-2.83.22-4.24.29-2.15.1-4.3.16-6.45.21-2.23.05-4.46.09-6.69.11-1.78.02-3.57.03-5.35.04-.56,0-1.13,0-1.69,0-.18,0-.37,0-.55,0,.04.08.08.16.12.23-.13-.08-.26-.15-.4-.23.01,0,.02,0,.03,0,.08,0,.16,0,.24,0-.05-.11-.1-.21-.15-.32-.01-.03-.03-.06-.04-.09,0,0,0-.02-.02-.04h0s0-.01,0-.01c0,0,0,0,0,0-.01-.03-.02-.05-.03-.08-.05-.12-.09-.23-.13-.35-.2-.53-.37-1.08-.52-1.62-.38-1.34-.69-2.71-.98-4.07-.32-1.53-.59-3.07-.85-4.61-.25-1.48-.48-2.96-.69-4.45-.09-.65-.18-1.3-.27-1.95,0-.07-.02-.14-.03-.21,0-.03,0-.07-.01-.1,0,0,0-.01,0-.02.01.08-.01-.08,0,0,0,0,0-.01,0-.02-.02-.14-.04-.28-.05-.41-.03-.26-.07-.51-.1-.77-.09-.67-.17-1.34-.25-2.01,0-.06,0-.12-.02-.17,0,0,0-.02,0-.03-.02.11,0,0,0,0,0,0,0,0,0,0,0,0,0,0,0,0h0s.01-.1.02-.15c.02-.16.05-.32.08-.48.18-1.12.4-2.24.77-3.32.08-.22.16-.45.25-.67.03-.08,0-.02,0,0,.01-.03.02-.05.03-.08.02-.05.04-.1.07-.15.05-.11.1-.22.16-.32.13-.24.26-.47.42-.69.03-.05.06-.09.1-.14,0,0,0,0,.01-.01,0,0,0,0-.01.01,0,0,.07-.09.08-.1.09-.1.18-.2.27-.29.08-.08.16-.15.24-.21,0,0,0,0,.02-.02,0,0-.01.01-.02.02,0,0,.09-.06.1-.07.05-.04.11-.07.16-.1.05-.03.1-.05.15-.08.02-.01.05-.02.08-.04,0,0,0,0,0,0-.06.02.05-.02,0,0,0,0,0,0,0,0,.12-.05.24-.08.36-.11.52-.11,1.06-.16,1.59-.23-.06,0,.02,0,.03,0,.03,0,.07,0,.1-.01.07,0,.13-.02.2-.03.15-.02.3-.04.45-.06.28-.04.56-.07.84-.1.58-.07,1.17-.14,1.75-.2,1.22-.13,2.44-.25,3.66-.35,2.44-.21,4.88-.37,7.32-.49.48-.02.97-.04,1.45-.06-.05-.08-.09-.16-.14-.24-.13-.21-.05-.5.16-.63.18-.1.39-.07.54.06-.08-.08-.19-.13-.31-.12-2.44.09-4.88.23-7.32.42-2.44.19-4.88.42-7.32.72-.59.07-1.18.15-1.78.23-.27.04-.55.08-.82.11-.26.04-.52.06-.77.13-1.07.29-1.83,1.2-2.33,2.14-.49.91-.8,1.9-1.04,2.9-.14.58-.25,1.18-.35,1.77-.03.15-.05.3-.07.45-.03.18-.09.4-.09.59,0,0,0,.01,0,.02.03.49.12.98.18,1.46.14,1.12.29,2.24.45,3.35.2,1.45.42,2.89.65,4.33.25,1.57.52,3.14.83,4.7.28,1.45.59,2.89.96,4.32.29,1.13.62,2.26,1.1,3.33.08.18.17.36.27.54.08.14.24.23.4.23.68,0,1.37,0,2.05,0,1.7,0,3.4-.02,5.09-.04,2.21-.02,4.41-.06,6.62-.1,2.19-.05,4.37-.1,6.56-.2,1.66-.07,3.32-.15,4.98-.33.14-.02.28-.03.42-.05.25-.03.46-.18.46-.46v-1.68c0-.24-.21-.47-.46-.46-.2,0-.4.01-.6.02-.55.02-1.1.03-1.64.05-.81.02-1.62.05-2.43.07-1,.03-2,.06-3,.09-1.11.03-2.22.06-3.33.1-1.14.03-2.27.07-3.41.1-1.08.03-2.17.06-3.25.1-.95.03-1.9.06-2.84.09-.74.02-1.48.04-2.22.07-.39.01-.77.02-1.16.04.03.12.05.23.08.35-.15-.11-.3-.22-.44-.34.06,0,.11,0,.17,0,.06,0,.13,0,.19,0-.12-.53-.2-1.06-.28-1.6,0,.01,0,.03,0,.04,0,0-.01-.09,0-.04,0,0,0,0,0,0,0,0,0,0,0-.01,0-.03,0-.07-.01-.1-.01-.08-.02-.16-.03-.24-.02-.16-.03-.31-.05-.47-.03-.34-.05-.68-.06-1.02-.01-.35,0-.7,0-1.05,0-.18.02-.37.04-.55Z"/>
      <path class="cls-4" d="m30.95,51.7s0-.03,0-.04c0,0,0,0,0,0,0-.05,0,.04,0,.04Z"/>
      <path class="cls-4" d="m28,26.99s.01-.01.02-.02c-.02.01-.02.02-.02.02Z"/>
      <path class="cls-4" d="m25.52,33.59s-.02.12,0,0c0,0,0,0,0,0,0,0,0,0,0,0Z"/>
      <path class="cls-4" d="m27.41,27.6s0,0,.01-.01c0,.01-.01.01-.01.01Z"/>
      <path class="cls-4" d="m28.48,26.7c.05-.02-.06.02,0,0h0Z"/>
      <path class="cls-4" d="m25.95,37.01c-.01-.08.01.08,0,0h0Z"/>
    </g>
    <g>
      <path class="cls-4" d="m29.92,44.86s.01-.03.02-.04c0-.02.02-.05.03-.07-.02.04-.03.07-.05.11Z"/>
      <path class="cls-4" d="m29.54,44.23c.14.17.29.34.43.51.09-.21.18-.41.29-.61-.24.03-.48.06-.72.09Z"/>
      <path class="cls-4" d="m29.14,47.85s0-.05.01-.07c0-.02,0-.03,0-.05,0,.04-.01.08-.02.12Z"/>
      <path class="cls-4" d="m29.09,55.08l.77.2c-.08-.27-.16-.55-.23-.83-.12.14-.24.28-.36.41-.06.07-.12.14-.18.21Z"/>
      <path class="cls-4" d="m29.2,52.25s0-.04,0-.06c0-.02,0-.04,0-.07,0,.04.01.08.02.12Z"/>
      <path class="cls-4" d="m29.15,47.78s0,.05-.01.07c0-.04.01-.08.02-.12,0,.02,0,.03,0,.05.14-1.01.39-2.01.78-2.96,0,.01-.01.03-.02.04.02-.04.03-.07.05-.11,0,.02-.02.05-.03.07.01-.03.02-.05.03-.08-.14-.17-.29-.34-.43-.51.24-.03.48-.06.72-.09-.1.2-.2.4-.29.61.23.27.46.55.69.82.05.06.11.13.16.19.07.09.22.13.32.13s.25-.05.32-.13c.18-.2.17-.45,0-.65-.38-.45-.75-.89-1.13-1.34-.05-.06-.11-.13-.16-.19-.19-.22-.59-.16-.72.09-.42.81-.73,1.67-.95,2.55-.21.86-.33,1.74-.38,2.62-.05.81-.03,1.62.04,2.43.06.76.17,1.52.32,2.28.12.6.26,1.2.43,1.79.02.06.04.13.06.19.09.31.53.47.77.2.42-.49.85-.98,1.27-1.47.06-.07.12-.14.18-.21.08-.09.13-.2.13-.32,0-.11-.05-.25-.13-.32-.17-.16-.48-.19-.65,0-.3.35-.61.7-.91,1.05.07.28.15.55.23.83l-.77-.2c.06-.07.12-.14.18-.21.12-.14.24-.28.36-.41-.13-.51-.24-1.02-.33-1.53-.04-.24-.08-.49-.11-.73,0,.02,0,.04,0,.06,0-.04-.01-.08-.02-.12,0,.02,0,.04,0,.07-.15-1.13-.2-2.28-.13-3.42.02-.33.05-.66.1-.99Z"/>
    </g>
    <path class="cls-4" d="m30.03,44.05c1.33-.16,2.67-.28,4.01-.39,1.66-.14,3.32-.26,4.98-.36,1.81-.12,3.62-.22,5.43-.3,1.79-.09,3.57-.16,5.36-.21,1.59-.05,3.18-.08,4.77-.09.18,0,.36,0,.53,0,.24,0,.47-.21.46-.46-.01-.25-.2-.46-.46-.46-1.55,0-3.11.03-4.66.07-1.77.05-3.54.12-5.32.2-1.82.08-3.63.18-5.45.29-1.69.1-3.38.22-5.07.36-1.39.11-2.78.23-4.16.39-.14.02-.29.03-.43.05-.24.03-.47.19-.46.46.01.22.2.49.46.46Z"/>
    <path class="cls-4" d="m28.46,33.4c-.15-1.12-.28-2.24-.38-3.36-.08-.87-.15-1.74-.16-2.61,0-.09,0-.17,0-.26,0-.24-.21-.47-.46-.46-.25.01-.46.2-.46.46,0,.84.06,1.67.13,2.51.1,1.1.22,2.2.36,3.3.16,1.26.34,2.52.54,3.78.19,1.22.4,2.45.63,3.67.2,1.09.42,2.17.68,3.25.03.12.06.24.08.36.06.23.33.4.56.32.24-.08.38-.31.32-.56-.25-1.05-.47-2.11-.68-3.17-.23-1.2-.44-2.41-.64-3.62-.1-.62-.19-1.24-.29-1.86-.05-.31-.09-.62-.13-.92-.02-.15-.04-.3-.06-.46,0-.03-.03-.19,0-.02,0-.03,0-.06-.01-.1-.01-.08-.02-.16-.03-.24Z"/>
    <g>
      <path class="cls-4" d="m32.66,47.42s0,0,0,0h0s0,.04,0,0Z"/>
      <path class="cls-4" d="m32.66,52.15s0,0,0-.01c0,0,0,.04,0,.01Z"/>
      <path class="cls-4" d="m32.58,48.06c.01-.13.03-.25.04-.38,0-.06.01-.13.02-.19,0-.03,0-.05.01-.08,0,0,0,0,0,0,0,.04,0,0,0,0h0s0-.04,0-.06c.08-.57.19-1.13.32-1.68.04-.16-.05-.34-.21-.38-.16-.04-.34.05-.38.21-.24,1.02-.4,2.06-.47,3.11-.07,1.03-.05,2.06.06,3.09.06.6.15,1.19.27,1.77.03.16.23.26.38.21.17-.05.25-.21.21-.38-.05-.25-.1-.49-.14-.74-.02-.13-.04-.26-.06-.39,0-.01,0-.02,0-.03,0,.03,0,0,0-.01,0,0,0,0,0,.01,0,0,0,0,0,0,0-.03,0-.06-.01-.09,0-.07-.02-.13-.02-.2-.06-.51-.1-1.01-.11-1.52-.02-.51,0-1.02.02-1.53.01-.25.03-.5.06-.75Z"/>
    </g>
    <path class="cls-4" d="m32.3,47.06c.2,0,.2-.3,0-.31-.54,0-1.08-.02-1.61-.03-.2,0-.2.3,0,.31.54,0,1.08.02,1.61.03Z"/>
    <path class="cls-4" d="m32.21,48.08c.2,0,.2-.31,0-.31-.54,0-1.08.02-1.61.03-.2,0-.2.31,0,.31.54,0,1.08-.02,1.61-.03Z"/>
    <path class="cls-4" d="m31.91,49.1c.2,0,.2-.31,0-.31-.42.01-.84.03-1.27.04-.2,0-.2.31,0,.31.42-.01.84-.03,1.27-.04Z"/>
    <path class="cls-4" d="m30.64,50.55c.42-.06.84-.12,1.26-.19.08-.01.13-.12.11-.19-.02-.09-.11-.12-.19-.11-.42.06-.84.12-1.26.19-.08.01-.13.12-.11.19.02.09.11.12.19.11Z"/>
    <path class="cls-4" d="m32,51.72c.08,0,.15-.07.15-.15,0-.08-.07-.16-.15-.15-.41.03-.82,0-1.22-.08-.08-.02-.17.02-.19.11-.02.08.03.17.11.19.43.09.87.12,1.31.09Z"/>
    <path class="cls-4" d="m32.21,52.64c.08,0,.15-.07.15-.15s-.07-.16-.15-.15c-.39.01-.79.03-1.18.04-.08,0-.15.07-.15.15s.07.16.15.15c.39-.01.79-.03,1.18-.04Z"/>
    <path class="cls-4" d="m39.03,51.71c1.44-.07,2.87-.13,4.31-.2.81-.04,1.63-.07,2.44-.11.2,0,.2-.32,0-.31-1.45.07-2.89.13-4.34.2-1.44.07-2.87.13-4.31.2-.81.04-1.63.07-2.44.11-.2,0-.2.32,0,.31,1.45-.07,2.89-.13,4.34-.2Z"/>
    <path class="cls-4" d="m44.71,50.3c1.53-.11,3.05-.21,4.58-.32.86-.06,1.73-.12,2.59-.18.08,0,.15-.07.15-.15,0-.08-.07-.16-.15-.15-1.54.11-3.07.21-4.61.32-1.53.11-3.05.21-4.58.32-.86.06-1.73.12-2.59.18-.08,0-.15.07-.15.15,0,.08.07.16.15.15l4.61-.32Z"/>
    <path class="cls-4" d="m37.36,50.71c.2,0,.2-.31,0-.31-1.03.03-2.07.06-3.1.09-.2,0-.2.31,0,.31,1.03-.03,2.07-.06,3.1-.09Z"/>
    <path class="cls-4" d="m50.62,51.35c.19-.04.11-.34-.08-.3-1.03.22-2.09.29-3.15.21-.08,0-.15.07-.15.15,0,.09.07.15.15.15,1.08.08,2.17,0,3.23-.22Z"/>
    <path class="cls-4" d="m38.02,49.02c1.09-.07,2.19-.14,3.28-.22.62-.04,1.24-.08,1.86-.12.08,0,.15-.07.15-.15,0-.08-.07-.16-.15-.15-1.09.07-2.19.14-3.28.22s-2.19.14-3.28.22c-.62.04-1.24.08-1.86.12-.08,0-.15.07-.15.15,0,.08.07.16.15.15,1.09-.07,2.19-.14,3.28-.22Z"/>
    <path class="cls-4" d="m49.27,48.45c.42-.03.84-.06,1.26-.1.08,0,.15-.07.15-.15,0-.08-.07-.16-.15-.15l-4.45.34c-.42.03-.84.06-1.26.1-.08,0-.15.07-.15.15,0,.08.07.16.15.15,1.48-.11,2.97-.22,4.45-.34Z"/>
    <path class="cls-4" d="m39.01,47.36c1.49-.12,2.97-.2,4.46-.26.84-.03,1.68-.06,2.52-.07.2,0,.2-.31,0-.31-1.49.03-2.98.08-4.47.17-1.49.08-2.97.2-4.46.34-.84.08-1.67.17-2.51.27-.08,0-.15.06-.15.15,0,.08.07.16.15.15,1.48-.17,2.96-.32,4.45-.43Z"/>
    <path class="cls-4" d="m49.97,46.81c.2,0,.2-.31,0-.31-.67.03-1.34.05-2.01.08-.2,0-.2.31,0,.31.67-.03,1.34-.05,2.01-.08Z"/>
    <path class="cls-3" d="m29.27,41.16l-.37-1.91c-1.26.75-2.14,1.86-2.59,3.09-.45,1.23-.41,2.69.33,3.77.11-1.92,1.1-3.78,2.63-4.95Z"/>
    <path class="cls-3" d="m28.05,34.02l-.4-2.09c-1.26.75-2.1,2.04-2.55,3.27-.45,1.23-.23,3.1.53,4.05.11-1.92.9-4.06,2.43-5.23Z"/>
    <g>
      <path class="cls-4" d="m26.52,44.55s0-.04,0-.06c0-.02,0-.04,0-.06,0,.04.01.08.02.12Z"/>
      <path class="cls-4" d="m26.19,46.11c.29-.08.57-.15.86-.23-.11-.17-.21-.35-.3-.54,0,.02.02.05.03.07-.02-.04-.03-.07-.05-.11,0,.01.01.03.02.04-.11-.28-.19-.56-.23-.85,0,.02,0,.04,0,.06,0-.04-.01-.08-.02-.12,0,.02,0,.04,0,.06,0-.04,0-.07-.01-.11-.04.12-.07.24-.1.36-.12.45-.19.91-.21,1.37Z"/>
      <path class="cls-4" d="m27.13,45.75s0-.04,0-.06c0-.02,0-.04,0-.06,0,.04-.01.08-.02.12Z"/>
      <path class="cls-4" d="m26.51,43.47s0-.04,0-.05c0-.02,0-.05,0-.07,0,.04-.01.08-.02.12Z"/>
      <path class="cls-4" d="m28.42,42.65c-.04.05-.01.01,0-.01.01-.02.02-.02,0,.01Z"/>
      <path class="cls-4" d="m27.56,44.13s.02-.04.03-.06c0-.02.01-.03.02-.05-.02.04-.03.07-.05.11Z"/>
      <path class="cls-4" d="m26.77,45.41s-.02-.05-.03-.07c0-.01-.01-.03-.02-.04.02.04.03.07.05.11Z"/>
      <path class="cls-4" d="m29.63,41.45s.07-.1.09-.17c.02-.07.02-.16,0-.24.03.15,0,.3-.09.41Z"/>
      <path class="cls-4" d="m26.81,42.32s.02-.04.02-.06c0-.02.01-.04.02-.05-.02.04-.03.07-.05.11Z"/>
      <path class="cls-4" d="m26.77,46.55c.2-.07.32-.23.34-.44,0-.14.02-.28.04-.42,0,.02,0,.04,0,.06,0-.04.01-.08.02-.12,0,.02,0,.04,0,.06.08-.55.23-1.1.44-1.62,0,.02-.02.04-.03.06.02-.04.03-.07.05-.11,0,.02-.01.03-.02.05.17-.39.37-.77.61-1.12.06-.09.13-.18.19-.27,0,0,.02-.03.03-.04-.02.03-.05.06,0,.01.03-.03.02-.03,0-.01,0,0,.01-.02.01-.02.03-.04.07-.09.11-.13.14-.17.3-.34.45-.49.09-.09.19-.18.28-.26.05-.04.09-.08.14-.12.02-.02.05-.04.07-.06.01-.01.04-.03.06-.05,0,0,0,0,0,0,0,0-.02.02-.04.03,0,0,.02-.01.03-.02-.04.03-.08.05-.14.07-.22.07-.52-.08-.56-.32-.02-.08-.03-.16-.05-.24,0-.02,0-.04-.01-.07-.55.46-1.02.99-1.42,1.59-.36.56-.65,1.17-.85,1.8,0,.04,0,.07.01.11.04.29.12.58.23.85.08.19.18.37.3.54-.29.08-.57.15-.86.23.03-.46.1-.93.21-1.37.03-.12.07-.24.1-.36-.03-.32-.02-.64.01-.96,0,.02,0,.04,0,.05,0-.04.01-.08.02-.12,0,.02,0,.05,0,.07.06-.4.17-.78.32-1.15,0,.02-.02.04-.02.06.02-.04.03-.07.05-.11,0,.02-.01.04-.02.05.18-.42.41-.82.69-1.18,0-.01.03-.04.04-.05,0,0-.02.02-.04.05.02-.02.03-.04.05-.06.04-.05.08-.1.12-.15.08-.09.16-.18.25-.27.17-.18.36-.35.55-.51.03-.02.05-.04.08-.06-.12.09-.01,0,.01-.01,0,0,0,0,0,0-.04-.21-.08-.43-.12-.64.22.09.45.18.67.27-.13.08-.26.16-.38.24-.06.04-.11.08-.17.12.06.32.12.64.18.96.09-.07.18-.15.27-.22.1-.07.24-.07.35-.05.12.03.21.11.27.21.02.03.04.07.05.11,0,0,0,0,0,0-.11-.56-.21-1.11-.32-1.67-.02-.08-.03-.16-.05-.24-.06-.29-.44-.42-.67-.27-.96.57-1.78,1.39-2.34,2.36-.56.97-.87,2.12-.74,3.25.08.67.28,1.32.65,1.88.11.16.32.28.52.21Z"/>
      <path class="cls-4" d="m29.53,41.53s.01,0,.02-.01c.02-.01.02-.01,0,0,.03-.02.05-.05.07-.07-.03.03-.06.06-.1.09Z"/>
      <path class="cls-4" d="m29.39,40.72c-.11-.03-.26-.03-.35.05-.09.07-.18.14-.27.22,0,.02,0,.04.01.07.02.08.03.16.05.24.05.24.34.39.56.32.05-.02.1-.04.14-.07.04-.03.07-.06.1-.09.09-.11.12-.25.09-.41-.01-.04-.03-.08-.05-.11-.06-.1-.16-.18-.27-.21Z"/>
      <path class="cls-4" d="m27.56,41.03s0,0,0,0h0Z"/>
      <path class="cls-4" d="m29.14,39.65c-.22-.09-.45-.18-.67-.27.04.21.08.43.12.64.06-.04.11-.08.17-.12.12-.09.25-.17.38-.24Z"/>
      <path class="cls-4" d="m29.55,41.52s0,0,0,0c.01,0,.01-.01,0,0Z"/>
    </g>
    <g>
      <path class="cls-4" d="m26.51,33.56s-.02.03-.03.04c0-.01.02-.03.03-.04Z"/>
      <path class="cls-4" d="m25.62,35.1s.02-.04.02-.05c0-.02.01-.04.02-.05-.02.04-.03.07-.05.11Z"/>
      <path class="cls-4" d="m25.37,37.38s0-.04,0-.06c0-.02,0-.04,0-.06,0,.04.01.08.02.12Z"/>
      <path class="cls-4" d="m25.67,38.43s-.02-.04-.02-.06c0-.02-.02-.03-.02-.05.02.04.03.07.05.11Z"/>
      <path class="cls-4" d="m28.34,34.37s0,0,0,0c0,0,0,0,0,0Z"/>
      <path class="cls-4" d="m28.34,34.37s0,0,0,0c0,0,0,0,0,0Z"/>
      <path class="cls-4" d="m25.95,38.93s0,0,0,0c-.02-.02-.01-.02,0,0Z"/>
      <path class="cls-4" d="m25.17,39.25c.26-.11.52-.22.78-.32-.01-.02-.02-.02,0,0,0,0,0,0,0,0,.02.02.05.06.03.04,0-.01-.02-.03-.03-.04-.02-.03-.04-.05-.05-.08-.04-.05-.07-.11-.1-.17-.06-.1-.11-.21-.15-.31,0,.02.01.04.02.06-.02-.04-.03-.07-.05-.11,0,.02.02.03.02.05-.1-.26-.18-.52-.23-.79-.02.09-.04.17-.06.26-.1.46-.16.93-.19,1.4Z"/>
      <path class="cls-4" d="m25.35,36.11s0-.04,0-.06c0-.02,0-.04,0-.06,0,.04-.01.08-.02.12Z"/>
      <path class="cls-4" d="m27.49,35.23s0,0,.01-.01c.04-.06-.06.08-.01.01Z"/>
      <path class="cls-4" d="m28.28,34.42s.02-.01.03-.02c-.04.03-.08.05-.14.07-.22.07-.52-.08-.56-.32-.02-.09-.03-.17-.05-.26,0-.01,0-.03,0-.04-.23.19-.44.4-.63.63-.27.32-.51.67-.71,1.04-.36.65-.62,1.35-.8,2.07.05.27.13.53.23.79.05.11.1.21.15.31.03.06.07.11.1.17.02.03.04.05.05.08,0,.01.02.02.03.04.02.02-.02-.02-.03-.04-.26.11-.52.22-.78.32.03-.47.09-.94.19-1.4.02-.09.04-.17.06-.26-.02-.09-.03-.18-.05-.28,0,.02,0,.04,0,.06,0-.04-.01-.08-.02-.12,0,.02,0,.04,0,.06-.05-.42-.06-.84,0-1.26,0,.02,0,.04,0,.06,0-.04.01-.08.02-.12,0,.02,0,.04,0,.06.05-.35.16-.68.29-1.01,0,.02-.02.04-.02.05.02-.04.03-.07.05-.11,0,.02-.01.04-.02.05.19-.43.41-.84.67-1.22.03-.05.07-.1.1-.15.02-.02.03-.05.05-.07,0-.01.02-.03.03-.04.03-.03.02-.03,0-.01,0,.01-.02.03-.03.04,0,0,.02-.03.03-.04.07-.09.14-.17.21-.25.17-.19.34-.37.53-.53.03-.02.05-.05.08-.07-.04-.22-.08-.44-.13-.66.22.09.45.18.67.27-.13.08-.25.16-.37.24-.03.02-.05.04-.08.06,0,0-.01,0-.02.01-.03.02-.06.05-.09.07.07.38.15.75.22,1.13.09-.07.18-.15.27-.22.1-.07.24-.07.35-.05.12.03.21.11.27.21.02.03.04.07.05.11,0,0,0,0,0,0-.12-.61-.23-1.22-.35-1.83-.02-.09-.03-.17-.05-.26-.06-.29-.44-.42-.67-.27-1.08.65-1.91,1.67-2.45,2.8-.13.28-.26.56-.35.86-.09.28-.14.57-.17.86-.07.59-.03,1.19.09,1.77.13.63.37,1.24.77,1.75.04.06.14.1.2.12.1.03.2.02.3-.02.17-.07.27-.23.28-.42.01-.2.03-.4.06-.6,0,.02,0,.04,0,.06,0-.04.01-.08.02-.12,0,.02,0,.04,0,.06.1-.7.28-1.39.55-2.04,0,.02-.02.04-.02.05.02-.04.03-.07.05-.11,0,.02-.01.04-.02.06.15-.34.32-.68.52-.99.05-.08.1-.16.16-.24.03-.04.06-.08.09-.12,0-.01.02-.03.03-.04-.05.07.05-.07.01-.01,0,0,0,0-.01.01,0,0,0,0,0,0,.12-.15.25-.3.38-.43.07-.07.15-.15.23-.22.04-.04.08-.07.13-.11.02-.02.04-.03.06-.05.01,0,.03-.02.04-.03,0,0,0,0,0,0,0,0-.02.02-.04.03Z"/>
      <path class="cls-4" d="m28.4,34.31s-.06.06-.1.09c0,0,0,0,.01-.01,0,0,.01-.01.02-.01.02-.02.05-.04.06-.07Z"/>
      <path class="cls-4" d="m28.33,34.38s0,0,0,0c0,0,0,0,0,0,0,0,0,0-.02.01,0,0,0,0,0,0Z"/>
      <path class="cls-4" d="m27.43,32.63s0,0,0,0c0,0,0,0,.01-.01.07-.06-.09.07-.02.01Z"/>
      <path class="cls-4" d="m26.67,36.67s.02-.04.02-.05c0-.02.01-.04.02-.06-.02.04-.03.07-.05.11Z"/>
      <path class="cls-4" d="m27.44,32.62s0,0,0,0c-.07.06.09-.07.02-.01,0,0,0,0-.01.01.03-.02.05-.04.08-.06.12-.09.24-.17.37-.24-.22-.09-.45-.18-.67-.27.04.22.08.44.13.66.03-.02.06-.05.09-.07,0,0,.01,0,.02-.01Z"/>
      <path class="cls-4" d="m28.4,34.31s.07-.1.09-.16c.02-.07.02-.16,0-.24.03.15,0,.3-.09.41Z"/>
      <path class="cls-4" d="m26.13,38.72s0-.04,0-.06c0-.02,0-.04,0-.06,0,.04-.01.08-.02.12Z"/>
      <path class="cls-4" d="m28.17,33.58c-.11-.03-.26-.03-.35.05-.09.07-.18.14-.27.22,0,.01,0,.03,0,.04.02.09.03.17.05.26.05.24.34.39.56.32.05-.02.1-.04.14-.07.04-.03.07-.06.1-.09.09-.11.12-.25.09-.41-.01-.04-.03-.08-.05-.11-.06-.1-.16-.18-.27-.21Z"/>
    </g>
    <g>
      <path class="cls-4" d="m50.34,39.26s.01,0,.02-.01c0,0,0,0-.02.01Z"/>
      <path class="cls-4" d="m49.57,39.69c-.07,0-.15.01-.22.02-.03.07-.05.14-.07.21.1-.07.2-.15.3-.22Z"/>
      <path class="cls-4" d="m50.74,39.04s0,0,.01,0c-.02,0-.02,0-.01,0Z"/>
      <path class="cls-4" d="m51.11,38.27c-.12.03-.24.06-.35.1.06.12.11.23.17.35.06-.15.12-.3.18-.45Z"/>
      <path class="cls-4" d="m46.43,28.37s0,0,0,0c0,0,0,0,0,0Z"/>
      <path class="cls-4" d="m46.42,28.36s0,0,.01,0c0,0,0,0-.01,0Z"/>
      <path class="cls-4" d="m50.2,39.4s0,0,0,0c0,0,0,0,0,0-.02.02-.02.03,0,0Z"/>
      <path class="cls-4" d="m33.64,40.84s.01.02,0,0h0Z"/>
      <path class="cls-4" d="m34.37,40.9c-.03-.08-.06-.16-.11-.24-.06,0-.12,0-.19.01.1.07.2.15.3.22Z"/>
      <path class="cls-4" d="m33.78,41.06s0,0,0,0c.04.08-.02-.07,0,0Z"/>
      <path class="cls-4" d="m49.95,39.87s-.03.06,0,0h0Z"/>
      <path class="cls-4" d="m45.74,28.13s-.01,0-.02,0c0,0,0,0,.02,0Z"/>
      <path class="cls-4" d="m30,29.49s0,0-.01,0c0,0,0,0,0,0-.05.02.08-.03.02,0Z"/>
      <path class="cls-4" d="m31.34,28.18s0,.01,0,.02c.01-.03.01-.03,0-.02Z"/>
      <path class="cls-4" d="m44.44,26.97s0,0,0-.01c0,0,0,0,0,0-.03-.06.02.06.01.02Z"/>
      <path class="cls-4" d="m33.68,40.89c.04.05.07.11.1.17,0,0,0,0,0,0,0,0,0,0,0,0-.02-.07.04.08,0,0,.04.12.16.23.29.22,2.03-.17,4.06-.29,6.1-.4,1.97-.11,3.95-.2,5.92-.33,1.16-.07,2.32-.15,3.48-.25.14-.01.25-.09.3-.22,0-.03.02-.06.03-.1.01-.04.03-.08.04-.11,0,0,0,0,0,0-.03.06.02-.04,0,0,0,0,0,0,0,0,0-.02.02-.04.03-.06.05-.1.1-.2.16-.3.01-.02.03-.05.04-.07,0-.01.02-.02.03-.04,0,0,0,0,0,0-.01.02-.01.01,0,0,0,0,0,0,0,0,.04-.04.07-.09.11-.12,0,0,.03-.03.04-.03,0,0-.01,0-.02.01.02-.01.02-.02.02-.01.02-.01.03-.02.05-.04.06-.04.12-.07.18-.1.05-.03.1-.05.15-.07,0,0,0,0,.01,0,0,0,0,0-.01,0,.01,0,.05-.02.06-.02.03-.01.06-.02.09-.03.13-.05.26-.09.39-.12.2-.05.27-.28.18-.45-.64-1.29-1.27-2.57-1.91-3.86-.64-1.29-1.28-2.59-1.92-3.88-.36-.73-.72-1.45-1.08-2.18-.03-.05-.07-.09-.12-.12.12.07.19.22.15.35-.04.16-.22.25-.38.21-.04-.01-.09-.02-.13-.04.62,1.25,1.24,2.51,1.86,3.76.64,1.29,1.28,2.59,1.92,3.88.3.61.6,1.22.9,1.83.12-.04.24-.07.35-.1-.06.15-.12.3-.18.45-.06-.12-.11-.23-.17-.35-.32.11-.63.26-.87.48-.24.22-.42.55-.54.87.07,0,.15-.01.22-.02-.1.07-.2.15-.3.22.02-.07.04-.14.07-.21-1.96.16-3.91.28-5.87.38-1.97.11-3.95.2-5.92.33-1.1.07-2.2.15-3.29.24.04.08.08.16.11.24-.1-.07-.2-.15-.3-.22.06,0,.12,0,.19-.01-.13-.22-.32-.42-.51-.57-.53-.45-1.17-.73-1.87-.72-.06,0-.11,0-.17,0,.02.09.04.17.06.26-.13-.07-.25-.14-.38-.21.1-.02.21-.04.32-.04-.55-2.43-.95-4.89-1.2-7.37-.07-.66-.12-1.32-.17-1.99-.08.04-.16.07-.24.1.07-.1.15-.2.22-.3,0,.07,0,.13.01.2.33-.15.64-.35.9-.6.31-.3.57-.71.72-1.13-.05.01-.11.02-.16.03l.21-.21c-.02.06-.03.12-.06.18,1.51-.31,2.99-.54,4.5-.69,1.55-.15,3.1-.22,4.66-.24.94-.02,1.88-.02,2.82-.02-.04-.07-.07-.15-.1-.22.1.07.2.15.3.22-.07,0-.13,0-.2,0,.13.26.32.51.52.71.39.38.89.62,1.4.8.07.03.15.05.22.07-.02-.03-.03-.07-.05-.1-.07-.15-.04-.33.11-.42.08-.05.19-.05.28-.01-.01,0-.03-.01-.04-.02-.13-.03-.26-.08-.39-.12-.06-.02-.13-.05-.19-.07,0,0-.08-.03-.07-.03,0,0,.01,0,.02,0-.01,0-.02,0-.02,0-.02,0-.04-.02-.06-.03-.14-.07-.29-.14-.42-.22-.15-.09-.22-.15-.36-.28-.06-.06-.11-.12-.17-.18,0-.01-.02-.02-.03-.03,0,0,0,0-.01-.01,0,0,0,0,.01.01,0,0,0,0-.02-.02-.02-.03-.04-.05-.06-.08-.06-.09-.11-.18-.16-.28,0-.01-.01-.02-.02-.04,0,0,0,0,0,.01.01.04-.04-.09-.01-.02,0,0,0,0,0,0,0,0,0-.01,0-.02-.04-.13-.15-.22-.3-.22-1.71,0-3.43,0-5.14.09-1.55.07-3.09.21-4.63.43-.91.13-1.82.3-2.73.48-.1.02-.19.12-.21.21-.01.04-.02.08-.04.12-.01.04-.03.07-.04.11,0,0,0,.01,0,.02,0-.01,0,0,0,.02,0,0,0-.01,0-.02,0,0,0,0,0,0-.01.03-.03.06-.04.09-.13.26-.28.5-.48.7-.17.17-.36.29-.59.41-.08.04-.15.08-.23.11,0,0,0,0,.01,0,.06-.02-.07.03-.02,0,0,0,0,0,0,0,0,0-.01,0-.02,0,0,0-.02,0-.03.01-.12.04-.23.15-.22.3.18,2.63.51,5.24,1.01,7.83.14.72.29,1.43.45,2.14.04.17.22.25.38.21.02,0,.05,0,.07-.01,0,0-.01,0-.02,0-.03,0,.08-.01.03,0,0,0,0,0,0,0,0,0,.02,0,.03,0,.04,0,.09,0,.13,0,.27-.01.43,0,.68.08.29.08.58.25.79.41.1.08.19.16.28.25.03.04.07.07.1.11,0,0,0,0,.01.01,0,0,0,0,0,0,.01.02.03.04.04.05Z"/>
      <path class="cls-4" d="m31.61,39.99s.01,0,.02,0c0,0,0,0,0,0,.05-.01-.05,0-.03,0Z"/>
      <path class="cls-4" d="m44.68,27.37s0,0-.01-.01c0,.01.01.02.01.01Z"/>
      <path class="cls-4" d="m31.8,28.31c.05-.01.11-.02.16-.03.02-.06.04-.12.06-.18l-.21.21Z"/>
      <path class="cls-4" d="m30.1,30.11c.08-.03.16-.06.24-.1,0-.07,0-.13-.01-.2-.07.1-.15.2-.22.3Z"/>
      <path class="cls-4" d="m31.77,39.62c-.02-.09-.04-.17-.06-.26-.11,0-.22.02-.32.04.13.07.25.14.38.21Z"/>
      <path class="cls-4" d="m43.84,27.1c.03.08.06.15.1.22.07,0,.13,0,.2,0-.1-.07-.2-.15-.3-.22Z"/>
      <path class="cls-4" d="m46.14,28.38c-.15.09-.18.27-.11.42.02.03.03.07.05.1.04.01.09.03.13.04.16.04.33-.05.38-.21.04-.14-.03-.29-.15-.35,0,0,0,0,0,0,0,0,0,0-.01,0-.09-.04-.2-.03-.28.01Z"/>
    </g>
  </g>
</svg>