<?xml version="1.0" encoding="UTF-8"?>
<svg id="Capa_1" data-name="Capa 1" xmlns="http://www.w3.org/2000/svg" width="132.68" height="140.66" viewBox="0 0 132.68 140.66">
  <defs>
    <style>
      .cls-1 {
        fill: #42250d;
      }

      .cls-1, .cls-2, .cls-3, .cls-4 {
        stroke-width: 0px;
      }

      .cls-2 {
        fill: #eeceb5;
      }

      .cls-3 {
        fill: #faf2b0;
      }

      .cls-4 {
        fill: #ffbf00;
      }
    </style>
  </defs>
  <path class="cls-4" d="m49.78,126.01l-4.27,4.45c24.43-4.67,51.48-8.19,74.39-13.58l-4.56-7.07-65.57,16.2Z"/>
  <path class="cls-2" d="m64.59,111.21l-14.81,14.8c8.46-.94,62.89-11.97,62.89-11.97,1.42-4.13,3.36-7.54,6.53-11.21l-54.61,8.37Z"/>
  <path class="cls-3" d="m66.34,111.21l54.7-9.76c-3.06-10.67-30.69-86.59-30.69-86.59-24.32-1.51-58.27-4.67-58.27-4.67-7.75,5.06-14.68,11.38-20.44,18.64,7.09,29.12,21.59,72.84,33.87,101.63,5.04-5.97,20.83-19.26,20.83-19.26Z"/>
  <g>
    <path class="cls-1" d="m88.88,15.27c.13.35.25.7.38,1.05.36.02.73.05,1.09.07-.49-.37-.98-.75-1.48-1.12Z"/>
    <path class="cls-1" d="m119.57,101.86c.36-.63.71-1.25,1.07-1.88-.52.09-1.04.19-1.56.28.08.24.15.49.23.73.09.29.18.58.26.87Z"/>
    <path class="cls-1" d="m66.75,112.68c.09-.02.18-.03.27-.05.14-.11.27-.23.41-.35-.23.13-.45.26-.68.39Z"/>
    <path class="cls-1" d="m32.08,11.73c.13.01.27.02.4.04.12-.08.24-.16.37-.25-.26.07-.51.14-.77.21Z"/>
    <path class="cls-1" d="m21.31,68.36c2.25,7.09,4.59,14.15,7.01,21.18,2.39,6.92,4.87,13.8,7.45,20.65,2.37,6.28,4.82,12.52,7.42,18.7.33.78.66,1.56.99,2.34.37.87,1.82,1,2.4.31,2.78-3.28,6.04-6.2,9.21-9.09,3.15-2.87,6.35-5.67,9.59-8.45.54-.46,1.08-.92,1.62-1.38-.09.02-.18.03-.27.05.23-.13.45-.26.68-.39-.14.11-.27.23-.41.35,1.73-.31,3.46-.62,5.19-.93,4.35-.78,8.69-1.55,13.04-2.33,5.28-.94,10.55-1.88,15.83-2.82,4.54-.81,9.09-1.62,13.63-2.43,2.2-.39,4.46-.67,6.64-1.18.03,0,.06-.01.1-.02.81-.14,1.28-1.15,1.07-1.88-1.23-4.28-2.76-8.48-4.22-12.68-2.47-7.12-4.98-14.21-7.51-21.31-2.81-7.88-5.63-15.75-8.47-23.62-2.35-6.51-4.7-13.02-7.05-19.52-1.13-3.11-2.22-6.24-3.39-9.33-.02-.04-.03-.08-.05-.13-.25-.68-.76-1.08-1.48-1.12-6.65-.41-13.29-.9-19.92-1.41-6.46-.5-12.92-1.03-19.38-1.58-4.74-.4-9.47-.82-14.2-1.24-1.27-.11-2.55-.23-3.82-.35-.27-.03-.55-.07-.82-.08-.98-.04-1.94.89-2.72,1.42-6.35,4.39-12.14,9.59-17.14,15.48-.61.72-1.2,1.44-1.79,2.18-.07.08-.13.17-.18.27.67-.93,2.39-1.01,2.74.41.06.26.13.51.19.77,4.26-5.25,9.13-10.03,14.51-14.13,1.52-1.15,3.08-2.25,4.67-3.31-.13-.01-.27-.02-.4-.04.26-.07.51-.14.77-.21-.12.08-.25.16-.37.25,4.16.39,8.32.75,12.48,1.12,9.48.83,18.96,1.61,28.44,2.33,5.28.4,10.57.78,15.85,1.11-.13-.35-.25-.7-.38-1.05.49.37.98.75,1.48,1.12-.36-.02-.73-.05-1.09-.07.8,2.2,1.6,4.39,2.39,6.59,2.26,6.24,4.52,12.48,6.77,18.72,2.82,7.82,5.63,15.65,8.43,23.47,2.59,7.26,5.17,14.53,7.71,21.81,1.54,4.43,3.12,8.86,4.52,13.33.52-.09,1.04-.19,1.56-.28-.36.63-.71,1.25-1.07,1.88-.08-.29-.17-.58-.26-.87-.08-.24-.15-.49-.23-.73-2.72.48-5.43.97-8.15,1.45-6.89,1.23-13.77,2.46-20.66,3.68-6.31,1.12-12.61,2.25-18.92,3.37-1.61.29-3.23.58-4.84.86-.52.09-.8.13-1.26.5-.52.42-1.02.86-1.52,1.29-2.83,2.42-5.63,4.86-8.4,7.34-3.19,2.86-6.37,5.75-9.32,8.86-.01.01-.03.03-.04.04.29.68.57,1.34.86,2.02-.8-.1-1.6-.21-2.4-.31.5-.59,1.02-1.16,1.55-1.71-.28-.67-.56-1.35-.86-2.08-.62-1.5-1.23-3-1.83-4.51-1.27-3.16-2.5-6.33-3.72-9.51-2.58-6.76-5.05-13.57-7.43-20.41-2.45-7.03-4.81-14.09-7.08-21.17-2.19-6.85-4.3-13.73-6.3-20.63-1.8-6.23-3.52-12.49-5.09-18.78-.12-.46-.23-.92-.34-1.39-.19.24-.39.48-.58.72-.52.65-1.63.53-2.16,0-.55-.55-.53-1.29-.18-1.9-.23.32-.33.73-.21,1.22,1.51,6.22,3.18,12.4,4.94,18.55,1.97,6.89,4.05,13.74,6.21,20.57Z"/>
    <path class="cls-1" d="m10.56,29.92c.53.53,1.65.65,2.16,0,.19-.24.39-.48.58-.72-.06-.26-.13-.51-.19-.77-.35-1.42-2.07-1.34-2.74-.41-.35.61-.37,1.35.18,1.9Z"/>
    <path class="cls-1" d="m46.83,129.69c-.29-.68-.57-1.34-.86-2.02-.53.56-1.05,1.13-1.55,1.71.8.1,1.6.21,2.4.31Z"/>
  </g>
  <g>
    <path class="cls-1" d="m67.27,109.57c-.07-.17-.05-.11,0,0h0Z"/>
    <path class="cls-1" d="m67.14,109.25c-.33-.81-.65-1.64-.96-2.46-.94-2.48-1.83-4.97-2.71-7.47-1.19-3.36-2.36-6.72-3.52-10.09-1.37-3.98-2.74-7.96-4.09-11.94-1.48-4.34-2.96-8.69-4.43-13.03-1.5-4.41-2.99-8.82-4.49-13.23-1.43-4.22-2.87-8.45-4.31-12.67-1.29-3.77-2.58-7.55-3.89-11.32-1.06-3.07-2.13-6.13-3.22-9.19-.74-2.07-1.48-4.15-2.29-6.19-.13-.33-.26-.65-.39-.97-.31-.76-1.02-1.31-1.88-1.07-.72.2-1.39,1.11-1.07,1.88.73,1.77,1.38,3.58,2.03,5.38,1.03,2.84,2.03,5.7,3.03,8.55,1.26,3.62,2.51,7.25,3.75,10.87,1.42,4.15,2.84,8.31,4.25,12.47,1.5,4.41,2.99,8.81,4.49,13.22,1.48,4.37,2.97,8.74,4.46,13.11,1.4,4.1,2.8,8.2,4.21,12.3,1.22,3.55,2.45,7.09,3.69,10.63.95,2.71,1.92,5.42,2.91,8.12.65,1.75,1.29,3.51,2.05,5.21.09.2.18.41.28.6.37.74,1.41.95,2.09.55.75-.44.92-1.35.55-2.09-.1-.21-.2-.42-.29-.63-.03-.07-.07-.16-.1-.23.02.04.04.1.07.17-.07-.16-.13-.32-.2-.49Z"/>
  </g>
  <g>
    <path class="cls-1" d="m91.17,121.04c-4.93.86-9.86,1.69-14.8,2.51-4.97.83-9.94,1.65-14.91,2.5-4.87.83-9.73,1.69-14.58,2.6-.59.11-1.19.22-1.78.34-.79.15-1.31,1.14-1.07,1.88.27.84,1.04,1.23,1.88,1.07,4.83-.92,9.68-1.79,14.53-2.62,4.96-.85,9.93-1.68,14.89-2.51,4.94-.82,9.88-1.64,14.82-2.5,4.87-.84,9.73-1.71,14.58-2.65,4.65-.9,9.29-1.85,13.91-2.91.56-.13,1.12-.26,1.67-.39.94-.22,1.44-1.44.91-2.25-1.33-2.06-2.66-4.13-3.99-6.19-.19-.29-.38-.59-.57-.88-.43-.67-1.38-1.01-2.09-.55-.67.43-1.01,1.37-.55,2.09,1.14,1.77,2.28,3.53,3.41,5.3.69-.16,1.37-.31,2.06-.47-.3.75-.61,1.5-.91,2.25-.19-.29-.38-.59-.57-.88-.19-.3-.38-.6-.58-.9-3.9.89-7.82,1.71-11.75,2.48-4.83.95-9.67,1.83-14.52,2.68Z"/>
    <path class="cls-1" d="m118.58,117.66c.3-.75.61-1.5.91-2.25-.69.16-1.37.31-2.06.47.19.3.38.6.58.9.19.29.38.59.57.88Z"/>
  </g>
  <g>
    <path class="cls-1" d="m112.4,113.06c-.16.03-.33.07-.49.1-.07.2-.15.41-.22.61l.71-.71Z"/>
    <path class="cls-1" d="m50.33,124.92c-.2.03.28-.04.12-.02,0,0-.02,0-.03,0,0,0,0,0-.01,0-.03,0-.06,0-.08.01Z"/>
    <path class="cls-1" d="m49.78,127.03c1.48-.17,2.95-.41,4.42-.66,2.19-.36,4.37-.76,6.55-1.15,2.77-.5,5.53-1.02,8.3-1.55,3.07-.58,6.14-1.17,9.21-1.77,3.14-.61,6.28-1.22,9.42-1.84,2.97-.58,5.93-1.17,8.9-1.76,2.54-.51,5.09-1.01,7.63-1.52,1.87-.38,3.75-.75,5.62-1.13.96-.19,1.92-.39,2.88-.58.07-.01.14-.02.2-.04.26-.07.49-.24.63-.47.17-.3.25-.68.37-1,.11-.3.23-.6.35-.9.38-.96.91-2.08,1.45-3.09.58-1.06,1.22-2.09,1.91-3.09.72-1.03,1.45-1.95,2.29-2.92.36-.42.41-1.03,0-1.44-.37-.37-1.08-.42-1.44,0-1.52,1.76-2.92,3.63-4.08,5.64-1,1.72-1.82,3.54-2.49,5.41.16-.03.33-.07.49-.1l-.71.71c.07-.2.14-.41.22-.61-.32.06-.64.13-.96.19-1.34.27-2.68.54-4.02.81-2,.4-3.99.8-5.99,1.2-2.47.49-4.95.99-7.42,1.48-2.77.55-5.55,1.1-8.32,1.64-2.87.56-5.73,1.12-8.6,1.68-2.78.54-5.57,1.07-8.35,1.6-2.51.48-5.03.95-7.55,1.41-2.06.38-4.12.75-6.19,1.1-.81.14-1.62.27-2.43.4-.33.05-.66.1-.99.15-.15.02-.3.04-.46.07-.06,0-.13.02-.19.03,0,0,.02,0,.03,0,.16-.02-.32.04-.12.02.03,0,.06,0,.08-.01,0,0,0,0,.01,0-.22.03-.43.06-.65.08-.55.06-1.02.43-1.02,1.02,0,.5.47,1.08,1.02,1.02Z"/>
  </g>
  <g>
    <path class="cls-1" d="m62.33,122.47s.02-.02.03-.03c.03-.05.05-.07-.03.03Z"/>
    <path class="cls-1" d="m60.76,124.64c.36-.52.73-1.04,1.11-1.55.09-.12.17-.23.26-.35.05-.07.1-.14.16-.21,0-.01.05-.06.08-.1,0,.01-.02.02-.03.03.08-.1.06-.08.03-.03.19-.24.37-.48.57-.72.79-.98,1.61-1.93,2.47-2.84,1.73-1.84,3.59-3.56,5.58-5.12.05-.04.09-.07.14-.11.04-.03.09-.07.13-.1-.09.07-.09.07,0,0,0,0,0,0,0,0,0,0,0,0,0,0,.14-.11.28-.21.41-.31.28-.21.56-.41.84-.62.59-.42,1.18-.83,1.78-1.23.45-.29.68-.92.37-1.4-.29-.44-.92-.68-1.4-.37-4.34,2.85-8.26,6.36-11.55,10.38-.95,1.16-1.85,2.36-2.7,3.6-.3.44-.1,1.15.37,1.4.52.27,1.07.11,1.4-.37Z"/>
    <path class="cls-1" d="m71.25,113.54s0,0,0,0c-.09.07-.09.07,0,0Z"/>
  </g>
  <path class="cls-1" d="m61.39,122.69c.27-.02.51-.22.51-.51,0-.26-.23-.53-.51-.51-2.11.19-4.22.38-6.33.57-.27.02-.51.22-.51.51,0,.26.23.53.51.51,2.11-.19,4.22-.38,6.33-.57Z"/>
  <path class="cls-1" d="m62.26,120.53c.27.03.51-.26.51-.51,0-.3-.24-.48-.51-.51l-3.71-.45c-.27-.03-.51.26-.51.51,0,.3.24.48.51.51l3.71.45Z"/>
  <path class="cls-1" d="m63.87,118.1c.26.06.56-.08.63-.36.06-.26-.08-.57-.36-.63-.88-.19-1.76-.38-2.64-.57-.26-.06-.56.08-.63.36-.06.26.08.57.36.63.88.19,1.76.38,2.64.57Z"/>
  <path class="cls-1" d="m66.71,115.88c.26.07.57-.09.63-.36.06-.27-.08-.55-.36-.63-1.02-.29-2.04-.58-3.05-.87-.26-.07-.57.09-.63.36-.06.27.08.55.36.63,1.02.29,2.04.58,3.05.87Z"/>
  <path class="cls-1" d="m77.46,113.72c4.03-.73,8.06-1.45,12.09-2.18,4.21-.76,8.42-1.52,12.63-2.28,2.2-.4,4.4-.79,6.6-1.19.27-.05.42-.38.36-.63-.08-.29-.36-.41-.63-.36-4.03.73-8.06,1.45-12.09,2.18-4.21.76-8.42,1.52-12.63,2.28-2.2.4-4.4.79-6.6,1.19-.27.05-.42.38-.36.63.08.29.36.41.63.36Z"/>
  <path class="cls-1" d="m69.7,119.93c4.52-.81,9.03-1.62,13.55-2.47,5.21-.98,10.41-1.99,15.6-3.08,2.91-.61,5.82-1.25,8.71-1.92.64-.15.37-1.13-.27-.98-5.19,1.2-10.4,2.29-15.63,3.33-5,.99-10.01,1.93-15.02,2.84-2.4.44-4.81.87-7.21,1.3-.27.05-.42.38-.36.63.08.29.36.4.63.36Z"/>
  <path class="cls-4" d="m39.62,32.54c.22-2.04-1.05-4.58-2.91-6.79-9.39,2.27-18.76,8.26-22.19,17.01-.7,2.75.1,5.15,2.1,7.28,3.43-8.75,13.61-15.23,23-17.5Z"/>
  <path class="cls-4" d="m49.75,62.95c.22-2.04-1.05-4.58-2.91-6.79-9.39,2.27-18.76,8.26-22.19,17.01-.7,2.75.1,5.15,2.1,7.28,3.43-8.75,13.61-15.23,23-17.5Z"/>
  <path class="cls-4" d="m60.4,94.3c-.53-3.01-1.85-6.11-3.18-7.16-9.39,2.27-18.83,7.72-22.25,16.47-.7,2.75.63,6.21,2.12,8.51,3.43-8.75,13.93-15.54,23.31-17.82Z"/>
  <g>
    <path class="cls-1" d="m35.97,27.25s.01.02.02.03c.19.24-.22-.29-.02-.03Z"/>
    <path class="cls-1" d="m34.08,35.98c.07-.03.14-.06.21-.09.05-.02.1-.05.15-.07l-.37.15Z"/>
    <path class="cls-1" d="m31.08,29.22c.07-.03.14-.06.22-.09.05-.02.1-.04.15-.07-.12.05-.24.1-.37.15Z"/>
    <path class="cls-1" d="m18.83,38.28c-.12.15-.07.09,0,.01.06-.08.15-.19,0-.01Z"/>
    <path class="cls-1" d="m16.04,43.05c.03-.06.05-.12.08-.18.03-.06.05-.12.08-.19-.05.12-.1.24-.15.37Z"/>
    <path class="cls-1" d="m13,42.57c.02-.07.03-.14.05-.21-.03.06-.04.14-.05.21Z"/>
    <path class="cls-1" d="m25.82,40.81s0,0,0,0c.01-.01.03-.02.04-.04-.03.02-.05.04-.05.04Z"/>
    <path class="cls-1" d="m13.05,42.36c.05-.12.1-.25.15-.37-.07.11-.12.24-.15.37Z"/>
    <path class="cls-1" d="m18.14,50.35c.02-.05.05-.11.07-.16.03-.07.05-.14.08-.2-.05.12-.1.24-.15.37Z"/>
    <path class="cls-1" d="m20.91,45.64c.11-.15-.22.28-.1.13.01-.01.02-.03.03-.04,0,0,0,0,0,0,.02-.03.04-.06.07-.09Z"/>
    <path class="cls-1" d="m15.83,44.06c0-.06.02-.13.03-.19,0-.07.01-.15.02-.22-.02.14-.04.27-.05.41Z"/>
    <path class="cls-1" d="m17.71,48.96c-.2-.21-.38-.43-.56-.65,0,0,0,0-.01-.02.03.04.06.09.1.13-.03-.03-.2-.25-.1-.13,0-.01-.02-.03-.03-.04-.08-.11-.16-.22-.23-.33-.19-.28-.35-.57-.51-.87-.45.83-.86,1.69-1.22,2.58.85-.23,1.7-.45,2.56-.68Z"/>
    <path class="cls-1" d="m15.87,45.6c0-.07-.01-.14-.02-.21-.01-.07-.03-.13-.03-.2.02.14.04.27.05.41Z"/>
    <path class="cls-1" d="m16.3,46.94c-.02-.05-.04-.11-.06-.16-.03-.07-.06-.14-.09-.21.05.12.1.24.15.37Z"/>
    <path class="cls-1" d="m17.03,51.51c.56-.15.87-.56,1.07-1.07.03-.09.07-.17.11-.26-.02.05-.05.11-.07.16.05-.12.1-.24.15-.37-.03.07-.06.14-.08.2.54-1.25,1.22-2.44,1.99-3.56.21-.3.42-.6.64-.89-.01.01-.02.03-.03.04-.11.14.21-.28.1-.13-.02.03-.04.06-.07.09,0,0,0,0,0,0,.04-.05.09-.11.13-.16.12-.15.23-.29.35-.43.47-.57.97-1.11,1.49-1.64.53-.54,1.09-1.07,1.66-1.57.28-.24.56-.49.85-.72.14-.11.28-.23.42-.34.03-.02.06-.05.09-.07,0,0,0,0,0,0,0,0,.02-.02.05-.04.02-.02.05-.04.07-.06.14-.11,0,0-.07.06-.01.01-.03.02-.04.04.04-.02.08-.07.12-.09,1.23-.94,2.52-1.79,3.86-2.57,1.45-.84,2.95-1.59,4.49-2.24-.07.03-.14.06-.21.09l.37-.15c-.05.02-.1.04-.15.07,1.86-.77,3.78-1.41,5.74-1.88.32-.08.6-.29.79-.55.22-.29.29-.56.33-.93.14-1.41-.3-2.8-.86-4.07-.62-1.39-1.52-2.64-2.49-3.8-.35-.42-.99-.51-1.49-.39-3.86.94-7.62,2.44-11.03,4.47-3.46,2.06-6.56,4.68-9.02,7.88-1.26,1.64-2.27,3.44-3.06,5.35.34-.58,1.07-.85,1.73-.7.82.19,1.26,1.11,1.07,1.88.04-.1.08-.2.12-.3-.03.06-.05.12-.08.18.05-.12.1-.24.15-.37-.03.06-.05.12-.08.19.53-1.22,1.17-2.38,1.91-3.48.19-.29.4-.57.6-.86.05-.07.1-.14.16-.21,0,0,.02-.02.03-.04-.06.07-.11.14,0-.01.14-.18.05-.06,0,.01.03-.04.06-.08.08-.1.06-.08.12-.16.19-.23.44-.55.91-1.07,1.4-1.58.98-1.02,2.04-2.03,3.18-2.86.02-.02-.29.22-.16.12.03-.02.06-.05.09-.07.07-.05.14-.11.22-.16.15-.12.31-.23.47-.34.29-.21.59-.42.89-.62.6-.41,1.22-.79,1.85-1.16,1.37-.81,2.8-1.52,4.27-2.14-.07.03-.15.06-.22.09.12-.05.24-.1.37-.15-.05.02-.1.04-.15.07,1.58-.65,3.2-1.21,4.85-1.65,0,0,0,0,0-.01-.05-.07-.1-.13-.15-.19,0,0,0,0,0,0-.12-.14-.23-.29-.35-.43l1.49.39c-.33.08-.65.16-.98.25.21.29.41.58.6.88.33.52.63,1.07.88,1.63-.03-.06-.05-.13-.08-.19.05.12.1.24.15.37-.03-.06-.05-.12-.08-.17.18.45.32.9.42,1.37.39-.11.78-.21,1.16-.3-.37.49-.75.98-1.12,1.48.03-.31.03-.62,0-.92-.01-.08-.03-.17-.04-.25-3.56.98-7,2.46-10.16,4.35-3.48,2.08-6.74,4.69-9.25,7.9-.86,1.1-1.62,2.24-2.28,3.44.15.3.32.59.51.87.08.11.15.22.23.33,0,.01.02.02.03.04,0,0,0,0,.01.02.18.22.37.44.56.65-.85.23-1.7.45-2.56.68.35-.89.76-1.75,1.22-2.58-.04-.09-.09-.18-.13-.26.02.05.04.11.06.16-.05-.12-.1-.24-.15-.37.03.07.06.14.09.21-.18-.45-.31-.92-.39-1.39,0,.07.01.14.02.21-.02-.14-.04-.27-.05-.41,0,.07.02.13.03.2-.05-.51-.05-1.01,0-1.52-.01.06-.02.13-.03.19.02-.14.04-.27.05-.41,0,.07-.01.15-.02.22.04-.24.09-.47.14-.71-.15.39-.35.69-.7.91-.35.22-.79.24-1.18.15-.36-.08-.73-.39-.91-.7-.15-.25-.24-.64-.2-.97-.33,1.47-.35,3.02.09,4.48.46,1.55,1.36,2.91,2.45,4.08.37.39.98.53,1.49.39Z"/>
    <path class="cls-1" d="m13.21,43.53c.19.32.55.62.91.7.39.09.83.07,1.18-.15.35-.23.55-.52.7-.91.19-.78-.25-1.7-1.07-1.88-.66-.15-1.39.12-1.73.7-.05.12-.1.25-.15.37-.02.07-.03.14-.05.21-.04.32.06.72.2.97Z"/>
    <path class="cls-1" d="m35.63,26.83c.12.14.24.29.35.43,0,0,0,0,0,0,0,0-.01-.02-.02-.03-.2-.26.21.26.02.03.05.06.1.13.15.19,0,0,0,0,0,.01.32-.09.65-.17.98-.25l-1.49-.39Z"/>
    <path class="cls-1" d="m17.23,48.42s-.07-.08-.1-.13c-.1-.12.07.1.1.13Z"/>
    <path class="cls-1" d="m37.56,29.8c.03.06.05.13.08.19.03.06.05.12.08.17-.05-.12-.1-.24-.15-.37Z"/>
    <path class="cls-1" d="m38.07,31.38c.01.08.02.16.02.24,0,.06.02.11.03.17-.02-.14-.04-.27-.05-.41Z"/>
    <path class="cls-1" d="m38.07,31.38c.02.14.04.27.05.41,0-.06-.02-.11-.03-.17.03.31.03.62,0,.92.37-.49.75-.98,1.12-1.48-.39.09-.78.2-1.16.3.02.08.03.16.04.25,0-.08-.01-.16-.02-.24Z"/>
  </g>
  <g>
    <path class="cls-1" d="m44.21,66.4c.07-.03.14-.06.21-.09.05-.02.1-.05.15-.07-.12.05-.24.1-.37.15Z"/>
    <path class="cls-1" d="m46.1,57.66s.01.02.02.03c.19.24-.22-.29-.02-.03Z"/>
    <path class="cls-1" d="m28.96,68.69c-.12.15-.07.09,0,.01.06-.08.15-.19,0-.01Z"/>
    <path class="cls-1" d="m26.17,73.47c.03-.06.05-.12.08-.18.03-.06.05-.12.08-.19-.05.12-.1.24-.15.37Z"/>
    <path class="cls-1" d="m41.2,59.64c.07-.03.15-.06.22-.09.05-.02.1-.04.15-.07-.12.05-.24.1-.37.15Z"/>
    <path class="cls-1" d="m35.95,71.22s0,0,0,0c.02-.01.03-.02.05-.04-.03.02-.05.04-.05.04Z"/>
    <path class="cls-1" d="m23.18,72.77c.05-.12.1-.25.15-.37-.07.11-.12.24-.15.37Z"/>
    <path class="cls-1" d="m23.13,72.98c.02-.07.03-.14.05-.21-.03.06-.04.14-.05.21Z"/>
    <path class="cls-1" d="m31.04,76.06c.11-.15-.22.28-.1.13.01-.01.02-.03.03-.04,0,0,0,0,0,0,.02-.03.04-.06.07-.09Z"/>
    <path class="cls-1" d="m28.26,80.76c.02-.05.05-.11.07-.16.03-.07.05-.14.08-.2-.05.12-.1.24-.15.37Z"/>
    <path class="cls-1" d="m26,76.02c0-.07-.01-.14-.02-.21-.01-.07-.03-.13-.03-.2.02.14.04.27.05.41Z"/>
    <path class="cls-1" d="m25.95,74.48c0-.06.02-.13.03-.19,0-.07.01-.15.02-.22-.02.14-.04.27-.05.41Z"/>
    <path class="cls-1" d="m26.43,77.36c-.02-.05-.04-.11-.06-.16-.03-.07-.06-.14-.09-.21.05.12.1.24.15.37Z"/>
    <path class="cls-1" d="m27.16,81.93c.56-.15.87-.56,1.07-1.07.03-.09.07-.17.11-.26-.02.05-.05.11-.07.16.05-.12.1-.24.15-.37-.03.07-.06.14-.08.2.54-1.25,1.22-2.44,1.99-3.56.21-.3.42-.6.64-.89-.01.01-.02.03-.03.04-.11.14.21-.28.1-.13-.02.03-.04.06-.07.09,0,0,0,0,0,0,.04-.05.08-.11.13-.16.12-.15.23-.29.35-.43.47-.57.97-1.11,1.49-1.64.53-.54,1.09-1.07,1.66-1.57.28-.24.56-.49.85-.72.14-.11.28-.23.42-.34.03-.02.06-.05.09-.07,0,0,0,0,0,0,0,0,.02-.02.05-.04.02-.02.05-.04.07-.06.14-.11,0,0-.07.06-.02.01-.03.02-.05.04.04-.02.08-.07.12-.09,1.23-.94,2.52-1.79,3.86-2.57,1.45-.84,2.95-1.59,4.49-2.24-.07.03-.14.06-.21.09.12-.05.24-.1.37-.15-.05.02-.1.04-.15.07,1.86-.77,3.78-1.41,5.74-1.88.32-.08.6-.29.79-.55.22-.29.29-.56.33-.93.14-1.41-.3-2.8-.86-4.07-.62-1.39-1.52-2.64-2.49-3.8-.35-.42-.99-.51-1.49-.39-3.86.94-7.62,2.44-11.03,4.47-3.46,2.06-6.56,4.68-9.02,7.88-1.26,1.64-2.27,3.44-3.06,5.35.34-.58,1.07-.85,1.73-.7.82.19,1.26,1.11,1.07,1.88.04-.1.08-.2.12-.3-.03.06-.05.12-.08.18.05-.12.1-.24.15-.37-.03.06-.05.12-.08.19.53-1.22,1.17-2.38,1.91-3.48.19-.29.4-.57.6-.86.05-.07.1-.14.16-.21,0,0,.02-.02.03-.04-.06.07-.11.14,0-.01.14-.18.05-.06,0,.01.03-.04.06-.08.08-.1.06-.08.12-.16.19-.23.44-.55.91-1.07,1.4-1.58.98-1.02,2.04-2.03,3.18-2.86.02-.02-.29.22-.16.12.03-.02.06-.05.09-.07.07-.05.14-.11.22-.16.15-.12.31-.23.47-.34.29-.21.59-.42.89-.62.6-.41,1.22-.79,1.85-1.16,1.37-.81,2.8-1.52,4.27-2.14-.07.03-.15.06-.22.09.12-.05.24-.1.37-.15-.05.02-.1.04-.15.07,1.58-.65,3.2-1.21,4.85-1.65,0,0,0,0,0-.01-.05-.07-.1-.13-.15-.19,0,0,0,0,0,0-.12-.14-.23-.29-.35-.43.5.13.99.26,1.49.39-.33.08-.65.16-.98.25.21.29.41.58.6.88.33.52.63,1.07.88,1.63-.03-.06-.05-.13-.08-.19.05.12.1.24.15.37-.03-.06-.05-.12-.08-.17.18.45.32.9.42,1.37.39-.11.78-.21,1.16-.3-.37.49-.75.98-1.12,1.48.03-.31.03-.62,0-.92-.01-.08-.03-.17-.04-.25-3.56.98-7,2.46-10.16,4.35-3.48,2.08-6.74,4.69-9.25,7.9-.86,1.1-1.62,2.24-2.28,3.44.15.3.32.59.51.87.08.11.15.22.23.33,0,.01.02.02.03.04,0,0,0,0,.01.02.18.22.37.44.56.65-.85.23-1.7.45-2.56.68.35-.89.76-1.75,1.22-2.58-.04-.09-.09-.18-.13-.26.02.05.04.11.06.16-.05-.12-.1-.24-.15-.37.03.07.06.14.09.21-.18-.45-.31-.92-.39-1.39,0,.07.01.14.02.21-.02-.14-.04-.27-.05-.41,0,.07.02.13.03.2-.05-.51-.05-1.01,0-1.52-.01.06-.02.13-.03.19.02-.14.04-.27.05-.41,0,.07-.01.15-.02.22.04-.24.09-.47.14-.71-.15.39-.35.69-.7.91-.35.22-.79.24-1.18.15-.36-.08-.73-.39-.91-.7-.15-.25-.24-.64-.2-.97-.33,1.47-.35,3.02.09,4.48.46,1.55,1.36,2.91,2.45,4.08.37.39.98.53,1.49.39Z"/>
    <path class="cls-1" d="m23.33,73.95c.19.32.55.62.91.7.39.09.83.07,1.18-.15.35-.23.55-.52.7-.91.19-.78-.25-1.7-1.07-1.88-.66-.15-1.39.12-1.73.7-.05.12-.1.25-.15.37-.02.07-.03.14-.05.21-.04.32.06.72.2.97Z"/>
    <path class="cls-1" d="m45.76,57.25c.12.14.24.29.35.43,0,0,0,0,0,0,0,0-.01-.02-.02-.03-.2-.26.21.26.02.03.05.06.1.13.15.19,0,0,0,0,0,.01.32-.09.65-.17.98-.25-.5-.13-.99-.26-1.49-.39Z"/>
    <path class="cls-1" d="m27.84,79.37c-.2-.21-.38-.43-.56-.65,0,0,0,0-.01-.02.03.04.06.09.1.13-.03-.03-.2-.25-.1-.13,0-.01-.02-.03-.03-.04-.08-.11-.16-.22-.23-.33-.19-.28-.35-.57-.51-.87-.45.83-.86,1.69-1.22,2.58.85-.23,1.7-.45,2.56-.68Z"/>
    <path class="cls-1" d="m48.2,61.79c.01.08.02.16.02.24,0,.06.02.11.03.17-.02-.14-.04-.27-.05-.41Z"/>
    <path class="cls-1" d="m27.36,78.84s-.07-.08-.1-.13c-.1-.12.07.1.1.13Z"/>
    <path class="cls-1" d="m47.69,60.22c.03.06.05.13.08.19.03.06.05.12.08.17-.05-.12-.1-.24-.15-.37Z"/>
    <path class="cls-1" d="m48.2,61.79c.02.14.04.27.05.41,0-.06-.02-.11-.03-.17.03.31.03.62,0,.92.37-.49.75-.98,1.12-1.48-.39.09-.78.2-1.16.3.02.08.03.16.04.25,0-.08-.01-.16-.02-.24Z"/>
  </g>
  <g>
    <path class="cls-1" d="m39.08,99.44s0,0,0,0c.01-.01.02-.03.03-.04.15-.2-.25.31-.04.05Z"/>
    <path class="cls-1" d="m50.87,90.83c.07-.03.14-.06.21-.08.05-.02.11-.05.16-.07-.12.05-.24.1-.37.15Z"/>
    <path class="cls-1" d="m36.49,103.9s.04-.08.05-.12c.03-.08.07-.17.1-.25-.05.12-.1.24-.15.37Z"/>
    <path class="cls-1" d="m55,97.71c.08-.03.15-.06.23-.09.05-.02.09-.04.14-.06-.12.05-.24.1-.37.15Z"/>
    <path class="cls-1" d="m33.44,103.43c.02-.08.03-.15.05-.23-.03.07-.04.15-.05.23Z"/>
    <path class="cls-1" d="m33.49,103.2c.05-.13.11-.26.17-.4-.07.12-.13.25-.17.4Z"/>
    <path class="cls-1" d="m46.51,102.68c.05-.04.1-.08.15-.12,0,0,0,0,0,0,0-.01-.28.21-.16.12Z"/>
    <path class="cls-1" d="m41.26,107.87s.05-.06.07-.09c0,0,.02-.02.02-.03,0,0,0-.01.01-.02,0,0-.25.32-.1.13Z"/>
    <path class="cls-1" d="m38.6,112.43c.02-.05.05-.1.07-.16.03-.07.06-.14.09-.21-.05.12-.1.24-.15.37Z"/>
    <path class="cls-1" d="m43.41,95.16s.05-.04.08-.06c.02-.02.04-.03.06-.05-.06.05-.24.18-.14.11Z"/>
    <path class="cls-1" d="m36.39,106.36c0-.05,0-.1-.02-.16-.01-.08-.03-.17-.04-.25.02.14.04.27.05.41Z"/>
    <path class="cls-1" d="m37.26,109.25c-.03-.08-.06-.15-.09-.23-.02-.05-.04-.09-.06-.14.05.12.1.24.15.37Z"/>
    <path class="cls-1" d="m36.32,104.7c.01-.08.03-.16.04-.24,0-.06,0-.11.02-.17-.02.14-.04.27-.05.41Z"/>
    <path class="cls-1" d="m38.41,111.34c-.48-.74-.89-1.52-1.24-2.33.03.08.06.15.09.23-.05-.12-.1-.24-.15-.37.02.05.04.09.06.14-.04-.1-.08-.19-.11-.29-.55.95-1.03,1.94-1.44,2.98l2.8-.37Z"/>
    <path class="cls-1" d="m37.29,113.62c.64-.09,1.04-.51,1.27-1.1.03-.08.07-.16.1-.25-.02.05-.05.1-.07.16.05-.12.1-.24.15-.37-.03.07-.06.14-.09.21.56-1.28,1.25-2.5,2.05-3.65.2-.29.44-.57.64-.87,0,0-.02.02-.02.03-.02.03-.05.06-.07.09-.14.18.1-.13.1-.13,0,0,0,.01-.01.02.05-.06.09-.12.14-.17.12-.15.25-.31.38-.46.49-.58,1.01-1.15,1.54-1.69.54-.54,1.09-1.07,1.67-1.57.3-.26.6-.52.91-.77.14-.11.28-.23.42-.34.05-.04.21-.13.24-.19-.05.04-.1.08-.15.12-.12.09.16-.14.16-.12,0,0,0,0,0,0,0,0,0,0,0,0,1.26-.96,2.57-1.83,3.94-2.63,1.49-.87,3.04-1.65,4.63-2.32-.08.03-.15.06-.23.09.12-.05.24-.1.37-.15-.05.02-.09.04-.14.06,1.81-.75,3.68-1.38,5.58-1.84.35-.09.74-.38.91-.7.2-.38.23-.75.15-1.18-.27-1.53-.73-3.01-1.34-4.44-.48-1.14-1.09-2.31-1.99-3.18-.07-.07-.14-.13-.22-.19-.49-.41-.95-.53-1.58-.39-.32.07-.65.16-.97.25-.57.15-1.14.32-1.7.49-1.19.37-2.36.78-3.51,1.25-4.68,1.9-9.15,4.57-12.57,8.34-1.83,2.02-3.29,4.29-4.33,6.8.35-.56,1.06-.82,1.72-.67.82.19,1.26,1.11,1.07,1.88.03-.08.06-.15.09-.23-.02.04-.04.08-.05.12.05-.12.1-.24.15-.37-.03.08-.07.17-.1.25.51-1.18,1.13-2.31,1.85-3.37.19-.28.39-.56.6-.84.03-.04.07-.09.1-.13,0,0,0,0,0,0-.21.27.19-.24.04-.05-.01.01-.02.03-.03.04.11-.13.21-.27.32-.4.42-.51.87-1.01,1.33-1.49.47-.48.96-.94,1.46-1.39.25-.22.51-.44.77-.66.13-.1.25-.21.38-.31.04-.03.08-.07.13-.1-.03.02-.05.04-.08.06-.1.08.07-.06.14-.11,0,0,.01-.01.02-.02,0,0,0,0-.02.02-.02.01-.04.03-.06.05.01-.01.03-.02.04-.03,1.11-.84,2.27-1.6,3.47-2.3,1.32-.76,2.68-1.43,4.08-2.02-.07.03-.14.06-.21.08.12-.05.24-.1.37-.15-.05.02-.11.05-.16.07,1.84-.76,3.73-1.4,5.66-1.91,0-.01-.02-.02-.02-.04-.05-.06-.08-.1-.1-.12-.15-.17-.3-.32-.47-.46.5.13.99.26,1.49.39-.3.07-.59.15-.88.22,0,.01.02.02.03.04-.01-.01-.02-.02-.03-.04,0,0,0,0,0,0,.08.11.15.22.22.33.33.52.6,1.07.85,1.63-.02-.06-.04-.11-.07-.17.05.12.1.24.15.37-.03-.07-.06-.13-.09-.2.32.78.58,1.58.79,2.4.46-.13.93-.26,1.4-.37-.36.63-.71,1.25-1.07,1.88-.09-.51-.2-1.01-.33-1.51-3.51,1-6.9,2.5-10.02,4.38-3.54,2.13-6.87,4.81-9.43,8.08-.77.99-1.47,2.01-2.09,3.08.04.1.07.19.11.29.35.81.76,1.59,1.24,2.33l-2.8.37c.41-1.04.89-2.03,1.44-2.98-.31-.82-.55-1.66-.69-2.52,0,.05,0,.1.02.16-.02-.14-.04-.27-.05-.41.01.08.03.17.04.25-.06-.58-.08-1.17-.02-1.75-.01.08-.03.16-.04.24.02-.14.04-.27.05-.41,0,.06,0,.11-.02.17.03-.15.06-.3.09-.44-.15.39-.35.69-.7.91-.35.22-.79.24-1.18.15-.36-.08-.73-.39-.91-.7-.14-.25-.24-.63-.21-.95-.35,1.64-.18,3.36.28,4.96.45,1.58,1.16,3.11,2.05,4.49.34.52.9.81,1.52.73Z"/>
    <path class="cls-1" d="m33.65,104.38c.19.32.55.62.91.7.39.09.83.07,1.18-.15.35-.23.55-.52.7-.91.19-.78-.25-1.7-1.07-1.88-.65-.15-1.37.11-1.72.67-.05.13-.11.26-.17.4-.02.08-.04.15-.05.23-.03.32.06.7.21.95Z"/>
    <path class="cls-1" d="m57.74,90.63c.02.06.04.11.07.17.03.07.06.13.09.2-.05-.12-.1-.24-.15-.37Z"/>
    <path class="cls-1" d="m56.75,88.84s-.03-.04-.05-.06c0,0,0,.01.01.02,0,0,0,0,0,0,0,.01.02.02.03.03,0,0,0,0,0,0Z"/>
    <path class="cls-1" d="m56.7,88.78c-.06-.08-.16-.19-.08-.1.01.02.03.03.04.05.01.02.03.03.04.05Z"/>
    <path class="cls-1" d="m60,92.82c-.47.11-.93.24-1.4.37.13.5.24,1,.33,1.51.36-.63.71-1.25,1.07-1.88Z"/>
    <path class="cls-1" d="m56.72,88.81s.02.02.02.04c0,0,0,0,0,0,0-.01-.02-.02-.03-.03Z"/>
    <path class="cls-1" d="m56.7,88.78s.03.04.05.06c.29-.08.59-.15.88-.22-.5-.13-.99-.26-1.49-.39.17.14.33.3.47.46-.08-.09.02.02.08.1Z"/>
  </g>
  <path class="cls-1" d="m81.6,115.17c.64-.16.37-1.14-.27-.98-3.54.9-7.15,1.57-10.78,2.01-.27.03-.51.21-.51.51,0,.25.23.54.51.51,3.72-.45,7.41-1.13,11.05-2.05Z"/>
  <path class="cls-1" d="m89.89,114.13c5.65-1.11,11.3-2.21,16.94-3.32,1.56-.31,3.13-.61,4.69-.92.27-.05.43-.38.36-.63-.08-.28-.36-.41-.63-.36-5.65,1.11-11.3,2.21-16.94,3.32-1.56.31-3.13.61-4.69.92-.27.05-.43.38-.36.63.08.28.36.41.63.36Z"/>
  <g>
    <path class="cls-1" d="m105.48,82.89s0,.02,0,0c0-.02.01-.04,0,0Z"/>
    <path class="cls-1" d="m103.83,89.44c-.29.06-.57.11-.86.17.04.37.09.73.15,1.09.24-.42.47-.84.71-1.25Z"/>
    <path class="cls-1" d="m80.49,93.99c-.06-.31-.15-.61-.24-.91-.34.06-.68.13-1.01.2.42.24.84.47,1.25.71Z"/>
    <path class="cls-1" d="m78.09,93.09s.01.02.02.03c-.01-.03-.02-.04-.02-.03Z"/>
    <path class="cls-1" d="m56.01,30.13s-.01.06-.02.09c0,.02,0,0,.02-.09Z"/>
    <path class="cls-1" d="m55.64,31.54s-.01.03-.02.05c.04-.1.05-.11.02-.05Z"/>
    <path class="cls-1" d="m72.15,85.87c-.06-.2-.13-.39-.19-.59-.17-.05-.34-.09-.52-.13.24.24.47.47.71.71Z"/>
    <path class="cls-1" d="m55,32.63s0,0,0,0c0,0,0,0,0,0-.07.09-.07.09,0,0Z"/>
    <path class="cls-1" d="m53.92,33.7s-.03.03-.05.04c.04-.03.05-.04.05-.04Z"/>
    <path class="cls-1" d="m72.44,87.6s.03.01.05.02c-.05-.02-.06-.03-.05-.02Z"/>
    <path class="cls-1" d="m54.74,35.61c.23-.17.46-.34.68-.53-.07-.21-.14-.42-.21-.63-.16.38-.31.77-.47,1.15Z"/>
    <path class="cls-1" d="m83.06,27.86s0-.01,0-.02c-.04-.1,0,0,0,.02Z"/>
    <path class="cls-1" d="m84.41,30.18s-.02-.02-.02-.03c.01.01.08.1.02.03Z"/>
    <path class="cls-1" d="m55.98,28.21s0,.04,0,.06c0,0,0,0,0-.06Z"/>
    <path class="cls-1" d="m56,30.21s.01-.06.02-.09c-.01.09-.02.11-.02.09-.01.08-.03.17-.04.25-.04.22-.1.44-.17.65-.03.11-.07.21-.11.31-.01.04-.03.07-.04.11.03-.07.03-.06-.02.05,0-.02.01-.03.02-.05,0,0,0,.02-.01.03-.09.19-.18.37-.29.55-.11.18-.22.35-.34.52,0,0,0,0,0,0-.07.1-.07.1,0,0,0,0,0,0,0,0-.03.04-.07.08-.1.13-.07.09-.15.17-.23.26-.16.17-.33.33-.51.49-.08.07-.16.13-.23.19,0,0,0,0-.05.04.02-.01.03-.03.05-.04-.02.01-.19.14-.21.16-.36.25-.62.7-.47,1.15,1.24,3.76,2.48,7.51,3.71,11.27,1.45,4.39,2.89,8.78,4.34,13.18,1.47,4.45,2.93,8.89,4.4,13.34,1.29,3.92,2.58,7.84,3.87,11.76.14.42.28.84.42,1.26.07.2.13.41.2.61.19.53.57.67,1.06.79.24.06.47.13.71.21.12.04.24.08.36.13.04.02.08.03.13.05-.01,0,0,0,.05.02-.02,0-.03-.01-.05-.02.02,0,.08.03.12.05.48.22.95.47,1.4.75.5.31.83.55,1.21.87.44.37.85.77,1.24,1.2.08.09.16.18.24.28.06.07.21.26.22.26.1.13.33.45.46.66.29.45.56.93.76,1.42,0,0,0,0,.02.03,0-.01-.01-.02-.02-.03,0,.02.09.25.1.27.05.13.09.26.13.39.08.26.15.52.2.79.12.57.74.82,1.25.71,6.39-1.28,12.89-1.92,19.33-2.92,1.76-.27,3.52-.57,5.27-.92.58-.12.79-.74.71-1.25-.21-1.42-.33-2.95-.23-4.42.02-.34.05-.62.09-.84.05-.32.12-.64.2-.95.08-.32.18-.64.3-.94,0,0,.03-.08.04-.11,0,.02-.01.03,0,0,.01-.03,0-.02,0,0,.02-.04.07-.15.07-.16.07-.15.15-.3.23-.45,0-.01,0-.02.01-.03-.14.24-.37.43-.62.5-.56.15-1.07-.19-1.25-.71-.04-.11-.08-.23-.12-.34-1.16,2.45-1.15,5.25-.83,7.92.29-.06.57-.11.86-.17-.24.42-.47.84-.71,1.25-.05-.36-.1-.72-.15-1.09-6.11,1.17-12.32,1.8-18.47,2.75-1.42.22-2.84.46-4.25.73.09.3.18.6.24.91-.42-.24-.84-.47-1.25-.71.34-.07.68-.13,1.01-.2-.59-1.86-1.76-3.53-3.17-4.85-1.44-1.34-3.2-2.44-5.12-2.95.06.2.13.39.19.59-.24-.24-.47-.47-.71-.71.17.04.35.08.52.13-.93-2.81-1.85-5.62-2.78-8.44-1.15-3.5-2.31-7.01-3.46-10.51-1.21-3.66-2.42-7.33-3.62-10.99-1.17-3.54-2.34-7.09-3.5-10.63-1.02-3.09-2.03-6.17-3.05-9.26-.04-.12-.08-.25-.12-.37-.22.18-.44.36-.68.53.16-.38.31-.77.47-1.15.07.21.14.42.21.63,1.09-.92,1.93-2.07,2.36-3.47.52-1.7.36-3.55-.09-5.24-.18-.66-.4-1.32-.66-1.95-.53-.02-1.05-.03-1.58-.05.29-.51.59-1.02.88-1.53.25.52.48,1.05.7,1.58,6.13.2,12.24.58,18.34,1.15,1.67.16,3.35.33,5.02.5-.05-.22-.09-.44-.12-.66.33.25.66.5.98.75-.29-.03-.57-.06-.86-.09.39,1.89,1.16,3.7,2.34,5.24,1.24,1.63,2.83,2.91,4.61,3.9-.05-.14-.1-.29-.15-.43.16.2.31.41.47.61-.11-.06-.21-.12-.32-.18,2.09,5.91,4.19,11.83,6.28,17.74,2.28,6.44,4.56,12.87,6.84,19.31,1.11,3.14,2.22,6.28,3.34,9.42.07-.15.14-.3.22-.45.26-.49.93-.64,1.4-.37.48.28.62.88.38,1.36.13-.23.18-.5.09-.75-1.32-3.72-2.63-7.43-3.95-11.15-1.46-4.12-2.92-8.24-4.38-12.36-1.45-4.11-2.91-8.21-4.36-12.32-1.33-3.74-2.65-7.49-3.98-11.23-.13-.38-.3-.67-.67-.87-.22-.12-.44-.24-.66-.37-.4-.24-.78-.49-1.16-.76-.07-.05-.13-.1-.2-.15,0,0-.01,0-.04-.03.01,0,.03.02.04.03.02.01-.15-.11-.17-.14-.17-.14-.35-.29-.51-.44-.33-.3-.65-.61-.94-.94-.14-.15-.27-.31-.4-.47-.03-.04-.06-.08-.09-.12.05.07-.01-.02-.02-.03,0,.01.02.02.02.03,0,0,0,0,0-.01-.08-.1-.15-.2-.22-.31-.26-.37-.49-.75-.7-1.14-.1-.19-.19-.37-.28-.56-.05-.1-.1-.21-.14-.31,0,0,0,0,0,0,0,0,0,.01,0,.02,0-.02-.05-.12,0-.02-.02-.05-.04-.11-.07-.16-.17-.44-.32-.89-.44-1.35-.13-.48-.23-.97-.31-1.46-.08-.47-.57-.71-.98-.75-6.54-.67-13.08-1.27-19.65-1.57-2.05-.09-4.1-.16-6.16-.22-.83-.02-1.2.87-.88,1.53.51,1.06.93,2.14,1.22,3.31.07.27.12.54.17.81,0,.03.04.25.04.28,0-.02,0-.04,0-.06,0,.05,0,.07,0,.06.01.11.02.22.03.33.04.47.04.95,0,1.42,0,.03-.02.17-.02.21Z"/>
    <path class="cls-1" d="m86.53,32.28s-.03-.02-.04-.03c.02.02.03.03.04.03Z"/>
    <path class="cls-1" d="m87.19,34.78c.05.14.1.29.15.43.11.06.21.12.32.18-.16-.2-.31-.41-.47-.61Z"/>
    <path class="cls-1" d="m80.26,25.4c.04.22.08.44.12.66.29.03.57.06.86.09-.33-.25-.66-.5-.98-.75Z"/>
    <path class="cls-1" d="m105.41,80.88c-.46-.27-1.13-.12-1.4.37-.08.15-.15.3-.22.45.04.11.08.23.12.34.18.52.7.87,1.25.71.26-.07.49-.26.62-.5.24-.48.1-1.09-.38-1.36Z"/>
    <path class="cls-1" d="m55.44,24.37c.53.01,1.05.03,1.58.05-.21-.54-.45-1.06-.7-1.58-.29.51-.59,1.02-.88,1.53Z"/>
  </g>
  <g>
    <path class="cls-1" d="m74.32,93.13c-.06-.25-.13-.49-.19-.74-.26,0-.53,0-.79,0,.33.25.66.5.98.75Z"/>
    <path class="cls-1" d="m73.34,94.43c.82,0,1.63.01,2.45.02.53,0,1.04-.47,1.02-1.02-.02-.56-.45-1.01-1.02-1.02-.55,0-1.11,0-1.66-.01.06.25.13.49.19.74-.33-.25-.66-.5-.98-.75.26,0,.53,0,.79,0-.23-.91-.47-1.82-.7-2.73-.13-.52-.74-.88-1.25-.71-.53.17-.86.7-.71,1.25.3,1.16.6,2.31.89,3.47.11.44.54.74.98.75Z"/>
  </g>
  <g>
    <path class="cls-1" d="m108.06,87.76c-.45.06-.9.12-1.35.18.12.37.24.74.37,1.11l.98-1.29Z"/>
    <path class="cls-1" d="m105.91,88.25c-.18.18-.31.47-.3.72.01.26.1.54.3.72.18.17.46.33.72.3.48-.06.96-.13,1.43-.19.18,0,.36-.05.51-.14.12-.06.21-.15.29-.26.19-.25.28-.58.18-.89-.34-1.02-.67-2.04-1.01-3.06-.17-.51-.71-.89-1.25-.71-.5.16-.89.71-.71,1.25.21.65.43,1.3.64,1.95.45-.06.9-.12,1.35-.18l-.98,1.29c-.12-.37-.24-.74-.37-1.11-.03,0-.06,0-.08.01-.28.04-.51.09-.72.3Z"/>
  </g>
  <g>
    <path class="cls-1" d="m50.64,25.53c.45,0,.9,0,1.36-.01-.12-.43-.25-.85-.37-1.28-.33.43-.66.86-.98,1.29Z"/>
    <path class="cls-1" d="m53.1,24.49c-.02-.55-.45-1.03-1.02-1.02-.48,0-.96.01-1.45.02-.65,0-1.17.65-.98,1.29.54,1.83,1.07,3.67,1.61,5.5.15.51.72.88,1.25.71.52-.17.87-.71.71-1.25-.41-1.41-.83-2.82-1.24-4.23-.45,0-.9,0-1.36.01.33-.43.66-.86.98-1.29.12.43.25.85.37,1.28.03,0,.06,0,.09,0,.53,0,1.04-.46,1.02-1.02Z"/>
  </g>
  <g>
    <path class="cls-1" d="m84.67,26.43c-.07-.21-.14-.42-.2-.62.24.24.47.47.71.71-.17-.03-.34-.06-.51-.09l1.03,3.13c.17.51.71.89,1.25.71.51-.16.89-.71.71-1.25-.41-1.25-.82-2.5-1.23-3.75-.1-.32-.36-.65-.71-.71l-1.81-.32c-.28-.05-.54-.04-.79.1-.21.12-.41.37-.47.61-.11.5.15,1.16.71,1.25.43.08.87.15,1.3.23Z"/>
    <path class="cls-1" d="m84.47,25.81c.07.21.14.42.2.62.17.03.34.06.51.09-.24-.24-.47-.47-.71-.71Z"/>
  </g>
  <g>
    <path class="cls-1" d="m59.37,27.54s.02.05.04.08c-.04-.1-.05-.12-.04-.08Z"/>
    <path class="cls-1" d="m59.83,29.26s0,.03,0,.05c-.02-.16-.01-.13,0-.05Z"/>
    <path class="cls-1" d="m59.35,32.88s0,.02-.01.03c0,.01-.01.03-.02.04.05-.11.06-.13.03-.07Z"/>
    <path class="cls-1" d="m58.35,34.54c-.34.41-.43,1.05,0,1.44.38.35,1.08.44,1.44,0,2.22-2.66,2.73-6.38,1.31-9.53-.22-.49-.97-.64-1.4-.37-.51.33-.6.87-.37,1.4,0,.02.02.04.03.06-.02-.04,0-.02.04.08-.01-.03-.02-.05-.04-.08,0,.01.01.03.02.05.03.07.06.14.08.22.06.17.11.34.16.52.08.3.16.62.2.93,0-.08,0-.11,0,.05,0-.02,0-.03,0-.05,0,.06.01.14.01.16,0,.08.01.15.02.23.01.18.02.36.01.54,0,.18,0,.36-.02.54,0,.08-.01.15-.02.23,0,.03-.04.31-.02.18.01-.06.02-.09,0-.01,0,0,0,0,0,.01-.01.06-.03.14-.03.16-.01.08-.03.15-.04.23-.04.18-.08.35-.13.53-.05.17-.1.35-.16.52-.03.07-.05.15-.08.22-.01.03-.03.07-.04.1,0,0,0-.02.01-.03.03-.07.02-.05-.03.07,0-.01.01-.03.02-.04-.14.31-.29.61-.47.9-.09.15-.19.31-.3.45-.04.05-.09.14-.14.19.19-.16-.04.05-.08.1Z"/>
    <path class="cls-1" d="m59.82,31.15s0,0,0-.01c.01-.08,0-.05,0,.01Z"/>
  </g>
  <g>
    <path class="cls-1" d="m83.14,33.56c-.08-.04-.16-.07-.23-.11-.14-.07-.29-.15-.42-.24-.13-.08-.25-.16-.38-.24-.06-.04-.12-.09-.18-.13,0,0-.01,0-.02-.01.16.13-.16-.11,0,0,0,0,0,0-.01-.01-.24-.2-.47-.41-.69-.63-.11-.12-.22-.24-.32-.36-.05-.05-.1-.11-.14-.17.05.08.07.12,0,0,0,0,0,0,0,0,0-.01-.02-.02-.02-.03-.18-.24-.34-.49-.48-.75-.08-.14-.15-.28-.22-.43-.03-.06-.06-.13-.09-.2,0,.02.02.04.03.06-.05-.12-.06-.14-.03-.07,0,0,0,0,0,0,0-.02-.02-.05-.03-.07-.11-.28-.2-.56-.27-.85-.04-.14-.07-.29-.09-.44,0-.01-.01-.07-.02-.12,0,.02,0,.01,0-.04-.02-.1,0-.03,0,.04,0-.03-.02-.18-.02-.2-.05-.53-.43-1.05-1.02-1.02-.51.02-1.07.45-1.02,1.02.14,1.49.66,2.94,1.56,4.15.95,1.27,2.16,2.22,3.63,2.83.49.21,1.14-.22,1.25-.71.14-.6-.18-1.04-.71-1.25.24.1.02,0-.03-.02Z"/>
    <path class="cls-1" d="m81.91,32.82c-.16-.11.16.13,0,0h0Z"/>
    <path class="cls-1" d="m80.75,31.65s0,0,0,0c.07.12.05.08,0,0Z"/>
    <path class="cls-1" d="m79.95,30.31s-.02-.04-.03-.06c0,0,0,0,0,0-.03-.07-.02-.05.03.07Z"/>
    <path class="cls-1" d="m79.5,28.72c0,.05,0,.06,0,.04-.01-.08-.02-.14,0-.04Z"/>
  </g>
  <g>
    <path class="cls-1" d="m77.65,86.9s0,.01.01.02c-.1-.16-.06-.08-.01-.02Z"/>
    <path class="cls-1" d="m76.48,85.73c.16.12-.15-.13,0,0h0Z"/>
    <path class="cls-1" d="m75.04,84.89c.08.03.21.06,0,0h0Z"/>
    <path class="cls-1" d="m75.21,84.96c.26.12.52.26.76.41.11.07.21.14.31.21.06.04.12.09.18.13,0,0,.01,0,.02.01-.15-.13.16.12,0,0,0,0,0,0,.02.01.4.33.86.71,1.15,1.16-.04-.06-.09-.14.01.02,0,0,0-.01-.01-.02.01.02.03.04.04.05.04.06.09.12.13.19.07.1.14.21.2.32.16.26.29.53.41.8.21.49.97.64,1.4.37.51-.33.6-.87.37-1.4-1.04-2.37-3.34-4.19-5.88-4.67-.52-.1-1.13.15-1.25.71-.11.5.15,1.15.71,1.25.28.05.56.12.84.21.13.04.26.09.39.14,0,0,.02,0,.03.01.21.06.08.03,0,0t0,0c.06.02.12.05.17.08Z"/>
  </g>
  <g>
    <path class="cls-1" d="m101.44,80.9c.07-.18-.06.14,0,0h0Z"/>
    <path class="cls-1" d="m100.96,82.71s0-.03,0-.04c0-.05,0-.07,0,.04Z"/>
    <path class="cls-1" d="m100.94,82.91c0-.06.01-.12.02-.17,0-.03,0-.05,0-.07,0,.01,0,.03,0,.04.02-.11.01-.09,0-.04.04-.23.08-.46.13-.69.06-.24.13-.48.21-.71.04-.11.08-.22.12-.33,0-.01.01-.03.01-.04-.06.14.07-.18,0,0,0,0,0,0,0,0,.03-.07.06-.13.09-.2.22-.48.15-1.12-.37-1.4-.45-.24-1.15-.15-1.4.37-1,2.15-1.19,4.65-.39,6.91.18.5.7.89,1.25.71.49-.16.9-.72.71-1.25-.17-.47-.28-.95-.37-1.43,0-.01,0-.02,0-.03,0,.11-.02-.13,0,0,0,0,0,0,0,0,0-.06-.01-.12-.02-.17-.01-.12-.02-.23-.03-.35-.01-.26-.02-.52,0-.79,0-.12.01-.23.02-.35Z"/>
    <path class="cls-1" d="m100.97,84.57c-.02-.13,0,.11,0,0h0Z"/>
  </g>
  <g>
    <path class="cls-1" d="m77.88,75.87s-.07.04-.07.06c.02-.02.05-.04.07-.05,0,0,0,0,0,0Z"/>
    <path class="cls-1" d="m78.12,74.5s.03.04.05.07c.05.03.07.02-.05-.07Z"/>
    <path class="cls-1" d="m77.99,74.39s-.04-.02-.04-.02c.05.03.16.09.04.02Z"/>
    <path class="cls-1" d="m78.3,75.32s0,.05-.03.09c0,.05.05-.03.03-.09Z"/>
    <path class="cls-1" d="m66.33,39.45s-.03-.01-.04-.01c.01,0,.02,0,.03,0-.04-.02-.08-.05-.11-.07,0,0,.02.01.02.02.1.1-.04,0-.07-.04,0,.03-.09-.09-.08-.09-.02-.05-.04-.11,0-.04,0,0,0,0,0-.01-.16-.51-.71-.89-1.25-.71-.51.16-.89.71-.71,1.25.39,1.19,1.61,1.93,2.85,1.8.65-.06,1.25-.29,1.73-.74.51-.47.76-1.14.83-1.81.13-1.24-.56-2.56-1.64-3.19-1.24-.72-2.84-.58-4.03.15-1.2.73-1.98,2.04-2.26,3.39-.32,1.55-.08,3.13.34,4.64.68,2.41,1.65,4.79,2.98,6.92,1.34,2.14,3.07,4.05,5.21,5.41.09-.24.18-.47.28-.71.16.38.31.77.47,1.15-.25-.14-.5-.29-.75-.44-1.51,4.08-1.49,8.64-.38,12.82.29,1.08.65,2.14,1.08,3.17.46,1.09.95,2.2,1.62,3.18.73,1.08,1.66,1.97,2.88,2.45,1.11.44,2.42.4,3.45-.24,1.14-.71,1.93-2.12,1.5-3.47-.43-1.36-1.85-2.34-3.28-1.96-.52.14-.88.74-.71,1.25.17.53.7.86,1.25.71,0,0,.03,0,.06-.02-.1,0-.02,0,.04,0,0,0,0,0,0,0-.01,0-.03,0-.04,0h.04s.03,0,.03,0c0,0-.01,0-.02,0,0,0,.01,0,.02,0,.08.01.09.01.02,0,0,0,0,0,0,0,.01,0,.07.02.11.03,0,0,0,0,0,0-.03-.02-.05-.03-.06-.03-.01,0-.01,0,0,0,.02,0,.05.02.07.04.02,0,.04.01.04.02,0,0-.02,0-.04-.02,0,0,0,0,0,0,.04.02.08.04.11.06,0,0,.01,0,.02.01,0,0,.02,0,.04.02.11.06.01,0-.04-.02-.04-.02.08.06.1.08.03.03.06.07.1.1,0,0,.02.01.02.02-.02-.03-.03-.05-.05-.07.12.09.1.1.05.07.01.02.02.04.03.05.02.03.07.09.1.15,0-.04.04.03.03.09,0-.02-.01-.06-.03-.09,0,0,0,.02,0,.05,0,0,.02.07.04.13,0-.05,0-.08,0,0,0,.04.02.07.01.07,0,0,0-.02-.01-.04,0,.04,0,.08,0,.12,0,0,0,.01,0,.02,0-.01,0-.03,0-.04.03-.13,0,.23,0,.04,0,.03-.01.06-.02.1-.01.05-.02.09-.04.13-.01.04-.02.06-.02.07.02-.04.03-.07.03-.09.02.06-.03.14-.03.09-.04.07-.11.16-.13.19,0,0-.01.02-.02.03.04-.04.06-.07,0,0-.07.08-.03.04,0,0-.02.03-.05.06-.06.07-.06.06-.12.12-.18.17,0,0,0,0,.01,0,0,0-.01,0-.02.01,0,0-.01.01-.02.02-.04.04-.05.04-.05.03-.01.01-.03.02-.03.02-.05.03-.24.1-.3.15.05-.04.14-.04.03,0-.01,0-.03,0-.04.01,0,0,0,0,0,0,0,0,0,0,0,0-.03.01-.07.02-.1.03-.05.01-.09.03-.14.04,0,0-.01,0-.03,0,0,0-.02,0-.05.01-.13.04,0,0,.05-.01.02,0-.08.02-.12.02-.05,0-.11,0-.16,0-.05,0-.11,0-.16,0-.02,0-.1,0-.15-.01.05,0,.1.01,0,0-.07,0-.05,0,0,0-.03,0-.05,0-.07-.01-.05-.01-.11-.02-.16-.04-.12-.03-.24-.07-.36-.11-.04-.01-.07-.03-.11-.04.11.06-.02,0-.05-.02.02,0,.03.01.05.02,0,0-.02,0-.03-.02-.12-.06-.25-.13-.37-.2-.1-.06-.19-.12-.28-.18,0,0,0,0-.01,0,0,0,.01.01.02.02-.03-.02-.15-.11-.02-.02-.04-.03-.07-.06-.11-.09-.2-.17-.38-.36-.55-.55-.05-.05-.09-.11-.14-.17,0,0,0,0,0,0,0,0,0,0,0,0,.09.12-.09-.1,0,0-.07-.1-.15-.21-.22-.31-.15-.22-.28-.44-.41-.67-.24-.43-.47-.87-.68-1.32-.1-.22-.21-.45-.3-.67-.02-.05-.05-.11-.07-.16.05.12,0,0-.02-.04,0,.01.01.03.02.04,0-.01,0-.02-.01-.04-.05-.13-.11-.27-.16-.4-.36-.93-.67-1.89-.92-2.86-.12-.49-.23-.99-.33-1.49-.04-.24-.09-.48-.12-.73,0-.06-.02-.11-.03-.17,0,0,0-.03,0-.06,0,.03,0,.04,0-.02-.01-.1,0-.03,0,.02,0-.05-.02-.14-.02-.14,0-.07-.02-.14-.03-.22-.11-.99-.16-1.98-.13-2.97.02-.57.06-1.15.12-1.71,0-.06.01-.11.02-.17,0-.02,0-.03,0-.05-.03.22.02-.17,0,0,0,0,0-.01,0-.02.02-.13.04-.25.06-.38.05-.28.1-.56.16-.84.23-1.11.57-2.19,1.01-3.24.17-.4-.11-.96-.47-1.15-.48-.26-.94-.55-1.38-.87-.09-.06-.18-.13-.26-.19.1.08-.02-.02-.05-.04.02.01.03.02.05.04,0,0-.01-.01-.02-.02-.06-.05-.12-.1-.18-.15-.2-.16-.39-.33-.58-.5-.4-.36-.78-.75-1.14-1.16-.16-.18-.32-.37-.48-.56-.04-.05-.08-.1-.12-.15,0,0-.05-.06-.07-.1.04.05.07.09.01.02-.05-.06-.03-.05-.01-.02-.02-.03-.05-.07-.05-.07-.05-.06-.09-.13-.14-.19-.63-.87-1.19-1.79-1.68-2.74-.25-.49-.49-.99-.71-1.5-.02-.04-.04-.09-.06-.14.03.07.06.18,0-.01,0,0,0,0,0,.01,0,0,0-.02,0-.02-.05-.12-.1-.24-.15-.37-.1-.26-.2-.52-.29-.78-.41-1.13-.78-2.28-.99-3.47-.01-.08-.02-.16-.04-.24,0,0,0-.01,0-.02.02.2-.02-.12,0,0,0-.01,0-.03,0-.04-.02-.16-.03-.32-.04-.48-.02-.32-.02-.64.01-.96,0-.05,0-.1.01-.15-.01.06-.04.14,0-.06,0,.02,0,.04,0,.06,0,0,0-.02,0-.02.03-.13.05-.26.08-.4.03-.13.07-.26.11-.39.02-.08.05-.15.08-.23,0-.03.02-.05.03-.08.04-.11.04-.1,0,.02,0-.1.13-.28.18-.36.06-.12.13-.23.21-.34.01-.02.02-.03.03-.05,0,0,.02-.03.06-.08-.02.03-.04.06-.06.08-.01.02.08-.1.1-.12.09-.1.18-.19.28-.28.02-.02.04-.03.06-.05.03-.02.04-.03.05-.04,0,0,0,0-.01,0-.01.01-.03.03-.06.05,0,0,.03-.03.06-.05.02-.02.03-.02.01,0,.02-.01.04-.02.04-.03.1-.07.21-.14.33-.19.04-.02.09-.05.13-.07-.1.03.05-.02.07-.03-.02,0-.05.02-.07.03.01,0,.02,0,.04-.01.15-.05.29-.09.44-.12,0,0,.03,0,.06-.02-.01,0-.02,0-.03,0h.04s.07-.02.08-.02c-.03,0-.05,0-.08.01,0,0,0,0,0,0,.04,0,.08,0,.12-.01.12,0,.25,0,.37,0,.03,0,.07.01.11.01-.03,0-.06-.01-.08-.02.04,0,.08.01.12.02,0,0-.02,0-.04,0,.02,0,.04,0,.06.01.1.02.28.04.35.11-.04-.02-.07-.03-.11-.05.05.02.09.04.13.07.04.02.08.05.12.07,0,0,0,0,.02,0,0,0-.01-.01-.01-.02,0,0,.03.03.06.05.03.02.03.02.02.02.01.01.02.02.02.02,0,0,.11.11.17.18-.02-.04-.03-.06.02.02.02.02.03.03.03.03,0,0,0,0-.01,0,.04.06.07.11.11.17.02.04.04.08.06.12,0,0,0,0,0,0-.05-.19.09.15,0,0,0,0,0,.01,0,.02.03.11.06.23.09.34,0,0,0,0,0-.01,0-.23.06.24,0,.02,0,0,0,0,0,0,0,.06,0,.12,0,.18,0,.05,0,.1,0,.15,0-.03.01-.07.02-.1-.02.16-.03.19-.02.11,0,0,0,0,0-.01,0,0,0,.02,0,.02,0,.04-.02.08-.03.12-.01.04-.02.07-.03.11,0,0,0,0,0,0-.03.08-.03.09,0,0,0,0,0,0,0-.01,0-.12,0,0-.03.05,0,.01-.05.07-.08.11.02-.02.04-.04.05-.06-.02.03-.04.05-.06.08,0,0,.01,0,.02,0,0,0-.01,0-.02,0,0,.01-.02.02-.02.03,0,0,0-.01.01-.03,0,0-.01,0-.02,0-.05.05-.11.06-.06.03-.06.03-.11.06-.15.09.02,0,.04-.01.06-.02.15-.04-.07.03-.09.04,0,0,.02-.01.03-.02-.03.01-.07.02-.1.03-.01,0-.02,0-.03,0-.01,0-.04.01-.08.01-.02,0-.04,0-.06.01.01,0,.02,0,.04-.01-.06,0-.11,0-.17,0,.03,0,0,.02-.06,0-.01,0-.02,0-.04,0-.02,0-.05,0-.07,0,.02,0,.04,0,.05,0-.05-.01-.09-.02-.14-.03,0,0-.01,0-.02,0-.02,0-.04-.01-.07-.02,0,0,0,0,0,0Z"/>
    <path class="cls-1" d="m67.28,39.37s.02-.02.02-.03c0,0,0,0-.01,0,0,.01-.01.02-.01.03Z"/>
    <path class="cls-1" d="m78.12,75.64c.06-.08.03-.05,0,0-.03.04-.07.09,0,0Z"/>
    <path class="cls-1" d="m78.36,75.06s0,.03,0,.04c.02.19.04-.17,0-.04Z"/>
    <path class="cls-1" d="m78.3,74.76s.04.07.03.09c0-.07-.03-.14-.03-.09Z"/>
    <path class="cls-1" d="m66.67,39.53s-.05,0-.11,0c0,0,0,0,.01,0,.03,0,.06,0,.09,0Z"/>
    <path class="cls-1" d="m78.34,74.94s0,0,0,0c0,0,0,.02,0,.03,0,0,0-.01,0-.02,0,0,0,0,0,0Z"/>
    <polygon class="cls-1" points="77.65 74.25 77.64 74.25 77.64 74.25 77.64 74.25 77.65 74.25"/>
    <path class="cls-1" d="m66.15,39.35s0,0,.04.02c0,0,0,0,.01,0-.02-.02-.05-.05-.07-.07,0,0,0,0,0,0,0,0,0,.01.01.02,0,.02.01.02.01.03Z"/>
    <path class="cls-1" d="m66.08,39.27s.09.13.08.09c0,0,0,0,0,0,0,0,0-.02-.01-.03,0,0,0-.01-.01-.02-.01-.01-.02-.02-.03-.02.01.05,0,.03-.02-.01Z"/>
    <path class="cls-1" d="m66.08,39.27s0,0,.02.01c0-.01,0-.03-.01-.05-.04-.07-.03,0,0,.04Z"/>
    <path class="cls-1" d="m66.13,39.3s-.03-.05-.04-.07c0,0,0,0,0,0,0,.02.01.04.01.05,0,0,.02.01.03.02Z"/>
    <path class="cls-1" d="m66.1,39.28s-.02-.01-.02-.01c.02.04.03.06.02.01Z"/>
    <path class="cls-1" d="m66.15,39.35s0,0,0,0c.03.03.17.13.07.04,0,0-.02-.01-.02-.02,0,0,0,0-.01,0-.03-.02-.04-.02-.04-.02Z"/>
    <path class="cls-1" d="m66.15,39.35s0,0,0,0c0,0,0,0,0,0Z"/>
    <path class="cls-1" d="m77.63,74.25s-.03,0-.04,0c.01,0,.02,0,.04,0,.01,0,.02,0,.03,0,0,0,.01,0,.02,0-.02,0-.03,0-.05-.01,0,0,0,0,0,0Z"/>
    <path class="cls-1" d="m66.86,39.53s.05-.01.08-.01c.03-.01,0-.02-.1.02,0,0,0,0,0,0,0,0,0,0,.01,0Z"/>
    <path class="cls-1" d="m70.4,55.64c-.1.23-.19.47-.28.71.24.15.49.3.75.44-.16-.38-.31-.77-.47-1.15Z"/>
    <path class="cls-1" d="m66.32,39.45s0,0,.01,0c.02,0,.05.02.07.03.05,0,.05-.02-.09-.03Z"/>
    <path class="cls-1" d="m77.67,74.25s-.01,0-.02,0c0,0,0,0,0,0,.02,0,.03,0,.05.01.07,0,.06,0-.02,0Z"/>
    <path class="cls-1" d="m77.6,74.24s.03,0,.04,0c0,0,0,0,0,0h-.04Z"/>
    <path class="cls-1" d="m77.6,74.26s.03,0,.04,0c-.05,0-.14.01-.04,0Z"/>
    <path class="cls-1" d="m77.75,74.25s.02.01.06.03c0,0,0,0,0,0,0,0,0,0,0,0-.03-.01-.06-.03-.07-.04Z"/>
    <path class="cls-1" d="m66.39,37.41s-.08-.01-.12-.02c.03,0,.06.01.08.02.02,0,.03,0,.04,0Z"/>
    <path class="cls-1" d="m64.22,38.35s.04-.06.06-.08c-.04.05-.06.08-.06.08Z"/>
    <path class="cls-1" d="m67.28,39.35s-.05.03-.07.03c.02-.01.04-.02.06-.03,0,0,0,0,0,0Z"/>
    <path class="cls-1" d="m64.69,37.86s0,0,.01,0c.01,0,0,0-.01,0Z"/>
    <path class="cls-1" d="m77.48,76.11s0,0-.01.01c0,0,0,0,0,0,0,0,0,0,.01-.01Z"/>
    <path class="cls-1" d="m65.21,37.56s.05-.02.07-.03c-.03,0-.17.06-.07.03Z"/>
    <path class="cls-1" d="m65.72,37.41s.02,0,.03,0c0,0,0,0,0,0h-.04Z"/>
    <path class="cls-1" d="m66.93,37.63s.05.04.07.05c0,0-.01-.01-.02-.02-.01,0-.03-.02-.05-.03Z"/>
    <path class="cls-1" d="m67.49,38.57s0,0,0,.01c0,0,0,0,0,0,.06.22,0-.24,0-.02Z"/>
    <path class="cls-1" d="m67.51,38.8s-.01.07-.02.1c0,0,0,0,0,.01,0,.08,0,.04.02-.11Z"/>
    <path class="cls-1" d="m67.31,39.34s.04-.05.06-.08c-.02.02-.04.04-.05.06,0,0-.01.02-.02.02,0,0,0,0,.01,0Z"/>
    <path class="cls-1" d="m67.42,39.16s0,0,0,0c0,0,0,0,0,.01-.03.08-.03.08,0,0Z"/>
    <path class="cls-1" d="m67.39,38.22c.09.15-.05-.19,0,0h0Z"/>
    <path class="cls-1" d="m67.21,37.89s-.01-.02-.02-.02c.01.02.03.05.04.05,0,0,0-.01-.01-.02,0,0,0,0,0-.01Z"/>
    <path class="cls-1" d="m67.3,39.35s0,0,.01,0c0,0,0,0,0,0,0,0,0,0-.01,0,0,0,0,0,0,0Z"/>
    <path class="cls-1" d="m67.31,39.32s-.01.02-.02.02c0,0,0,0,0,0,0,0,0,0,.01,0,0,0,.01-.02.02-.02Z"/>
    <path class="cls-1" d="m75.92,76.02s-.03-.01-.05-.02c.03.01.16.07.05.02Z"/>
    <path class="cls-1" d="m75.25,75.63s-.01-.01-.02-.02c-.13-.09,0,0,.02.02Z"/>
    <path class="cls-1" d="m74.43,74.81s0,0,0,0c-.08-.09.09.13,0,0Z"/>
    <path class="cls-1" d="m76.6,76.22c.09,0,.05,0,0,0-.05,0-.07,0,0,0Z"/>
    <path class="cls-1" d="m72.74,71.67s-.01-.03-.02-.04c.01.03.06.16.02.04Z"/>
    <path class="cls-1" d="m67.13,39.46s-.04.01-.06.02c0,0-.02.02-.03.02.01-.01.24-.08.09-.04Z"/>
    <path class="cls-1" d="m77.14,76.21s.05-.01.05-.01c-.06.02-.18.05-.05.01Z"/>
    <path class="cls-1" d="m67.66,51.34c.06.08.03.03-.01-.02-.02-.03-.04-.04.01.02Z"/>
    <path class="cls-1" d="m65.01,46.69s0,0,0-.01c.07.19.03.08,0,.01Z"/>
    <path class="cls-1" d="m63.51,40.18s0-.04,0-.06c-.04.19-.02.11,0,.06Z"/>
    <path class="cls-1" d="m63.53,41.8c-.02-.12.02.2,0,0h0Z"/>
    <path class="cls-1" d="m70.25,53.96s-.03-.02-.05-.04c.02.02.15.12.05.04Z"/>
    <path class="cls-1" d="m71.16,65.91c0,.07,0,.06,0,.02,0-.06-.02-.12,0-.02Z"/>
    <path class="cls-1" d="m71.13,60.66c.02-.17-.03.22,0,0h0Z"/>
  </g>
  <g>
    <polygon class="cls-1" points="82.13 39.78 82.14 39.79 82.14 39.79 82.14 39.78 82.13 39.78"/>
    <path class="cls-1" d="m82.05,39.76s-.04.01-.06.02c.03,0,.07,0,.1-.01,0,0,0,0,0,0-.01,0-.02,0-.03,0Z"/>
    <polygon class="cls-1" points="82.09 39.77 82.1 39.77 82.1 39.77 82.09 39.77"/>
    <path class="cls-1" d="m82.1,39.77s0,0,0,0c.01,0,.03,0,.05.01,0,0,0,0,0,0-.01,0-.02,0-.04,0Z"/>
    <polygon class="cls-1" points="82.11 39.76 82.12 39.76 82.11 39.76 82.11 39.76 82.11 39.76"/>
    <path class="cls-1" d="m82.13,39.76s0,0-.01,0c0,0,0,0,0,0,0,0,0,0,0,0Z"/>
    <path class="cls-1" d="m82.11,39.76s0,0,0,0c0,0,0,0-.01,0,0,0,0,0,0,0,0,0,0,0,.01,0Z"/>
    <path class="cls-1" d="m81.96,39.6s.11.17.07.08c0,0,0,0,0-.01-.02-.03-.05-.06-.06-.07Z"/>
    <polygon class="cls-1" points="82.12 39.77 82.13 39.76 82.12 39.76 82.12 39.77"/>
    <path class="cls-1" d="m82.14,39.78s.01,0,.02,0c0,0-.02,0-.03-.01,0,0,0,0,0,0Z"/>
    <path class="cls-1" d="m82.13,39.77s.02,0,.03.01c.03,0,.05,0,.01,0-.01,0-.03,0-.04-.01,0,0,0,0,0,0,0,0,0,0,0,0Z"/>
    <path class="cls-1" d="m82.14,39.79s.04.01.04.02c0,0-.02-.01-.03-.02,0,0-.01,0-.02,0,0,0,0,0,0,0Z"/>
    <polygon class="cls-1" points="82.1 39.76 82.11 39.76 82.11 39.76 82.11 39.76 82.11 39.76 82.1 39.76"/>
    <path class="cls-1" d="m82.13,39.78s0,0,0,0c0,0,0,0,0,0,0,0,0,0,0,0,0,0,0,0,.01.01Z"/>
    <polygon class="cls-1" points="82.12 39.77 82.12 39.77 82.12 39.77 82.12 39.77"/>
    <path class="cls-1" d="m82.12,39.77s-.01,0-.02,0c.01,0,.03,0,.04,0,0,0,0,0-.01-.01,0,0,0,0,0,0Z"/>
    <polygon class="cls-1" points="82.12 39.77 82.13 39.77 82.12 39.77 82.12 39.77 82.12 39.77"/>
    <path class="cls-1" d="m82.11,39.76s0,0,0,0c0,0-.01,0-.02,0,0,0-.01,0-.02,0,0,0,0,0-.01,0,0,0,.02,0,.03,0,0,0,0,0,0,0,0,0,.02,0,.02,0,0,0,0,0,0,0Z"/>
    <polygon class="cls-1" points="82.15 39.79 82.14 39.79 82.14 39.79 82.15 39.79"/>
    <path class="cls-1" d="m81.99,39.77s-.03.01-.02.01c.04-.02.07-.03.02-.01Z"/>
    <polygon class="cls-1" points="82.12 39.77 82.12 39.76 82.11 39.76 82.12 39.77 82.12 39.77"/>
    <path class="cls-1" d="m82.1,39.76s0,0-.01,0c0,0,.01,0,.02,0,0,0,0,0,0,0Z"/>
    <path class="cls-1" d="m82.05,39.76s-.02,0-.02,0c0,0,.01,0,.03,0,0,0,0,0,0,0,0,0,0,0-.01,0Z"/>
    <path class="cls-1" d="m82.09,39.76s0,0-.01,0c0,0,0,0,0,0,0,0,.01,0,.02,0Z"/>
    <path class="cls-1" d="m82.07,39.76s-.02,0-.02,0c0,0,0,0,.01,0,0,0,0,0,.01,0Z"/>
    <polygon class="cls-1" points="82.11 39.76 82.12 39.77 82.12 39.77 82.11 39.76 82.11 39.76 82.11 39.76"/>
    <path class="cls-1" d="m82.06,39.76s0,0,0,0c0,0,.02,0,.03,0-.01,0-.02,0-.03,0Z"/>
    <path class="cls-1" d="m82.07,39.76s0,0,0,0c0,0,0,0-.01,0-.02,0-.03,0-.02,0,0,0,.02,0,.02,0Z"/>
    <path class="cls-1" d="m81.92,39.51c.05.12.02.05,0,0,0,0,0,0,0,0-.02-.03-.06-.13,0,0Z"/>
    <path class="cls-1" d="m82.1,39.76s0,0-.01,0c0,0-.01,0-.02,0,0,0,0,0,.01,0,0,0,0,0,.01,0Z"/>
    <path class="cls-1" d="m82.11,39.76s0,0,0,0c0,0,0,0-.01,0,0,0,0,0,0,0,0,0,0,0,.01,0,0,0,0,0,0,0Z"/>
    <path class="cls-1" d="m81.95,39s0,0,0,0c.01-.02.02-.03.03-.05.03-.08,0,.01-.04.06Z"/>
    <polygon class="cls-1" points="93.92 74.35 93.92 74.36 93.91 74.36 93.92 74.35"/>
    <path class="cls-1" d="m93.53,74.59s0,0,0,0c-.01,0-.03.01-.04.02-.12.06.18-.06.05-.02Z"/>
    <path class="cls-1" d="m93.25,63.78s0,.02.01.03c-.01-.03-.08-.18-.01-.03Z"/>
    <path class="cls-1" d="m93.23,74.68s0,0,0,0c-.2.06.23,0,0,0Z"/>
    <path class="cls-1" d="m94.94,69.87s0,.04,0,.06c0,.04,0,.07,0-.06Z"/>
    <path class="cls-1" d="m93.09,74.7s-.03,0-.06-.02c-.01,0-.03,0-.04,0-.08,0-.05,0,.1.02Z"/>
    <path class="cls-1" d="m95.01,72.12s0,.04,0,.06c0,.04,0,.06,0-.06Z"/>
    <path class="cls-1" d="m94.73,73.25c.03-.08.02-.06,0-.02-.02.05-.05.12,0,.02Z"/>
    <path class="cls-1" d="m94.32,73.94c.07-.09.02-.03-.02.01-.02.03-.03.04.02-.01Z"/>
    <path class="cls-1" d="m92.06,73.4s-.01.09-.02.13c0-.03.01-.06.02-.08,0-.02,0-.04,0-.04Z"/>
    <path class="cls-1" d="m88.61,54.61c.04-.22.08-.44.12-.66-.13-.11-.25-.23-.38-.34.09.33.17.66.26.99Z"/>
    <path class="cls-1" d="m92.06,73.76s0-.02,0-.04c0,0,0-.02,0-.02-.05-.18.01.03,0,.06Z"/>
    <path class="cls-1" d="m87.95,43.14c-.3-.93-.67-1.84-1.09-2.72-.4-.84-.85-1.65-1.46-2.36-.64-.75-1.49-1.27-2.47-1.38-.85-.09-1.78.2-2.38.82-.8.83-.91,2.01-.39,3.02.21.42.58.82,1,1.04.59.3,1.16.27,1.76.02.49-.21.64-.97.37-1.4-.29-.44-.72-.56-1.18-.44,0,0,0,0,.01,0,.02,0,.02,0,.01,0,.01,0,.03,0,.04.01.03.01.02.01-.01,0,.01,0,.02.01.03.02,0,0-.02,0-.04-.02,0,0,0,0,0,0,0,0,.01.01.01.02,0,0,0-.01-.01-.02,0,0,0,0,0,0-.01,0-.03,0-.05-.01-.03,0-.07.01-.1.01-.04.01-.07.02-.11.04,0,0,.05-.02.09-.04,0,0,0,0,.02-.01.05-.02.02,0-.02.01,0,0,.01,0,.02,0,.02,0,.04-.01.06-.02-.01,0-.03,0-.03,0,0,0,.01,0,.02,0,0,0,0,0,.02,0,0,0,0,0,.01,0,0,0,.01,0,.02,0-.06-.04-.03-.03,0,0,0,0,0,0,0,0-.03-.02-.05-.04-.07-.06,0,0,0-.01-.01-.02,0,0,0,0,0,.01.04.09-.06-.08-.07-.08.02,0,.04.05.06.07-.03-.06-.07-.12-.1-.17.02.05.05.12,0,0-.06-.14-.02-.03,0,0,0,0,0,0,0,0,0,0,0-.02,0-.02,0-.02-.03-.16-.05-.2,0,0,0,0,0,0,0,.03,0,.06,0,.09,0,.1,0-.11-.01-.12,0,0,0,0,0,.01,0-.01,0-.03,0-.05,0,.02-.01.01,0-.05,0-.01,0-.02,0-.03-.02.04-.03.06,0,0,0-.03,0-.03,0-.01,0-.02.02-.03.02-.03.02-.03.04-.07.04-.07,0-.01.01-.02.02-.03,0,0,0,0,0,0,0,.01-.02.02-.02.02,0,0,0,0,.02-.02.03-.04.07-.13.04-.06,0,.02-.02.03-.03.05.03-.03.08-.08.11-.11-.03.02-.05.04-.06.04.02,0,.15-.14.08-.06,0,0,0,0-.02.02.02-.01.03-.03.04-.03.04-.03.09-.05.14-.07-.02,0-.04.01-.04.01,0,0,.19-.1.1-.04-.02.01-.04.02-.06.03.03-.01.07-.02.08-.03.04-.01.08-.02.12-.03,0,0-.01,0-.02,0,0,0,.02,0,.04,0,.01,0,.03,0,.04-.01.04-.01.06,0,.05,0,.07,0,.14,0,.21,0,0,0,.02,0,.03,0-.02,0-.03,0-.05-.01-.1-.03.11.02.11.01,0,0-.04,0-.06,0,.06.01.11.02.17.04.03,0,.05.02.08.02,0,0-.01,0-.02-.02,0,0,.02.01.03.02,0,0,0,0,0,0,.07.02.1.06.06.04.11.06.23.11.33.18,0,0,.02.01.03.02-.06-.05,0,0,.04.03.01,0,.02.02.02.02,0,0-.01-.01-.02-.02-.01,0-.03-.02-.04-.03,0,0,.02.02.04.03.07.06.13.12.2.19.12.12.23.25.34.38-.15-.18.02.04.06.08.06.09.12.18.18.27.42.65.76,1.36,1.07,2.07.02.04.03.08.05.12,0,0,0,0,0,0,0,0,0,0,0,0-.06-.14.06.13,0,0,.03.08.06.16.1.24.08.2.16.41.23.61.14.37.26.75.37,1.12.23.77.42,1.56.57,2.36.04.2.07.41.1.61.01.09.03.18.04.26,0,0,0,.02,0,.03,0-.04,0-.06,0,0,.01.09,0,.03,0,0,0,.05.02.12.02.14.05.4.08.79.11,1.19.06.91.06,1.83,0,2.75-.03.46-.07.91-.13,1.37,0,0,0,0,0,.02,0-.03,0-.04,0,.02-.01.1,0,.02,0-.02,0,.04-.02.13-.02.15-.02.12-.04.23-.05.35-.04.23-.08.46-.13.7-.07.34-.02.75.26.99.68.58,1.33,1.2,1.94,1.86.31.33.6.67.89,1.02.12.14.23.29.35.44,0,0,.02.02.05.06-.02-.02-.03-.04-.05-.06-.01-.02.11.14.14.18.08.11.16.21.24.32,1.08,1.49,2,3.1,2.73,4.79.02.04.04.08.05.12-.06-.15,0,0,.01.03,0,0,0-.02-.01-.03,0,0,0,0,0,.01.04.1.08.2.12.3.09.23.18.46.27.69.16.44.31.88.45,1.33.28.9.5,1.81.68,2.73.04.22.08.44.12.65.02.12.04.24.06.36,0,.01,0,.04,0,.07,0-.02,0-.04,0-.06.02.13.01.1,0,.06,0,.06.01.12.02.18.06.53.09,1.06.07,1.59,0,.14-.02.28-.03.42,0,.01,0,.04,0,.07,0-.02,0-.04,0-.06-.02.13-.01.1,0,.06,0,.04-.01.08-.02.12-.04.25-.1.51-.19.75-.02.05-.03.1-.05.14,0,0,0,.02-.01.04.02-.04.03-.06,0,.02-.04.1-.02.03,0-.02-.02.04-.05.1-.05.11-.02.05-.05.09-.07.14-.05.09-.1.18-.15.26-.03.04-.05.08-.08.13,0,.01-.05.06-.07.09.04-.04.08-.1.02-.01-.05.06-.04.05-.02.01,0,.01-.02.02-.02.03-.04.05-.08.09-.12.14-.08.08-.16.16-.25.23,0,0,0,0,0,0,0,0,.01,0,.01,0,0,0,0,0-.01,0,0,0,0,0,0,0,0,0,0,0-.01.01-.12.11-.03.02.01-.01,0,0,0,0,0,0-.04.02-.14.1-.16.11-.08.05-.16.09-.24.13,0,0,0,0,0,0,.13-.04-.17.09-.05.02.01,0,.03-.01.04-.02-.05.01-.1.04-.16.05-.04.01-.09.02-.13.03,0,0,0,0,0,0,0,0,0,0,0,0,.23,0-.21.06,0,0-.04,0-.09,0-.13,0-.02,0-.04,0-.06,0,.03,0,.06.02.06.02-.15-.02-.18-.02-.1-.02.01,0,.03,0,.04,0-.08-.02-.21-.05-.23-.06.02,0,.03.02.05.03.12.06-.18-.05-.05-.03,0,0,0,0,0,0-.03-.02-.07-.03-.1-.05-.04-.02-.08-.05-.12-.07,0,0-.01-.01-.02-.02,0,0,0,0,0,0-.11-.08-.13-.1-.07-.05.02.02.04.03.06.04-.03-.07-.2-.19-.25-.24-.01-.01-.02-.02-.03-.03.02.03.03.05.05.07-.09-.06-.1-.1-.05-.07-.02-.03-.03-.06-.04-.08-.03-.05-.08-.12-.11-.19,0,.04-.02.04-.03-.1,0,.03.02.06.03.1,0-.01,0-.03,0-.05-.02-.06-.03-.12-.05-.18,0,.01,0,.03,0,.04,0-.03-.05-.24,0-.06,0,0,0,.02,0,.02,0-.05-.01-.14-.01-.17,0-.02,0-.06,0-.1,0,.03-.01.06-.02.08,0-.04.01-.09.02-.13,0,0,0,.02,0,.04,0-.02,0-.04.01-.06.12-.52-.16-1.13-.71-1.25-.52-.12-1.12.16-1.25.71-.27,1.12.13,2.33,1.01,3.08.43.37.94.66,1.5.74.63.09,1.21,0,1.8-.25.94-.4,1.68-1.27,2.1-2.19.52-1.15.64-2.41.54-3.66-.17-2.14-.7-4.28-1.43-6.29-.71-1.95-1.63-3.82-2.78-5.55-1.16-1.76-2.54-3.38-4.12-4.78-.04.22-.08.44-.12.66-.09-.33-.17-.66-.26-.99.13.11.25.22.38.34.6-3.6.35-7.34-.78-10.81Z"/>
    <path class="cls-1" d="m92.33,74.28s-.04-.04-.05-.07c-.04-.03-.04,0,.05.07Z"/>
    <path class="cls-1" d="m92.12,73.95s-.03-.07-.03-.1c.02.14.04.14.03.1Z"/>
    <path class="cls-1" d="m92.56,74.49s0,0,0,0c-.02-.01-.04-.03-.06-.04-.06-.04-.04-.03.07.05Z"/>
    <path class="cls-1" d="m92.85,74.65s-.03-.02-.05-.03c0,0,0,0,0,0-.13-.02.17.09.05.03Z"/>
    <path class="cls-1" d="m83.05,38.78s.05.04.07.04c-.02-.01-.04-.03-.06-.04,0,0,0,0,0,0Z"/>
    <path class="cls-1" d="m82.2,38.8s.02,0,.04-.01c.02,0,.04-.02.06-.03.09-.05-.09.05-.1.04Z"/>
    <path class="cls-1" d="m81.87,39.15s0,.02,0,.03c0,.06,0,.07,0,.05,0-.03,0-.07,0-.09,0,0,0,0,0,.01Z"/>
    <path class="cls-1" d="m81.87,39.23s.05-.16.03-.13c0,.01-.01.03-.02.04,0,.02,0,.06,0,.09Z"/>
    <path class="cls-1" d="m82,38.93s.04-.02.06-.04c.01-.01.02-.02.02-.02.06-.08-.07.06-.08.06Z"/>
    <path class="cls-1" d="m81.87,39.14s.01-.03.02-.04c0,0-.01.02-.02.03,0,0,0,0,0,0Z"/>
    <path class="cls-1" d="m81.87,39.15s0,0,0,0c-.04.07-.02.05,0,0Z"/>
    <path class="cls-1" d="m81.87,39.13s0-.02,0,.01c0,0,0,0,0,0,0,0,0,0,0,0Z"/>
    <path class="cls-1" d="m81.87,39.13s0,0,0,0c0,0,0,0,0,0,0,0,0,0,0,0,0,0,0,0,0-.01,0,0,0,0,0,0Z"/>
    <path class="cls-1" d="m86.84,47.42c0-.07,0-.05,0,0,0,.04.01.1,0,0Z"/>
    <path class="cls-1" d="m90.09,58.37s.03.04.05.06c-.03-.04-.05-.06-.05-.06Z"/>
    <path class="cls-1" d="m85.42,42.17s0,0,0,0c.06.13-.06-.15,0,0Z"/>
    <path class="cls-1" d="m86.84,52.89c0-.06,0-.05,0-.02,0,.04-.02.13,0,.02Z"/>
    <path class="cls-1" d="m82.46,38.72s-.01,0-.02,0c.06.02.11,0,.12-.02,0,0,0,0-.01,0-.02,0-.06,0-.09.01Z"/>
    <path class="cls-1" d="m82.87,38.72s-.21-.04-.11-.01c.02,0,.03,0,.05.01.03,0,.05,0,.06,0Z"/>
    <path class="cls-1" d="m81.87,39.39s0-.06,0-.09c0,0,0,0,0,0,0,0,0-.01,0-.01,0,0,0,.22.01.12Z"/>
    <path class="cls-1" d="m83.48,39.02s.03.02.04.03c-.04-.03-.1-.08-.04-.03Z"/>
  </g>
</svg>