<?xml version="1.0" encoding="UTF-8"?>
<svg id="Capa_1" data-name="Capa 1" xmlns="http://www.w3.org/2000/svg" width="152.64" height="119.38" viewBox="0 0 152.64 119.38">
  <defs>
    <style>
      .cls-1 {
        fill: #8b0000;
      }

      .cls-1, .cls-2, .cls-3, .cls-4 {
        stroke-width: 0px;
      }

      .cls-2 {
        fill: #42250d;
      }

      .cls-3 {
        fill: #dda885;
      }

      .cls-4 {
        fill: #eeceb5;
      }
    </style>
  </defs>
  <path class="cls-1" d="m142.82,79.81c-2.53-1.24-5.97-2.49-5.97-2.49,0,0-3.53-3.97-23.33-3.04-19.79.92-67.36,11.05-67.36,11.05l-29.58-9.14c-1.59.16-4.42.44-6,.6l34.19,14.37,46.5-6.6,51.55-4.75Z"/>
  <path class="cls-3" d="m82.82,74.14c-8.25-3.78-29.77-5.48-50.86-7.24-1.84.34-10.36.78-14.64,1.56l28.87,8.44s26.77-5.51,36.64-2.75Z"/>
  <path class="cls-4" d="m77.27,80.47c8.39-1.43,14.12-2.18,16.98-.95,0,0,2.59-3.85,6.68-1.48,0,0,13.09-2.37,35.39-.71l.52-6.59s-12.28-4.76-22.1-4.52l-33.76,6.99c-13.5-1.07-34.68,2.99-34.68,2.99-5.83-1-28.99-7.73-28.99-7.73-.59,3.18-.8,6.4-.74,7.73,0,0,21.29,7.61,29.58,9.14,0,0,22.73-3.43,31.12-4.86Z"/>
  <path class="cls-2" d="m50.56,78.9c3.24-.91,6.52-1.66,9.83-2.24,3.3-.58,6.63-.99,9.98-1.24,1.88-.14,3.77-.22,5.65-.26.5,0,.5-.78,0-.77-3.37.06-6.75.29-10.1.69-3.36.4-6.7.96-10.01,1.69-1.87.41-3.72.88-5.56,1.39-.48.13-.27.88.21.74Z"/>
  <path class="cls-2" d="m51.69,81.76c4.08-.85,8.17-1.58,12.29-2.2,4.08-.61,8.18-1.11,12.29-1.49,2.34-.22,4.68-.39,7.02-.54.49-.03.5-.8,0-.77-4.18.25-8.35.62-12.51,1.11-4.14.49-8.27,1.09-12.38,1.81-2.31.4-4.62.85-6.91,1.33-.2.04-.32.28-.27.48.06.21.27.31.48.27Z"/>
  <path class="cls-2" d="m33.11,75.93c1.2.22,2.41.43,3.62.61.21.03.42-.05.48-.27.05-.18-.06-.44-.27-.48-4.24-.65-8.45-1.53-12.6-2.63-1.18-.31-2.36-.65-3.53-1-.48-.14-.68.6-.21.74,4.11,1.23,8.29,2.24,12.51,3.02Z"/>
  <path class="cls-2" d="m28.86,78.14c2.77.77,5.55,1.49,8.34,2.17,1.57.38,3.14.74,4.71,1.09.48.11.69-.64.21-.74-2.8-.62-5.6-1.29-8.38-2.01-2.78-.72-5.55-1.48-8.31-2.29-1.55-.45-3.09-.92-4.63-1.41-.48-.15-.68.6-.21.74,2.74.86,5.5,1.68,8.27,2.45Z"/>
  <path class="cls-2" d="m114.12,74.63c4.53-.97,9.16-1.44,13.79-1.39,1.32.01,2.64.07,3.96.17.21.02.39-.19.39-.39,0-.22-.18-.37-.39-.39-4.69-.34-9.4-.16-14.05.54-1.31.2-2.61.43-3.9.71-.49.1-.28.85.21.74Z"/>
  <path class="cls-2" d="m129.72,75.25c.79.07,1.57.15,2.36.24.21.02.39-.19.39-.39,0-.23-.18-.36-.39-.39-2.76-.31-5.53-.51-8.31-.61-.79-.03-1.58-.04-2.37-.05-.5,0-.5.77,0,.77,2.78.03,5.55.17,8.32.42Z"/>
  <path class="cls-4" d="m120.19,57.78s-9.82,5.89-14.23,11.32c-4.41,5.43-6.67,8.88-6.67,8.88l1.68-.59c9.36-8.84,23-14.42,35.87-14.68,0,0-9.83-3.83-16.65-4.93Z"/>
  <path class="cls-4" d="m130.89,53.07s-9.59-3.5-16-4.93c0,0-4.69,5.39-8.38,12.05-3.7,6.66-8.17,17.8-8.17,17.8l1.54-.97c7.16-11.24,18.33-19.86,31.01-23.95Z"/>
  <path class="cls-4" d="m124.77,37.2s-8.98-3.01-17.22-4.45c0,0-11.06,26.61-9.98,44.57l1.21-.18c5.22-15.86,14.69-28.66,25.99-39.94Z"/>
  <path class="cls-4" d="m65.23,25.32c-1.08,2.9-1.27,4.45-1.27,4.45l33.61,47.55c1.27-18.75,5.76-33.01,11.6-49.09-14.59-1.86-29.24-2.71-43.94-2.9Z"/>
  <path class="cls-4" d="m96.52,77.39c-1.68-15.19-10.21-32.52-16.92-46.39-16.03-1.24-24.7-1.67-37.59-.93,4.46,3.94,8.01,8.61,8.01,8.61l46.5,38.7Z"/>
  <path class="cls-3" d="m96.03,77.9c-7.84-18.32-19.08-26.75-29.81-38.4l-36.9-1.84c4.85,3.88,6.4,5.83,9.69,10.22l57.02,30.02Z"/>
  <path class="cls-3" d="m57.66,50.34c-16.27-2.61-33.02-3.78-33.02-3.78,7.54,2.31,16.45,7.48,24.43,13.78l46.04,18.23c-17.16-20.74-37.45-28.23-37.45-28.23Z"/>
  <path class="cls-1" d="m97.86,87.32c4.09-.1,6.96-3.48,6.96-3.48,0,0,33.96.2,38.05,0v-3.48s-29.15.63-38.57.2c0,0-2.86,2.46-6.24,2.97-3.38.51-5.83-1.74-5.83-1.74,0,0-42.19,6.77-47.47,7.68l.17,4.19c16.03-3.06,31.16-5.41,46.99-8.34,0,0,2.66,2.07,5.93,1.99Z"/>
  <path class="cls-1" d="m44.76,89.47c-9.46-2.26-21.91-7.16-34.82-12.48-.06,1.09-.12,2.18-.18,3.27,0,0,9.5,4.09,15.85,6.65,6.34,2.56,18.92,6.75,18.92,6.75.06-1.09.17-3.1.23-4.19Z"/>
  <g>
    <path class="cls-2" d="m9.64,78.11c.46.19.92.38,1.37.56.03-.56.06-1.12.09-1.68-.49.37-.98.74-1.47,1.12Z"/>
    <path class="cls-2" d="m44.84,92.55c-.46-.15-.92-.31-1.38-.47-.03.53-.06,1.05-.09,1.58.49-.37.98-.74,1.47-1.12Z"/>
    <path class="cls-2" d="m17.36,82.25s-.04-.02-.06-.03c-.07-.03-.14-.06-.22-.09.09.04.18.08.28.12Z"/>
    <path class="cls-2" d="m10.35,79.27c.19.33.38.67.57,1l.04-.74c-.06-.03-.12-.05-.18-.08-.14-.06-.29-.12-.43-.19Z"/>
    <path class="cls-2" d="m45.66,88.74c-.13-.16-.3-.29-.5-.36.19.07.37.2.5.36Z"/>
    <path class="cls-2" d="m13.74,83.21c3.12,1.33,6.25,2.64,9.39,3.93,2.68,1.1,5.39,2.14,8.11,3.13,2.78,1.01,5.56,1.98,8.36,2.94,1.52.52,3.03,1.06,4.56,1.55.02,0,.04.02.07.02.35.12.73,0,1.01-.21.3-.23.44-.54.46-.91.08-1.4.15-2.8.23-4.19.01-.27-.09-.53-.26-.73.22.29.31.68.22,1.04-.14.62-.84.95-1.43.81-.23-.05-.46-.11-.68-.17-.07-.02-.14-.04-.21-.06-.03.57-.06,1.14-.09,1.72.46.16.92.31,1.38.47-.49.37-.98.74-1.47,1.12.03-.53.06-1.05.09-1.58-.28-.09-.56-.19-.84-.28-1.78-.6-3.57-1.22-5.34-1.84-2.16-.75-4.32-1.52-6.48-2.31-1.97-.72-3.93-1.47-5.87-2.26-2.34-.95-4.67-1.93-7-2.91-.21-.09-.42-.18-.62-.26.02,0,.04.02.06.03-.09-.04-.18-.08-.28-.12.07.03.14.06.22.09-2.11-.89-4.23-1.79-6.34-2.7l-.04.74c-.19-.33-.38-.67-.57-1,.14.06.29.12.43.19.06.03.12.05.18.08.02-.29.03-.57.05-.86-.46-.19-.92-.37-1.37-.56.49-.37.98-.74,1.47-1.12-.03.56-.06,1.12-.09,1.68,2.04.84,4.07,1.67,6.11,2.49,2.42.97,4.84,1.93,7.27,2.86,2.3.88,4.61,1.74,6.94,2.56,2.15.76,4.32,1.49,6.5,2.17,1.89.59,3.8,1.14,5.72,1.62.02-.3.03-.6.05-.9.04-.65.5-1.13,1.16-1.16.07,0,.13,0,.19.01-1.93-.47-3.85-1-5.75-1.58-2.16-.66-4.3-1.37-6.43-2.11-2.31-.81-4.6-1.65-6.89-2.52-2.42-.92-4.83-1.86-7.24-2.83-2.5-1-4.98-2.01-7.47-3.03-.31-.13-.62-.25-.93-.38-.33-.14-.75,0-1.01.21-.3.23-.44.54-.46.91-.06,1.09-.12,2.18-.18,3.27-.02.36.23.85.57,1,1.52.65,3.04,1.3,4.56,1.95Z"/>
    <path class="cls-2" d="m43.6,89.47c-.02.3-.03.6-.05.9.07.02.14.04.21.06.23.06.46.11.68.17.59.14,1.28-.18,1.43-.81.08-.36,0-.75-.22-1.04-.13-.16-.31-.29-.5-.36-.03,0-.05-.02-.08-.02-.04,0-.08-.02-.11-.03-.06-.01-.13-.02-.19-.01-.66.03-1.12.51-1.16,1.16Z"/>
    <path class="cls-2" d="m45.15,88.38c-.06-.02-.13-.04-.2-.05.04,0,.08.02.11.03.03,0,.05.02.08.02Z"/>
  </g>
  <g>
    <path class="cls-2" d="m92.53,84.34c.05.03.1.06.15.1.27.11-.17-.11-.15-.1Z"/>
    <path class="cls-2" d="m94.72,81.97s0,0,0,0c0,0,0,0-.01,0,0,0,.02,0,.02,0Z"/>
    <path class="cls-2" d="m103.32,79.89c.08-.06.07-.05.02-.02-.05.04-.17.13-.02.02Z"/>
    <path class="cls-2" d="m105.64,84.66c-.27.11-.55.23-.82.34.17,0,.34,0,.5,0,.11-.11.21-.22.31-.34Z"/>
    <path class="cls-2" d="m91.11,86.15c.18.14.37.27.56.4.19-.03.38-.07.57-.1l-1.13-.3Z"/>
    <path class="cls-2" d="m141.71,80.36v1.18c.39,0,.77-.01,1.16-.02l-1.16-1.16Z"/>
    <path class="cls-2" d="m142.87,82.68c-.39.02-.77.03-1.16.05v1.11c.39-.39.77-.77,1.16-1.16Z"/>
    <path class="cls-2" d="m102.69,84.25s-.03.03-.05.04c.03-.03.05-.04.05-.04Z"/>
    <path class="cls-2" d="m91.93,84.17c-.41,0-.85.14-1.26.22-2.82.52-5.65,1.03-8.48,1.52-11.12,1.96-22.25,3.79-33.35,5.85-1.4.26-2.81.52-4.21.79-.62.12-.97.86-.81,1.43.18.64.81.93,1.43.81,12.18-2.32,24.41-4.33,36.63-6.48,3.27-.57,6.53-1.16,9.8-1.76-.19-.13-.38-.26-.56-.4l1.13.3c-.19.04-.38.07-.57.1,1.57,1.06,3.43,1.73,5.31,1.9,2.71.24,5.3-.91,7.37-2.58.33-.27.67-.56.97-.86-.17,0-.34,0-.5,0,.27-.11.55-.23.82-.34-.1.12-.21.23-.31.34.97,0,1.94.01,2.9.02,2.77.01,5.55.03,8.32.04,3.46.01,6.93.02,10.39.03,3.2,0,6.41,0,9.61,0,1.99,0,3.99,0,5.98-.07.12,0,.23,0,.35-.01.63-.03,1.16-.51,1.16-1.16v-3.48c0-.62-.53-1.17-1.16-1.16-1.79.04-3.59.07-5.38.1-4.11.07-8.22.13-12.33.18-4.5.05-9.01.08-13.51.06-1.82,0-3.65-.03-5.47-.07-.84-.02-2.01-.27-2.7.28-.04.03-.09.07-.13.11,0,0-.01,0-.02.01.04-.03.06-.04-.02.02-.14.11-.03.02.02-.02-.05.03-.12.09-.15.11-.41.3-.83.58-1.27.85-1.22.73-2.52,1.3-3.93,1.55-.63.11-1.38.09-1.92-.01-.3-.06-.6-.14-.89-.23-.14-.04-.27-.09-.41-.14-.02,0-.04-.02-.06-.02,0,0,0,0,0,0,0,0-.01,0-.02,0-.1-.04-.04-.02,0,0,0,0,0,0,.01,0-.08-.04-.16-.07-.24-.11-.41-.2-.8-.43-1.17-.69-.04-.03-.07-.05-.11-.08.06.05.09.08,0,0,0,0,0,0,0,0-.02-.01-.04-.03-.06-.04.02.01.03.02.05.04-.04-.03-.08-.07-.11-.1-.42-.34-.83-.34-1.32-.27-1.72.27-3.45.55-5.17.83-3.39.54-6.77,1.09-10.16,1.63-4.07.66-8.14,1.31-12.21,1.97-3.77.61-7.55,1.22-11.32,1.83-2.5.41-5.01.81-7.51,1.23-.3.05-.61.1-.91.15-.62.11-.96.87-.81,1.43.18.65.81.92,1.43.81,2.25-.38,4.5-.74,6.75-1.11,3.87-.63,7.75-1.26,11.62-1.88,4.33-.7,8.66-1.4,12.99-2.09,3.62-.58,7.23-1.16,10.85-1.74,1.54-.25,3.11-.42,4.64-.72-.18-.13-.35-.27-.51-.42.38.1.75.2,1.13.3-.02,0-.05,0-.07.01-.18.04-.36.08-.54.11,1.12.85,2.51,1.42,3.87,1.62,2.69.4,5.35-.6,7.6-2.02.44-.28.88-.58,1.29-.9-.13,0-.26,0-.38-.01.27-.11.55-.23.82-.34-.14.12-.29.24-.44.35,5.57.23,11.17.15,16.74.1,5.91-.05,11.82-.14,17.73-.25.85-.02,1.7-.03,2.55-.05v-1.18l1.16,1.16c-.39,0-.77.02-1.16.02v1.18c.39-.01.77-.03,1.16-.05-.39.39-.77.77-1.16,1.16v-1.11c-3.67.13-7.36.05-11.03.04-5.94,0-11.88-.02-17.82-.05-2.06,0-4.11-.02-6.17-.03-.52,0-1.04,0-1.55,0-.1,0-.21,0-.31,0-.45.02-.73.23-1.02.54-.35.37-.74.71-1.13,1.03,0,0-.02.01-.05.04.02-.01.03-.03.05-.04.01-.01-.25.19-.31.23-.18.13-.37.26-.56.38-.38.24-.78.46-1.19.65-1.79.83-3.87.83-5.84.08-.24-.09-.19-.07-.43-.18-.21-.1-.41-.2-.61-.3-.28-.15-.56-.31-.83-.49-.08-.05-.16-.12-.24-.17-.01,0-.03-.01-.05-.02-.25-.11-.4-.25-.7-.25Z"/>
    <path class="cls-2" d="m92.54,82.91c-.38-.1-.75-.2-1.13-.3.16.15.33.29.51.42.18-.04.36-.07.54-.11.02,0,.05,0,.07-.01Z"/>
    <path class="cls-2" d="m93.19,81.09s-.01-.01-.02-.02c0,0,0,0,0,0,0,0,.01,0,.02.01Z"/>
    <path class="cls-2" d="m104.31,81.73c.13,0,.26,0,.38.01.15-.11.29-.23.44-.35-.27.11-.55.23-.82.34Z"/>
  </g>
  <g>
    <path class="cls-2" d="m140.01,79.81s-.09-.04-.14-.06c.09.04.18.08.28.12-.05-.02-.09-.04-.14-.06.75.32,1.49.65,2.22,1.01.28.14.58.2.89.12.27-.07.56-.28.69-.53.28-.52.17-1.3-.42-1.59-1.88-.92-3.83-1.7-5.78-2.43-.16-.06-.31-.12-.47-.17-.57-.21-1.29.23-1.43.81-.15.65.2,1.2.81,1.43,1.17.42,2.33.88,3.48,1.37Z"/>
    <path class="cls-2" d="m139.88,79.75s.09.04.14.06c.05.02.09.04.14.06-.09-.04-.18-.08-.28-.12Z"/>
  </g>
  <path class="cls-2" d="m10.57,77.95c2-.2,4-.4,6-.6.31-.03.59-.11.82-.34.2-.2.35-.53.34-.82-.03-.58-.51-1.22-1.16-1.16-2,.2-4,.4-6,.6-.31.03-.59.11-.82.34-.2.2-.35.53-.34.82.03.58.51,1.22,1.16,1.16Z"/>
  <g>
    <path class="cls-2" d="m17.92,69.44c-.27-.08-.54-.16-.81-.23.32-.18.63-.36.95-.54-.05.26-.09.51-.14.77,2.22.64,4.44,1.27,6.66,1.9,4.72,1.33,9.45,2.65,14.19,3.88,1.91.49,3.81.98,5.74,1.4.62.14,1.37.39,2,.31.27-.03.54-.1.81-.15,4.2-.76,8.43-1.38,12.67-1.89,6.23-.74,12.54-1.29,18.81-1.04.72.03,1.45.07,2.17.13.99.08.99-1.47,0-1.54-6.19-.48-12.45-.01-18.61.65-4.84.52-9.66,1.2-14.45,2.04-.5.09-1,.18-1.5.27-.03,0-.07.01-.11.02.03,0,.06.01.08.02.22.09-.43.09-.26.01.05-.02.12-.03.18-.04-.12-.03-.25-.04-.37-.06-1.74-.34-3.45-.77-5.17-1.21-4.74-1.2-9.46-2.51-14.17-3.83-2.98-.84-5.94-1.78-8.94-2.55-.05-.01-.1-.03-.15-.04-.37-.11-.88.13-.95.54-.47,2.59-.86,5.3-.77,7.94.01.36.23.63.57.74,3.48,1.24,6.97,2.43,10.48,3.6,5.72,1.9,11.48,3.83,17.36,5.18.72.17,1.54.45,2.28.34.49-.07.98-.15,1.46-.22,2.19-.33,4.39-.67,6.58-1,6.11-.94,12.22-1.87,18.32-2.86,3.22-.52,6.43-1.1,9.65-1.58,1.95-.29,3.9-.55,5.87-.67,1.38-.08,2.82-.14,4.19.11.51.09,1,.22,1.48.42.33.14.7-.1.87-.35.01-.02.02-.03.03-.04,0,.01-.02.02-.03.03.02-.03.04-.05.05-.06.01-.02.02-.02,0,0,0,0-.01.02-.02.03.11-.13.22-.26.33-.38.36-.38.76-.7,1.22-.96.59-.33,1.24-.5,1.91-.49.4,0,.78.09,1.15.21.53.18,1,.59,1.58.53.19-.02.37-.06.56-.09.23-.04.47-.07.7-.1.07,0,.14-.02.2-.03.03,0,.06,0,.07-.01-.01,0,.07-.01,0,0,0,0,.01,0,.03,0,.18-.02.35-.05.53-.07,5.65-.71,11.36-.95,17.05-.97,5.35-.02,10.71.2,16.05.59.44.03.74-.38.77-.77.17-2.2.34-4.4.52-6.59.08-.99-1.47-.99-1.54,0-.15,1.92-.3,3.85-.45,5.77.24.02.47.03.71.05-.26.26-.51.51-.77.77.02-.27.04-.55.06-.82-6.99-.5-14-.68-21-.43-3.96.14-7.93.4-11.86.92-.56.07-1.13.15-1.69.24.09.04.17.09.26.14-.2-.03-.4-.05-.6-.08.11-.02.23-.04.34-.06-1.69-.86-3.59-1-5.3-.07-.66.36-1.28.86-1.78,1.44.16.05.31.11.47.17-.29.12-.58.24-.87.35.12-.18.26-.36.41-.53-.98-.32-2.05-.42-3.07-.46-1.67-.06-3.35.08-5.01.27-3.73.41-7.42,1.09-11.12,1.7-6.02.99-12.06,1.92-18.09,2.84-2.55.39-5.09.78-7.64,1.17-.76.12-1.53.23-2.29.35-.19.03-.38.05-.57.09,0,0,.02,0,.02.01.12.1-.43.07-.23.02.05-.01.1-.01.15-.02.02,0,.03,0,.05,0-.15-.09-.56-.1-.72-.14-.29-.06-.57-.12-.86-.19-.61-.14-1.22-.29-1.83-.45-1.39-.36-2.77-.74-4.15-1.15-3.07-.89-6.12-1.86-9.16-2.85-2.71-.88-5.4-1.79-8.1-2.72-1.35-.47-2.69-.98-4.05-1.43,0,.19,0,.37.01.56-.19-.25-.38-.5-.57-.74.07.03.14.05.21.08.11.04.23.07.34.11-.02-2.06.24-4.16.59-6.19Z"/>
    <path class="cls-2" d="m94.92,79.89s.02-.02.03-.03c0,0,.01-.02.02-.03,0,.01-.02.03-.05.06Z"/>
    <path class="cls-2" d="m16.78,75.44c.19.25.38.5.57.74,0-.19,0-.37-.01-.56-.11-.04-.23-.07-.34-.11-.07-.02-.14-.05-.21-.08Z"/>
    <path class="cls-2" d="m17.11,69.2c.27.08.54.16.81.23.04-.26.09-.52.14-.77-.32.18-.63.36-.95.54Z"/>
    <path class="cls-2" d="m46.39,75.42s-.05-.02-.08-.02c-.06,0-.13.02-.18.04-.17.07.48.07.26-.01Z"/>
    <path class="cls-2" d="m102.67,78.54c.07-.01-.01,0,0,0h0Z"/>
    <path class="cls-2" d="m46,84.58c-.2.05.34.08.23-.02,0,0-.02,0-.02-.01-.02,0-.03,0-.05,0-.05,0-.1,0-.15.02Z"/>
    <path class="cls-2" d="m136.33,76.55c-.24-.02-.47-.03-.71-.05-.02.27-.04.55-.06.82.26-.26.51-.51.77-.77Z"/>
    <path class="cls-2" d="m94.45,78.77c-.15-.06-.31-.12-.47-.17-.15.17-.28.34-.41.53.29-.12.58-.24.87-.35Z"/>
    <path class="cls-2" d="m101.32,77.36c-.08-.05-.17-.09-.26-.14-.11.02-.23.04-.34.06.2.03.4.05.6.08Z"/>
  </g>
  <path class="cls-2" d="m46.97,75.8c-.09-.16-.28-.31-.46-.35-.36-.08-.89.11-.95.54-.3,2.23-.05,4.49.08,6.72.03.62.06,1.23.06,1.85,0,.4.35.79.77.77.42-.02.77-.34.77-.77,0-2.19-.3-4.38-.28-6.57,0-.3.01-.6.03-.9,0-.14.02-.28.03-.41,0-.07.01-.14.02-.2,0-.05.04-.29,0-.08.03-.22.04-.4-.08-.6Z"/>
  <path class="cls-4" d="m94.25,79.51c-17.54-13.21-45.18-19.18-45.18-19.18-10.43-1.57-21.8-.31-30.81,3.44,10.04,1.94,19.94,4.63,29.59,8.02,0,0,26.36-6.07,46.4,7.72Z"/>
  <g>
    <path class="cls-2" d="m51.84,71.89s.02,0,.03,0c.06,0,.08-.01-.03,0Z"/>
    <path class="cls-2" d="m93.86,80.18c.19.14.44.14.65.05-.21.08-.46.08-.65-.05Z"/>
    <path class="cls-2" d="m47.64,71.05h.41c-.06-.02-.11-.04-.17-.06-.06.02-.13.03-.19.05-.02,0-.03,0-.05.01Z"/>
    <path class="cls-2" d="m18.46,64.51c.84-.35,1.7-.67,2.56-.98-.85-.18-1.71-.35-2.56-.51v1.49Z"/>
    <path class="cls-2" d="m40.15,70.06c1.81.56,3.62,1.15,5.42,1.76.42.14.83.28,1.24.43.39.14.81.37,1.24.29.03,0,.07-.02.1-.02.66-.13,1.32-.26,1.98-.37.29-.05.59-.09.88-.14.15-.02.29-.04.44-.06.09-.01.17-.02.26-.04.03,0,.1-.01.15-.02-.01,0-.02,0-.03,0,.11-.01.09-.01.03,0,.77-.1,1.55-.19,2.32-.27,1.98-.2,3.97-.32,5.95-.36,5.05-.11,10.13.26,15.08,1.26,5.87,1.19,11.56,3.25,16.67,6.39.66.41,1.32.83,1.96,1.28-.58-.44-1.17-.87-1.77-1.29-3.53-2.47-7.28-4.62-11.14-6.53-3.59-1.09-7.28-1.8-11-2.22-3.59-.41-7.2-.53-10.81-.4-2.68.09-5.35.33-8,.7-.79.11-1.58.24-2.36.38-.29.05-.6.1-.89.17.06.02.11.04.17.06h-.41s.03,0,.05-.01c.06-.02.13-.03.19-.05-7.48-2.62-15.11-4.83-22.84-6.58-1.34-.3-2.68-.59-4.02-.87-.86.3-1.72.63-2.56.98v-1.49c.85.17,1.71.34,2.56.51,5.88-2.06,12.15-3.02,18.37-3.09,1.85-.02,3.7.04,5.54.19,1.31.1,2.66.2,3.96.45.6.12,1.2.28,1.79.42,3.43.84,6.84,1.82,10.21,2.89,5.17,1.64,10.26,3.52,15.22,5.71,1.63.72,3.24,1.47,4.83,2.26.44.13.89.27,1.33.42,4.37,1.45,8.57,3.46,12.37,6.07-4.89-3.68-10.29-6.66-15.84-9.22-5.15-2.38-10.46-4.42-15.85-6.19-3.67-1.21-7.37-2.29-11.12-3.24-.79-.2-1.58-.39-2.37-.57-.65-.15-1.32-.2-1.98-.29-1.83-.22-3.67-.36-5.51-.42-7.28-.22-14.71.76-21.58,3.2-.78.28-1.56.58-2.33.89-.32.13-.57.37-.57.74,0,.32.24.68.57.74,7.46,1.45,14.84,3.3,22.1,5.55Z"/>
    <path class="cls-2" d="m80.94,72.36c3.86,1.91,7.61,4.06,11.14,6.53.6.42,1.19.85,1.77,1.29.19.13.44.14.65.05.17-.07.32-.19.4-.33.09-.16.12-.33.09-.49-.04-.22-.18-.42-.37-.56-3.8-2.61-7.99-4.62-12.37-6.07-.44-.15-.88-.28-1.33-.42Z"/>
    <path class="cls-2" d="m95.01,79.41c-.04-.22-.17-.43-.37-.56.19.15.33.34.37.56Z"/>
    <path class="cls-2" d="m94.51,80.23c.17-.06.32-.18.4-.33-.08.15-.23.26-.4.33Z"/>
    <path class="cls-2" d="m94.91,79.9c.1-.17.12-.34.09-.49.03.16,0,.33-.09.49Z"/>
  </g>
  <g>
    <path class="cls-2" d="m19.19,68.94s.03,0,.05,0c0,0,.01,0,.02,0,.1-.01-.17.02-.07,0Z"/>
    <path class="cls-2" d="m17.52,69.2c.45-.08.91-.15,1.37-.22.12-.02.23-.03.35-.05-.02,0-.03,0-.05,0-.1.01.17-.02.07,0,0,0-.01,0-.02,0,0,0,.01,0,.02,0,.08-.01.16-.02.24-.03.26-.03.52-.07.78-.1,1.13-.13,2.26-.25,3.4-.35,2.09-.19,4.18-.35,6.27-.54.74-.07,1.49-.13,2.22-.26.4-.07.66-.58.54-.95-.14-.43-.52-.62-.95-.54-.11.02-.21.04-.32.05h0s0,0,0,0c.21-.03-.22.03,0,0-.07,0-.15.02-.22.03-.35.04-.7.08-1.05.11-.94.09-1.87.17-2.81.25-2.26.19-4.52.38-6.77.64-1.16.13-2.32.28-3.47.49-.4.07-.66.58-.54.95.14.43.52.62.95.54Z"/>
    <path class="cls-2" d="m31.44,66.21s0,0,0,0c-.21.03.21-.03,0,0Z"/>
  </g>
  <g>
    <path class="cls-2" d="m58.41,51.47s.02,0,.03.01c.16.07-.06-.03-.03-.01Z"/>
    <path class="cls-2" d="m24.64,47.33c1.81.13,3.63.28,5.44.44-1.71-.74-3.45-1.41-5.23-1.96-.07.51-.14,1.01-.21,1.52Z"/>
    <path class="cls-2" d="m47.61,49.67c2.11.27,4.22.56,6.33.87,1.08.16,2.16.33,3.25.5.12.02.23.03.34.07.22.07.44.17.66.26.08.03.16.07.24.1,0,0,0,0,.01,0,0,0-.02,0-.03-.01-.04-.02.19.08.03.01.05.02.11.05.16.07.24.1.49.21.73.32,1.43.64,2.83,1.32,4.22,2.04,4.58,2.39,8.96,5.17,13.12,8.25,5.82,4.31,11.19,9.25,15.98,14.7.65.74,1.3,1.5,1.93,2.26.27.32.82.28,1.09,0,.32-.32.27-.77,0-1.09-4.8-5.8-10.25-11.05-16.2-15.67-4.38-3.4-9.02-6.47-13.89-9.12-2.39-1.3-4.85-2.52-7.38-3.52-.26-.1-.43-.14-.72-.19-2.15-.34-4.31-.66-6.47-.95-4.05-.56-8.1-1.05-12.17-1.49-4.65-.5-9.31-.95-13.98-1.29-.07,0-.14-.01-.21-.02-.9-.06-1.01,1.27-.21,1.52,6.74,2.08,13.01,5.69,18.79,9.67,1.81,1.25,3.58,2.55,5.3,3.91.33.26.77.32,1.09,0,.27-.27.33-.83,0-1.09-5.98-4.71-12.46-8.95-19.46-11.99-.03-.01-.05-.02-.08-.03-1.81-.16-3.62-.31-5.44-.44.07-.51.14-1.01.21-1.52,1.78.55,3.52,1.22,5.23,1.96,2.03.18,4.06.38,6.08.59,3.82.39,7.64.83,11.46,1.32Z"/>
  </g>
  <g>
    <path class="cls-2" d="m105.14,74.84s-.03.02,0,0c.02-.02.07-.06,0,0Z"/>
    <path class="cls-2" d="m117.3,67.79s-.04.01-.01,0c.04-.02.07-.03.01,0Z"/>
    <path class="cls-2" d="m136.64,63.46c.07-.51.14-1.01.21-1.52-1.25.03-2.5.1-3.75.22.75.26,1.51.53,2.26.81.43.16.86.32,1.28.48Z"/>
    <path class="cls-2" d="m131.31,63.91s.03,0,.04,0c.04,0,.1-.01-.04,0Z"/>
    <path class="cls-2" d="m121.5,64.59c-2.54.82-5.02,1.82-7.42,2.97-2.35,1.13-4.63,2.42-6.8,3.86-2.16,1.44-4.23,3.03-6.15,4.78-.23.21-.47.43-.7.64-.29.28-.3.82,0,1.09.32.29.78.3,1.09,0,.92-.87,1.87-1.69,2.85-2.49.25-.2.5-.4.75-.6,0,0,0,0,.01,0-.02.02-.03.03,0,0,.06-.05.01-.01,0,0,.02-.01.05-.04.05-.04.06-.04.12-.09.17-.13.13-.1.26-.2.4-.3.52-.39,1.04-.76,1.57-1.13,2.12-1.46,4.34-2.77,6.64-3.92.58-.29,1.16-.57,1.74-.84.3-.14.6-.27.9-.4.15-.06.29-.13.44-.19.07-.03.14-.06.2-.09,0,0,.02-.01.04-.02-.02.01-.03.01.01,0,.06-.03.03-.01-.01,0,.03-.01.08-.04.09-.04,1.2-.5,2.42-.96,3.65-1.38,2.44-.83,4.93-1.5,7.46-1.99.63-.12,1.27-.23,1.91-.33.31-.05.62-.09.92-.14,0,0,.01,0,.02,0-.01,0-.03,0-.04,0,.15-.02.09-.01.04,0,.03,0,.05,0,.08-.01.07,0,.14-.02.22-.03.16-.02.33-.04.49-.06,1.26-.15,2.52-.25,3.78-.3.31-.01.61-.02.92-.03.39,0,.71-.29.76-.67.05-.4-.19-.71-.55-.85-1.23-.48-2.48-.92-3.73-1.36-2.68-.93-5.39-1.8-8.13-2.52-1.58-.42-3.18-.79-4.79-1.05-.4-.06-.85.1-.95.54-.08.37.11.88.54.95,2.92.47,5.78,1.27,8.6,2.14,1.51.47,3.02.97,4.51,1.49,1.25-.12,2.5-.2,3.75-.22-.07.51-.14,1.01-.21,1.52-.43-.17-.86-.33-1.28-.48-.75-.28-1.5-.54-2.26-.81-1.35.13-2.69.31-4.02.55-2.57.45-5.1,1.08-7.58,1.88Z"/>
  </g>
  <g>
    <path class="cls-2" d="m107.81,74.86s.01,0,.02,0c.13-.06,0,0-.02,0Z"/>
    <path class="cls-2" d="m121.51,71.13c-.08.01-.02,0,0,0,.03,0,.05,0,0,0Z"/>
    <path class="cls-2" d="m134.18,71.06s0,0,.01,0c.12.02-.13-.02-.01,0Z"/>
    <path class="cls-2" d="m101.93,77.85c1.89-1.14,3.86-2.13,5.89-3,0,0,0,0,0,0,0,0-.01,0-.02,0,.02-.01.15-.06.02,0,.02,0,.05-.02.07-.03.07-.03.13-.06.2-.08.14-.06.28-.12.43-.17.27-.11.54-.21.81-.32.54-.21,1.09-.41,1.64-.6,1.12-.39,2.25-.74,3.39-1.05,2.33-.64,4.7-1.13,7.1-1.46.01,0,.04,0,.07,0-.03,0-.09.01,0,0,.06,0,.04,0,0,0,0,0,.02,0,.02,0,.08,0,.15-.02.23-.03.15-.02.3-.04.45-.06.3-.04.61-.07.91-.1.62-.06,1.24-.11,1.86-.16,1.22-.08,2.44-.12,3.66-.11,1.22.01,2.43.07,3.65.17.6.05,1.21.12,1.81.2.03,0,.06,0,.08.01-.12-.02.13.02.01,0,0,0,0,0-.01,0,0,0,0,0,0,0,.07.01.15.02.22.03.15.02.3.04.45.07.3.05.6.09.89.15.3.05.59.11.89.17.4.08.85-.11.95-.54.09-.38-.12-.87-.54-.95-2.46-.49-4.96-.76-7.46-.83-2.47-.07-4.95.05-7.41.35-2.47.3-4.93.75-7.34,1.37-2.31.59-4.58,1.34-6.79,2.23-2.13.86-4.22,1.85-6.21,3.01-.23.13-.46.27-.69.41-.35.21-.51.7-.28,1.06.22.35.69.5,1.06.28Z"/>
  </g>
  <g>
    <path class="cls-2" d="m120.94,67.19s.03,0,.05,0c.01,0,.02,0,.03,0,0,0-.17-.02-.08-.01Z"/>
    <path class="cls-2" d="m137.05,71.47c.18-.05.37-.19.46-.35.17-.33.12-.89-.28-1.06-2.59-1.09-5.24-2.02-7.96-2.76-2.23-.6-4.49-1.08-6.77-1.44-1.1-.17-2.21-.31-3.31-.43-.4-.04-.79.38-.77.77.02.45.34.73.77.77.44.05.88.1,1.32.15.11.01.23.03.34.04.05,0,.09.01.14.02-.02,0-.03,0-.05,0-.09-.01.09.01.08.01-.01,0-.02,0-.03,0,.03,0,.05,0,.08.01.24.03.48.07.71.1,1.05.16,2.1.34,3.14.55,2.44.49,4.84,1.13,7.2,1.91.72.24,1.44.49,2.16.76.37.14.75.28,1.12.43.19.07.38.15.56.23.09.04.19.08.28.12.04.01.07.03.11.04,0,0,.22.09.1.04.2.08.38.14.6.08Z"/>
  </g>
  <g>
    <path class="cls-2" d="m126.54,55.5c.06-.03-.12.05,0,0h0Z"/>
    <path class="cls-2" d="m103.39,73.35s.02-.03.04-.05c0,0,0,0-.04.05Z"/>
    <path class="cls-2" d="m113.73,63.01s.03-.02.04-.03c.02-.01.01-.01-.04.03Z"/>
    <path class="cls-2" d="m116.48,59.15c-2.21,1.46-4.33,3.07-6.34,4.81-1.98,1.72-3.84,3.57-5.57,5.53-1.75,1.99-3.37,4.1-4.83,6.32-.18.27-.35.54-.53.81-.22.34-.08.87.28,1.06.38.2.82.09,1.06-.28.7-1.09,1.43-2.16,2.2-3.2.19-.26.39-.52.58-.78.02-.03.09-.12.1-.13-.01.02-.02.03-.04.05.03-.04.04-.05.04-.05.04-.05.08-.1.11-.15.1-.13.2-.25.3-.38.4-.51.81-1.01,1.23-1.5,1.68-1.97,3.49-3.83,5.41-5.56.96-.86,1.95-1.7,2.97-2.5.06-.05.13-.1.19-.15.02-.02.1-.08.13-.1-.01.01-.03.02-.04.03.06-.04.06-.05.04-.03.11-.09.23-.18.34-.26.26-.2.52-.39.78-.58.52-.38,1.05-.76,1.58-1.12,2.14-1.46,4.37-2.78,6.68-3.94.58-.29,1.16-.57,1.75-.84.29-.14.59-.27.88-.4.15-.07.3-.13.44-.19.06-.03.13-.06.2-.08.04-.02.07-.03.11-.05,0,0,0,0,0,0-.12.05.06-.03,0,0,0,0,0,0,0,0,1.19-.5,2.4-.96,3.63-1.38.31-.1.61-.21.92-.31.31-.1.58-.4.57-.74-.02-.36-.23-.62-.57-.74-1.2-.44-2.41-.86-3.63-1.27-2.59-.88-5.2-1.72-7.84-2.48-1.5-.43-3.01-.84-4.54-1.18-.39-.09-.85.12-.95.54-.09.39.12.86.54.95,2.77.62,5.5,1.43,8.2,2.29,1.9.6,3.79,1.23,5.67,1.89.71-.26,1.42-.51,2.13-.74v1.49c-.41-.15-.83-.3-1.25-.45-.29-.1-.59-.21-.88-.31-1.79.65-3.54,1.4-5.25,2.22-2.36,1.13-4.64,2.43-6.82,3.87Z"/>
    <path class="cls-2" d="m130.69,53.81v-1.49c-.72.23-1.43.48-2.13.74.29.1.59.2.88.31.42.15.83.29,1.25.45Z"/>
  </g>
  <g>
    <path class="cls-2" d="m114.16,50.31s.01-.02.02-.03c0,0,0,0-.02.03Z"/>
    <path class="cls-2" d="m101.89,71.03s0-.02.01-.02c0,.01-.04.08-.01.02Z"/>
    <path class="cls-2" d="m124.57,37.94c-.11-.43-.23-.86-.34-1.29-.3.3-.59.6-.88.9,0,0,.01,0,.02,0,.4.13.8.26,1.2.39Z"/>
    <path class="cls-2" d="m111.85,50.82c-1.86,2.49-3.61,5.05-5.23,7.7-1.64,2.67-3.14,5.42-4.49,8.25-1.4,2.93-2.64,5.95-3.7,9.02-.13.38-.26.77-.39,1.15-.13.38.15.86.54.95.43.1.81-.13.95-.54.5-1.53,1.05-3.04,1.64-4.54.15-.37.3-.74.45-1.11.08-.18.15-.37.23-.55.02-.04.03-.08.05-.11-.03.06,0-.01.01-.02,0,0,0,.02-.01.02,0,0,0,0,0-.01.04-.1.09-.21.13-.31.31-.73.63-1.45.96-2.17,1.31-2.84,2.78-5.6,4.38-8.29,1.58-2.66,3.3-5.23,5.13-7.73.46-.62.92-1.24,1.39-1.85.06-.08.12-.15.18-.23.02-.03.11-.14.12-.16,0,0-.01.02-.02.03.02-.02.02-.03.02-.03.11-.14.22-.29.34-.43.24-.3.48-.61.72-.91.96-1.21,1.95-2.39,2.96-3.56,2.02-2.34,4.13-4.61,6.31-6.82.27-.28.55-.55.82-.83.43-.43.2-1.11-.34-1.29-1.17-.39-2.35-.75-3.53-1.1-2.72-.81-5.47-1.56-8.24-2.21-1.81-.43-3.62-.81-5.45-1.13-.4-.07-.85.11-.95.54-.09.38.11.88.54.95,3.17.56,6.31,1.3,9.42,2.14,2.21.59,4.4,1.23,6.58,1.92.29-.3.59-.6.88-.9.11.43.23.86.34,1.29-.4-.13-.8-.26-1.2-.39,0,0-.01,0-.02,0-1.9,1.93-3.75,3.9-5.53,5.93-2.08,2.37-4.07,4.82-5.96,7.34Z"/>
  </g>
  <g>
    <path class="cls-2" d="m66.22,40.27c-.18-.08-.36-.15-.55-.23.07.07.14.15.2.22.09,0,.19,0,.28,0,.02,0,.04,0,.06,0Z"/>
    <path class="cls-2" d="m29.32,38.44c.76.04,1.53.08,2.29.11-.57-.49-1.16-.96-1.74-1.43-.18.44-.36.88-.55,1.32Z"/>
    <path class="cls-2" d="m41.84,39.06c3.55.18,7.1.35,10.65.53,3.07.15,6.13.31,9.2.46,1.01.05,2.02.1,3.03.15.38.02.77.05,1.16.07-.07-.07-.14-.14-.2-.22.18.08.36.15.55.23-.02,0-.04,0-.06,0-.09,0-.19,0-.28,0,4.02,4.34,8.3,8.44,12.37,12.74,4.26,4.5,8.23,9.27,11.52,14.54,2.15,3.43,4,7.03,5.6,10.75.16.38.73.47,1.06.28.4-.23.44-.67.28-1.06-1.91-4.46-4.21-8.75-6.92-12.79-2.39-3.56-5.08-6.92-7.95-10.11-2.73-3.04-5.61-5.93-8.48-8.83-1.45-1.46-2.89-2.93-4.31-4.41-.72-.75-1.43-1.51-2.13-2.27-.23-.25-.48-.36-.79-.38-1.1-.07-2.2-.11-3.3-.16-2.2-.11-4.4-.22-6.6-.33-2.77-.14-5.53-.28-8.3-.41-2.77-.14-5.53-.28-8.3-.41-2.24-.11-4.47-.22-6.71-.33-1.14-.06-2.28-.11-3.42-.17-.05,0-.1,0-.16,0-.63-.03-1.07.9-.55,1.32,1.53,1.22,3.03,2.49,4.42,3.87,1.16,1.16,2.23,2.4,3.24,3.69.64.81,1.27,1.66,1.9,2.5.25.33.67.5,1.06.28.33-.19.53-.72.28-1.06-1.11-1.49-2.23-2.98-3.43-4.39-1.1-1.29-2.3-2.5-3.56-3.63-.35-.31-.71-.62-1.06-.92-.76-.04-1.53-.08-2.29-.11.18-.44.36-.88.55-1.32.59.47,1.17.95,1.74,1.43.46.02.93.05,1.39.07,2.95.15,5.89.29,8.84.44Z"/>
  </g>
  <g>
    <path class="cls-2" d="m49.37,39.11s0,0,0-.01c.01.02.01.02,0,.01Z"/>
    <path class="cls-2" d="m78.93,31.4c.06.11.11.23.17.34.17.01.33.03.5.04-.22-.13-.44-.26-.67-.38Z"/>
    <path class="cls-2" d="m49.35,39.08s0,0,.01.01c0,0-.02-.02-.03-.04,0,0,.01.02.02.02Z"/>
    <path class="cls-2" d="m49.32,39.04s.01.01.02.02c.01.02.02.03.03.04,0,0,0,0,0,.01-.02-.02-.12-.16-.05-.07Z"/>
    <path class="cls-2" d="m55.87,30.5c4.72.05,9.43.28,14.14.59,3.03.2,6.06.42,9.09.65-.06-.11-.11-.23-.17-.34.22.13.44.26.67.38-.17-.01-.33-.03-.5-.04,1.3,2.7,2.61,5.39,3.89,8.1,1.41,2.98,2.78,5.97,4.09,8.99,1.31,3.02,2.55,6.08,3.69,9.18,1.12,3.05,2.13,6.14,2.98,9.27.41,1.53.79,3.07,1.11,4.62.15.74.3,1.49.42,2.24.06.38.13.75.18,1.13.03.19.06.38.08.56.01.09.02.17.04.26.02.14.01.08.02.18.05.37.09.74.14,1.12.05.41.32.77.77.77.38,0,.82-.36.77-.77-.65-5.85-2.18-11.57-4.08-17.13-2-5.84-4.42-11.52-6.99-17.13-1.24-2.72-2.53-5.42-3.82-8.11-.62-1.29-1.24-2.57-1.86-3.86-.22-.45-.36-.87-.93-.93-.46-.05-.93-.07-1.39-.11-.83-.06-1.65-.13-2.48-.19-5.53-.41-11.07-.78-16.61-.93-5.05-.14-10.09-.06-15.14.19-.66.03-1.32.07-1.98.11-.31.02-.59.18-.71.47-.11.27-.07.64.16.84,2.73,2.42,5.22,5.12,7.5,7.97.12.15.24.31.36.46,0,0,0,0,0,0,0,0-.01-.01-.02-.02-.07-.09.04.05.05.07.25.31.66.47,1.04.25.33-.19.53-.72.28-1.06-1.63-2.15-3.44-4.17-5.32-6.1-.48-.49-.98-.98-1.48-1.46-.62.03-1.25.06-1.87.1.18-.44.36-.88.55-1.32.45.4.89.8,1.33,1.22,3.99-.2,7.99-.3,11.99-.26Z"/>
    <path class="cls-2" d="m42.01,30.85c.62-.04,1.25-.07,1.87-.1-.44-.41-.88-.82-1.33-1.22-.18.44-.36.88-.55,1.32Z"/>
  </g>
  <g>
    <path class="cls-2" d="m108.43,28.02c-.1.28-.2.57-.31.85.35.04.7.09,1.05.13-.25-.33-.5-.65-.74-.98Z"/>
    <path class="cls-2" d="m65.23,26.1c.18,0,.36,0,.54,0,.07-.19.14-.38.21-.58-.25.19-.5.38-.74.57Z"/>
    <path class="cls-2" d="m102.31,46.41c-.89,3.08-1.69,6.17-2.39,9.3-.72,3.22-1.33,6.47-1.83,9.73-.53,3.48-.92,6.99-1.19,10.5-.04.46-.07.92-.1,1.38-.03.42.38.77.77.77.44,0,.74-.35.77-.77.24-3.47.6-7.01,1.08-10.38.47-3.27,1.05-6.52,1.75-9.75.68-3.12,1.45-6.22,2.32-9.29.86-3.06,1.81-6.09,2.8-9.11,1.02-3.07,2.09-6.13,3.19-9.17.14-.4.29-.79.43-1.19.08-.23,0-.49-.14-.67-.16-.21-.35-.27-.61-.3-5.69-.72-11.39-1.3-17.11-1.74-5.71-.44-11.43-.75-17.16-.94-3.23-.11-6.45-.18-9.68-.22-.36,0-.63.25-.74.57-.55,1.5-1.1,3.06-1.29,4.66-.05.41.39.77.77.77.46,0,.72-.36.77-.77-.05.4,0,.02.02-.09.05-.29.12-.58.19-.86.22-.92.51-1.82.83-2.71-.18,0-.36,0-.54,0,.25-.19.5-.38.74-.57-.07.19-.14.38-.21.58,5.55.08,11.1.25,16.65.54,5.72.3,11.44.71,17.14,1.27,2.86.28,5.72.6,8.57.95.1-.28.2-.57.31-.85.25.33.5.65.74.98-.35-.04-.7-.09-1.05-.13-1.01,2.8-2.01,5.61-2.96,8.44-1.01,3.02-1.97,6.05-2.86,9.11Z"/>
  </g>
</svg>