<?xml version="1.0" encoding="UTF-8"?>
<svg id="Capa_1" data-name="Capa 1" xmlns="http://www.w3.org/2000/svg" width="80" height="80" viewBox="0 0 80 80">
  <defs>
    <style>
      .cls-1 {
        fill: #6f0318;
      }

      .cls-1, .cls-2, .cls-3, .cls-4 {
        stroke-width: 0px;
      }

      .cls-2 {
        fill: #42250d;
      }

      .cls-3 {
        fill: #ed4c4c;
      }

      .cls-4 {
        fill: #eeceb5;
      }
    </style>
  </defs>
  <path class="cls-4" d="m54.07,40.32c-1.07.92-2.5,1.83-3.66,2.64-2.66,1.87-5.33,3.74-7.99,5.61,0,1.26.08,2.49.22,3.74,5.22-1.6,10.4-3.33,15.54-5.18,0,0-.32-2.87,0-4.95l-4.11-1.87Z"/>
  <g>
    <path class="cls-2" d="m43.94,51.94s0-.01,0-.02c0-.03,0-.06-.01-.08,0-.06-.01-.11-.02-.17-.01-.12-.02-.24-.03-.36-.02-.25-.03-.5-.04-.74-.02-.5-.02-1-.03-1.5,0-.27-.01-.54-.02-.8,0-.16-.13-.31-.3-.3-.16,0-.31.13-.3.3.05.99.02,1.99.08,2.98.02.29.05.58.09.87.02.16.23.26.37.21.17-.06.23-.2.21-.37-.02-.04,0-.04,0-.02Z"/>
    <path class="cls-2" d="m43.94,51.95s0,0,0,0c0,0,0,0,0,.01,0,0,0,0,0,0Z"/>
    <polygon class="cls-2" points="43.94 51.95 43.94 51.95 43.94 51.96 43.94 51.95"/>
    <path class="cls-2" d="m43.94,51.94s-.01-.02,0,.02c0,0,0,0,0,0,0,0,0,0,0-.01Z"/>
  </g>
  <path class="cls-2" d="m42.68,51.43c.28-.09.56-.19.84-.28.08-.03.13-.11.11-.19-.02-.07-.11-.13-.19-.11-.28.09-.56.19-.84.28-.08.03-.13.11-.11.19.02.07.11.13.19.11Z"/>
  <path class="cls-2" d="m42.72,50.63c.27-.07.53-.14.8-.22.08-.02.13-.11.11-.19-.03-.08-.1-.13-.19-.11-.27.07-.53.14-.8.22-.08.02-.13.11-.11.19.03.08.1.13.19.11Z"/>
  <path class="cls-2" d="m42.61,49.81c.26-.08.52-.16.78-.23.08-.02.13-.11.11-.19-.02-.08-.11-.13-.19-.11-.26.08-.52.16-.78.23-.08.02-.13.11-.11.19.02.08.11.13.19.11Z"/>
  <path class="cls-2" d="m43.41,50.37c1.48-.47,2.96-.95,4.44-1.42,1.43-.46,2.86-.91,4.28-1.37.85-.27,1.71-.54,2.56-.82.19-.06.11-.35-.08-.29-1.48.47-2.96.95-4.44,1.42-1.43.46-2.86.91-4.28,1.37-.85.27-1.71.54-2.56.82-.19.06-.11.35.08.29Z"/>
  <path class="cls-2" d="m44.89,50.55c1.57-.5,3.13-.99,4.7-1.49,1.57-.5,3.13-.99,4.7-1.49.88-.28,1.75-.55,2.63-.83.19-.06.11-.35-.08-.29-1.57.5-3.13.99-4.7,1.49-1.57.5-3.13.99-4.7,1.49-.88.28-1.75.55-2.63.83-.19.06-.11.35.08.29Z"/>
  <path class="cls-2" d="m45.62,48.92c1.55-.48,3.11-.97,4.66-1.45,1.55-.48,3.11-.97,4.66-1.45.88-.27,1.76-.55,2.63-.82.19-.06.11-.35-.08-.29-1.55.48-3.11.97-4.66,1.45s-3.11.97-4.66,1.45c-.88.27-1.76.55-2.63.82-.19.06-.11.35.08.29Z"/>
  <path class="cls-1" d="m42.77,54.13c.84-.14,1.64-.43,2.43-.73.75-.27,1.49-.55,2.24-.82,3.71-1.36,7.42-2.72,11.13-4.09,1.1-.4,2.2-.81,3.18-1.45-1.29-.37-2.51-.95-3.61-1.71.03.68.05,1.36.08,2.05-5.28,1.52-10.52,3.18-15.71,5l.25,1.76Z"/>
  <path class="cls-1" d="m60.54,35.8v-1.9s-6.96,4.8-11.55,7.96c-6.77,4.66-8.47,6.67-8.47,6.67-.45,4.61.74,7.96.74,7.96,5.25-1.76,20.87-7.97,20.87-7.97,0,0-.05-.67-.32-1.25,0,0-13.96,5.21-19.21,6.98,0,0-.41-3.06-.14-5.71,0,0,14.55-10.35,18.07-12.73Z"/>
  <path class="cls-1" d="m60.54,33.9c-3.66-1.83-22.21-9.64-23.34-10.4,0,0-16.5,10.74-18.4,12.23,0,0-2.17,2.65.07,8.14,7.39,4.16,20.84,11.83,22.39,12.61-.12-.78-.17-1.42-.29-2.19-.22-1.37-.44-2.75-.47-4.15-.01-.58,0-1.15.06-1.73l19.98-14.52Z"/>
  <g>
    <path class="cls-2" d="m41.06,53.46s0,0,0,0c0,0,0,0,0-.01,0-.06.02.12,0,.02Z"/>
    <path class="cls-2" d="m40.85,48.85s.08-.09.12-.13c0-.06.01-.13.02-.19l-.13.32Z"/>
    <path class="cls-2" d="m44.55,45.64s0,0,0,0c0,0,.01,0,.02-.01.05-.04-.07.06-.02.02Z"/>
    <path class="cls-2" d="m60.77,34.3c-.23-.13-.46-.26-.69-.39v.87c.21-.15.43-.29.64-.44.02-.01.03-.02.05-.03Z"/>
    <path class="cls-2" d="m61.67,48.42s0,0,0,0c0-.02,0-.05,0-.05,0,0,0,.01,0,.02,0,.01,0,.02,0,.03Z"/>
    <path class="cls-2" d="m61.67,48.42s0,0,0,0c0,0,0,.02,0,.03,0-.01,0-.03,0-.04Z"/>
    <path class="cls-2" d="m41.15,56.05c.19.11.37.21.56.32-.05-.15-.1-.3-.15-.46,0,0-.02,0-.02,0-.13.04-.26.09-.39.13Z"/>
    <path class="cls-2" d="m61.66,48.36s0,.03,0,.05c0,0,0,0,0,0,0,.01,0,.03,0,.04,0-.01,0-.02,0-.03,0,.03,0,.07,0,.1.11-.15.22-.29.33-.44-.13.05-.25.1-.38.15,0,0,0,0,0,0,0,.04.02.09.02.13Z"/>
    <path class="cls-2" d="m62.22,47.06s0,.02.01.03c0,0,0-.02-.01-.03Z"/>
    <path class="cls-2" d="m61.45,47.56s-.02-.04-.03-.06c-.11-.23-.06-.48.16-.62,0,0,.02-.01.03-.02-.3.11-.6.22-.9.33l.75.4s0-.02-.01-.04Z"/>
    <path class="cls-2" d="m62.01,46.85c-1.23-.66-2.46-1.32-3.68-1.98-.21-.11-.51-.06-.62.16-.11.21-.06.5.16.62.95.51,1.9,1.02,2.86,1.53.3-.11.6-.22.9-.33.11-.06.26-.06.39,0Z"/>
    <path class="cls-2" d="m42.49,53.8c.19.15.38.29.58.44-.03-.2-.05-.41-.07-.61-.04.01-.07.02-.11.04-.13.05-.26.09-.4.13Z"/>
    <path class="cls-2" d="m61,33.9c0-.33-.39-.59-.69-.39-.38.26-.77.53-1.15.79-.96.66-1.91,1.32-2.87,1.98-1.24.86-2.48,1.71-3.72,2.57-1.25.86-2.49,1.72-3.74,2.57-1.44.99-2.86,2-4.25,3.05-.92.7-1.83,1.42-2.71,2.17-.46.39-.9.79-1.33,1.21-.09.09-.18.19-.27.28-.02.02-.04.04-.06.06,0,0,0,0-.01.01,0,0,0,0,0,0-.13.15-.13.33-.15.52-.15,1.74-.09,3.48.17,5.21.13.87.3,1.73.57,2.57.01.04.02.08.04.11.08.22.31.4.56.32.61-.2,1.21-.42,1.81-.63.75-.27,1.51-.55,2.26-.83.85-.32,1.71-.64,2.56-.96.91-.34,1.81-.69,2.72-1.04.91-.35,1.82-.7,2.73-1.05.87-.34,1.73-.67,2.6-1.01.77-.3,1.55-.61,2.32-.91.64-.25,1.27-.5,1.91-.75.44-.17.89-.35,1.33-.53.21-.08.41-.16.62-.24,0,0,.02,0,.03-.01.18-.07.35-.23.33-.44-.04-.5-.16-.98-.36-1.44.03.08.04.16.03.24-.03.19-.15.31-.33.38,0,0-.02,0-.02,0-.12.05-.24.09-.36.14,0,0,0,0,0,0,.04.12.06.25.09.37.13-.05.25-.1.38-.15-.11.15-.22.29-.33.44,0-.03,0-.07,0-.1,0-.04,0-.06,0-.06,0-.04-.01-.09-.02-.13,0,0,0,0,0,0-.02,0-.03.01-.05.02-.39.15-.78.31-1.17.46-.59.23-1.18.47-1.77.7-.74.29-1.49.58-2.23.87-.85.33-1.7.66-2.54.99-.9.35-1.81.7-2.71,1.05-.91.35-1.82.7-2.73,1.05-.87.33-1.75.66-2.62.99-.78.29-1.56.58-2.34.87-.63.23-1.27.46-1.91.68.04.15.09.31.15.46-.19-.11-.37-.21-.56-.32.13-.04.26-.09.39-.13,0,0,.02,0,.02,0-.09-.31-.16-.63-.23-.94-.05-.24-.1-.49-.14-.73-.02-.14-.05-.28-.07-.42-.01-.07-.02-.14-.03-.22,0-.03,0-.07-.01-.1,0-.02,0-.03,0-.05,0,0,0,0,0,0,.01.1-.01-.08,0-.02,0,0,0,0,0,.01-.09-.69-.15-1.39-.17-2.09-.03-.88,0-1.76.07-2.64-.04.04-.08.08-.12.13l.13-.32c0,.06-.01.13-.02.19.04-.04.07-.07.11-.11.25-.26.51-.5.78-.74.48-.44.98-.86,1.49-1.27.35-.29.7-.57,1.06-.84.05-.04.1-.07.14-.11,0,0,.01,0,.02-.01,0,0,0,0,0,0-.05.04.07-.06.02-.02,0,0-.01,0-.02.01.02-.02.05-.04.07-.05.11-.08.21-.16.32-.24.23-.17.45-.34.68-.51,1.12-.83,2.26-1.64,3.41-2.44.96-.66,1.93-1.33,2.89-1.99.99-.68,1.98-1.37,2.97-2.05.91-.63,1.82-1.25,2.72-1.88.69-.48,1.39-.96,2.08-1.44.13-.09.26-.18.38-.26v-.87c.23.13.46.26.69.39-.02.01-.03.02-.05.03-.21.15-.43.29-.64.44v.79c.08-.05.15-.1.23-.15-.08.13-.15.26-.23.39v-.24c-.46.32-.93.63-1.39.96-.75.52-1.5,1.04-2.25,1.57-.89.62-1.78,1.25-2.67,1.87-.94.67-1.89,1.33-2.83,2-.92.65-1.85,1.31-2.77,1.96-.83.59-1.66,1.17-2.48,1.76-.65.46-1.31.93-1.96,1.39-.41.29-.81.58-1.22.86-.08.06-.17.12-.25.18,0,0-.01,0-.02.01-.17.12-.22.26-.24.45-.04.45-.07.89-.08,1.34-.04,1.36.04,2.74.19,4.09,0,.07.02.15.03.22.02.15.06.26.18.36.11.08.26.13.4.08,1.31-.44,2.62-.9,3.92-1.37,1.63-.58,3.25-1.17,4.88-1.76,1.62-.59,3.23-1.18,4.84-1.78,1.27-.47,2.53-.94,3.8-1.41.46-.17.92-.34,1.38-.51-.02-.07-.04-.14-.07-.21,0-.02-.01-.03-.02-.05l-.75-.4c-.15.06-.31.11-.46.17-1.2.45-2.41.89-3.61,1.34-1.59.59-3.18,1.17-4.77,1.75-1.64.6-3.28,1.2-4.92,1.78-1.32.47-2.64.94-3.96,1.39.02.2.05.41.07.61-.19-.15-.38-.29-.58-.44.13-.04.26-.09.4-.13.04-.01.07-.02.11-.04-.12-1.11-.17-2.22-.16-3.33,0-.51.03-1.02.07-1.52-.07.05-.14.1-.2.14.08-.13.15-.26.23-.39,0,.08-.01.17-.02.25.09-.07.19-.13.28-.2.44-.31.87-.62,1.31-.93.65-.46,1.3-.92,1.95-1.39.79-.56,1.59-1.13,2.38-1.69.88-.62,1.75-1.24,2.63-1.86.89-.63,1.78-1.26,2.68-1.89.84-.59,1.68-1.19,2.53-1.78.73-.51,1.46-1.02,2.19-1.53.55-.38,1.1-.76,1.65-1.14.18-.12.42-.24.49-.46.04-.12.02-.29.02-.41v-1.61Z"/>
    <path class="cls-2" d="m42.7,48.92c.07-.05.14-.1.2-.14,0-.08.01-.17.02-.25-.08.13-.15.26-.23.39Z"/>
    <path class="cls-2" d="m61.45,47.56s0-.01,0-.03c0,0,0,.02,0,.03Z"/>
    <path class="cls-2" d="m60.31,35.41c-.08.05-.15.1-.23.15v.24c.08-.13.15-.26.23-.39Z"/>
    <path class="cls-2" d="m61.7,46.83s-.05.02-.08.03c0,0-.02.01-.03.02-.22.14-.27.39-.16.62.01.02.03.08.03.06,0,0,0-.02,0-.03,0,.01,0,.02,0,.03,0,.01,0,.02.01.04.04.02.08.04.12.07.04-.28.07-.56.11-.83Z"/>
    <path class="cls-2" d="m62.22,47.06s0-.02,0-.02c-.04-.09-.12-.15-.21-.19.01,0,.03.02.04.02.08.04.14.11.17.19Z"/>
    <path class="cls-2" d="m61.62,46.86s.05-.02.08-.03c-.04.28-.07.56-.11.83-.04-.02-.08-.04-.12-.07,0,.02.01.03.02.05.02.07.05.14.07.21.12-.05.24-.09.36-.14,0,0,.02,0,.02,0,.17-.06.3-.19.33-.38.01-.08,0-.16-.03-.24,0,0,0-.02-.01-.03-.04-.08-.1-.14-.17-.19-.01,0-.03-.02-.04-.02-.12-.05-.27-.05-.39,0Z"/>
  </g>
  <path class="cls-2" d="m42.56,48.96c.24-.01.47-.2.46-.46-.01-.24-.2-.47-.46-.46-.65.03-1.31.06-1.96.1-.24.01-.47.2-.46.46.01.24.2.47.46.46.65-.03,1.31-.06,1.96-.1Z"/>
  <g>
    <path class="cls-2" d="m58.59,42.48s0-.05.01-.07c0-.02,0-.03,0-.05,0,.04-.01.08-.02.12Z"/>
    <path class="cls-2" d="m57.74,42.06c-.02.13-.04.26-.05.39.09.04.18.08.26.12-.07-.17-.14-.34-.21-.51Z"/>
    <path class="cls-2" d="m58.06,46.69c-.12.04-.24.09-.36.13,0,.1.02.21.03.31.11-.15.22-.29.33-.44Z"/>
    <path class="cls-2" d="m52.02,48.8c-1.01.34-2.01.68-3.02,1.01-1.01.33-2.03.66-3.04.98-1.02.32-2.03.64-3.05.96-.13.04-.25.08-.38.12-.23.07-.4.32-.32.56.07.23.32.39.56.32,1.02-.31,2.04-.63,3.05-.95,1.02-.32,2.03-.65,3.05-.98,1.01-.33,2.02-.67,3.02-1,1.01-.34,2.02-.69,3.03-1.04,1.01-.35,2.01-.71,3.02-1.07.12-.04.25-.09.37-.13.1-.03.17-.08.24-.16.06-.07.11-.18.1-.28-.04-.34-.06-.69-.09-1.03-.05-.77-.07-1.55-.05-2.32.01-.46.04-.91.1-1.37,0,.02,0,.05-.01.07,0-.04.01-.08.02-.12,0,.02,0,.03,0,.05,0-.04.01-.07.02-.11.02-.11.02-.2-.02-.3-.04-.08-.1-.18-.19-.22-.46-.21-.92-.42-1.39-.63-.74-.34-1.47-.67-2.21-1.01-.17-.08-.34-.15-.51-.23-.11-.05-.23-.08-.35-.05-.11.03-.22.11-.27.21-.11.2-.07.52.16.62.46.21.92.42,1.39.63.74.34,1.47.67,2.21,1.01.08.04.16.07.25.11.02-.13.03-.26.05-.39.07.17.14.34.21.51-.09-.04-.18-.08-.26-.12-.09.76-.12,1.52-.1,2.28.01.67.05,1.34.1,2.01,0,.02,0,.05,0,.07.12-.04.24-.09.36-.13-.11.15-.22.29-.33.44-.01-.1-.02-.21-.03-.31-.88.32-1.77.63-2.65.94-1.01.35-2.02.7-3.03,1.04Z"/>
  </g>
  <path class="cls-2" d="m45.68,46.6c.64-.19,1.27-.4,1.9-.62.9-.3,1.8-.61,2.69-.91,1-.34,2-.68,3-1.02.92-.31,1.84-.62,2.77-.91.68-.22,1.36-.44,2.05-.62.06-.02.12-.03.17-.05.15-.04.26-.22.21-.37-.05-.16-.21-.25-.37-.21-.65.17-1.29.37-1.92.57-.9.29-1.8.59-2.7.89-1,.34-2,.68-3,1.02-.92.31-1.84.63-2.75.93-.67.23-1.35.45-2.02.66-.06.02-.11.03-.17.05-.15.05-.26.21-.21.37.05.15.21.26.37.21Z"/>
  <path class="cls-3" d="m47.96,49.03c.39.17.72.44.97.78.13-1-.18-2.04-.84-2.8l-1.66.51c.6.72.88,1.7.77,2.63.37-.27.65-.67.76-1.12Z"/>
  <g>
    <path class="cls-2" d="m47.89,49.16c.06.03.11.05.17.08.02-.06.04-.12.05-.17-.07.03-.15.06-.22.09Z"/>
    <path class="cls-2" d="m48.78,49.8c.09-.03.19-.05.28-.08-.08-.11-.16-.21-.26-.3,0,.13-.01.25-.03.37Z"/>
    <path class="cls-2" d="m46.55,47.41c-.05-.06-.16-.05-.21,0-.06.06-.05.15,0,.21.57.7.83,1.62.72,2.52-.01.11.14.19.23.13.36-.26.63-.62.78-1.03-.06-.03-.11-.06-.17-.08.07-.03.15-.06.22-.09-.02.06-.03.12-.05.17.29.16.55.37.75.64.09.13.26.08.28-.08.13-1.04-.2-2.11-.89-2.91-.05-.06-.16-.05-.21,0-.06.06-.05.15,0,.21.55.64.84,1.48.82,2.32.09.09.18.19.26.3-.09.03-.19.05-.28.08.02-.12.02-.25.03-.37-.22-.22-.48-.41-.77-.53-.09-.04-.2-.01-.22.09-.08.3-.23.58-.44.8,0,.12-.01.24-.02.36-.08-.04-.15-.09-.23-.13.09-.07.18-.14.25-.23.02-.86-.29-1.71-.83-2.38Z"/>
    <path class="cls-2" d="m47.13,50.01c.08.04.15.09.23.13.01-.12.02-.24.02-.36-.08.08-.16.16-.25.23Z"/>
  </g>
  <path class="cls-2" d="m43.59,48.7c1.55-.58,3.12-1.13,4.7-1.65,1.54-.5,3.09-.97,4.66-1.4.91-.25,1.83-.49,2.75-.72.19-.05.11-.34-.08-.29-1.61.4-3.21.84-4.8,1.31-1.55.46-3.1.96-4.63,1.49-.89.31-1.78.63-2.67.96-.08.03-.13.1-.11.19.02.07.11.13.19.11Z"/>
  <path class="cls-2" d="m48.69,46.25c1.22-.36,2.43-.73,3.65-1.09,1.22-.36,2.43-.73,3.65-1.09.69-.21,1.38-.41,2.06-.62.19-.06.11-.35-.08-.29-1.22.36-2.43.73-3.65,1.09-1.22.36-2.43.73-3.65,1.09-.69.21-1.38.41-2.06.62-.19.06-.11.35.08.29Z"/>
  <g>
    <path class="cls-2" d="m40.82,55.65s-.02.01-.02.02c.12-.1.07-.05.02-.02Z"/>
    <path class="cls-2" d="m41.78,54.72s-.08.09-.12.14c-.08.09-.15.17-.23.25-.14.14-.29.28-.45.41-.05.04-.11.09-.16.13.04-.03.1-.08-.02.02,0,0,.02-.01.02-.02,0,0-.02.01-.02.02,0,0-.02.01-.03.02.08.05.17.1.25.14h-.46c.05-.03.11-.07.16-.11.02-.01.03-.02.05-.04-.08-.04-.16-.09-.23-.13-.39-.22-.78-.44-1.18-.66-.47-.27-.95-.53-1.42-.8-.41-.23-.82-.46-1.24-.69-.2-.11-.4-.23-.6-.34,0,0,0,0,0,0-.21-.12-.51-.06-.62.16-.11.22-.06.5.16.62.16.09.33.18.49.27.39.22.78.44,1.18.66.47.27.95.53,1.42.8.41.23.82.46,1.24.69.2.11.4.23.6.34,0,0,0,0,0,0,.14.08.32.09.46,0,.19-.12.37-.27.55-.41.34-.28.65-.59.92-.94.2-.25.37-.51.51-.8.05-.11.08-.23.05-.35-.03-.11-.11-.22-.21-.27-.2-.11-.51-.07-.62.16-.11.23-.24.44-.39.64,0,.01-.03.03-.04.05,0,0,.02-.02.04-.05-.02.02-.04.05-.05.07Z"/>
    <path class="cls-2" d="m41.79,54.7s0,.01,0,0h0Z"/>
    <path class="cls-2" d="m40.56,55.83h.46c-.08-.05-.17-.1-.25-.14-.02.01-.03.02-.05.04-.05.04-.1.07-.16.11Z"/>
  </g>
  <path class="cls-2" d="m31.25,51.4c.67.38,1.35.75,2.02,1.13.15.09.31.17.46.26.21.12.51.06.62-.16.11-.22.06-.5-.16-.62-.42-.24-.85-.47-1.27-.71-.67-.38-1.35-.75-2.02-1.13-.15-.09-.31-.17-.46-.26-.21-.12-.51-.06-.62.16-.11.22-.06.5.16.62.42.24.85.47,1.27.71Z"/>
  <path class="cls-2" d="m25.59,48.18c.71.4,1.43.8,2.14,1.21.16.09.33.18.49.28.21.12.51.06.62-.16.11-.22.06-.5-.16-.62-.45-.25-.9-.51-1.35-.76-.71-.4-1.43-.8-2.14-1.21-.16-.09-.33-.18-.49-.28-.21-.12-.51-.06-.62.16-.11.22-.06.5.16.62.45.25.9.51,1.35.76Z"/>
  <g>
    <polygon class="cls-2" points="19.12 36.07 19.13 36.06 19.13 36.06 19.12 36.07"/>
    <path class="cls-2" d="m18.38,38.26s0-.01,0-.02c0-.02,0-.03,0,.02Z"/>
    <path class="cls-2" d="m18.77,36.73s0,0,0-.01c0,0,0-.02.01-.03,0,0-.05.1-.02.04Z"/>
    <path class="cls-2" d="m19.13,36.06s0,0,0,0c0,0,0,0,0,0Z"/>
    <path class="cls-2" d="m19.13,36.06s0,0,.02-.02c-.01.01-.02.02-.02.02,0,0,.01-.01.02-.02.01-.01.02-.03.03-.04-.02.03-.04.05-.05.06Z"/>
    <path class="cls-2" d="m19.15,36.05s-.01.01-.02.02c0,0,0,0,0,0,0,0,0,0,0,0,0,0,0,0,.02-.02Z"/>
    <path class="cls-2" d="m18.37,38.29s0-.03,0-.05c0,0,0,.01,0,.02,0-.05,0-.04,0-.02.01-.07.02-.15.03-.22.02-.14.05-.27.08-.41.06-.24.13-.48.21-.72.02-.04.03-.09.05-.13,0-.02.01-.03.02-.05,0,0,0,0,0,.01-.03.07.01-.03.02-.04,0,0,0,.02-.01.03.04-.08.07-.16.11-.24.06-.11.12-.22.19-.33.02-.03.05-.07.07-.1,0,0-.02.01-.02.02,0,0,0,0,0,0,0,0,0,0,0,0-.05.05-.03.03,0,0,0,0,0,0,0,0,0,0,.03-.03.05-.06,0,0,0-.01.01-.02,0,0,0,.01-.01.02,0,.01-.02.03-.03.04,0,0,.02-.02.03-.02.21-.16.42-.31.64-.46.68-.48,1.38-.95,2.07-1.42,2.02-1.37,4.06-2.71,6.1-4.06,2.05-1.35,4.11-2.7,6.17-4.05.73-.48,1.45-.95,2.18-1.42.29-.19.59-.37.88-.57-.08-.05-.17-.09-.25-.15h.46s-.03.02-.05.03c-.05.04-.11.08-.17.12.18.1.37.18.56.27.53.25,1.07.5,1.61.74,1.65.74,3.3,1.47,4.96,2.19,2.01.88,4.03,1.75,6.04,2.63,1.9.83,3.8,1.66,5.7,2.5,1.32.58,2.64,1.16,3.93,1.79.1.05.19.09.29.14.22.11.49.06.62-.16.12-.2.06-.51-.16-.62-1.18-.59-2.4-1.12-3.61-1.66-1.85-.83-3.72-1.64-5.58-2.45-2.02-.88-4.05-1.76-6.07-2.64-1.72-.75-3.44-1.5-5.15-2.27-.94-.42-1.91-.81-2.81-1.31-.04-.02-.08-.04-.11-.07-.13-.09-.33-.08-.46,0-.33.22-.66.43-1,.65-.85.56-1.71,1.12-2.56,1.67-1.18.77-2.36,1.54-3.54,2.32-1.3.85-2.59,1.7-3.89,2.56-1.2.8-2.4,1.59-3.6,2.4-.92.61-1.83,1.23-2.74,1.86-.28.2-.56.39-.84.6-.19.14-.36.27-.49.47-.59.9-.83,2.04-.9,3.1-.06,1,.06,2.01.28,2.99.14.63.34,1.25.57,1.86.09.24.16.55.39.7.04.03.09.05.13.07,1.05.59,2.11,1.19,3.16,1.78.1.05.19.11.29.16.51.29.97-.5.46-.79-1.05-.59-2.09-1.18-3.14-1.77-.11-.06-.21-.12-.32-.18.03.07.05.13.08.2-.07-.09-.14-.18-.21-.27.04.02.09.05.13.07-.64-1.64-1.06-3.39-.87-5.16,0-.04,0-.07.01-.11Z"/>
    <path class="cls-2" d="m19.31,43.76c-.03-.07-.05-.13-.08-.2-.04-.02-.09-.05-.13-.07.07.09.14.18.21.27Z"/>
    <path class="cls-2" d="m37.44,23.9h-.46c.08.05.16.1.25.15.06-.04.11-.08.17-.12.02-.01.03-.02.05-.03Z"/>
  </g>
  <g>
    <path class="cls-2" d="m39.97,47.86s-.03-.01-.05-.02c-.02,0-.04-.02-.06-.03.04.02.07.03.11.05Z"/>
    <path class="cls-2" d="m39.43,48.61c.35.15.7.29,1.05.43.1.04.26,0,.35-.05.09-.06.18-.16.21-.27.03-.12.02-.25-.05-.35-.07-.11-.16-.16-.27-.21-.27-.11-.53-.21-.8-.32.02,0,.03.01.05.02-.04-.02-.07-.03-.11-.05.02,0,.04.02.06.03-.85-.36-1.67-.78-2.48-1.22-.34-.19-.69-.38-1.03-.56-.21-.11-.51-.06-.62.16-.11.21-.06.5.16.62,1.14.63,2.28,1.26,3.47,1.77Z"/>
  </g>
  <path class="cls-2" d="m33.75,45.42c.29.17.57.33.86.49.21.11.51.06.62-.16.11-.21.06-.5-.16-.62-1.13-.62-2.23-1.3-3.34-1.95-.35-.2-.7-.4-1.05-.6-.21-.12-.51-.06-.62.16-.11.21-.06.5.16.62,1.19.66,2.35,1.38,3.53,2.06Z"/>
  <path class="cls-2" d="m27.7,41.96c.29.16.57.32.86.48.21.12.51.06.62-.16.11-.21.06-.5-.16-.62-1.07-.6-2.14-1.2-3.2-1.8-.27-.15-.54-.31-.81-.46-.21-.12-.51-.06-.62.16-.11.22-.06.5.16.62,1.05.6,2.1,1.19,3.15,1.78Z"/>
  <path class="cls-2" d="m19.59,37.1c.69.39,1.38.79,2.07,1.18.51.29,1.03.59,1.54.88.21.12.51.06.62-.16.11-.22.06-.5-.16-.62-.86-.49-1.71-.98-2.57-1.47-.54-.31-1.08-.62-1.62-.93-.13-.07-.26-.15-.39-.22-.21-.11-.51-.06-.62.16-.11.21-.06.5.16.62.32.18.64.36.96.54Z"/>
  <path class="cls-1" d="m22.26,40.32c-.55,1.87-.56,4.24.4,5.77.4.63,1.07,1.09,1.76,1.02-.6-2.49-.4-5.29.36-7.73-.88-1.27-2.08-.56-2.53.94Z"/>
  <path class="cls-1" d="m28.05,43.5c-.55,1.87-.56,4.24.4,5.77.4.63,1.07,1.09,1.76,1.02-.6-2.49-.4-5.29.36-7.73-.88-1.27-2.08-.56-2.53.94Z"/>
  <path class="cls-1" d="m33.77,47.01c-.55,1.87-.56,4.24.4,5.77.4.63,1.07,1.09,1.76,1.02-.6-2.49-.4-5.29.36-7.73-.88-1.27-2.08-.56-2.53.94Z"/>
  <g>
    <path class="cls-2" d="m23.54,46.39s-.03-.03-.05-.04c-.01,0,0,0,.05.04Z"/>
    <polygon class="cls-2" points="23.85 46.57 23.85 46.56 23.85 46.56 23.85 46.57"/>
    <path class="cls-2" d="m23.16,46.01s.02.03,0,0c-.01-.02-.05-.06,0,0Z"/>
    <path class="cls-2" d="m22.78,45.35s-.02-.04-.02-.06c0-.02-.02-.03-.02-.05l.05.11Z"/>
    <path class="cls-2" d="m22.41,43.98s0-.03,0-.05c0-.02,0-.05-.01-.07,0,.04.01.08.02.12Z"/>
    <path class="cls-2" d="m24.65,42.09s0-.05,0-.07c0-.02,0-.04,0-.05,0,.04-.01.08-.02.12Z"/>
    <path class="cls-2" d="m22.41,41.83s0-.05.01-.07c0-.02,0-.03,0-.05,0,.04-.01.08-.02.12Z"/>
    <path class="cls-2" d="m23.79,46.54s.04.02.06.03c0,0,0,0,0,0-.02,0-.04-.01-.06-.02Z"/>
    <path class="cls-2" d="m23.85,46.57s.03.01.05.02c-.02,0-.03-.01-.05-.02,0,0,0,0,0,0,0,0,0,0,0,0Z"/>
    <path class="cls-2" d="m25.14,39.09s.01.02.02.03c0-.01-.01-.02-.02-.03Z"/>
    <path class="cls-2" d="m23.85,46.57c.04.22.09.44.14.66.15-.19.29-.38.44-.58-.09,0-.18,0-.27,0,.02,0,.04,0,.06.01-.04,0-.08-.01-.12-.02.02,0,.04,0,.06,0-.1-.02-.2-.05-.3-.08.02,0,.03.01.05.02-.02,0-.03-.01-.05-.02Z"/>
    <path class="cls-2" d="m24.22,46.66s-.04,0-.06-.01c-.02,0-.04,0-.06,0,.04,0,.08.01.12.02Z"/>
    <path class="cls-2" d="m25.24,39.41c.01-.09,0-.19-.06-.27,0,0-.01-.02-.02-.02.06.09.09.19.08.29Z"/>
    <path class="cls-2" d="m24.35,39.55s0,0,0,0c0,0,0,0,0,.01.06.07-.07-.09-.02-.02Z"/>
    <path class="cls-2" d="m24.11,39.3s.01.01.02.02c0,0,0,0,.01,0,.06.04-.09-.08-.03-.03Z"/>
    <path class="cls-2" d="m24.91,38.94c-.25-.06-.48.07-.56.32-.02.07-.04.14-.06.21,0,0,0,0,.01.01.02.02.04.05.06.07,0,0,0,0,0,0-.05-.07.07.09.02.02,0,0,0,0,0-.01.01.02.02.03.04.05.07.1.15.18.27.21.11.03.25.02.35-.05.12-.08.21-.21.23-.36,0-.1-.02-.2-.08-.29,0-.01-.01-.02-.02-.03-.06-.08-.14-.13-.23-.16Z"/>
    <path class="cls-2" d="m24.65,45.86s0-.04,0-.05c0-.02,0-.04,0-.07,0,.04.01.08.02.12Z"/>
    <path class="cls-2" d="m23.9,39.19s.04.02.06.03c.02,0,.04.01.05.02-.04-.02-.07-.03-.11-.05Z"/>
    <path class="cls-2" d="m24.66,42.03s0,.05,0,.07c0-.04.01-.08.02-.12,0,.02,0,.04,0,.05.12-.86.31-1.7.56-2.53,0-.03.01-.05.02-.08-.02.14-.11.28-.23.36-.1.06-.24.08-.35.05-.12-.03-.2-.11-.27-.21-.01-.02-.02-.03-.04-.05-.02-.02-.04-.05-.06-.07,0,0,0,0-.01-.01-.28.94-.47,1.91-.57,2.88-.11,1.02-.12,2.06-.02,3.08.04.38.09.75.16,1.13,0,0,0,0,0,0,.1.04.2.06.3.08.09,0,.18,0,.27,0-.15.19-.29.38-.44.58-.05-.22-.1-.44-.14-.66-.02,0-.04-.02-.06-.03.02,0,.04.02.06.02,0,0,0,0,0,0-.06-.03-.12-.06-.17-.09-.04-.02-.07-.04-.11-.07-.02-.01-.06-.05-.08-.06.02.01.03.03.05.04-.05-.04-.06-.05-.05-.04-.12-.1-.23-.21-.33-.33,0,0,0,0,0,0,.01.02.03.04,0,0-.04-.06,0-.01,0,0,0,0-.01-.01-.01-.02-.03-.04-.06-.08-.08-.12-.04-.07-.08-.14-.12-.21-.07-.12-.13-.25-.19-.38,0,.02.01.04.02.06l-.05-.11s.02.03.02.05c-.18-.44-.29-.89-.36-1.36,0,.02,0,.03,0,.05,0-.04-.01-.08-.02-.12,0,.02,0,.05.01.07-.09-.72-.08-1.45.01-2.17,0,.02,0,.05-.01.07,0-.04.01-.08.02-.12,0,.02,0,.03,0,.05.04-.28.09-.56.16-.84.06-.28.14-.55.24-.81,0,.02-.02.04-.02.06l.05-.11s-.01.03-.02.05c.05-.11.11-.22.17-.33.03-.06.07-.11.11-.16,0-.01.02-.03.03-.04,0,0,0,0,0,0,0,0,0,.01-.01.02-.01.01-.02.03-.02.03,0,0,0-.01.02-.03.02-.02.04-.05.01-.02.01-.01.03-.03.03-.03.04-.04.08-.09.12-.13.02-.02.04-.04.07-.06,0,0-.01,0-.02,0,0,0,.1-.08.05-.04-.01,0-.02.02-.03.03,0,0,0,0,0,0,.04-.03.08-.06.12-.08.03-.02.06-.03.08-.04-.02,0-.03.01-.05.02.04-.02.07-.03.11-.05-.02,0-.04.02-.06.03.05-.02.1-.03.15-.04-.02,0-.04,0-.06,0,.04,0,.08-.01.12-.02-.02,0-.04,0-.06.01.04,0,.08,0,.12,0-.02,0-.04,0-.06-.01.04,0,.08.01.12.02-.02,0-.04,0-.06,0,.04,0,.09.02.13.04-.02,0-.04-.02-.06-.03.04.02.07.03.11.05-.02,0-.04-.01-.05-.02.04.02.08.04.11.06.02.01.04.03.06.04,0,0-.01-.01-.02-.02-.06-.05.1.07.03.03,0,0,0,0-.01,0,0,0,.01.01.02.02.05.04.1.09.14.14.02-.07.04-.14.06-.21.08-.24.31-.37.56-.32.09.02.17.08.23.16-.25-.35-.57-.64-.99-.77-.38-.11-.78-.05-1.12.14-.35.19-.63.51-.83.85-.23.38-.37.81-.48,1.24-.22.87-.32,1.79-.29,2.69.03.9.2,1.79.58,2.61.19.4.43.78.76,1.08.38.35.84.57,1.35.63.1.01.2,0,.3,0,.15-.02.26-.06.36-.18.09-.12.12-.25.08-.4-.09-.39-.17-.78-.22-1.18,0,.02,0,.04,0,.05,0-.04-.01-.08-.02-.12,0,.02,0,.04,0,.07-.13-.98-.14-1.98-.07-2.97.02-.27.05-.54.09-.81Z"/>
    <path class="cls-2" d="m23.76,39.17s.04,0,.06.01c.02,0,.04,0,.06,0-.04,0-.08-.01-.12-.02Z"/>
    <path class="cls-2" d="m22.79,40.16s.02-.04.02-.06c0-.02.01-.04.02-.05l-.05.11Z"/>
    <path class="cls-2" d="m23.11,39.58s0-.01.01-.02c.02-.03,0,0-.01.02Z"/>
    <path class="cls-2" d="m23.38,39.32s-.05.04-.05.04c0,0,.01,0,.02,0,0,0,0,0,0,0,.01,0,.02-.02.03-.03Z"/>
    <path class="cls-2" d="m23.64,39.18s.04,0,.06,0c.02,0,.04,0,.06-.01-.04,0-.08.01-.12.02Z"/>
    <path class="cls-2" d="m23.5,39.24s.03-.01.05-.02c.02,0,.04-.02.06-.03-.04.02-.07.03-.11.05Z"/>
  </g>
  <g>
    <path class="cls-2" d="m29.32,49.58s-.03-.03-.05-.04c-.01,0,0,0,.05.04Z"/>
    <polygon class="cls-2" points="29.64 49.76 29.63 49.75 29.63 49.75 29.64 49.76"/>
    <path class="cls-2" d="m28.94,49.2s.02.03,0,0c-.01-.02-.05-.06,0,0Z"/>
    <path class="cls-2" d="m28.19,47.17s0-.03,0-.05c0-.02,0-.05-.01-.07,0,.04.01.08.02.12Z"/>
    <path class="cls-2" d="m28.57,48.54s-.02-.04-.02-.06c0-.02-.02-.03-.02-.05.02.04.03.07.05.11Z"/>
    <path class="cls-2" d="m29.57,49.73s.04.02.06.03c0,0,0,0,0,0-.02,0-.04-.01-.06-.02Z"/>
    <path class="cls-2" d="m28.19,45.02s0-.05.01-.07c0-.02,0-.03,0-.05,0,.04-.01.08-.02.12Z"/>
    <path class="cls-2" d="m29.63,49.76l.05.02s-.03-.01-.05-.02c0,0,0,0,0,0,0,0,0,0,0,0Z"/>
    <path class="cls-2" d="m30.93,42.28s.01.02.02.03c0-.01-.01-.02-.02-.03Z"/>
    <path class="cls-2" d="m30.44,45.28s0-.05,0-.07c0-.02,0-.04,0-.05,0,.04-.01.08-.02.12Z"/>
    <path class="cls-2" d="m29.63,49.76c.04.22.09.44.14.66l.44-.58c-.09,0-.18,0-.27,0,.02,0,.04,0,.06.01-.04,0-.08-.01-.12-.02.02,0,.04,0,.06,0-.1-.02-.2-.05-.3-.08.02,0,.03.01.05.02l-.05-.02Z"/>
    <path class="cls-2" d="m30,49.85s-.04,0-.06-.01c-.02,0-.04,0-.06,0,.04,0,.08.01.12.02Z"/>
    <path class="cls-2" d="m29.89,42.49s.01.01.02.02c0,0,0,0,.01,0,.06.04-.09-.08-.03-.03Z"/>
    <path class="cls-2" d="m28.58,43.35s.02-.04.02-.06c0-.02.01-.04.02-.05-.02.04-.03.07-.05.11Z"/>
    <path class="cls-2" d="m31.03,42.6c.01-.09,0-.19-.06-.27,0,0-.01-.02-.02-.02.06.09.09.19.08.29Z"/>
    <path class="cls-2" d="m30.14,42.74s0,0,0,0c0,0,0,0,0,.01.06.07-.07-.09-.02-.02Z"/>
    <path class="cls-2" d="m29.68,42.38s.04.02.06.03c.02,0,.04.01.05.02-.04-.02-.07-.03-.11-.05Z"/>
    <path class="cls-2" d="m30.45,45.21s0,.05,0,.07c0-.04.01-.08.02-.12,0,.02,0,.04,0,.05.12-.86.31-1.7.56-2.53,0-.03.01-.05.02-.08-.02.14-.11.28-.23.36-.1.06-.24.08-.35.05-.12-.03-.2-.11-.27-.21-.01-.02-.02-.03-.04-.05-.02-.02-.04-.05-.06-.07,0,0,0,0-.01-.01-.28.94-.47,1.91-.57,2.88-.11,1.02-.12,2.06-.02,3.08.04.38.09.75.16,1.13,0,0,0,0,0,0,.1.04.2.06.3.08.09,0,.18,0,.27,0l-.44.58c-.05-.22-.1-.44-.14-.66-.02,0-.04-.02-.06-.03.02,0,.04.02.06.02,0,0,0,0,0,0-.06-.03-.12-.06-.17-.09-.04-.02-.07-.04-.11-.07-.02-.01-.06-.05-.08-.06.02.01.03.03.05.04-.05-.04-.06-.05-.05-.04-.12-.1-.23-.21-.33-.33,0,0,0,0,0,0,.01.02.03.04,0,0-.04-.06,0-.01,0,0,0,0-.01-.01-.01-.02-.03-.04-.06-.08-.08-.12-.04-.07-.08-.14-.12-.21-.07-.12-.13-.25-.19-.38,0,.02.01.04.02.06-.02-.04-.03-.07-.05-.11,0,.02.02.03.02.05-.18-.44-.29-.89-.36-1.36,0,.02,0,.03,0,.05,0-.04-.01-.08-.02-.12,0,.02,0,.05.01.07-.09-.72-.08-1.45.01-2.17,0,.02,0,.05-.01.07,0-.04.01-.08.02-.12,0,.02,0,.03,0,.05.04-.28.09-.56.16-.84.06-.28.14-.55.24-.81,0,.02-.02.04-.02.06.02-.04.03-.07.05-.11,0,.02-.01.04-.02.05.05-.11.11-.22.17-.33.03-.06.07-.11.11-.16,0-.01.02-.03.03-.04,0,0,0,0,0,0,0,0,0,.01-.01.02-.01.01-.02.03-.02.03,0,0,0-.01.02-.03.02-.02.04-.05.01-.02.01-.01.03-.03.03-.03.04-.04.08-.09.12-.13.02-.02.04-.04.07-.06,0,0-.01,0-.02,0,0,0,.1-.08.05-.04-.01,0-.02.02-.03.03,0,0,0,0,0,0,.04-.03.08-.06.12-.08.03-.02.06-.03.08-.04-.02,0-.03.01-.05.02.04-.02.07-.03.11-.05-.02,0-.04.02-.06.03.05-.02.1-.03.15-.04-.02,0-.04,0-.06,0,.04,0,.08-.01.12-.02-.02,0-.04,0-.06.01.04,0,.08,0,.12,0-.02,0-.04,0-.06-.01.04,0,.08.01.12.02-.02,0-.04,0-.06,0,.04,0,.09.02.13.04-.02,0-.04-.02-.06-.03.04.02.07.03.11.05-.02,0-.04-.01-.05-.02.04.02.08.04.11.06.02.01.04.03.06.04,0,0-.01-.01-.02-.02-.06-.05.1.07.03.03,0,0,0,0-.01,0,0,0,.01.01.02.02.05.04.1.09.14.14.02-.07.04-.14.06-.21.08-.24.31-.37.56-.32.09.02.17.08.23.16-.25-.35-.57-.64-.99-.77-.38-.11-.78-.05-1.12.14-.35.19-.63.51-.83.85-.23.38-.37.81-.48,1.24-.22.87-.32,1.79-.29,2.69.03.9.2,1.79.58,2.61.19.4.43.78.76,1.08.38.35.84.57,1.35.63.1.01.2,0,.3,0,.15-.02.26-.06.36-.18.09-.12.12-.25.08-.4-.09-.39-.17-.78-.22-1.18,0,.02,0,.04,0,.05,0-.04-.01-.08-.02-.12,0,.02,0,.04,0,.07-.13-.98-.14-1.98-.07-2.97.02-.27.05-.54.09-.81Z"/>
    <path class="cls-2" d="m30.44,49.05s0-.04,0-.05c0-.02,0-.04,0-.07,0,.04.01.08.02.12Z"/>
    <path class="cls-2" d="m30.69,42.13c-.25-.06-.48.07-.56.32-.02.07-.04.14-.06.21,0,0,0,0,.01.01.02.02.04.05.06.07,0,0,0,0,0,0-.05-.07.07.09.02.02,0,0,0,0,0-.01.01.02.02.03.04.05.07.1.15.18.27.21.11.03.25.02.35-.05.12-.08.21-.21.23-.36,0-.1-.02-.2-.08-.29,0-.01-.01-.02-.02-.03-.06-.08-.14-.13-.23-.16Z"/>
    <path class="cls-2" d="m29.55,42.36s.04,0,.06.01c.02,0,.04,0,.06,0-.04,0-.08-.01-.12-.02Z"/>
    <path class="cls-2" d="m29.16,42.51s-.05.04-.05.04c0,0,.01,0,.02,0,0,0,0,0,0,0,.01,0,.02-.02.03-.03Z"/>
    <path class="cls-2" d="m28.9,42.77s0-.01.01-.02c.02-.03,0,0-.01.02Z"/>
    <path class="cls-2" d="m29.42,42.37s.04,0,.06,0c.02,0,.04,0,.06-.01-.04,0-.08.01-.12.02Z"/>
    <path class="cls-2" d="m29.29,42.43s.03-.01.05-.02c.02,0,.04-.02.06-.03-.04.02-.07.03-.11.05Z"/>
  </g>
  <g>
    <path class="cls-2" d="m34.67,52.7s.02.03,0,0c-.01-.02-.05-.06,0,0Z"/>
    <polygon class="cls-2" points="35.36 53.26 35.36 53.26 35.36 53.26 35.36 53.26"/>
    <path class="cls-2" d="m34.29,52.04s-.02-.04-.02-.06c0-.02-.02-.03-.02-.05.02.04.03.07.05.11Z"/>
    <path class="cls-2" d="m35.05,53.08s-.03-.03-.05-.04c-.01,0,0,0,.05.04Z"/>
    <path class="cls-2" d="m33.92,50.68s0-.03,0-.05c0-.02,0-.05-.01-.07,0,.04.01.08.02.12Z"/>
    <path class="cls-2" d="m33.92,48.53s0-.05.01-.07c0-.02,0-.03,0-.05,0,.04-.01.08-.02.12Z"/>
    <path class="cls-2" d="m35.3,53.24s.04.02.06.03c0,0,0,0,0,0-.02,0-.04-.01-.06-.02Z"/>
    <path class="cls-2" d="m35.73,53.36s-.04,0-.06-.01c-.02,0-.04,0-.06,0,.04,0,.08.01.12.02Z"/>
    <path class="cls-2" d="m36.16,48.79s0-.05,0-.07c0-.02,0-.04,0-.05,0,.04-.01.08-.02.12Z"/>
    <path class="cls-2" d="m35.36,53.26c.04.22.09.44.14.66.15-.19.29-.38.44-.58-.09,0-.18,0-.27,0,.02,0,.04,0,.06.01-.04,0-.08-.01-.12-.02.02,0,.04,0,.06,0-.1-.02-.2-.05-.3-.08.02,0,.03.01.05.02-.02,0-.03-.01-.05-.02Z"/>
    <path class="cls-2" d="m35.36,53.26s.03.01.05.02c-.02,0-.03-.01-.05-.02,0,0,0,0,0,0,0,0,0,0,0,0Z"/>
    <path class="cls-2" d="m36.65,45.79s.01.02.02.03c0-.01-.01-.02-.02-.03Z"/>
    <path class="cls-2" d="m36.17,48.72s0,.05,0,.07c0-.04.01-.08.02-.12,0,.02,0,.04,0,.05.12-.86.31-1.7.56-2.53,0-.03.01-.05.02-.08-.02.14-.11.28-.23.36-.1.06-.24.08-.35.05-.12-.03-.2-.11-.27-.21-.01-.02-.02-.03-.04-.05-.02-.02-.04-.05-.06-.07,0,0,0,0-.01-.01-.28.94-.47,1.91-.57,2.88-.11,1.02-.12,2.06-.02,3.08.04.38.09.75.16,1.13,0,0,0,0,0,0,.1.04.2.06.3.08.09,0,.18,0,.27,0-.15.19-.29.38-.44.58-.05-.22-.1-.44-.14-.66-.02,0-.04-.02-.06-.03.02,0,.04.02.06.02,0,0,0,0,0,0-.06-.03-.12-.06-.17-.09-.04-.02-.07-.04-.11-.07-.02-.01-.06-.05-.08-.06.02.01.03.03.05.04-.05-.04-.06-.05-.05-.04-.12-.1-.23-.21-.33-.33,0,0,0,0,0,0,.01.02.03.04,0,0-.04-.06,0-.01,0,0,0,0-.01-.01-.01-.02-.03-.04-.06-.08-.08-.12-.04-.07-.08-.14-.12-.21-.07-.12-.13-.25-.19-.38,0,.02.01.04.02.06-.02-.04-.03-.07-.05-.11,0,.02.02.03.02.05-.18-.44-.29-.89-.36-1.36,0,.02,0,.03,0,.05,0-.04-.01-.08-.02-.12,0,.02,0,.05.01.07-.09-.72-.08-1.45.01-2.17,0,.02,0,.05-.01.07,0-.04.01-.08.02-.12,0,.02,0,.03,0,.05.04-.28.09-.56.16-.84.06-.28.14-.55.24-.81,0,.02-.02.04-.02.06l.05-.11s-.01.03-.02.05c.05-.11.11-.22.17-.33.03-.06.07-.11.11-.16,0-.01.02-.03.03-.04,0,0,0,0,0,0,0,0,0,.01-.01.02-.01.01-.02.03-.02.03,0,0,0-.01.02-.03.02-.02.04-.05.01-.02.01-.01.03-.03.03-.03.04-.04.08-.09.12-.13.02-.02.04-.04.07-.06,0,0-.01,0-.02,0,0,0,.1-.08.05-.04-.01,0-.02.02-.03.03,0,0,0,0,0,0,.04-.03.08-.06.12-.08.03-.02.06-.03.08-.04-.02,0-.03.01-.05.02.04-.02.07-.03.11-.05-.02,0-.04.02-.06.03.05-.02.1-.03.15-.04-.02,0-.04,0-.06,0,.04,0,.08-.01.12-.02-.02,0-.04,0-.06.01.04,0,.08,0,.12,0-.02,0-.04,0-.06-.01.04,0,.08.01.12.02-.02,0-.04,0-.06,0,.04,0,.09.02.13.04-.02,0-.04-.02-.06-.03.04.02.07.03.11.05-.02,0-.04-.01-.05-.02.04.02.08.04.11.06.02.01.04.03.06.04,0,0-.01-.01-.02-.02-.06-.05.1.07.03.03,0,0,0,0-.01,0,0,0,.01.01.02.02.05.04.1.09.14.14.02-.07.04-.14.06-.21.08-.24.31-.37.56-.32.09.02.17.08.23.16-.25-.35-.57-.64-.99-.77-.38-.11-.78-.05-1.12.14-.35.19-.63.51-.83.85-.23.38-.37.81-.48,1.24-.22.87-.32,1.79-.29,2.69.03.9.2,1.79.58,2.61.19.4.43.78.76,1.08.38.35.84.57,1.35.63.1.01.2,0,.3,0,.15-.02.26-.06.36-.18.09-.12.12-.25.08-.4-.09-.39-.17-.78-.22-1.18,0,.02,0,.04,0,.05,0-.04-.01-.08-.02-.12,0,.02,0,.04,0,.07-.13-.98-.14-1.98-.07-2.97.02-.27.05-.54.09-.81Z"/>
    <path class="cls-2" d="m36.75,46.11c.01-.09,0-.19-.06-.27,0,0-.01-.02-.02-.02.06.09.09.19.08.29Z"/>
    <path class="cls-2" d="m35.41,45.88s.04.02.06.03c.02,0,.04.01.05.02-.04-.02-.07-.03-.11-.05Z"/>
    <path class="cls-2" d="m34.3,46.86s.02-.04.02-.06c0-.02.01-.04.02-.05l-.05.11Z"/>
    <path class="cls-2" d="m35.86,46.24s0,0,0,0c0,0,0,0,0,.01.06.07-.07-.09-.02-.02Z"/>
    <path class="cls-2" d="m36.42,45.63c-.25-.06-.48.07-.56.32-.02.07-.04.14-.06.21,0,0,0,0,.01.01.02.02.04.05.06.07,0,0,0,0,0,0-.05-.07.07.09.02.02,0,0,0,0,0-.01.01.02.02.03.04.05.07.1.15.18.27.21.11.03.25.02.35-.05.12-.08.21-.21.23-.36,0-.1-.02-.2-.08-.29,0-.01-.01-.02-.02-.03-.06-.08-.14-.13-.23-.16Z"/>
    <path class="cls-2" d="m36.16,52.55s0-.04,0-.05c0-.02,0-.04,0-.07,0,.04.01.08.02.12Z"/>
    <path class="cls-2" d="m35.62,46s.01.01.02.02c0,0,0,0,.01,0,.06.04-.09-.08-.03-.03Z"/>
    <path class="cls-2" d="m34.62,46.28s0-.01.01-.02c.02-.03,0,0-.01.02Z"/>
    <path class="cls-2" d="m34.89,46.02s-.05.04-.05.04c0,0,.01,0,.02,0,0,0,0,0,0,0,.01,0,.02-.02.03-.03Z"/>
    <path class="cls-2" d="m35.27,45.86s.04,0,.06.01c.02,0,.04,0,.06,0-.04,0-.08-.01-.12-.02Z"/>
    <path class="cls-2" d="m35.02,45.93s.03-.01.05-.02c.02,0,.04-.02.06-.03-.04.02-.07.03-.11.05Z"/>
    <path class="cls-2" d="m35.15,45.88s.04,0,.06,0c.02,0,.04,0,.06-.01-.04,0-.08.01-.12.02Z"/>
  </g>
  <g>
    <path class="cls-2" d="m36.77,26.69c.06.03.13.06.19.09.04-.03.08-.06.12-.09h-.31Z"/>
    <path class="cls-2" d="m24.25,35.91c.13-.09.26-.19.39-.28-.13-.08-.26-.16-.39-.24v.52Z"/>
    <path class="cls-2" d="m41.19,44.62c-.06-.03-.12-.06-.18-.09-.04.03-.08.06-.13.09-.13.1-.2.26-.11.42.03.06.09.1.15.13.33.12.6-.37.26-.54Z"/>
    <path class="cls-2" d="m30.23,39.58c2.23,1.22,4.49,2.39,6.76,3.55,1.3.67,2.6,1.34,3.9,2.01.01,0,.03.01.04.02-.06-.03-.12-.07-.15-.13-.09-.15-.02-.32.11-.42.04-.03.08-.06.13-.09-2.24-1.16-4.49-2.3-6.72-3.47-2.21-1.16-4.42-2.33-6.58-3.58-1.03-.6-2.06-1.21-3.07-1.84-.13.09-.26.19-.39.28v-.52c.13.08.26.16.39.24,1.53-1.11,3.06-2.21,4.6-3.31,1.68-1.21,3.37-2.41,5.05-3.62.89-.64,1.78-1.28,2.67-1.93-.06-.03-.13-.06-.19-.09h.31s-.08.06-.12.09c2.2,1,4.41,1.98,6.63,2.94,2.39,1.04,4.79,2.07,7.19,3.1,1.26.54,2.52,1.08,3.78,1.63.15-.11.3-.22.45-.33v.52c-.15-.06-.3-.13-.45-.19-1.69,1.26-3.39,2.52-5.08,3.78-1.8,1.34-3.61,2.69-5.41,4.03-1.01.76-2.03,1.51-3.04,2.27.06.03.12.06.18.09.33.17.06.66-.26.54.09.04.19.04.26-.02,1.84-1.37,3.69-2.74,5.53-4.12,1.8-1.34,3.61-2.69,5.41-4.03,1.06-.79,2.11-1.57,3.17-2.36.16-.12.23-.42,0-.52-2.46-1.07-4.93-2.13-7.4-3.19-2.35-1.01-4.69-2.03-7.02-3.06-1.27-.56-2.54-1.13-3.81-1.71-.09-.04-.21-.07-.31,0-1.66,1.2-3.32,2.4-4.99,3.59-1.68,1.21-3.37,2.41-5.05,3.62-.93.67-1.86,1.34-2.78,2.01-.18.13-.21.39,0,.52,2.05,1.3,4.15,2.51,6.28,3.67Z"/>
    <path class="cls-2" d="m54.99,34.11c-.15.11-.3.22-.45.33.15.06.3.13.45.19v-.52Z"/>
  </g>
  <g>
    <path class="cls-2" d="m50.05,33.88c-.05-.11-.09-.23-.14-.34-.03.09-.06.17-.07.26.06.03.13.06.19.08,0,0,.01,0,.02,0Z"/>
    <path class="cls-2" d="m51.13,35.24c-.13.09-.26.19-.39.28.13.09.26.18.39.24v-.52Z"/>
    <path class="cls-2" d="m39.39,42.19c-.06-.03-.11-.06-.17-.09-.05.03-.09.06-.14.09h.31Z"/>
    <path class="cls-2" d="m38.79,29.01c.06.03.13.05.19.08.04-.03.08-.05.12-.08h-.31Z"/>
    <path class="cls-2" d="m28.95,36.42c.04.14.07.28.11.42.04-.1.08-.19.12-.29-.07-.04-.14-.08-.21-.11,0,0-.01,0-.02,0Z"/>
    <path class="cls-2" d="m42.13,41.79c.08-.01.16-.02.23-.03-.04-.02-.09-.03-.14-.05-.03.02-.06.04-.08.07,0,0-.01,0-.02.01Z"/>
    <path class="cls-2" d="m36.12,28.67s0,0,0,0c0,0,0,0,0,0Z"/>
    <path class="cls-2" d="m38.07,28.9s0,0-.01,0c0,0,0,0,.01,0Z"/>
    <path class="cls-2" d="m51.07,35s.04.03,0,0h0Z"/>
    <path class="cls-2" d="m36.85,28.84s-.01,0-.02,0c0,0,0,0,.02,0Z"/>
    <path class="cls-2" d="m37.66,29.03s0,0,0,0c0,0,0,0,0,0Z"/>
    <path class="cls-2" d="m37.48,29.03s-.01,0-.02,0c-.02,0-.01,0,.02,0Z"/>
    <path class="cls-2" d="m50.43,33.92s0,.02,0,0h0Z"/>
    <path class="cls-2" d="m28.71,35.97s0-.01,0,0h0Z"/>
    <path class="cls-2" d="m50.49,34.32s.02.05,0,0h0Z"/>
    <path class="cls-2" d="m39.96,42.4s.01,0,.02-.01c-.01,0-.02,0-.02.01Z"/>
    <path class="cls-2" d="m50.67,34.61s-.01-.01-.02-.02c.01.02.02.02.02.02Z"/>
    <path class="cls-2" d="m50.43,33.92s0-.03,0,0c0,0,0,0,0-.01.02-.07.03-.14.06-.21.04-.11-.03-.29-.14-.34-.37-.16-.75-.32-1.12-.49-.9-.39-1.79-.77-2.69-1.16-1.08-.47-2.17-.94-3.25-1.41-.94-.41-1.88-.81-2.82-1.22-.45-.2-.91-.39-1.36-.59,0,0-.01,0-.02,0-.09-.04-.21-.07-.31,0-.12.09-.25.17-.38.25-.06.04-.13.07-.2.1-.04.02-.07.03-.11.05,0,0-.04.02-.05.02,0,0,0,0,.01,0-.02,0-.02,0-.01,0-.07.03-.14.05-.21.07-.04.01-.08.02-.11.03,0,0-.06,0-.07.01,0,0,.01,0,0,0,0,0,0,0,0,0-.02,0-.06,0-.07,0-.04,0-.07,0-.11,0,0,0-.01,0-.01,0,0,0,.01,0,.02,0-.03,0-.03,0-.02,0-.01,0-.02,0-.04,0-.03,0-.07-.01-.1-.02-.15-.04-.29-.09-.43-.14,0,0-.05-.02-.06-.03,0,0,.01,0,.02,0-.02,0-.02,0-.02,0-.03-.01-.05-.02-.08-.04-.05-.02-.1-.05-.16-.07-.05-.02-.1-.05-.15-.07,0,0-.01,0-.02,0,.05.03.1.07.13.12.09.15.03.32-.11.42-.04.03-.09.06-.13.09.29.14.6.27.92.34.54.11,1.05-.09,1.51-.36.08-.05.16-.09.23-.15-.06-.03-.13-.05-.19-.08h.31s-.08.05-.12.08c.31.13.62.27.94.4.9.39,1.79.77,2.69,1.16,1.08.47,2.17.94,3.25,1.41.94.41,1.88.81,2.82,1.22.31.13.62.27.93.4.08.04.16.07.25.11.01-.08.04-.17.07-.26.05.11.09.23.14.34,0,0-.01,0-.02,0-.06-.02-.13-.05-.19-.08-.11.68.35,1.31.9,1.72.13-.09.26-.19.39-.28v.52c-.13-.07-.26-.15-.39-.24l-.51.37c-.72.52-1.43,1.04-2.15,1.56-.87.63-1.73,1.26-2.6,1.89-.75.55-1.5,1.09-2.25,1.64l-.75.54c-.09.06-.18.12-.27.19.05.01.09.03.14.05-.08.01-.16.02-.23.03,0,0,.01,0,.02-.01.03-.02.05-.04.08-.07-.98-.32-2.07-.17-2.95.35-.02.01-.04.02-.06.04.06.03.11.06.17.09h-.31s.09-.06.14-.09c-.29-.16-.58-.32-.88-.48-.83-.46-1.66-.92-2.49-1.37-1-.55-2-1.11-3.01-1.66-.87-.48-1.74-.96-2.62-1.45-.29-.16-.57-.32-.86-.47-.07-.04-.13-.08-.2-.11-.03.1-.07.2-.12.29-.04-.14-.07-.28-.11-.42,0,0,.01,0,.02,0,.07.03.14.07.21.11.18-.5.21-1.03-.01-1.54-.05-.12-.12-.23-.2-.33-.1.07-.21.15-.31.22v-.52c.12.08.22.19.31.3.81-.58,1.61-1.18,2.4-1.78.98-.75,1.96-1.49,2.95-2.22.66-.48,1.33-.95,2-1.42-.06-.03-.12-.06-.18-.09-.15-.08-.19-.28-.11-.42.02-.04.05-.07.08-.09-1.18.81-2.35,1.65-3.49,2.52-.91.69-1.81,1.39-2.73,2.07-.51.38-1.03.76-1.55,1.12-.18.13-.19.36-.03.5-.04-.04.07.05.03.02-.01,0-.02-.01-.03-.02,0,0,0,0,0,0,.03.03.06.06.09.09.02.02.04.05.06.07,0,0,0,0,.01.01,0,0,0,0,0-.01,0,0-.01-.01-.01-.01,0,0,0,0,.01.01.01.01.02.03,0,.01,0,0,0,.01,0,.01.05.07.09.14.12.21,0,.02.03.09,0,.01,0,.02.02.04.02.06.02.05.03.09.04.14,0,.03.01.05.02.08,0,0,0,.03,0,.04,0,0,0-.02,0-.03,0,.04,0,.04,0,.03,0,.05,0,.1,0,.15,0,.06,0,.12,0,.19,0,.01,0,.02,0,.02,0-.01,0,.02,0,0,0,0,0,0,0,.02,0,.04-.01.07-.02.11-.03.15-.08.3-.15.43-.07.15-.05.33.11.42.35.19.7.38,1.05.58.83.46,1.66.92,2.49,1.37,1,.55,2,1.11,3.01,1.66.87.48,1.74.96,2.62,1.45.42.23.84.48,1.26.7,0,0,.01,0,.02,0,.09.05.22.07.31,0,.12-.09.25-.17.39-.24.06-.03.12-.06.18-.09,0,0,0,0,.02-.01,0,0-.01,0-.02.01,0,0,.06-.03.08-.03.05-.02.1-.04.14-.05.19-.06.38-.11.58-.14.06,0,.02,0,.01,0,.03,0,.06,0,.09-.01.05,0,.11,0,.16-.01.12,0,.25,0,.37,0,.23.02.48.08.73.16.15.05.26.03.38-.05l1.67-1.21c.97-.71,1.95-1.42,2.92-2.13.95-.69,1.9-1.38,2.85-2.07.49-.36.98-.71,1.47-1.07,0,0,.01-.01.02-.02.17-.13.22-.41,0-.52-.08-.04-.15-.09-.22-.13-.03-.02-.06-.04-.1-.07-.02-.01-.04-.03-.06-.04,0,0,0,0,.01,0,0,0,0,0-.01,0-.08-.07-.16-.14-.24-.21-.04-.04-.07-.08-.11-.12-.01-.02-.03-.03-.04-.05,0,0,0,0-.02-.02,0,0,.01.01.02.02,0,0-.03-.05-.04-.05-.03-.05-.06-.09-.09-.14-.02-.03-.03-.06-.04-.08,0,0,0,0,0,0,.02.05-.02-.04,0,0,0,0,0,0,0,0-.02-.06-.04-.12-.05-.18,0-.01,0-.05,0-.05,0,.01,0,.02,0,.03,0-.02,0-.03,0-.03,0-.02,0-.04,0-.06,0-.03,0-.06,0-.09,0,0,0-.01,0-.02Z"/>
    <path class="cls-2" d="m50.43,34.09s0,.01,0,.03c0-.01,0-.02,0-.03Z"/>
    <path class="cls-2" d="m28.32,34.88s.02.02.03.02c.04.03-.07-.06-.03-.02Z"/>
    <path class="cls-2" d="m28.71,35.59s0,.02,0,.03c0,.01,0,.01,0-.03Z"/>
    <path class="cls-2" d="m36.04,28.76c-.08.14-.04.34.11.42.06.03.12.06.18.09.04-.03.09-.06.13-.09.13-.09.2-.27.11-.42-.03-.05-.08-.09-.13-.12-.1-.05-.22-.04-.31.03,0,0,0,0,0,0-.03.02-.06.05-.08.09Z"/>
    <path class="cls-2" d="m36.43,28.64c-.09-.04-.2-.05-.29,0,0,0-.02.01-.03.02.09-.06.21-.07.31-.03Z"/>
    <path class="cls-2" d="m28.66,34.38v.52c.1-.07.21-.15.31-.22-.09-.12-.19-.22-.31-.3Z"/>
    <path class="cls-2" d="m28.48,35.04s0,0,0,.01c.01.01,0,0,0-.01Z"/>
  </g>
  <path class="cls-2" d="m52.38,34.45c0-.16-.13-.3-.3-.3-.16,0-.31.14-.3.3,0,.16.13.3.3.3.16,0,.31-.14.3-.3Z"/>
  <path class="cls-2" d="m41.21,43.04c0-.16-.13-.3-.3-.3-.16,0-.31.14-.3.3,0,.16.13.3.3.3.16,0,.31-.14.3-.3Z"/>
  <path class="cls-2" d="m37.54,27.93c0-.16-.13-.3-.3-.3-.16,0-.31.14-.3.3,0,.16.13.3.3.3.16,0,.31-.14.3-.3Z"/>
  <path class="cls-2" d="m27.19,35.49c0-.16-.13-.3-.3-.3-.16,0-.31.14-.3.3,0,.16.13.3.3.3.16,0,.31-.14.3-.3Z"/>
</svg>